%TF.GenerationSoftware,Altium Limited,Altium Designer,23.5.1 (21)*%
G04 Layer_Color=16711935*
%FSLAX45Y45*%
%MOMM*%
%TF.SameCoordinates,CA9C4AC4-C4BE-41B9-9754-440A126A42FF*%
%TF.FilePolarity,Negative*%
%TF.FileFunction,Soldermask,Bot*%
%TF.Part,Single*%
G01*
G75*
%TA.AperFunction,ComponentPad*%
%ADD25C,1.70320*%
G04:AMPARAMS|DCode=26|XSize=1.7032mm|YSize=1.7032mm|CornerRadius=0.2891mm|HoleSize=0mm|Usage=FLASHONLY|Rotation=180.000|XOffset=0mm|YOffset=0mm|HoleType=Round|Shape=RoundedRectangle|*
%AMROUNDEDRECTD26*
21,1,1.70320,1.12500,0,0,180.0*
21,1,1.12500,1.70320,0,0,180.0*
1,1,0.57820,-0.56250,0.56250*
1,1,0.57820,0.56250,0.56250*
1,1,0.57820,0.56250,-0.56250*
1,1,0.57820,-0.56250,-0.56250*
%
%ADD26ROUNDEDRECTD26*%
G04:AMPARAMS|DCode=27|XSize=1.7032mm|YSize=1.7032mm|CornerRadius=0.8516mm|HoleSize=0mm|Usage=FLASHONLY|Rotation=180.000|XOffset=0mm|YOffset=0mm|HoleType=Round|Shape=RoundedRectangle|*
%AMROUNDEDRECTD27*
21,1,1.70320,0.00000,0,0,180.0*
21,1,0.00000,1.70320,0,0,180.0*
1,1,1.70320,0.00000,0.00000*
1,1,1.70320,0.00000,0.00000*
1,1,1.70320,0.00000,0.00000*
1,1,1.70320,0.00000,0.00000*
%
%ADD27ROUNDEDRECTD27*%
%ADD28C,4.30320*%
%ADD29C,1.00320*%
%ADD30C,6.20320*%
D25*
X3856250Y1254000D02*
D03*
X3348250D02*
D03*
X3602250D02*
D03*
X3094250D02*
D03*
X4110250D02*
D03*
X5380250D02*
D03*
X5126250D02*
D03*
X4872250D02*
D03*
X4618250D02*
D03*
X4364250D02*
D03*
X3856250Y1000000D02*
D03*
Y746000D02*
D03*
X3602250Y1000000D02*
D03*
X3348250D02*
D03*
X3094250D02*
D03*
X3602250Y746000D02*
D03*
X3348250D02*
D03*
X4110250Y1000000D02*
D03*
X5126250D02*
D03*
X4872250D02*
D03*
X4618250D02*
D03*
X4364250D02*
D03*
X5126250Y746000D02*
D03*
X4872250D02*
D03*
X4618250D02*
D03*
X4364250D02*
D03*
X4110250D02*
D03*
X5370250D02*
D03*
X5644250D02*
D03*
X5898250D02*
D03*
X6132250D02*
D03*
X6406250D02*
D03*
X6650250D02*
D03*
X6904250D02*
D03*
X5370250Y1000000D02*
D03*
X5898250D02*
D03*
X6132250D02*
D03*
X6650250D02*
D03*
X6904250D02*
D03*
X5634250Y1254000D02*
D03*
X5898250D02*
D03*
X6132250D02*
D03*
X6650250D02*
D03*
X6904250D02*
D03*
X6406250Y1000000D02*
D03*
Y1254000D02*
D03*
D26*
X3094250Y746000D02*
D03*
D27*
X5644250Y1000000D02*
D03*
D28*
X7500000Y970000D02*
D03*
X2500000D02*
D03*
D29*
X993906Y1968295D02*
D03*
X654494D02*
D03*
X1064200Y2138000D02*
D03*
X993906Y2307706D02*
D03*
X824200Y1898000D02*
D03*
X584200Y2138000D02*
D03*
X654494Y2307706D02*
D03*
X824200Y2378000D02*
D03*
X993906Y768295D02*
D03*
X654494D02*
D03*
X1064200Y938000D02*
D03*
X993906Y1107706D02*
D03*
X584200Y938000D02*
D03*
X654494Y1107706D02*
D03*
X824200Y1178000D02*
D03*
Y698000D02*
D03*
D30*
Y2138000D02*
D03*
Y938000D02*
D03*
%TF.MD5,2c51fda5afafb52962cd4c680c50fef1*%
M02*
