%TF.GenerationSoftware,KiCad,Pcbnew,7.0.5+dfsg-2*%
%TF.CreationDate,2023-06-29T11:14:00+01:00*%
%TF.ProjectId,test_gerbers,74657374-5f67-4657-9262-6572732e6b69,rev?*%
%TF.SameCoordinates,Original*%
%TF.FileFunction,Legend,Top*%
%TF.FilePolarity,Positive*%
%FSLAX46Y46*%
G04 Gerber Fmt 4.6, Leading zero omitted, Abs format (unit mm)*
G04 Created by KiCad (PCBNEW 7.0.5+dfsg-2) date 2023-06-29 11:14:00*
%MOMM*%
%LPD*%
G01*
G04 APERTURE LIST*
%ADD10C,0.150000*%
%ADD11C,0.120000*%
G04 APERTURE END LIST*
D10*
X101693922Y-93649819D02*
X102265350Y-93649819D01*
X101979636Y-94649819D02*
X101979636Y-93649819D01*
X102979636Y-94602200D02*
X102884398Y-94649819D01*
X102884398Y-94649819D02*
X102693922Y-94649819D01*
X102693922Y-94649819D02*
X102598684Y-94602200D01*
X102598684Y-94602200D02*
X102551065Y-94506961D01*
X102551065Y-94506961D02*
X102551065Y-94126009D01*
X102551065Y-94126009D02*
X102598684Y-94030771D01*
X102598684Y-94030771D02*
X102693922Y-93983152D01*
X102693922Y-93983152D02*
X102884398Y-93983152D01*
X102884398Y-93983152D02*
X102979636Y-94030771D01*
X102979636Y-94030771D02*
X103027255Y-94126009D01*
X103027255Y-94126009D02*
X103027255Y-94221247D01*
X103027255Y-94221247D02*
X102551065Y-94316485D01*
X103408208Y-94602200D02*
X103503446Y-94649819D01*
X103503446Y-94649819D02*
X103693922Y-94649819D01*
X103693922Y-94649819D02*
X103789160Y-94602200D01*
X103789160Y-94602200D02*
X103836779Y-94506961D01*
X103836779Y-94506961D02*
X103836779Y-94459342D01*
X103836779Y-94459342D02*
X103789160Y-94364104D01*
X103789160Y-94364104D02*
X103693922Y-94316485D01*
X103693922Y-94316485D02*
X103551065Y-94316485D01*
X103551065Y-94316485D02*
X103455827Y-94268866D01*
X103455827Y-94268866D02*
X103408208Y-94173628D01*
X103408208Y-94173628D02*
X103408208Y-94126009D01*
X103408208Y-94126009D02*
X103455827Y-94030771D01*
X103455827Y-94030771D02*
X103551065Y-93983152D01*
X103551065Y-93983152D02*
X103693922Y-93983152D01*
X103693922Y-93983152D02*
X103789160Y-94030771D01*
X104122494Y-93983152D02*
X104503446Y-93983152D01*
X104265351Y-93649819D02*
X104265351Y-94506961D01*
X104265351Y-94506961D02*
X104312970Y-94602200D01*
X104312970Y-94602200D02*
X104408208Y-94649819D01*
X104408208Y-94649819D02*
X104503446Y-94649819D01*
X106122494Y-93697438D02*
X106027256Y-93649819D01*
X106027256Y-93649819D02*
X105884399Y-93649819D01*
X105884399Y-93649819D02*
X105741542Y-93697438D01*
X105741542Y-93697438D02*
X105646304Y-93792676D01*
X105646304Y-93792676D02*
X105598685Y-93887914D01*
X105598685Y-93887914D02*
X105551066Y-94078390D01*
X105551066Y-94078390D02*
X105551066Y-94221247D01*
X105551066Y-94221247D02*
X105598685Y-94411723D01*
X105598685Y-94411723D02*
X105646304Y-94506961D01*
X105646304Y-94506961D02*
X105741542Y-94602200D01*
X105741542Y-94602200D02*
X105884399Y-94649819D01*
X105884399Y-94649819D02*
X105979637Y-94649819D01*
X105979637Y-94649819D02*
X106122494Y-94602200D01*
X106122494Y-94602200D02*
X106170113Y-94554580D01*
X106170113Y-94554580D02*
X106170113Y-94221247D01*
X106170113Y-94221247D02*
X105979637Y-94221247D01*
X106979637Y-94602200D02*
X106884399Y-94649819D01*
X106884399Y-94649819D02*
X106693923Y-94649819D01*
X106693923Y-94649819D02*
X106598685Y-94602200D01*
X106598685Y-94602200D02*
X106551066Y-94506961D01*
X106551066Y-94506961D02*
X106551066Y-94126009D01*
X106551066Y-94126009D02*
X106598685Y-94030771D01*
X106598685Y-94030771D02*
X106693923Y-93983152D01*
X106693923Y-93983152D02*
X106884399Y-93983152D01*
X106884399Y-93983152D02*
X106979637Y-94030771D01*
X106979637Y-94030771D02*
X107027256Y-94126009D01*
X107027256Y-94126009D02*
X107027256Y-94221247D01*
X107027256Y-94221247D02*
X106551066Y-94316485D01*
X107455828Y-94649819D02*
X107455828Y-93983152D01*
X107455828Y-94173628D02*
X107503447Y-94078390D01*
X107503447Y-94078390D02*
X107551066Y-94030771D01*
X107551066Y-94030771D02*
X107646304Y-93983152D01*
X107646304Y-93983152D02*
X107741542Y-93983152D01*
X108074876Y-94649819D02*
X108074876Y-93649819D01*
X108074876Y-94030771D02*
X108170114Y-93983152D01*
X108170114Y-93983152D02*
X108360590Y-93983152D01*
X108360590Y-93983152D02*
X108455828Y-94030771D01*
X108455828Y-94030771D02*
X108503447Y-94078390D01*
X108503447Y-94078390D02*
X108551066Y-94173628D01*
X108551066Y-94173628D02*
X108551066Y-94459342D01*
X108551066Y-94459342D02*
X108503447Y-94554580D01*
X108503447Y-94554580D02*
X108455828Y-94602200D01*
X108455828Y-94602200D02*
X108360590Y-94649819D01*
X108360590Y-94649819D02*
X108170114Y-94649819D01*
X108170114Y-94649819D02*
X108074876Y-94602200D01*
X109360590Y-94602200D02*
X109265352Y-94649819D01*
X109265352Y-94649819D02*
X109074876Y-94649819D01*
X109074876Y-94649819D02*
X108979638Y-94602200D01*
X108979638Y-94602200D02*
X108932019Y-94506961D01*
X108932019Y-94506961D02*
X108932019Y-94126009D01*
X108932019Y-94126009D02*
X108979638Y-94030771D01*
X108979638Y-94030771D02*
X109074876Y-93983152D01*
X109074876Y-93983152D02*
X109265352Y-93983152D01*
X109265352Y-93983152D02*
X109360590Y-94030771D01*
X109360590Y-94030771D02*
X109408209Y-94126009D01*
X109408209Y-94126009D02*
X109408209Y-94221247D01*
X109408209Y-94221247D02*
X108932019Y-94316485D01*
X109836781Y-94649819D02*
X109836781Y-93983152D01*
X109836781Y-94173628D02*
X109884400Y-94078390D01*
X109884400Y-94078390D02*
X109932019Y-94030771D01*
X109932019Y-94030771D02*
X110027257Y-93983152D01*
X110027257Y-93983152D02*
X110122495Y-93983152D01*
X110408210Y-94602200D02*
X110503448Y-94649819D01*
X110503448Y-94649819D02*
X110693924Y-94649819D01*
X110693924Y-94649819D02*
X110789162Y-94602200D01*
X110789162Y-94602200D02*
X110836781Y-94506961D01*
X110836781Y-94506961D02*
X110836781Y-94459342D01*
X110836781Y-94459342D02*
X110789162Y-94364104D01*
X110789162Y-94364104D02*
X110693924Y-94316485D01*
X110693924Y-94316485D02*
X110551067Y-94316485D01*
X110551067Y-94316485D02*
X110455829Y-94268866D01*
X110455829Y-94268866D02*
X110408210Y-94173628D01*
X110408210Y-94173628D02*
X110408210Y-94126009D01*
X110408210Y-94126009D02*
X110455829Y-94030771D01*
X110455829Y-94030771D02*
X110551067Y-93983152D01*
X110551067Y-93983152D02*
X110693924Y-93983152D01*
X110693924Y-93983152D02*
X110789162Y-94030771D01*
X112455829Y-93983152D02*
X112455829Y-94792676D01*
X112455829Y-94792676D02*
X112408210Y-94887914D01*
X112408210Y-94887914D02*
X112360591Y-94935533D01*
X112360591Y-94935533D02*
X112265353Y-94983152D01*
X112265353Y-94983152D02*
X112122496Y-94983152D01*
X112122496Y-94983152D02*
X112027258Y-94935533D01*
X112455829Y-94602200D02*
X112360591Y-94649819D01*
X112360591Y-94649819D02*
X112170115Y-94649819D01*
X112170115Y-94649819D02*
X112074877Y-94602200D01*
X112074877Y-94602200D02*
X112027258Y-94554580D01*
X112027258Y-94554580D02*
X111979639Y-94459342D01*
X111979639Y-94459342D02*
X111979639Y-94173628D01*
X111979639Y-94173628D02*
X112027258Y-94078390D01*
X112027258Y-94078390D02*
X112074877Y-94030771D01*
X112074877Y-94030771D02*
X112170115Y-93983152D01*
X112170115Y-93983152D02*
X112360591Y-93983152D01*
X112360591Y-93983152D02*
X112455829Y-94030771D01*
X113312972Y-94602200D02*
X113217734Y-94649819D01*
X113217734Y-94649819D02*
X113027258Y-94649819D01*
X113027258Y-94649819D02*
X112932020Y-94602200D01*
X112932020Y-94602200D02*
X112884401Y-94506961D01*
X112884401Y-94506961D02*
X112884401Y-94126009D01*
X112884401Y-94126009D02*
X112932020Y-94030771D01*
X112932020Y-94030771D02*
X113027258Y-93983152D01*
X113027258Y-93983152D02*
X113217734Y-93983152D01*
X113217734Y-93983152D02*
X113312972Y-94030771D01*
X113312972Y-94030771D02*
X113360591Y-94126009D01*
X113360591Y-94126009D02*
X113360591Y-94221247D01*
X113360591Y-94221247D02*
X112884401Y-94316485D01*
X113789163Y-93983152D02*
X113789163Y-94649819D01*
X113789163Y-94078390D02*
X113836782Y-94030771D01*
X113836782Y-94030771D02*
X113932020Y-93983152D01*
X113932020Y-93983152D02*
X114074877Y-93983152D01*
X114074877Y-93983152D02*
X114170115Y-94030771D01*
X114170115Y-94030771D02*
X114217734Y-94126009D01*
X114217734Y-94126009D02*
X114217734Y-94649819D01*
X115074877Y-94602200D02*
X114979639Y-94649819D01*
X114979639Y-94649819D02*
X114789163Y-94649819D01*
X114789163Y-94649819D02*
X114693925Y-94602200D01*
X114693925Y-94602200D02*
X114646306Y-94506961D01*
X114646306Y-94506961D02*
X114646306Y-94126009D01*
X114646306Y-94126009D02*
X114693925Y-94030771D01*
X114693925Y-94030771D02*
X114789163Y-93983152D01*
X114789163Y-93983152D02*
X114979639Y-93983152D01*
X114979639Y-93983152D02*
X115074877Y-94030771D01*
X115074877Y-94030771D02*
X115122496Y-94126009D01*
X115122496Y-94126009D02*
X115122496Y-94221247D01*
X115122496Y-94221247D02*
X114646306Y-94316485D01*
X115551068Y-94649819D02*
X115551068Y-93983152D01*
X115551068Y-94173628D02*
X115598687Y-94078390D01*
X115598687Y-94078390D02*
X115646306Y-94030771D01*
X115646306Y-94030771D02*
X115741544Y-93983152D01*
X115741544Y-93983152D02*
X115836782Y-93983152D01*
X116598687Y-94649819D02*
X116598687Y-94126009D01*
X116598687Y-94126009D02*
X116551068Y-94030771D01*
X116551068Y-94030771D02*
X116455830Y-93983152D01*
X116455830Y-93983152D02*
X116265354Y-93983152D01*
X116265354Y-93983152D02*
X116170116Y-94030771D01*
X116598687Y-94602200D02*
X116503449Y-94649819D01*
X116503449Y-94649819D02*
X116265354Y-94649819D01*
X116265354Y-94649819D02*
X116170116Y-94602200D01*
X116170116Y-94602200D02*
X116122497Y-94506961D01*
X116122497Y-94506961D02*
X116122497Y-94411723D01*
X116122497Y-94411723D02*
X116170116Y-94316485D01*
X116170116Y-94316485D02*
X116265354Y-94268866D01*
X116265354Y-94268866D02*
X116503449Y-94268866D01*
X116503449Y-94268866D02*
X116598687Y-94221247D01*
X116932021Y-93983152D02*
X117312973Y-93983152D01*
X117074878Y-93649819D02*
X117074878Y-94506961D01*
X117074878Y-94506961D02*
X117122497Y-94602200D01*
X117122497Y-94602200D02*
X117217735Y-94649819D01*
X117217735Y-94649819D02*
X117312973Y-94649819D01*
X118027259Y-94602200D02*
X117932021Y-94649819D01*
X117932021Y-94649819D02*
X117741545Y-94649819D01*
X117741545Y-94649819D02*
X117646307Y-94602200D01*
X117646307Y-94602200D02*
X117598688Y-94506961D01*
X117598688Y-94506961D02*
X117598688Y-94126009D01*
X117598688Y-94126009D02*
X117646307Y-94030771D01*
X117646307Y-94030771D02*
X117741545Y-93983152D01*
X117741545Y-93983152D02*
X117932021Y-93983152D01*
X117932021Y-93983152D02*
X118027259Y-94030771D01*
X118027259Y-94030771D02*
X118074878Y-94126009D01*
X118074878Y-94126009D02*
X118074878Y-94221247D01*
X118074878Y-94221247D02*
X117598688Y-94316485D01*
X118932021Y-94649819D02*
X118932021Y-93649819D01*
X118932021Y-94602200D02*
X118836783Y-94649819D01*
X118836783Y-94649819D02*
X118646307Y-94649819D01*
X118646307Y-94649819D02*
X118551069Y-94602200D01*
X118551069Y-94602200D02*
X118503450Y-94554580D01*
X118503450Y-94554580D02*
X118455831Y-94459342D01*
X118455831Y-94459342D02*
X118455831Y-94173628D01*
X118455831Y-94173628D02*
X118503450Y-94078390D01*
X118503450Y-94078390D02*
X118551069Y-94030771D01*
X118551069Y-94030771D02*
X118646307Y-93983152D01*
X118646307Y-93983152D02*
X118836783Y-93983152D01*
X118836783Y-93983152D02*
X118932021Y-94030771D01*
X120598688Y-93983152D02*
X120598688Y-94649819D01*
X120170117Y-93983152D02*
X120170117Y-94506961D01*
X120170117Y-94506961D02*
X120217736Y-94602200D01*
X120217736Y-94602200D02*
X120312974Y-94649819D01*
X120312974Y-94649819D02*
X120455831Y-94649819D01*
X120455831Y-94649819D02*
X120551069Y-94602200D01*
X120551069Y-94602200D02*
X120598688Y-94554580D01*
X121027260Y-94602200D02*
X121122498Y-94649819D01*
X121122498Y-94649819D02*
X121312974Y-94649819D01*
X121312974Y-94649819D02*
X121408212Y-94602200D01*
X121408212Y-94602200D02*
X121455831Y-94506961D01*
X121455831Y-94506961D02*
X121455831Y-94459342D01*
X121455831Y-94459342D02*
X121408212Y-94364104D01*
X121408212Y-94364104D02*
X121312974Y-94316485D01*
X121312974Y-94316485D02*
X121170117Y-94316485D01*
X121170117Y-94316485D02*
X121074879Y-94268866D01*
X121074879Y-94268866D02*
X121027260Y-94173628D01*
X121027260Y-94173628D02*
X121027260Y-94126009D01*
X121027260Y-94126009D02*
X121074879Y-94030771D01*
X121074879Y-94030771D02*
X121170117Y-93983152D01*
X121170117Y-93983152D02*
X121312974Y-93983152D01*
X121312974Y-93983152D02*
X121408212Y-94030771D01*
X121884403Y-94649819D02*
X121884403Y-93983152D01*
X121884403Y-93649819D02*
X121836784Y-93697438D01*
X121836784Y-93697438D02*
X121884403Y-93745057D01*
X121884403Y-93745057D02*
X121932022Y-93697438D01*
X121932022Y-93697438D02*
X121884403Y-93649819D01*
X121884403Y-93649819D02*
X121884403Y-93745057D01*
X122360593Y-93983152D02*
X122360593Y-94649819D01*
X122360593Y-94078390D02*
X122408212Y-94030771D01*
X122408212Y-94030771D02*
X122503450Y-93983152D01*
X122503450Y-93983152D02*
X122646307Y-93983152D01*
X122646307Y-93983152D02*
X122741545Y-94030771D01*
X122741545Y-94030771D02*
X122789164Y-94126009D01*
X122789164Y-94126009D02*
X122789164Y-94649819D01*
X123693926Y-93983152D02*
X123693926Y-94792676D01*
X123693926Y-94792676D02*
X123646307Y-94887914D01*
X123646307Y-94887914D02*
X123598688Y-94935533D01*
X123598688Y-94935533D02*
X123503450Y-94983152D01*
X123503450Y-94983152D02*
X123360593Y-94983152D01*
X123360593Y-94983152D02*
X123265355Y-94935533D01*
X123693926Y-94602200D02*
X123598688Y-94649819D01*
X123598688Y-94649819D02*
X123408212Y-94649819D01*
X123408212Y-94649819D02*
X123312974Y-94602200D01*
X123312974Y-94602200D02*
X123265355Y-94554580D01*
X123265355Y-94554580D02*
X123217736Y-94459342D01*
X123217736Y-94459342D02*
X123217736Y-94173628D01*
X123217736Y-94173628D02*
X123265355Y-94078390D01*
X123265355Y-94078390D02*
X123312974Y-94030771D01*
X123312974Y-94030771D02*
X123408212Y-93983152D01*
X123408212Y-93983152D02*
X123598688Y-93983152D01*
X123598688Y-93983152D02*
X123693926Y-94030771D01*
X124932022Y-94649819D02*
X124932022Y-93649819D01*
X125503450Y-94649819D02*
X125074879Y-94078390D01*
X125503450Y-93649819D02*
X124932022Y-94221247D01*
X125932022Y-94649819D02*
X125932022Y-93983152D01*
X125932022Y-93649819D02*
X125884403Y-93697438D01*
X125884403Y-93697438D02*
X125932022Y-93745057D01*
X125932022Y-93745057D02*
X125979641Y-93697438D01*
X125979641Y-93697438D02*
X125932022Y-93649819D01*
X125932022Y-93649819D02*
X125932022Y-93745057D01*
X126979640Y-94554580D02*
X126932021Y-94602200D01*
X126932021Y-94602200D02*
X126789164Y-94649819D01*
X126789164Y-94649819D02*
X126693926Y-94649819D01*
X126693926Y-94649819D02*
X126551069Y-94602200D01*
X126551069Y-94602200D02*
X126455831Y-94506961D01*
X126455831Y-94506961D02*
X126408212Y-94411723D01*
X126408212Y-94411723D02*
X126360593Y-94221247D01*
X126360593Y-94221247D02*
X126360593Y-94078390D01*
X126360593Y-94078390D02*
X126408212Y-93887914D01*
X126408212Y-93887914D02*
X126455831Y-93792676D01*
X126455831Y-93792676D02*
X126551069Y-93697438D01*
X126551069Y-93697438D02*
X126693926Y-93649819D01*
X126693926Y-93649819D02*
X126789164Y-93649819D01*
X126789164Y-93649819D02*
X126932021Y-93697438D01*
X126932021Y-93697438D02*
X126979640Y-93745057D01*
X127360593Y-94364104D02*
X127836783Y-94364104D01*
X127265355Y-94649819D02*
X127598688Y-93649819D01*
X127598688Y-93649819D02*
X127932021Y-94649819D01*
X128265355Y-94649819D02*
X128265355Y-93649819D01*
X128265355Y-93649819D02*
X128503450Y-93649819D01*
X128503450Y-93649819D02*
X128646307Y-93697438D01*
X128646307Y-93697438D02*
X128741545Y-93792676D01*
X128741545Y-93792676D02*
X128789164Y-93887914D01*
X128789164Y-93887914D02*
X128836783Y-94078390D01*
X128836783Y-94078390D02*
X128836783Y-94221247D01*
X128836783Y-94221247D02*
X128789164Y-94411723D01*
X128789164Y-94411723D02*
X128741545Y-94506961D01*
X128741545Y-94506961D02*
X128646307Y-94602200D01*
X128646307Y-94602200D02*
X128503450Y-94649819D01*
X128503450Y-94649819D02*
X128265355Y-94649819D01*
X102122493Y-96640771D02*
X102074874Y-96593152D01*
X102074874Y-96593152D02*
X101979636Y-96450295D01*
X101979636Y-96450295D02*
X101932017Y-96355057D01*
X101932017Y-96355057D02*
X101884398Y-96212200D01*
X101884398Y-96212200D02*
X101836779Y-95974104D01*
X101836779Y-95974104D02*
X101836779Y-95783628D01*
X101836779Y-95783628D02*
X101884398Y-95545533D01*
X101884398Y-95545533D02*
X101932017Y-95402676D01*
X101932017Y-95402676D02*
X101979636Y-95307438D01*
X101979636Y-95307438D02*
X102074874Y-95164580D01*
X102074874Y-95164580D02*
X102122493Y-95116961D01*
X102932017Y-96212200D02*
X102836779Y-96259819D01*
X102836779Y-96259819D02*
X102646303Y-96259819D01*
X102646303Y-96259819D02*
X102551065Y-96212200D01*
X102551065Y-96212200D02*
X102503446Y-96164580D01*
X102503446Y-96164580D02*
X102455827Y-96069342D01*
X102455827Y-96069342D02*
X102455827Y-95783628D01*
X102455827Y-95783628D02*
X102503446Y-95688390D01*
X102503446Y-95688390D02*
X102551065Y-95640771D01*
X102551065Y-95640771D02*
X102646303Y-95593152D01*
X102646303Y-95593152D02*
X102836779Y-95593152D01*
X102836779Y-95593152D02*
X102932017Y-95640771D01*
X103265351Y-96640771D02*
X103312970Y-96593152D01*
X103312970Y-96593152D02*
X103408208Y-96450295D01*
X103408208Y-96450295D02*
X103455827Y-96355057D01*
X103455827Y-96355057D02*
X103503446Y-96212200D01*
X103503446Y-96212200D02*
X103551065Y-95974104D01*
X103551065Y-95974104D02*
X103551065Y-95783628D01*
X103551065Y-95783628D02*
X103503446Y-95545533D01*
X103503446Y-95545533D02*
X103455827Y-95402676D01*
X103455827Y-95402676D02*
X103408208Y-95307438D01*
X103408208Y-95307438D02*
X103312970Y-95164580D01*
X103312970Y-95164580D02*
X103265351Y-95116961D01*
X104741542Y-95355057D02*
X104789161Y-95307438D01*
X104789161Y-95307438D02*
X104884399Y-95259819D01*
X104884399Y-95259819D02*
X105122494Y-95259819D01*
X105122494Y-95259819D02*
X105217732Y-95307438D01*
X105217732Y-95307438D02*
X105265351Y-95355057D01*
X105265351Y-95355057D02*
X105312970Y-95450295D01*
X105312970Y-95450295D02*
X105312970Y-95545533D01*
X105312970Y-95545533D02*
X105265351Y-95688390D01*
X105265351Y-95688390D02*
X104693923Y-96259819D01*
X104693923Y-96259819D02*
X105312970Y-96259819D01*
X105932018Y-95259819D02*
X106027256Y-95259819D01*
X106027256Y-95259819D02*
X106122494Y-95307438D01*
X106122494Y-95307438D02*
X106170113Y-95355057D01*
X106170113Y-95355057D02*
X106217732Y-95450295D01*
X106217732Y-95450295D02*
X106265351Y-95640771D01*
X106265351Y-95640771D02*
X106265351Y-95878866D01*
X106265351Y-95878866D02*
X106217732Y-96069342D01*
X106217732Y-96069342D02*
X106170113Y-96164580D01*
X106170113Y-96164580D02*
X106122494Y-96212200D01*
X106122494Y-96212200D02*
X106027256Y-96259819D01*
X106027256Y-96259819D02*
X105932018Y-96259819D01*
X105932018Y-96259819D02*
X105836780Y-96212200D01*
X105836780Y-96212200D02*
X105789161Y-96164580D01*
X105789161Y-96164580D02*
X105741542Y-96069342D01*
X105741542Y-96069342D02*
X105693923Y-95878866D01*
X105693923Y-95878866D02*
X105693923Y-95640771D01*
X105693923Y-95640771D02*
X105741542Y-95450295D01*
X105741542Y-95450295D02*
X105789161Y-95355057D01*
X105789161Y-95355057D02*
X105836780Y-95307438D01*
X105836780Y-95307438D02*
X105932018Y-95259819D01*
X106646304Y-95355057D02*
X106693923Y-95307438D01*
X106693923Y-95307438D02*
X106789161Y-95259819D01*
X106789161Y-95259819D02*
X107027256Y-95259819D01*
X107027256Y-95259819D02*
X107122494Y-95307438D01*
X107122494Y-95307438D02*
X107170113Y-95355057D01*
X107170113Y-95355057D02*
X107217732Y-95450295D01*
X107217732Y-95450295D02*
X107217732Y-95545533D01*
X107217732Y-95545533D02*
X107170113Y-95688390D01*
X107170113Y-95688390D02*
X106598685Y-96259819D01*
X106598685Y-96259819D02*
X107217732Y-96259819D01*
X107551066Y-95259819D02*
X108170113Y-95259819D01*
X108170113Y-95259819D02*
X107836780Y-95640771D01*
X107836780Y-95640771D02*
X107979637Y-95640771D01*
X107979637Y-95640771D02*
X108074875Y-95688390D01*
X108074875Y-95688390D02*
X108122494Y-95736009D01*
X108122494Y-95736009D02*
X108170113Y-95831247D01*
X108170113Y-95831247D02*
X108170113Y-96069342D01*
X108170113Y-96069342D02*
X108122494Y-96164580D01*
X108122494Y-96164580D02*
X108074875Y-96212200D01*
X108074875Y-96212200D02*
X107979637Y-96259819D01*
X107979637Y-96259819D02*
X107693923Y-96259819D01*
X107693923Y-96259819D02*
X107598685Y-96212200D01*
X107598685Y-96212200D02*
X107551066Y-96164580D01*
X109312971Y-95974104D02*
X109789161Y-95974104D01*
X109217733Y-96259819D02*
X109551066Y-95259819D01*
X109551066Y-95259819D02*
X109884399Y-96259819D01*
X110217733Y-95593152D02*
X110217733Y-96259819D01*
X110217733Y-95688390D02*
X110265352Y-95640771D01*
X110265352Y-95640771D02*
X110360590Y-95593152D01*
X110360590Y-95593152D02*
X110503447Y-95593152D01*
X110503447Y-95593152D02*
X110598685Y-95640771D01*
X110598685Y-95640771D02*
X110646304Y-95736009D01*
X110646304Y-95736009D02*
X110646304Y-96259819D01*
X111551066Y-96259819D02*
X111551066Y-95259819D01*
X111551066Y-96212200D02*
X111455828Y-96259819D01*
X111455828Y-96259819D02*
X111265352Y-96259819D01*
X111265352Y-96259819D02*
X111170114Y-96212200D01*
X111170114Y-96212200D02*
X111122495Y-96164580D01*
X111122495Y-96164580D02*
X111074876Y-96069342D01*
X111074876Y-96069342D02*
X111074876Y-95783628D01*
X111074876Y-95783628D02*
X111122495Y-95688390D01*
X111122495Y-95688390D02*
X111170114Y-95640771D01*
X111170114Y-95640771D02*
X111265352Y-95593152D01*
X111265352Y-95593152D02*
X111455828Y-95593152D01*
X111455828Y-95593152D02*
X111551066Y-95640771D01*
X112027257Y-96259819D02*
X112027257Y-95593152D01*
X112027257Y-95783628D02*
X112074876Y-95688390D01*
X112074876Y-95688390D02*
X112122495Y-95640771D01*
X112122495Y-95640771D02*
X112217733Y-95593152D01*
X112217733Y-95593152D02*
X112312971Y-95593152D01*
X113027257Y-96212200D02*
X112932019Y-96259819D01*
X112932019Y-96259819D02*
X112741543Y-96259819D01*
X112741543Y-96259819D02*
X112646305Y-96212200D01*
X112646305Y-96212200D02*
X112598686Y-96116961D01*
X112598686Y-96116961D02*
X112598686Y-95736009D01*
X112598686Y-95736009D02*
X112646305Y-95640771D01*
X112646305Y-95640771D02*
X112741543Y-95593152D01*
X112741543Y-95593152D02*
X112932019Y-95593152D01*
X112932019Y-95593152D02*
X113027257Y-95640771D01*
X113027257Y-95640771D02*
X113074876Y-95736009D01*
X113074876Y-95736009D02*
X113074876Y-95831247D01*
X113074876Y-95831247D02*
X112598686Y-95926485D01*
X113408210Y-95593152D02*
X113598686Y-96259819D01*
X113598686Y-96259819D02*
X113789162Y-95783628D01*
X113789162Y-95783628D02*
X113979638Y-96259819D01*
X113979638Y-96259819D02*
X114170114Y-95593152D01*
X115217734Y-95259819D02*
X115455829Y-96259819D01*
X115455829Y-96259819D02*
X115646305Y-95545533D01*
X115646305Y-95545533D02*
X115836781Y-96259819D01*
X115836781Y-96259819D02*
X116074877Y-95259819D01*
X116455829Y-96259819D02*
X116455829Y-95259819D01*
X116884400Y-96259819D02*
X116884400Y-95736009D01*
X116884400Y-95736009D02*
X116836781Y-95640771D01*
X116836781Y-95640771D02*
X116741543Y-95593152D01*
X116741543Y-95593152D02*
X116598686Y-95593152D01*
X116598686Y-95593152D02*
X116503448Y-95640771D01*
X116503448Y-95640771D02*
X116455829Y-95688390D01*
X117265353Y-95593152D02*
X117503448Y-96259819D01*
X117741543Y-95593152D02*
X117503448Y-96259819D01*
X117503448Y-96259819D02*
X117408210Y-96497914D01*
X117408210Y-96497914D02*
X117360591Y-96545533D01*
X117360591Y-96545533D02*
X117265353Y-96593152D01*
X117979639Y-95593152D02*
X118360591Y-95593152D01*
X118122496Y-95259819D02*
X118122496Y-96116961D01*
X118122496Y-96116961D02*
X118170115Y-96212200D01*
X118170115Y-96212200D02*
X118265353Y-96259819D01*
X118265353Y-96259819D02*
X118360591Y-96259819D01*
X119074877Y-96212200D02*
X118979639Y-96259819D01*
X118979639Y-96259819D02*
X118789163Y-96259819D01*
X118789163Y-96259819D02*
X118693925Y-96212200D01*
X118693925Y-96212200D02*
X118646306Y-96116961D01*
X118646306Y-96116961D02*
X118646306Y-95736009D01*
X118646306Y-95736009D02*
X118693925Y-95640771D01*
X118693925Y-95640771D02*
X118789163Y-95593152D01*
X118789163Y-95593152D02*
X118979639Y-95593152D01*
X118979639Y-95593152D02*
X119074877Y-95640771D01*
X119074877Y-95640771D02*
X119122496Y-95736009D01*
X119122496Y-95736009D02*
X119122496Y-95831247D01*
X119122496Y-95831247D02*
X118646306Y-95926485D01*
X101693922Y-96869819D02*
X102265350Y-96869819D01*
X101979636Y-97869819D02*
X101979636Y-96869819D01*
X102598684Y-97869819D02*
X102598684Y-96869819D01*
X103027255Y-97869819D02*
X103027255Y-97346009D01*
X103027255Y-97346009D02*
X102979636Y-97250771D01*
X102979636Y-97250771D02*
X102884398Y-97203152D01*
X102884398Y-97203152D02*
X102741541Y-97203152D01*
X102741541Y-97203152D02*
X102646303Y-97250771D01*
X102646303Y-97250771D02*
X102598684Y-97298390D01*
X103503446Y-97869819D02*
X103503446Y-97203152D01*
X103503446Y-96869819D02*
X103455827Y-96917438D01*
X103455827Y-96917438D02*
X103503446Y-96965057D01*
X103503446Y-96965057D02*
X103551065Y-96917438D01*
X103551065Y-96917438D02*
X103503446Y-96869819D01*
X103503446Y-96869819D02*
X103503446Y-96965057D01*
X103932017Y-97822200D02*
X104027255Y-97869819D01*
X104027255Y-97869819D02*
X104217731Y-97869819D01*
X104217731Y-97869819D02*
X104312969Y-97822200D01*
X104312969Y-97822200D02*
X104360588Y-97726961D01*
X104360588Y-97726961D02*
X104360588Y-97679342D01*
X104360588Y-97679342D02*
X104312969Y-97584104D01*
X104312969Y-97584104D02*
X104217731Y-97536485D01*
X104217731Y-97536485D02*
X104074874Y-97536485D01*
X104074874Y-97536485D02*
X103979636Y-97488866D01*
X103979636Y-97488866D02*
X103932017Y-97393628D01*
X103932017Y-97393628D02*
X103932017Y-97346009D01*
X103932017Y-97346009D02*
X103979636Y-97250771D01*
X103979636Y-97250771D02*
X104074874Y-97203152D01*
X104074874Y-97203152D02*
X104217731Y-97203152D01*
X104217731Y-97203152D02*
X104312969Y-97250771D01*
X105455827Y-97203152D02*
X105646303Y-97869819D01*
X105646303Y-97869819D02*
X105836779Y-97393628D01*
X105836779Y-97393628D02*
X106027255Y-97869819D01*
X106027255Y-97869819D02*
X106217731Y-97203152D01*
X106741541Y-97869819D02*
X106646303Y-97822200D01*
X106646303Y-97822200D02*
X106598684Y-97774580D01*
X106598684Y-97774580D02*
X106551065Y-97679342D01*
X106551065Y-97679342D02*
X106551065Y-97393628D01*
X106551065Y-97393628D02*
X106598684Y-97298390D01*
X106598684Y-97298390D02*
X106646303Y-97250771D01*
X106646303Y-97250771D02*
X106741541Y-97203152D01*
X106741541Y-97203152D02*
X106884398Y-97203152D01*
X106884398Y-97203152D02*
X106979636Y-97250771D01*
X106979636Y-97250771D02*
X107027255Y-97298390D01*
X107027255Y-97298390D02*
X107074874Y-97393628D01*
X107074874Y-97393628D02*
X107074874Y-97679342D01*
X107074874Y-97679342D02*
X107027255Y-97774580D01*
X107027255Y-97774580D02*
X106979636Y-97822200D01*
X106979636Y-97822200D02*
X106884398Y-97869819D01*
X106884398Y-97869819D02*
X106741541Y-97869819D01*
X107503446Y-97869819D02*
X107503446Y-97203152D01*
X107503446Y-97393628D02*
X107551065Y-97298390D01*
X107551065Y-97298390D02*
X107598684Y-97250771D01*
X107598684Y-97250771D02*
X107693922Y-97203152D01*
X107693922Y-97203152D02*
X107789160Y-97203152D01*
X108122494Y-97869819D02*
X108122494Y-96869819D01*
X108217732Y-97488866D02*
X108503446Y-97869819D01*
X108503446Y-97203152D02*
X108122494Y-97584104D01*
X109693923Y-97869819D02*
X109693923Y-97203152D01*
X109693923Y-96869819D02*
X109646304Y-96917438D01*
X109646304Y-96917438D02*
X109693923Y-96965057D01*
X109693923Y-96965057D02*
X109741542Y-96917438D01*
X109741542Y-96917438D02*
X109693923Y-96869819D01*
X109693923Y-96869819D02*
X109693923Y-96965057D01*
X110122494Y-97822200D02*
X110217732Y-97869819D01*
X110217732Y-97869819D02*
X110408208Y-97869819D01*
X110408208Y-97869819D02*
X110503446Y-97822200D01*
X110503446Y-97822200D02*
X110551065Y-97726961D01*
X110551065Y-97726961D02*
X110551065Y-97679342D01*
X110551065Y-97679342D02*
X110503446Y-97584104D01*
X110503446Y-97584104D02*
X110408208Y-97536485D01*
X110408208Y-97536485D02*
X110265351Y-97536485D01*
X110265351Y-97536485D02*
X110170113Y-97488866D01*
X110170113Y-97488866D02*
X110122494Y-97393628D01*
X110122494Y-97393628D02*
X110122494Y-97346009D01*
X110122494Y-97346009D02*
X110170113Y-97250771D01*
X110170113Y-97250771D02*
X110265351Y-97203152D01*
X110265351Y-97203152D02*
X110408208Y-97203152D01*
X110408208Y-97203152D02*
X110503446Y-97250771D01*
X111598685Y-97203152D02*
X111979637Y-97203152D01*
X111741542Y-97869819D02*
X111741542Y-97012676D01*
X111741542Y-97012676D02*
X111789161Y-96917438D01*
X111789161Y-96917438D02*
X111884399Y-96869819D01*
X111884399Y-96869819D02*
X111979637Y-96869819D01*
X112312971Y-97869819D02*
X112312971Y-97203152D01*
X112312971Y-97393628D02*
X112360590Y-97298390D01*
X112360590Y-97298390D02*
X112408209Y-97250771D01*
X112408209Y-97250771D02*
X112503447Y-97203152D01*
X112503447Y-97203152D02*
X112598685Y-97203152D01*
X113312971Y-97822200D02*
X113217733Y-97869819D01*
X113217733Y-97869819D02*
X113027257Y-97869819D01*
X113027257Y-97869819D02*
X112932019Y-97822200D01*
X112932019Y-97822200D02*
X112884400Y-97726961D01*
X112884400Y-97726961D02*
X112884400Y-97346009D01*
X112884400Y-97346009D02*
X112932019Y-97250771D01*
X112932019Y-97250771D02*
X113027257Y-97203152D01*
X113027257Y-97203152D02*
X113217733Y-97203152D01*
X113217733Y-97203152D02*
X113312971Y-97250771D01*
X113312971Y-97250771D02*
X113360590Y-97346009D01*
X113360590Y-97346009D02*
X113360590Y-97441247D01*
X113360590Y-97441247D02*
X112884400Y-97536485D01*
X114170114Y-97822200D02*
X114074876Y-97869819D01*
X114074876Y-97869819D02*
X113884400Y-97869819D01*
X113884400Y-97869819D02*
X113789162Y-97822200D01*
X113789162Y-97822200D02*
X113741543Y-97726961D01*
X113741543Y-97726961D02*
X113741543Y-97346009D01*
X113741543Y-97346009D02*
X113789162Y-97250771D01*
X113789162Y-97250771D02*
X113884400Y-97203152D01*
X113884400Y-97203152D02*
X114074876Y-97203152D01*
X114074876Y-97203152D02*
X114170114Y-97250771D01*
X114170114Y-97250771D02*
X114217733Y-97346009D01*
X114217733Y-97346009D02*
X114217733Y-97441247D01*
X114217733Y-97441247D02*
X113741543Y-97536485D01*
X115265353Y-97203152D02*
X115646305Y-97203152D01*
X115408210Y-96869819D02*
X115408210Y-97726961D01*
X115408210Y-97726961D02*
X115455829Y-97822200D01*
X115455829Y-97822200D02*
X115551067Y-97869819D01*
X115551067Y-97869819D02*
X115646305Y-97869819D01*
X116122496Y-97869819D02*
X116027258Y-97822200D01*
X116027258Y-97822200D02*
X115979639Y-97774580D01*
X115979639Y-97774580D02*
X115932020Y-97679342D01*
X115932020Y-97679342D02*
X115932020Y-97393628D01*
X115932020Y-97393628D02*
X115979639Y-97298390D01*
X115979639Y-97298390D02*
X116027258Y-97250771D01*
X116027258Y-97250771D02*
X116122496Y-97203152D01*
X116122496Y-97203152D02*
X116265353Y-97203152D01*
X116265353Y-97203152D02*
X116360591Y-97250771D01*
X116360591Y-97250771D02*
X116408210Y-97298390D01*
X116408210Y-97298390D02*
X116455829Y-97393628D01*
X116455829Y-97393628D02*
X116455829Y-97679342D01*
X116455829Y-97679342D02*
X116408210Y-97774580D01*
X116408210Y-97774580D02*
X116360591Y-97822200D01*
X116360591Y-97822200D02*
X116265353Y-97869819D01*
X116265353Y-97869819D02*
X116122496Y-97869819D01*
X118074877Y-97203152D02*
X118074877Y-97869819D01*
X117646306Y-97203152D02*
X117646306Y-97726961D01*
X117646306Y-97726961D02*
X117693925Y-97822200D01*
X117693925Y-97822200D02*
X117789163Y-97869819D01*
X117789163Y-97869819D02*
X117932020Y-97869819D01*
X117932020Y-97869819D02*
X118027258Y-97822200D01*
X118027258Y-97822200D02*
X118074877Y-97774580D01*
X118503449Y-97822200D02*
X118598687Y-97869819D01*
X118598687Y-97869819D02*
X118789163Y-97869819D01*
X118789163Y-97869819D02*
X118884401Y-97822200D01*
X118884401Y-97822200D02*
X118932020Y-97726961D01*
X118932020Y-97726961D02*
X118932020Y-97679342D01*
X118932020Y-97679342D02*
X118884401Y-97584104D01*
X118884401Y-97584104D02*
X118789163Y-97536485D01*
X118789163Y-97536485D02*
X118646306Y-97536485D01*
X118646306Y-97536485D02*
X118551068Y-97488866D01*
X118551068Y-97488866D02*
X118503449Y-97393628D01*
X118503449Y-97393628D02*
X118503449Y-97346009D01*
X118503449Y-97346009D02*
X118551068Y-97250771D01*
X118551068Y-97250771D02*
X118646306Y-97203152D01*
X118646306Y-97203152D02*
X118789163Y-97203152D01*
X118789163Y-97203152D02*
X118884401Y-97250771D01*
X119741544Y-97822200D02*
X119646306Y-97869819D01*
X119646306Y-97869819D02*
X119455830Y-97869819D01*
X119455830Y-97869819D02*
X119360592Y-97822200D01*
X119360592Y-97822200D02*
X119312973Y-97726961D01*
X119312973Y-97726961D02*
X119312973Y-97346009D01*
X119312973Y-97346009D02*
X119360592Y-97250771D01*
X119360592Y-97250771D02*
X119455830Y-97203152D01*
X119455830Y-97203152D02*
X119646306Y-97203152D01*
X119646306Y-97203152D02*
X119741544Y-97250771D01*
X119741544Y-97250771D02*
X119789163Y-97346009D01*
X119789163Y-97346009D02*
X119789163Y-97441247D01*
X119789163Y-97441247D02*
X119312973Y-97536485D01*
X121408211Y-97203152D02*
X121408211Y-97869819D01*
X120979640Y-97203152D02*
X120979640Y-97726961D01*
X120979640Y-97726961D02*
X121027259Y-97822200D01*
X121027259Y-97822200D02*
X121122497Y-97869819D01*
X121122497Y-97869819D02*
X121265354Y-97869819D01*
X121265354Y-97869819D02*
X121360592Y-97822200D01*
X121360592Y-97822200D02*
X121408211Y-97774580D01*
X121884402Y-97203152D02*
X121884402Y-97869819D01*
X121884402Y-97298390D02*
X121932021Y-97250771D01*
X121932021Y-97250771D02*
X122027259Y-97203152D01*
X122027259Y-97203152D02*
X122170116Y-97203152D01*
X122170116Y-97203152D02*
X122265354Y-97250771D01*
X122265354Y-97250771D02*
X122312973Y-97346009D01*
X122312973Y-97346009D02*
X122312973Y-97869819D01*
X123217735Y-97869819D02*
X123217735Y-96869819D01*
X123217735Y-97822200D02*
X123122497Y-97869819D01*
X123122497Y-97869819D02*
X122932021Y-97869819D01*
X122932021Y-97869819D02*
X122836783Y-97822200D01*
X122836783Y-97822200D02*
X122789164Y-97774580D01*
X122789164Y-97774580D02*
X122741545Y-97679342D01*
X122741545Y-97679342D02*
X122741545Y-97393628D01*
X122741545Y-97393628D02*
X122789164Y-97298390D01*
X122789164Y-97298390D02*
X122836783Y-97250771D01*
X122836783Y-97250771D02*
X122932021Y-97203152D01*
X122932021Y-97203152D02*
X123122497Y-97203152D01*
X123122497Y-97203152D02*
X123217735Y-97250771D01*
X124074878Y-97822200D02*
X123979640Y-97869819D01*
X123979640Y-97869819D02*
X123789164Y-97869819D01*
X123789164Y-97869819D02*
X123693926Y-97822200D01*
X123693926Y-97822200D02*
X123646307Y-97726961D01*
X123646307Y-97726961D02*
X123646307Y-97346009D01*
X123646307Y-97346009D02*
X123693926Y-97250771D01*
X123693926Y-97250771D02*
X123789164Y-97203152D01*
X123789164Y-97203152D02*
X123979640Y-97203152D01*
X123979640Y-97203152D02*
X124074878Y-97250771D01*
X124074878Y-97250771D02*
X124122497Y-97346009D01*
X124122497Y-97346009D02*
X124122497Y-97441247D01*
X124122497Y-97441247D02*
X123646307Y-97536485D01*
X124551069Y-97869819D02*
X124551069Y-97203152D01*
X124551069Y-97393628D02*
X124598688Y-97298390D01*
X124598688Y-97298390D02*
X124646307Y-97250771D01*
X124646307Y-97250771D02*
X124741545Y-97203152D01*
X124741545Y-97203152D02*
X124836783Y-97203152D01*
X125789165Y-97203152D02*
X126170117Y-97203152D01*
X125932022Y-96869819D02*
X125932022Y-97726961D01*
X125932022Y-97726961D02*
X125979641Y-97822200D01*
X125979641Y-97822200D02*
X126074879Y-97869819D01*
X126074879Y-97869819D02*
X126170117Y-97869819D01*
X126503451Y-97869819D02*
X126503451Y-96869819D01*
X126932022Y-97869819D02*
X126932022Y-97346009D01*
X126932022Y-97346009D02*
X126884403Y-97250771D01*
X126884403Y-97250771D02*
X126789165Y-97203152D01*
X126789165Y-97203152D02*
X126646308Y-97203152D01*
X126646308Y-97203152D02*
X126551070Y-97250771D01*
X126551070Y-97250771D02*
X126503451Y-97298390D01*
X127789165Y-97822200D02*
X127693927Y-97869819D01*
X127693927Y-97869819D02*
X127503451Y-97869819D01*
X127503451Y-97869819D02*
X127408213Y-97822200D01*
X127408213Y-97822200D02*
X127360594Y-97726961D01*
X127360594Y-97726961D02*
X127360594Y-97346009D01*
X127360594Y-97346009D02*
X127408213Y-97250771D01*
X127408213Y-97250771D02*
X127503451Y-97203152D01*
X127503451Y-97203152D02*
X127693927Y-97203152D01*
X127693927Y-97203152D02*
X127789165Y-97250771D01*
X127789165Y-97250771D02*
X127836784Y-97346009D01*
X127836784Y-97346009D02*
X127836784Y-97441247D01*
X127836784Y-97441247D02*
X127360594Y-97536485D01*
X129598689Y-97774580D02*
X129551070Y-97822200D01*
X129551070Y-97822200D02*
X129408213Y-97869819D01*
X129408213Y-97869819D02*
X129312975Y-97869819D01*
X129312975Y-97869819D02*
X129170118Y-97822200D01*
X129170118Y-97822200D02*
X129074880Y-97726961D01*
X129074880Y-97726961D02*
X129027261Y-97631723D01*
X129027261Y-97631723D02*
X128979642Y-97441247D01*
X128979642Y-97441247D02*
X128979642Y-97298390D01*
X128979642Y-97298390D02*
X129027261Y-97107914D01*
X129027261Y-97107914D02*
X129074880Y-97012676D01*
X129074880Y-97012676D02*
X129170118Y-96917438D01*
X129170118Y-96917438D02*
X129312975Y-96869819D01*
X129312975Y-96869819D02*
X129408213Y-96869819D01*
X129408213Y-96869819D02*
X129551070Y-96917438D01*
X129551070Y-96917438D02*
X129598689Y-96965057D01*
X130027261Y-97869819D02*
X130027261Y-97203152D01*
X130027261Y-97393628D02*
X130074880Y-97298390D01*
X130074880Y-97298390D02*
X130122499Y-97250771D01*
X130122499Y-97250771D02*
X130217737Y-97203152D01*
X130217737Y-97203152D02*
X130312975Y-97203152D01*
X131027261Y-97822200D02*
X130932023Y-97869819D01*
X130932023Y-97869819D02*
X130741547Y-97869819D01*
X130741547Y-97869819D02*
X130646309Y-97822200D01*
X130646309Y-97822200D02*
X130598690Y-97726961D01*
X130598690Y-97726961D02*
X130598690Y-97346009D01*
X130598690Y-97346009D02*
X130646309Y-97250771D01*
X130646309Y-97250771D02*
X130741547Y-97203152D01*
X130741547Y-97203152D02*
X130932023Y-97203152D01*
X130932023Y-97203152D02*
X131027261Y-97250771D01*
X131027261Y-97250771D02*
X131074880Y-97346009D01*
X131074880Y-97346009D02*
X131074880Y-97441247D01*
X131074880Y-97441247D02*
X130598690Y-97536485D01*
X131932023Y-97869819D02*
X131932023Y-97346009D01*
X131932023Y-97346009D02*
X131884404Y-97250771D01*
X131884404Y-97250771D02*
X131789166Y-97203152D01*
X131789166Y-97203152D02*
X131598690Y-97203152D01*
X131598690Y-97203152D02*
X131503452Y-97250771D01*
X131932023Y-97822200D02*
X131836785Y-97869819D01*
X131836785Y-97869819D02*
X131598690Y-97869819D01*
X131598690Y-97869819D02*
X131503452Y-97822200D01*
X131503452Y-97822200D02*
X131455833Y-97726961D01*
X131455833Y-97726961D02*
X131455833Y-97631723D01*
X131455833Y-97631723D02*
X131503452Y-97536485D01*
X131503452Y-97536485D02*
X131598690Y-97488866D01*
X131598690Y-97488866D02*
X131836785Y-97488866D01*
X131836785Y-97488866D02*
X131932023Y-97441247D01*
X132265357Y-97203152D02*
X132646309Y-97203152D01*
X132408214Y-96869819D02*
X132408214Y-97726961D01*
X132408214Y-97726961D02*
X132455833Y-97822200D01*
X132455833Y-97822200D02*
X132551071Y-97869819D01*
X132551071Y-97869819D02*
X132646309Y-97869819D01*
X132979643Y-97869819D02*
X132979643Y-97203152D01*
X132979643Y-96869819D02*
X132932024Y-96917438D01*
X132932024Y-96917438D02*
X132979643Y-96965057D01*
X132979643Y-96965057D02*
X133027262Y-96917438D01*
X133027262Y-96917438D02*
X132979643Y-96869819D01*
X132979643Y-96869819D02*
X132979643Y-96965057D01*
X133360595Y-97203152D02*
X133598690Y-97869819D01*
X133598690Y-97869819D02*
X133836785Y-97203152D01*
X134598690Y-97822200D02*
X134503452Y-97869819D01*
X134503452Y-97869819D02*
X134312976Y-97869819D01*
X134312976Y-97869819D02*
X134217738Y-97822200D01*
X134217738Y-97822200D02*
X134170119Y-97726961D01*
X134170119Y-97726961D02*
X134170119Y-97346009D01*
X134170119Y-97346009D02*
X134217738Y-97250771D01*
X134217738Y-97250771D02*
X134312976Y-97203152D01*
X134312976Y-97203152D02*
X134503452Y-97203152D01*
X134503452Y-97203152D02*
X134598690Y-97250771D01*
X134598690Y-97250771D02*
X134646309Y-97346009D01*
X134646309Y-97346009D02*
X134646309Y-97441247D01*
X134646309Y-97441247D02*
X134170119Y-97536485D01*
X136408214Y-97774580D02*
X136360595Y-97822200D01*
X136360595Y-97822200D02*
X136217738Y-97869819D01*
X136217738Y-97869819D02*
X136122500Y-97869819D01*
X136122500Y-97869819D02*
X135979643Y-97822200D01*
X135979643Y-97822200D02*
X135884405Y-97726961D01*
X135884405Y-97726961D02*
X135836786Y-97631723D01*
X135836786Y-97631723D02*
X135789167Y-97441247D01*
X135789167Y-97441247D02*
X135789167Y-97298390D01*
X135789167Y-97298390D02*
X135836786Y-97107914D01*
X135836786Y-97107914D02*
X135884405Y-97012676D01*
X135884405Y-97012676D02*
X135979643Y-96917438D01*
X135979643Y-96917438D02*
X136122500Y-96869819D01*
X136122500Y-96869819D02*
X136217738Y-96869819D01*
X136217738Y-96869819D02*
X136360595Y-96917438D01*
X136360595Y-96917438D02*
X136408214Y-96965057D01*
X136979643Y-97869819D02*
X136884405Y-97822200D01*
X136884405Y-97822200D02*
X136836786Y-97774580D01*
X136836786Y-97774580D02*
X136789167Y-97679342D01*
X136789167Y-97679342D02*
X136789167Y-97393628D01*
X136789167Y-97393628D02*
X136836786Y-97298390D01*
X136836786Y-97298390D02*
X136884405Y-97250771D01*
X136884405Y-97250771D02*
X136979643Y-97203152D01*
X136979643Y-97203152D02*
X137122500Y-97203152D01*
X137122500Y-97203152D02*
X137217738Y-97250771D01*
X137217738Y-97250771D02*
X137265357Y-97298390D01*
X137265357Y-97298390D02*
X137312976Y-97393628D01*
X137312976Y-97393628D02*
X137312976Y-97679342D01*
X137312976Y-97679342D02*
X137265357Y-97774580D01*
X137265357Y-97774580D02*
X137217738Y-97822200D01*
X137217738Y-97822200D02*
X137122500Y-97869819D01*
X137122500Y-97869819D02*
X136979643Y-97869819D01*
X137741548Y-97869819D02*
X137741548Y-97203152D01*
X137741548Y-97298390D02*
X137789167Y-97250771D01*
X137789167Y-97250771D02*
X137884405Y-97203152D01*
X137884405Y-97203152D02*
X138027262Y-97203152D01*
X138027262Y-97203152D02*
X138122500Y-97250771D01*
X138122500Y-97250771D02*
X138170119Y-97346009D01*
X138170119Y-97346009D02*
X138170119Y-97869819D01*
X138170119Y-97346009D02*
X138217738Y-97250771D01*
X138217738Y-97250771D02*
X138312976Y-97203152D01*
X138312976Y-97203152D02*
X138455833Y-97203152D01*
X138455833Y-97203152D02*
X138551072Y-97250771D01*
X138551072Y-97250771D02*
X138598691Y-97346009D01*
X138598691Y-97346009D02*
X138598691Y-97869819D01*
X139074881Y-97869819D02*
X139074881Y-97203152D01*
X139074881Y-97298390D02*
X139122500Y-97250771D01*
X139122500Y-97250771D02*
X139217738Y-97203152D01*
X139217738Y-97203152D02*
X139360595Y-97203152D01*
X139360595Y-97203152D02*
X139455833Y-97250771D01*
X139455833Y-97250771D02*
X139503452Y-97346009D01*
X139503452Y-97346009D02*
X139503452Y-97869819D01*
X139503452Y-97346009D02*
X139551071Y-97250771D01*
X139551071Y-97250771D02*
X139646309Y-97203152D01*
X139646309Y-97203152D02*
X139789166Y-97203152D01*
X139789166Y-97203152D02*
X139884405Y-97250771D01*
X139884405Y-97250771D02*
X139932024Y-97346009D01*
X139932024Y-97346009D02*
X139932024Y-97869819D01*
X140551071Y-97869819D02*
X140455833Y-97822200D01*
X140455833Y-97822200D02*
X140408214Y-97774580D01*
X140408214Y-97774580D02*
X140360595Y-97679342D01*
X140360595Y-97679342D02*
X140360595Y-97393628D01*
X140360595Y-97393628D02*
X140408214Y-97298390D01*
X140408214Y-97298390D02*
X140455833Y-97250771D01*
X140455833Y-97250771D02*
X140551071Y-97203152D01*
X140551071Y-97203152D02*
X140693928Y-97203152D01*
X140693928Y-97203152D02*
X140789166Y-97250771D01*
X140789166Y-97250771D02*
X140836785Y-97298390D01*
X140836785Y-97298390D02*
X140884404Y-97393628D01*
X140884404Y-97393628D02*
X140884404Y-97679342D01*
X140884404Y-97679342D02*
X140836785Y-97774580D01*
X140836785Y-97774580D02*
X140789166Y-97822200D01*
X140789166Y-97822200D02*
X140693928Y-97869819D01*
X140693928Y-97869819D02*
X140551071Y-97869819D01*
X141312976Y-97203152D02*
X141312976Y-97869819D01*
X141312976Y-97298390D02*
X141360595Y-97250771D01*
X141360595Y-97250771D02*
X141455833Y-97203152D01*
X141455833Y-97203152D02*
X141598690Y-97203152D01*
X141598690Y-97203152D02*
X141693928Y-97250771D01*
X141693928Y-97250771D02*
X141741547Y-97346009D01*
X141741547Y-97346009D02*
X141741547Y-97869819D01*
X142170119Y-97822200D02*
X142265357Y-97869819D01*
X142265357Y-97869819D02*
X142455833Y-97869819D01*
X142455833Y-97869819D02*
X142551071Y-97822200D01*
X142551071Y-97822200D02*
X142598690Y-97726961D01*
X142598690Y-97726961D02*
X142598690Y-97679342D01*
X142598690Y-97679342D02*
X142551071Y-97584104D01*
X142551071Y-97584104D02*
X142455833Y-97536485D01*
X142455833Y-97536485D02*
X142312976Y-97536485D01*
X142312976Y-97536485D02*
X142217738Y-97488866D01*
X142217738Y-97488866D02*
X142170119Y-97393628D01*
X142170119Y-97393628D02*
X142170119Y-97346009D01*
X142170119Y-97346009D02*
X142217738Y-97250771D01*
X142217738Y-97250771D02*
X142312976Y-97203152D01*
X142312976Y-97203152D02*
X142455833Y-97203152D01*
X142455833Y-97203152D02*
X142551071Y-97250771D01*
X143932024Y-97869819D02*
X143836786Y-97822200D01*
X143836786Y-97822200D02*
X143789167Y-97726961D01*
X143789167Y-97726961D02*
X143789167Y-96869819D01*
X144312977Y-97869819D02*
X144312977Y-97203152D01*
X144312977Y-96869819D02*
X144265358Y-96917438D01*
X144265358Y-96917438D02*
X144312977Y-96965057D01*
X144312977Y-96965057D02*
X144360596Y-96917438D01*
X144360596Y-96917438D02*
X144312977Y-96869819D01*
X144312977Y-96869819D02*
X144312977Y-96965057D01*
X145217738Y-97822200D02*
X145122500Y-97869819D01*
X145122500Y-97869819D02*
X144932024Y-97869819D01*
X144932024Y-97869819D02*
X144836786Y-97822200D01*
X144836786Y-97822200D02*
X144789167Y-97774580D01*
X144789167Y-97774580D02*
X144741548Y-97679342D01*
X144741548Y-97679342D02*
X144741548Y-97393628D01*
X144741548Y-97393628D02*
X144789167Y-97298390D01*
X144789167Y-97298390D02*
X144836786Y-97250771D01*
X144836786Y-97250771D02*
X144932024Y-97203152D01*
X144932024Y-97203152D02*
X145122500Y-97203152D01*
X145122500Y-97203152D02*
X145217738Y-97250771D01*
X146027262Y-97822200D02*
X145932024Y-97869819D01*
X145932024Y-97869819D02*
X145741548Y-97869819D01*
X145741548Y-97869819D02*
X145646310Y-97822200D01*
X145646310Y-97822200D02*
X145598691Y-97726961D01*
X145598691Y-97726961D02*
X145598691Y-97346009D01*
X145598691Y-97346009D02*
X145646310Y-97250771D01*
X145646310Y-97250771D02*
X145741548Y-97203152D01*
X145741548Y-97203152D02*
X145932024Y-97203152D01*
X145932024Y-97203152D02*
X146027262Y-97250771D01*
X146027262Y-97250771D02*
X146074881Y-97346009D01*
X146074881Y-97346009D02*
X146074881Y-97441247D01*
X146074881Y-97441247D02*
X145598691Y-97536485D01*
X146503453Y-97203152D02*
X146503453Y-97869819D01*
X146503453Y-97298390D02*
X146551072Y-97250771D01*
X146551072Y-97250771D02*
X146646310Y-97203152D01*
X146646310Y-97203152D02*
X146789167Y-97203152D01*
X146789167Y-97203152D02*
X146884405Y-97250771D01*
X146884405Y-97250771D02*
X146932024Y-97346009D01*
X146932024Y-97346009D02*
X146932024Y-97869819D01*
X147360596Y-97822200D02*
X147455834Y-97869819D01*
X147455834Y-97869819D02*
X147646310Y-97869819D01*
X147646310Y-97869819D02*
X147741548Y-97822200D01*
X147741548Y-97822200D02*
X147789167Y-97726961D01*
X147789167Y-97726961D02*
X147789167Y-97679342D01*
X147789167Y-97679342D02*
X147741548Y-97584104D01*
X147741548Y-97584104D02*
X147646310Y-97536485D01*
X147646310Y-97536485D02*
X147503453Y-97536485D01*
X147503453Y-97536485D02*
X147408215Y-97488866D01*
X147408215Y-97488866D02*
X147360596Y-97393628D01*
X147360596Y-97393628D02*
X147360596Y-97346009D01*
X147360596Y-97346009D02*
X147408215Y-97250771D01*
X147408215Y-97250771D02*
X147503453Y-97203152D01*
X147503453Y-97203152D02*
X147646310Y-97203152D01*
X147646310Y-97203152D02*
X147741548Y-97250771D01*
X148598691Y-97822200D02*
X148503453Y-97869819D01*
X148503453Y-97869819D02*
X148312977Y-97869819D01*
X148312977Y-97869819D02*
X148217739Y-97822200D01*
X148217739Y-97822200D02*
X148170120Y-97726961D01*
X148170120Y-97726961D02*
X148170120Y-97346009D01*
X148170120Y-97346009D02*
X148217739Y-97250771D01*
X148217739Y-97250771D02*
X148312977Y-97203152D01*
X148312977Y-97203152D02*
X148503453Y-97203152D01*
X148503453Y-97203152D02*
X148598691Y-97250771D01*
X148598691Y-97250771D02*
X148646310Y-97346009D01*
X148646310Y-97346009D02*
X148646310Y-97441247D01*
X148646310Y-97441247D02*
X148170120Y-97536485D01*
%TO.C,U1*%
X113238095Y-68174819D02*
X113238095Y-68984342D01*
X113238095Y-68984342D02*
X113285714Y-69079580D01*
X113285714Y-69079580D02*
X113333333Y-69127200D01*
X113333333Y-69127200D02*
X113428571Y-69174819D01*
X113428571Y-69174819D02*
X113619047Y-69174819D01*
X113619047Y-69174819D02*
X113714285Y-69127200D01*
X113714285Y-69127200D02*
X113761904Y-69079580D01*
X113761904Y-69079580D02*
X113809523Y-68984342D01*
X113809523Y-68984342D02*
X113809523Y-68174819D01*
X114809523Y-69174819D02*
X114238095Y-69174819D01*
X114523809Y-69174819D02*
X114523809Y-68174819D01*
X114523809Y-68174819D02*
X114428571Y-68317676D01*
X114428571Y-68317676D02*
X114333333Y-68412914D01*
X114333333Y-68412914D02*
X114238095Y-68460533D01*
D11*
X114000000Y-69565000D02*
X115950000Y-69565000D01*
X114000000Y-78435000D02*
X115950000Y-78435000D01*
X114000000Y-69565000D02*
X110550000Y-69565000D01*
X114000000Y-78435000D02*
X112050000Y-78435000D01*
%TD*%
M02*
