%TF.GenerationSoftware,KiCad,Pcbnew,8.0.5*%
%TF.CreationDate,2024-10-06T22:29:13+02:00*%
%TF.ProjectId,carte_test,63617274-655f-4746-9573-742e6b696361,0*%
%TF.SameCoordinates,Original*%
%TF.FileFunction,Copper,L1,Top*%
%TF.FilePolarity,Positive*%
%FSLAX46Y46*%
G04 Gerber Fmt 4.6, Leading zero omitted, Abs format (unit mm)*
G04 Created by KiCad (PCBNEW 8.0.5) date 2024-10-06 22:29:13*
%MOMM*%
%LPD*%
G01*
G04 APERTURE LIST*
%ADD10C,0.304800*%
%TA.AperFunction,NonConductor*%
%ADD11C,0.304800*%
%TD*%
%TA.AperFunction,ComponentPad*%
%ADD12R,1.600000X1.600000*%
%TD*%
%TA.AperFunction,ComponentPad*%
%ADD13O,1.600000X1.600000*%
%TD*%
%TA.AperFunction,ComponentPad*%
%ADD14C,2.000000*%
%TD*%
%TA.AperFunction,ComponentPad*%
%ADD15R,1.397000X1.397000*%
%TD*%
%TA.AperFunction,ComponentPad*%
%ADD16C,1.397000*%
%TD*%
%TA.AperFunction,ComponentPad*%
%ADD17R,1.600000X2.400000*%
%TD*%
%TA.AperFunction,ComponentPad*%
%ADD18O,1.600000X2.400000*%
%TD*%
%TA.AperFunction,ComponentPad*%
%ADD19R,1.700000X1.700000*%
%TD*%
%TA.AperFunction,ComponentPad*%
%ADD20O,1.700000X1.700000*%
%TD*%
%TA.AperFunction,ComponentPad*%
%ADD21C,1.600000*%
%TD*%
%TA.AperFunction,ComponentPad*%
%ADD22C,1.500000*%
%TD*%
%TA.AperFunction,ComponentPad*%
%ADD23R,1.800000X1.800000*%
%TD*%
%TA.AperFunction,ComponentPad*%
%ADD24C,1.800000*%
%TD*%
%TA.AperFunction,ComponentPad*%
%ADD25C,4.000000*%
%TD*%
%TA.AperFunction,ComponentPad*%
%ADD26R,2.000000X1.905000*%
%TD*%
%TA.AperFunction,ComponentPad*%
%ADD27O,2.000000X1.905000*%
%TD*%
%TA.AperFunction,ComponentPad*%
%ADD28R,2.600000X2.600000*%
%TD*%
%TA.AperFunction,ComponentPad*%
%ADD29C,2.600000*%
%TD*%
%TA.AperFunction,ComponentPad*%
%ADD30R,2.000000X2.000000*%
%TD*%
%TA.AperFunction,ComponentPad*%
%ADD31O,2.000000X2.000000*%
%TD*%
%TA.AperFunction,ComponentPad*%
%ADD32R,2.300000X1.500000*%
%TD*%
%TA.AperFunction,ComponentPad*%
%ADD33O,2.300000X1.500000*%
%TD*%
%TA.AperFunction,ViaPad*%
%ADD34C,1.651000*%
%TD*%
%TA.AperFunction,ViaPad*%
%ADD35C,0.900000*%
%TD*%
%TA.AperFunction,Conductor*%
%ADD36C,1.016000*%
%TD*%
%TA.AperFunction,Conductor*%
%ADD37C,0.431800*%
%TD*%
%TA.AperFunction,Conductor*%
%ADD38C,0.400000*%
%TD*%
G04 APERTURE END LIST*
D10*
D11*
X151003841Y-129213428D02*
X151003841Y-128342571D01*
X152527841Y-128777999D02*
X151003841Y-128777999D01*
X152382698Y-126963713D02*
X152455270Y-127036285D01*
X152455270Y-127036285D02*
X152527841Y-127253999D01*
X152527841Y-127253999D02*
X152527841Y-127399142D01*
X152527841Y-127399142D02*
X152455270Y-127616856D01*
X152455270Y-127616856D02*
X152310127Y-127761999D01*
X152310127Y-127761999D02*
X152164984Y-127834570D01*
X152164984Y-127834570D02*
X151874698Y-127907142D01*
X151874698Y-127907142D02*
X151656984Y-127907142D01*
X151656984Y-127907142D02*
X151366698Y-127834570D01*
X151366698Y-127834570D02*
X151221555Y-127761999D01*
X151221555Y-127761999D02*
X151076412Y-127616856D01*
X151076412Y-127616856D02*
X151003841Y-127399142D01*
X151003841Y-127399142D02*
X151003841Y-127253999D01*
X151003841Y-127253999D02*
X151076412Y-127036285D01*
X151076412Y-127036285D02*
X151148984Y-126963713D01*
X152527841Y-126310570D02*
X151003841Y-126310570D01*
X152527841Y-125439713D02*
X151656984Y-126092856D01*
X151003841Y-125439713D02*
X151874698Y-126310570D01*
D10*
D11*
X101618141Y-133150181D02*
X102634141Y-134674181D01*
X102634141Y-133150181D02*
X101618141Y-134674181D01*
X103214713Y-134674181D02*
X103214713Y-133150181D01*
X104666141Y-134674181D02*
X103940427Y-134674181D01*
X103940427Y-134674181D02*
X103940427Y-133150181D01*
X105174141Y-134674181D02*
X105174141Y-133150181D01*
X105899855Y-134674181D02*
X105899855Y-133150181D01*
X105899855Y-133150181D02*
X106770712Y-134674181D01*
X106770712Y-134674181D02*
X106770712Y-133150181D01*
X107351283Y-133150181D02*
X108367283Y-134674181D01*
X108367283Y-133150181D02*
X107351283Y-134674181D01*
X109963855Y-133150181D02*
X110979855Y-134674181D01*
X110979855Y-133150181D02*
X109963855Y-134674181D01*
X112431284Y-134529038D02*
X112358712Y-134601610D01*
X112358712Y-134601610D02*
X112140998Y-134674181D01*
X112140998Y-134674181D02*
X111995855Y-134674181D01*
X111995855Y-134674181D02*
X111778141Y-134601610D01*
X111778141Y-134601610D02*
X111632998Y-134456467D01*
X111632998Y-134456467D02*
X111560427Y-134311324D01*
X111560427Y-134311324D02*
X111487855Y-134021038D01*
X111487855Y-134021038D02*
X111487855Y-133803324D01*
X111487855Y-133803324D02*
X111560427Y-133513038D01*
X111560427Y-133513038D02*
X111632998Y-133367895D01*
X111632998Y-133367895D02*
X111778141Y-133222752D01*
X111778141Y-133222752D02*
X111995855Y-133150181D01*
X111995855Y-133150181D02*
X112140998Y-133150181D01*
X112140998Y-133150181D02*
X112358712Y-133222752D01*
X112358712Y-133222752D02*
X112431284Y-133295324D01*
X113156998Y-134674181D02*
X113447284Y-134674181D01*
X113447284Y-134674181D02*
X113592427Y-134601610D01*
X113592427Y-134601610D02*
X113664998Y-134529038D01*
X113664998Y-134529038D02*
X113810141Y-134311324D01*
X113810141Y-134311324D02*
X113882712Y-134021038D01*
X113882712Y-134021038D02*
X113882712Y-133440467D01*
X113882712Y-133440467D02*
X113810141Y-133295324D01*
X113810141Y-133295324D02*
X113737570Y-133222752D01*
X113737570Y-133222752D02*
X113592427Y-133150181D01*
X113592427Y-133150181D02*
X113302141Y-133150181D01*
X113302141Y-133150181D02*
X113156998Y-133222752D01*
X113156998Y-133222752D02*
X113084427Y-133295324D01*
X113084427Y-133295324D02*
X113011855Y-133440467D01*
X113011855Y-133440467D02*
X113011855Y-133803324D01*
X113011855Y-133803324D02*
X113084427Y-133948467D01*
X113084427Y-133948467D02*
X113156998Y-134021038D01*
X113156998Y-134021038D02*
X113302141Y-134093610D01*
X113302141Y-134093610D02*
X113592427Y-134093610D01*
X113592427Y-134093610D02*
X113737570Y-134021038D01*
X113737570Y-134021038D02*
X113810141Y-133948467D01*
X113810141Y-133948467D02*
X113882712Y-133803324D01*
X115261570Y-133150181D02*
X114535856Y-133150181D01*
X114535856Y-133150181D02*
X114463284Y-133875895D01*
X114463284Y-133875895D02*
X114535856Y-133803324D01*
X114535856Y-133803324D02*
X114680999Y-133730752D01*
X114680999Y-133730752D02*
X115043856Y-133730752D01*
X115043856Y-133730752D02*
X115188999Y-133803324D01*
X115188999Y-133803324D02*
X115261570Y-133875895D01*
X115261570Y-133875895D02*
X115334141Y-134021038D01*
X115334141Y-134021038D02*
X115334141Y-134383895D01*
X115334141Y-134383895D02*
X115261570Y-134529038D01*
X115261570Y-134529038D02*
X115188999Y-134601610D01*
X115188999Y-134601610D02*
X115043856Y-134674181D01*
X115043856Y-134674181D02*
X114680999Y-134674181D01*
X114680999Y-134674181D02*
X114535856Y-134601610D01*
X114535856Y-134601610D02*
X114463284Y-134529038D01*
X116785570Y-134674181D02*
X115914713Y-134674181D01*
X116350142Y-134674181D02*
X116350142Y-133150181D01*
X116350142Y-133150181D02*
X116204999Y-133367895D01*
X116204999Y-133367895D02*
X116059856Y-133513038D01*
X116059856Y-133513038D02*
X115914713Y-133585610D01*
X117728999Y-133150181D02*
X117874142Y-133150181D01*
X117874142Y-133150181D02*
X118019285Y-133222752D01*
X118019285Y-133222752D02*
X118091857Y-133295324D01*
X118091857Y-133295324D02*
X118164428Y-133440467D01*
X118164428Y-133440467D02*
X118236999Y-133730752D01*
X118236999Y-133730752D02*
X118236999Y-134093610D01*
X118236999Y-134093610D02*
X118164428Y-134383895D01*
X118164428Y-134383895D02*
X118091857Y-134529038D01*
X118091857Y-134529038D02*
X118019285Y-134601610D01*
X118019285Y-134601610D02*
X117874142Y-134674181D01*
X117874142Y-134674181D02*
X117728999Y-134674181D01*
X117728999Y-134674181D02*
X117583857Y-134601610D01*
X117583857Y-134601610D02*
X117511285Y-134529038D01*
X117511285Y-134529038D02*
X117438714Y-134383895D01*
X117438714Y-134383895D02*
X117366142Y-134093610D01*
X117366142Y-134093610D02*
X117366142Y-133730752D01*
X117366142Y-133730752D02*
X117438714Y-133440467D01*
X117438714Y-133440467D02*
X117511285Y-133295324D01*
X117511285Y-133295324D02*
X117583857Y-133222752D01*
X117583857Y-133222752D02*
X117728999Y-133150181D01*
X119107857Y-133803324D02*
X118962714Y-133730752D01*
X118962714Y-133730752D02*
X118890143Y-133658181D01*
X118890143Y-133658181D02*
X118817571Y-133513038D01*
X118817571Y-133513038D02*
X118817571Y-133440467D01*
X118817571Y-133440467D02*
X118890143Y-133295324D01*
X118890143Y-133295324D02*
X118962714Y-133222752D01*
X118962714Y-133222752D02*
X119107857Y-133150181D01*
X119107857Y-133150181D02*
X119398143Y-133150181D01*
X119398143Y-133150181D02*
X119543286Y-133222752D01*
X119543286Y-133222752D02*
X119615857Y-133295324D01*
X119615857Y-133295324D02*
X119688428Y-133440467D01*
X119688428Y-133440467D02*
X119688428Y-133513038D01*
X119688428Y-133513038D02*
X119615857Y-133658181D01*
X119615857Y-133658181D02*
X119543286Y-133730752D01*
X119543286Y-133730752D02*
X119398143Y-133803324D01*
X119398143Y-133803324D02*
X119107857Y-133803324D01*
X119107857Y-133803324D02*
X118962714Y-133875895D01*
X118962714Y-133875895D02*
X118890143Y-133948467D01*
X118890143Y-133948467D02*
X118817571Y-134093610D01*
X118817571Y-134093610D02*
X118817571Y-134383895D01*
X118817571Y-134383895D02*
X118890143Y-134529038D01*
X118890143Y-134529038D02*
X118962714Y-134601610D01*
X118962714Y-134601610D02*
X119107857Y-134674181D01*
X119107857Y-134674181D02*
X119398143Y-134674181D01*
X119398143Y-134674181D02*
X119543286Y-134601610D01*
X119543286Y-134601610D02*
X119615857Y-134529038D01*
X119615857Y-134529038D02*
X119688428Y-134383895D01*
X119688428Y-134383895D02*
X119688428Y-134093610D01*
X119688428Y-134093610D02*
X119615857Y-133948467D01*
X119615857Y-133948467D02*
X119543286Y-133875895D01*
X119543286Y-133875895D02*
X119398143Y-133803324D01*
X120341572Y-134674181D02*
X120341572Y-133150181D01*
X120341572Y-133150181D02*
X120922143Y-133150181D01*
X120922143Y-133150181D02*
X121067286Y-133222752D01*
X121067286Y-133222752D02*
X121139857Y-133295324D01*
X121139857Y-133295324D02*
X121212429Y-133440467D01*
X121212429Y-133440467D02*
X121212429Y-133658181D01*
X121212429Y-133658181D02*
X121139857Y-133803324D01*
X121139857Y-133803324D02*
X121067286Y-133875895D01*
X121067286Y-133875895D02*
X120922143Y-133948467D01*
X120922143Y-133948467D02*
X120341572Y-133948467D01*
X122736429Y-134529038D02*
X122663857Y-134601610D01*
X122663857Y-134601610D02*
X122446143Y-134674181D01*
X122446143Y-134674181D02*
X122301000Y-134674181D01*
X122301000Y-134674181D02*
X122083286Y-134601610D01*
X122083286Y-134601610D02*
X121938143Y-134456467D01*
X121938143Y-134456467D02*
X121865572Y-134311324D01*
X121865572Y-134311324D02*
X121793000Y-134021038D01*
X121793000Y-134021038D02*
X121793000Y-133803324D01*
X121793000Y-133803324D02*
X121865572Y-133513038D01*
X121865572Y-133513038D02*
X121938143Y-133367895D01*
X121938143Y-133367895D02*
X122083286Y-133222752D01*
X122083286Y-133222752D02*
X122301000Y-133150181D01*
X122301000Y-133150181D02*
X122446143Y-133150181D01*
X122446143Y-133150181D02*
X122663857Y-133222752D01*
X122663857Y-133222752D02*
X122736429Y-133295324D01*
X123607286Y-133803324D02*
X123462143Y-133730752D01*
X123462143Y-133730752D02*
X123389572Y-133658181D01*
X123389572Y-133658181D02*
X123317000Y-133513038D01*
X123317000Y-133513038D02*
X123317000Y-133440467D01*
X123317000Y-133440467D02*
X123389572Y-133295324D01*
X123389572Y-133295324D02*
X123462143Y-133222752D01*
X123462143Y-133222752D02*
X123607286Y-133150181D01*
X123607286Y-133150181D02*
X123897572Y-133150181D01*
X123897572Y-133150181D02*
X124042715Y-133222752D01*
X124042715Y-133222752D02*
X124115286Y-133295324D01*
X124115286Y-133295324D02*
X124187857Y-133440467D01*
X124187857Y-133440467D02*
X124187857Y-133513038D01*
X124187857Y-133513038D02*
X124115286Y-133658181D01*
X124115286Y-133658181D02*
X124042715Y-133730752D01*
X124042715Y-133730752D02*
X123897572Y-133803324D01*
X123897572Y-133803324D02*
X123607286Y-133803324D01*
X123607286Y-133803324D02*
X123462143Y-133875895D01*
X123462143Y-133875895D02*
X123389572Y-133948467D01*
X123389572Y-133948467D02*
X123317000Y-134093610D01*
X123317000Y-134093610D02*
X123317000Y-134383895D01*
X123317000Y-134383895D02*
X123389572Y-134529038D01*
X123389572Y-134529038D02*
X123462143Y-134601610D01*
X123462143Y-134601610D02*
X123607286Y-134674181D01*
X123607286Y-134674181D02*
X123897572Y-134674181D01*
X123897572Y-134674181D02*
X124042715Y-134601610D01*
X124042715Y-134601610D02*
X124115286Y-134529038D01*
X124115286Y-134529038D02*
X124187857Y-134383895D01*
X124187857Y-134383895D02*
X124187857Y-134093610D01*
X124187857Y-134093610D02*
X124115286Y-133948467D01*
X124115286Y-133948467D02*
X124042715Y-133875895D01*
X124042715Y-133875895D02*
X123897572Y-133803324D01*
X125494144Y-133658181D02*
X125494144Y-134674181D01*
X125131286Y-133077610D02*
X124768429Y-134166181D01*
X124768429Y-134166181D02*
X125711858Y-134166181D01*
D10*
D11*
X175332572Y-67999181D02*
X174824572Y-67273467D01*
X174461715Y-67999181D02*
X174461715Y-66475181D01*
X174461715Y-66475181D02*
X175042286Y-66475181D01*
X175042286Y-66475181D02*
X175187429Y-66547752D01*
X175187429Y-66547752D02*
X175260000Y-66620324D01*
X175260000Y-66620324D02*
X175332572Y-66765467D01*
X175332572Y-66765467D02*
X175332572Y-66983181D01*
X175332572Y-66983181D02*
X175260000Y-67128324D01*
X175260000Y-67128324D02*
X175187429Y-67200895D01*
X175187429Y-67200895D02*
X175042286Y-67273467D01*
X175042286Y-67273467D02*
X174461715Y-67273467D01*
X176276000Y-66475181D02*
X176566286Y-66475181D01*
X176566286Y-66475181D02*
X176711429Y-66547752D01*
X176711429Y-66547752D02*
X176856572Y-66692895D01*
X176856572Y-66692895D02*
X176929143Y-66983181D01*
X176929143Y-66983181D02*
X176929143Y-67491181D01*
X176929143Y-67491181D02*
X176856572Y-67781467D01*
X176856572Y-67781467D02*
X176711429Y-67926610D01*
X176711429Y-67926610D02*
X176566286Y-67999181D01*
X176566286Y-67999181D02*
X176276000Y-67999181D01*
X176276000Y-67999181D02*
X176130858Y-67926610D01*
X176130858Y-67926610D02*
X175985715Y-67781467D01*
X175985715Y-67781467D02*
X175913143Y-67491181D01*
X175913143Y-67491181D02*
X175913143Y-66983181D01*
X175913143Y-66983181D02*
X175985715Y-66692895D01*
X175985715Y-66692895D02*
X176130858Y-66547752D01*
X176130858Y-66547752D02*
X176276000Y-66475181D01*
X177582286Y-67999181D02*
X177582286Y-66475181D01*
X177582286Y-66475181D02*
X178090286Y-67563752D01*
X178090286Y-67563752D02*
X178598286Y-66475181D01*
X178598286Y-66475181D02*
X178598286Y-67999181D01*
D10*
D11*
X186163857Y-67817752D02*
X186018715Y-67745181D01*
X186018715Y-67745181D02*
X185801000Y-67745181D01*
X185801000Y-67745181D02*
X185583286Y-67817752D01*
X185583286Y-67817752D02*
X185438143Y-67962895D01*
X185438143Y-67962895D02*
X185365572Y-68108038D01*
X185365572Y-68108038D02*
X185293000Y-68398324D01*
X185293000Y-68398324D02*
X185293000Y-68616038D01*
X185293000Y-68616038D02*
X185365572Y-68906324D01*
X185365572Y-68906324D02*
X185438143Y-69051467D01*
X185438143Y-69051467D02*
X185583286Y-69196610D01*
X185583286Y-69196610D02*
X185801000Y-69269181D01*
X185801000Y-69269181D02*
X185946143Y-69269181D01*
X185946143Y-69269181D02*
X186163857Y-69196610D01*
X186163857Y-69196610D02*
X186236429Y-69124038D01*
X186236429Y-69124038D02*
X186236429Y-68616038D01*
X186236429Y-68616038D02*
X185946143Y-68616038D01*
X186889572Y-69269181D02*
X186889572Y-67745181D01*
X186889572Y-67745181D02*
X187760429Y-69269181D01*
X187760429Y-69269181D02*
X187760429Y-67745181D01*
X188486143Y-69269181D02*
X188486143Y-67745181D01*
X188486143Y-67745181D02*
X188849000Y-67745181D01*
X188849000Y-67745181D02*
X189066714Y-67817752D01*
X189066714Y-67817752D02*
X189211857Y-67962895D01*
X189211857Y-67962895D02*
X189284428Y-68108038D01*
X189284428Y-68108038D02*
X189357000Y-68398324D01*
X189357000Y-68398324D02*
X189357000Y-68616038D01*
X189357000Y-68616038D02*
X189284428Y-68906324D01*
X189284428Y-68906324D02*
X189211857Y-69051467D01*
X189211857Y-69051467D02*
X189066714Y-69196610D01*
X189066714Y-69196610D02*
X188849000Y-69269181D01*
X188849000Y-69269181D02*
X188486143Y-69269181D01*
D10*
D11*
X182625752Y-126002142D02*
X182553181Y-126147285D01*
X182553181Y-126147285D02*
X182553181Y-126364999D01*
X182553181Y-126364999D02*
X182625752Y-126582713D01*
X182625752Y-126582713D02*
X182770895Y-126727856D01*
X182770895Y-126727856D02*
X182916038Y-126800427D01*
X182916038Y-126800427D02*
X183206324Y-126872999D01*
X183206324Y-126872999D02*
X183424038Y-126872999D01*
X183424038Y-126872999D02*
X183714324Y-126800427D01*
X183714324Y-126800427D02*
X183859467Y-126727856D01*
X183859467Y-126727856D02*
X184004610Y-126582713D01*
X184004610Y-126582713D02*
X184077181Y-126364999D01*
X184077181Y-126364999D02*
X184077181Y-126219856D01*
X184077181Y-126219856D02*
X184004610Y-126002142D01*
X184004610Y-126002142D02*
X183932038Y-125929570D01*
X183932038Y-125929570D02*
X183424038Y-125929570D01*
X183424038Y-125929570D02*
X183424038Y-126219856D01*
X184077181Y-125276427D02*
X182553181Y-125276427D01*
X182553181Y-125276427D02*
X184077181Y-124405570D01*
X184077181Y-124405570D02*
X182553181Y-124405570D01*
X184077181Y-123679856D02*
X182553181Y-123679856D01*
X182553181Y-123679856D02*
X182553181Y-123316999D01*
X182553181Y-123316999D02*
X182625752Y-123099285D01*
X182625752Y-123099285D02*
X182770895Y-122954142D01*
X182770895Y-122954142D02*
X182916038Y-122881571D01*
X182916038Y-122881571D02*
X183206324Y-122808999D01*
X183206324Y-122808999D02*
X183424038Y-122808999D01*
X183424038Y-122808999D02*
X183714324Y-122881571D01*
X183714324Y-122881571D02*
X183859467Y-122954142D01*
X183859467Y-122954142D02*
X184004610Y-123099285D01*
X184004610Y-123099285D02*
X184077181Y-123316999D01*
X184077181Y-123316999D02*
X184077181Y-123679856D01*
D10*
D11*
X184639857Y-53775181D02*
X185147857Y-55299181D01*
X185147857Y-55299181D02*
X185655857Y-53775181D01*
X186454143Y-53775181D02*
X186744429Y-53775181D01*
X186744429Y-53775181D02*
X186889572Y-53847752D01*
X186889572Y-53847752D02*
X187034715Y-53992895D01*
X187034715Y-53992895D02*
X187107286Y-54283181D01*
X187107286Y-54283181D02*
X187107286Y-54791181D01*
X187107286Y-54791181D02*
X187034715Y-55081467D01*
X187034715Y-55081467D02*
X186889572Y-55226610D01*
X186889572Y-55226610D02*
X186744429Y-55299181D01*
X186744429Y-55299181D02*
X186454143Y-55299181D01*
X186454143Y-55299181D02*
X186309001Y-55226610D01*
X186309001Y-55226610D02*
X186163858Y-55081467D01*
X186163858Y-55081467D02*
X186091286Y-54791181D01*
X186091286Y-54791181D02*
X186091286Y-54283181D01*
X186091286Y-54283181D02*
X186163858Y-53992895D01*
X186163858Y-53992895D02*
X186309001Y-53847752D01*
X186309001Y-53847752D02*
X186454143Y-53775181D01*
X187760429Y-53775181D02*
X187760429Y-55008895D01*
X187760429Y-55008895D02*
X187833000Y-55154038D01*
X187833000Y-55154038D02*
X187905572Y-55226610D01*
X187905572Y-55226610D02*
X188050714Y-55299181D01*
X188050714Y-55299181D02*
X188341000Y-55299181D01*
X188341000Y-55299181D02*
X188486143Y-55226610D01*
X188486143Y-55226610D02*
X188558714Y-55154038D01*
X188558714Y-55154038D02*
X188631286Y-55008895D01*
X188631286Y-55008895D02*
X188631286Y-53775181D01*
X189139285Y-53775181D02*
X190010143Y-53775181D01*
X189574714Y-55299181D02*
X189574714Y-53775181D01*
D10*
D11*
X159185181Y-128905000D02*
X160709181Y-128397000D01*
X160709181Y-128397000D02*
X159185181Y-127889000D01*
X160564038Y-126510142D02*
X160636610Y-126582714D01*
X160636610Y-126582714D02*
X160709181Y-126800428D01*
X160709181Y-126800428D02*
X160709181Y-126945571D01*
X160709181Y-126945571D02*
X160636610Y-127163285D01*
X160636610Y-127163285D02*
X160491467Y-127308428D01*
X160491467Y-127308428D02*
X160346324Y-127380999D01*
X160346324Y-127380999D02*
X160056038Y-127453571D01*
X160056038Y-127453571D02*
X159838324Y-127453571D01*
X159838324Y-127453571D02*
X159548038Y-127380999D01*
X159548038Y-127380999D02*
X159402895Y-127308428D01*
X159402895Y-127308428D02*
X159257752Y-127163285D01*
X159257752Y-127163285D02*
X159185181Y-126945571D01*
X159185181Y-126945571D02*
X159185181Y-126800428D01*
X159185181Y-126800428D02*
X159257752Y-126582714D01*
X159257752Y-126582714D02*
X159330324Y-126510142D01*
X160564038Y-124986142D02*
X160636610Y-125058714D01*
X160636610Y-125058714D02*
X160709181Y-125276428D01*
X160709181Y-125276428D02*
X160709181Y-125421571D01*
X160709181Y-125421571D02*
X160636610Y-125639285D01*
X160636610Y-125639285D02*
X160491467Y-125784428D01*
X160491467Y-125784428D02*
X160346324Y-125856999D01*
X160346324Y-125856999D02*
X160056038Y-125929571D01*
X160056038Y-125929571D02*
X159838324Y-125929571D01*
X159838324Y-125929571D02*
X159548038Y-125856999D01*
X159548038Y-125856999D02*
X159402895Y-125784428D01*
X159402895Y-125784428D02*
X159257752Y-125639285D01*
X159257752Y-125639285D02*
X159185181Y-125421571D01*
X159185181Y-125421571D02*
X159185181Y-125276428D01*
X159185181Y-125276428D02*
X159257752Y-125058714D01*
X159257752Y-125058714D02*
X159330324Y-124986142D01*
D10*
D11*
X110744000Y-83239181D02*
X110744000Y-81715181D01*
X110744000Y-81715181D02*
X111324571Y-81715181D01*
X111324571Y-81715181D02*
X111469714Y-81787752D01*
X111469714Y-81787752D02*
X111542285Y-81860324D01*
X111542285Y-81860324D02*
X111614857Y-82005467D01*
X111614857Y-82005467D02*
X111614857Y-82223181D01*
X111614857Y-82223181D02*
X111542285Y-82368324D01*
X111542285Y-82368324D02*
X111469714Y-82440895D01*
X111469714Y-82440895D02*
X111324571Y-82513467D01*
X111324571Y-82513467D02*
X110744000Y-82513467D01*
X112268000Y-83239181D02*
X112268000Y-81715181D01*
X112993714Y-83239181D02*
X112993714Y-81715181D01*
X112993714Y-81715181D02*
X113864571Y-83239181D01*
X113864571Y-83239181D02*
X113864571Y-81715181D01*
X115388570Y-83239181D02*
X114517713Y-83239181D01*
X114953142Y-83239181D02*
X114953142Y-81715181D01*
X114953142Y-81715181D02*
X114807999Y-81932895D01*
X114807999Y-81932895D02*
X114662856Y-82078038D01*
X114662856Y-82078038D02*
X114517713Y-82150610D01*
D10*
D11*
X156718841Y-128868714D02*
X156718841Y-127997857D01*
X158242841Y-128433285D02*
X156718841Y-128433285D01*
X158242841Y-127489856D02*
X156718841Y-127489856D01*
X156718841Y-127489856D02*
X156718841Y-127126999D01*
X156718841Y-127126999D02*
X156791412Y-126909285D01*
X156791412Y-126909285D02*
X156936555Y-126764142D01*
X156936555Y-126764142D02*
X157081698Y-126691571D01*
X157081698Y-126691571D02*
X157371984Y-126618999D01*
X157371984Y-126618999D02*
X157589698Y-126618999D01*
X157589698Y-126618999D02*
X157879984Y-126691571D01*
X157879984Y-126691571D02*
X158025127Y-126764142D01*
X158025127Y-126764142D02*
X158170270Y-126909285D01*
X158170270Y-126909285D02*
X158242841Y-127126999D01*
X158242841Y-127126999D02*
X158242841Y-127489856D01*
X156718841Y-125675571D02*
X156718841Y-125385285D01*
X156718841Y-125385285D02*
X156791412Y-125240142D01*
X156791412Y-125240142D02*
X156936555Y-125094999D01*
X156936555Y-125094999D02*
X157226841Y-125022428D01*
X157226841Y-125022428D02*
X157734841Y-125022428D01*
X157734841Y-125022428D02*
X158025127Y-125094999D01*
X158025127Y-125094999D02*
X158170270Y-125240142D01*
X158170270Y-125240142D02*
X158242841Y-125385285D01*
X158242841Y-125385285D02*
X158242841Y-125675571D01*
X158242841Y-125675571D02*
X158170270Y-125820714D01*
X158170270Y-125820714D02*
X158025127Y-125965856D01*
X158025127Y-125965856D02*
X157734841Y-126038428D01*
X157734841Y-126038428D02*
X157226841Y-126038428D01*
X157226841Y-126038428D02*
X156936555Y-125965856D01*
X156936555Y-125965856D02*
X156791412Y-125820714D01*
X156791412Y-125820714D02*
X156718841Y-125675571D01*
D10*
D11*
X148009181Y-128905000D02*
X148009181Y-128034143D01*
X149533181Y-128469571D02*
X148009181Y-128469571D01*
X149533181Y-127526142D02*
X148009181Y-127526142D01*
X148009181Y-127526142D02*
X149097752Y-127018142D01*
X149097752Y-127018142D02*
X148009181Y-126510142D01*
X148009181Y-126510142D02*
X149533181Y-126510142D01*
X149460610Y-125857000D02*
X149533181Y-125639286D01*
X149533181Y-125639286D02*
X149533181Y-125276428D01*
X149533181Y-125276428D02*
X149460610Y-125131286D01*
X149460610Y-125131286D02*
X149388038Y-125058714D01*
X149388038Y-125058714D02*
X149242895Y-124986143D01*
X149242895Y-124986143D02*
X149097752Y-124986143D01*
X149097752Y-124986143D02*
X148952610Y-125058714D01*
X148952610Y-125058714D02*
X148880038Y-125131286D01*
X148880038Y-125131286D02*
X148807467Y-125276428D01*
X148807467Y-125276428D02*
X148734895Y-125566714D01*
X148734895Y-125566714D02*
X148662324Y-125711857D01*
X148662324Y-125711857D02*
X148589752Y-125784428D01*
X148589752Y-125784428D02*
X148444610Y-125857000D01*
X148444610Y-125857000D02*
X148299467Y-125857000D01*
X148299467Y-125857000D02*
X148154324Y-125784428D01*
X148154324Y-125784428D02*
X148081752Y-125711857D01*
X148081752Y-125711857D02*
X148009181Y-125566714D01*
X148009181Y-125566714D02*
X148009181Y-125203857D01*
X148009181Y-125203857D02*
X148081752Y-124986143D01*
D10*
D11*
X187179857Y-116821610D02*
X188341000Y-116821610D01*
X187760428Y-117402181D02*
X187760428Y-116241038D01*
X189864999Y-117402181D02*
X188994142Y-117402181D01*
X189429571Y-117402181D02*
X189429571Y-115878181D01*
X189429571Y-115878181D02*
X189284428Y-116095895D01*
X189284428Y-116095895D02*
X189139285Y-116241038D01*
X189139285Y-116241038D02*
X188994142Y-116313610D01*
X190445571Y-116023324D02*
X190518143Y-115950752D01*
X190518143Y-115950752D02*
X190663286Y-115878181D01*
X190663286Y-115878181D02*
X191026143Y-115878181D01*
X191026143Y-115878181D02*
X191171286Y-115950752D01*
X191171286Y-115950752D02*
X191243857Y-116023324D01*
X191243857Y-116023324D02*
X191316428Y-116168467D01*
X191316428Y-116168467D02*
X191316428Y-116313610D01*
X191316428Y-116313610D02*
X191243857Y-116531324D01*
X191243857Y-116531324D02*
X190373000Y-117402181D01*
X190373000Y-117402181D02*
X191316428Y-117402181D01*
X191751857Y-115878181D02*
X192259857Y-117402181D01*
X192259857Y-117402181D02*
X192767857Y-115878181D01*
D10*
D11*
X110744000Y-93399181D02*
X110744000Y-91875181D01*
X110744000Y-91875181D02*
X111324571Y-91875181D01*
X111324571Y-91875181D02*
X111469714Y-91947752D01*
X111469714Y-91947752D02*
X111542285Y-92020324D01*
X111542285Y-92020324D02*
X111614857Y-92165467D01*
X111614857Y-92165467D02*
X111614857Y-92383181D01*
X111614857Y-92383181D02*
X111542285Y-92528324D01*
X111542285Y-92528324D02*
X111469714Y-92600895D01*
X111469714Y-92600895D02*
X111324571Y-92673467D01*
X111324571Y-92673467D02*
X110744000Y-92673467D01*
X112268000Y-93399181D02*
X112268000Y-91875181D01*
X112993714Y-93399181D02*
X112993714Y-91875181D01*
X112993714Y-91875181D02*
X113864571Y-93399181D01*
X113864571Y-93399181D02*
X113864571Y-91875181D01*
X114517713Y-92020324D02*
X114590285Y-91947752D01*
X114590285Y-91947752D02*
X114735428Y-91875181D01*
X114735428Y-91875181D02*
X115098285Y-91875181D01*
X115098285Y-91875181D02*
X115243428Y-91947752D01*
X115243428Y-91947752D02*
X115315999Y-92020324D01*
X115315999Y-92020324D02*
X115388570Y-92165467D01*
X115388570Y-92165467D02*
X115388570Y-92310610D01*
X115388570Y-92310610D02*
X115315999Y-92528324D01*
X115315999Y-92528324D02*
X114445142Y-93399181D01*
X114445142Y-93399181D02*
X115388570Y-93399181D01*
D10*
D11*
X186544857Y-134728610D02*
X187706000Y-134728610D01*
X189229999Y-135309181D02*
X188359142Y-135309181D01*
X188794571Y-135309181D02*
X188794571Y-133785181D01*
X188794571Y-133785181D02*
X188649428Y-134002895D01*
X188649428Y-134002895D02*
X188504285Y-134148038D01*
X188504285Y-134148038D02*
X188359142Y-134220610D01*
X189810571Y-133930324D02*
X189883143Y-133857752D01*
X189883143Y-133857752D02*
X190028286Y-133785181D01*
X190028286Y-133785181D02*
X190391143Y-133785181D01*
X190391143Y-133785181D02*
X190536286Y-133857752D01*
X190536286Y-133857752D02*
X190608857Y-133930324D01*
X190608857Y-133930324D02*
X190681428Y-134075467D01*
X190681428Y-134075467D02*
X190681428Y-134220610D01*
X190681428Y-134220610D02*
X190608857Y-134438324D01*
X190608857Y-134438324D02*
X189738000Y-135309181D01*
X189738000Y-135309181D02*
X190681428Y-135309181D01*
X191116857Y-133785181D02*
X191624857Y-135309181D01*
X191624857Y-135309181D02*
X192132857Y-133785181D01*
D10*
D11*
X160237714Y-67999181D02*
X159729714Y-67273467D01*
X159366857Y-67999181D02*
X159366857Y-66475181D01*
X159366857Y-66475181D02*
X159947428Y-66475181D01*
X159947428Y-66475181D02*
X160092571Y-66547752D01*
X160092571Y-66547752D02*
X160165142Y-66620324D01*
X160165142Y-66620324D02*
X160237714Y-66765467D01*
X160237714Y-66765467D02*
X160237714Y-66983181D01*
X160237714Y-66983181D02*
X160165142Y-67128324D01*
X160165142Y-67128324D02*
X160092571Y-67200895D01*
X160092571Y-67200895D02*
X159947428Y-67273467D01*
X159947428Y-67273467D02*
X159366857Y-67273467D01*
X160818285Y-67563752D02*
X161544000Y-67563752D01*
X160673142Y-67999181D02*
X161181142Y-66475181D01*
X161181142Y-66475181D02*
X161689142Y-67999181D01*
X162197143Y-67999181D02*
X162197143Y-66475181D01*
X162197143Y-66475181D02*
X162705143Y-67563752D01*
X162705143Y-67563752D02*
X163213143Y-66475181D01*
X163213143Y-66475181D02*
X163213143Y-67999181D01*
D10*
D11*
X101944714Y-131989038D02*
X101872142Y-132061610D01*
X101872142Y-132061610D02*
X101654428Y-132134181D01*
X101654428Y-132134181D02*
X101509285Y-132134181D01*
X101509285Y-132134181D02*
X101291571Y-132061610D01*
X101291571Y-132061610D02*
X101146428Y-131916467D01*
X101146428Y-131916467D02*
X101073857Y-131771324D01*
X101073857Y-131771324D02*
X101001285Y-131481038D01*
X101001285Y-131481038D02*
X101001285Y-131263324D01*
X101001285Y-131263324D02*
X101073857Y-130973038D01*
X101073857Y-130973038D02*
X101146428Y-130827895D01*
X101146428Y-130827895D02*
X101291571Y-130682752D01*
X101291571Y-130682752D02*
X101509285Y-130610181D01*
X101509285Y-130610181D02*
X101654428Y-130610181D01*
X101654428Y-130610181D02*
X101872142Y-130682752D01*
X101872142Y-130682752D02*
X101944714Y-130755324D01*
X102525285Y-131698752D02*
X103251000Y-131698752D01*
X102380142Y-132134181D02*
X102888142Y-130610181D01*
X102888142Y-130610181D02*
X103396142Y-132134181D01*
X104775000Y-132134181D02*
X104267000Y-131408467D01*
X103904143Y-132134181D02*
X103904143Y-130610181D01*
X103904143Y-130610181D02*
X104484714Y-130610181D01*
X104484714Y-130610181D02*
X104629857Y-130682752D01*
X104629857Y-130682752D02*
X104702428Y-130755324D01*
X104702428Y-130755324D02*
X104775000Y-130900467D01*
X104775000Y-130900467D02*
X104775000Y-131118181D01*
X104775000Y-131118181D02*
X104702428Y-131263324D01*
X104702428Y-131263324D02*
X104629857Y-131335895D01*
X104629857Y-131335895D02*
X104484714Y-131408467D01*
X104484714Y-131408467D02*
X103904143Y-131408467D01*
X105210428Y-130610181D02*
X106081286Y-130610181D01*
X105645857Y-132134181D02*
X105645857Y-130610181D01*
X106589286Y-131335895D02*
X107097286Y-131335895D01*
X107315000Y-132134181D02*
X106589286Y-132134181D01*
X106589286Y-132134181D02*
X106589286Y-130610181D01*
X106589286Y-130610181D02*
X107315000Y-130610181D01*
X108911571Y-130610181D02*
X109782429Y-130610181D01*
X109347000Y-132134181D02*
X109347000Y-130610181D01*
X110290429Y-131335895D02*
X110798429Y-131335895D01*
X111016143Y-132134181D02*
X110290429Y-132134181D01*
X110290429Y-132134181D02*
X110290429Y-130610181D01*
X110290429Y-130610181D02*
X111016143Y-130610181D01*
X111596714Y-132061610D02*
X111814429Y-132134181D01*
X111814429Y-132134181D02*
X112177286Y-132134181D01*
X112177286Y-132134181D02*
X112322429Y-132061610D01*
X112322429Y-132061610D02*
X112395000Y-131989038D01*
X112395000Y-131989038D02*
X112467571Y-131843895D01*
X112467571Y-131843895D02*
X112467571Y-131698752D01*
X112467571Y-131698752D02*
X112395000Y-131553610D01*
X112395000Y-131553610D02*
X112322429Y-131481038D01*
X112322429Y-131481038D02*
X112177286Y-131408467D01*
X112177286Y-131408467D02*
X111887000Y-131335895D01*
X111887000Y-131335895D02*
X111741857Y-131263324D01*
X111741857Y-131263324D02*
X111669286Y-131190752D01*
X111669286Y-131190752D02*
X111596714Y-131045610D01*
X111596714Y-131045610D02*
X111596714Y-130900467D01*
X111596714Y-130900467D02*
X111669286Y-130755324D01*
X111669286Y-130755324D02*
X111741857Y-130682752D01*
X111741857Y-130682752D02*
X111887000Y-130610181D01*
X111887000Y-130610181D02*
X112249857Y-130610181D01*
X112249857Y-130610181D02*
X112467571Y-130682752D01*
X112903000Y-130610181D02*
X113773858Y-130610181D01*
X113338429Y-132134181D02*
X113338429Y-130610181D01*
D10*
D11*
X153479676Y-128433285D02*
X153479676Y-127562428D01*
X154749676Y-127997856D02*
X153479676Y-127997856D01*
X154749676Y-127054427D02*
X153479676Y-127054427D01*
X153479676Y-127054427D02*
X153479676Y-126691570D01*
X153479676Y-126691570D02*
X153540152Y-126473856D01*
X153540152Y-126473856D02*
X153661104Y-126328713D01*
X153661104Y-126328713D02*
X153782057Y-126256142D01*
X153782057Y-126256142D02*
X154023961Y-126183570D01*
X154023961Y-126183570D02*
X154205390Y-126183570D01*
X154205390Y-126183570D02*
X154447295Y-126256142D01*
X154447295Y-126256142D02*
X154568247Y-126328713D01*
X154568247Y-126328713D02*
X154689200Y-126473856D01*
X154689200Y-126473856D02*
X154749676Y-126691570D01*
X154749676Y-126691570D02*
X154749676Y-127054427D01*
X154749676Y-125530427D02*
X153479676Y-125530427D01*
D12*
%TO.P,D1,1,K*%
%TO.N,+12V*%
X181102000Y-115570000D03*
D13*
%TO.P,D1,2,A*%
%TO.N,/+12BATT*%
X181102000Y-128270000D03*
%TD*%
D12*
%TO.P,D4,1,K*%
%TO.N,/-12BATT*%
X194310000Y-107315000D03*
D13*
%TO.P,D4,2,A*%
%TO.N,-12V*%
X194310000Y-94615000D03*
%TD*%
D14*
%TO.P,SW1,1,1*%
%TO.N,/SW0*%
X158242000Y-53721000D03*
X164742000Y-53721000D03*
%TO.P,SW1,2,2*%
%TO.N,GND*%
X158242000Y-58221000D03*
X164742000Y-58221000D03*
%TD*%
D15*
%TO.P,U2,1,P1*%
%TO.N,/PIN_TEST0*%
X120015000Y-86995000D03*
D16*
%TO.P,U2,2,P2*%
%TO.N,/PIN_TEST1*%
X122555000Y-86995000D03*
%TO.P,U2,3,P3*%
%TO.N,/PARBUS3*%
X120015000Y-89535000D03*
%TO.P,U2,4,P4*%
%TO.N,/PAR_AUX8{slash}SELECT*%
X122555000Y-89535000D03*
%TO.P,U2,5,P5*%
%TO.N,/PARBUS2*%
X120015000Y-92075000D03*
%TO.P,U2,6,P6*%
%TO.N,/PAR_AUX7{slash}INIT*%
X122555000Y-92075000D03*
%TO.P,U2,7,P7*%
%TO.N,/PARBUS1*%
X120015000Y-94615000D03*
%TO.P,U2,8,GND*%
%TO.N,GND*%
X122555000Y-94615000D03*
%TO.P,U2,9,I/O/GCK1*%
%TO.N,/PAR_AUX1{slash}ERROR\u002A*%
X120015000Y-97155000D03*
%TO.P,U2,10,I/O/GCK2*%
%TO.N,/PARBUS0*%
X122555000Y-97155000D03*
%TO.P,U2,11,P11*%
%TO.N,/PAR_AUX2{slash}AUTOLF\u002A*%
X120015000Y-99695000D03*
%TO.P,U2,12,I/O/GCK3*%
%TO.N,/XIN{slash}CLK*%
X122555000Y-102235000D03*
%TO.P,U2,13,P13*%
%TO.N,/PAR_AUX0{slash}STROBE\u002A*%
X122555000Y-99695000D03*
%TO.P,U2,14,P14*%
%TO.N,unconnected-(U2-P14-Pad14)*%
X125095000Y-102235000D03*
%TO.P,U2,15,P15*%
%TO.N,unconnected-(U2-P15-Pad15)*%
X125095000Y-99695000D03*
%TO.P,U2,16,GND*%
%TO.N,GND*%
X127635000Y-102235000D03*
%TO.P,U2,17,P17*%
%TO.N,unconnected-(U2-P17-Pad17)*%
X127635000Y-99695000D03*
%TO.P,U2,18,P18*%
%TO.N,unconnected-(U2-P18-Pad18)*%
X130175000Y-102235000D03*
%TO.P,U2,19,P19*%
%TO.N,unconnected-(U2-P19-Pad19)*%
X130175000Y-99695000D03*
%TO.P,U2,20,P20*%
%TO.N,unconnected-(U2-P20-Pad20)*%
X132715000Y-102235000D03*
%TO.P,U2,21,P21*%
%TO.N,unconnected-(U2-P21-Pad21)*%
X132715000Y-99695000D03*
%TO.P,U2,22,VCCIO*%
%TO.N,VCC*%
X135255000Y-102235000D03*
%TO.P,U2,23,P23*%
%TO.N,unconnected-(U2-P23-Pad23)*%
X135255000Y-99695000D03*
%TO.P,U2,24,P24*%
%TO.N,/MA4*%
X137795000Y-102235000D03*
%TO.P,U2,25,P25*%
%TO.N,/MA3*%
X137795000Y-99695000D03*
%TO.P,U2,26,P26*%
%TO.N,/MA2*%
X140335000Y-102235000D03*
%TO.P,U2,27,GND*%
%TO.N,GND*%
X140335000Y-99695000D03*
%TO.P,U2,28,TDI*%
%TO.N,/TDI*%
X142875000Y-102235000D03*
%TO.P,U2,29,TMS*%
%TO.N,/TMS*%
X142875000Y-99695000D03*
%TO.P,U2,30,TCK*%
%TO.N,/TCK*%
X145415000Y-102235000D03*
%TO.P,U2,31,P31*%
%TO.N,/MA5*%
X145415000Y-99695000D03*
%TO.P,U2,32,P32*%
%TO.N,/MA1*%
X147955000Y-102235000D03*
%TO.P,U2,33,P33*%
%TO.N,/MA0*%
X150495000Y-99695000D03*
%TO.P,U2,34,P34*%
%TO.N,/MA6*%
X147955000Y-99695000D03*
%TO.P,U2,35,P35*%
%TO.N,/MD0*%
X150495000Y-97155000D03*
%TO.P,U2,36,P36*%
%TO.N,/MA7*%
X147955000Y-97155000D03*
%TO.P,U2,37,P37*%
%TO.N,/MD1*%
X150495000Y-94615000D03*
%TO.P,U2,38,VCC*%
%TO.N,VCC*%
X147955000Y-94615000D03*
%TO.P,U2,39,P39*%
%TO.N,/CSMEM*%
X150495000Y-92075000D03*
%TO.P,U2,40,P40*%
%TO.N,/MD2*%
X147955000Y-92075000D03*
%TO.P,U2,41,P41*%
%TO.N,/MD10*%
X150495000Y-89535000D03*
%TO.P,U2,42,GND*%
%TO.N,GND*%
X147955000Y-89535000D03*
%TO.P,U2,43,P43*%
%TO.N,/OEMEM*%
X150495000Y-86995000D03*
%TO.P,U2,44,P44*%
%TO.N,/MD3*%
X147955000Y-86995000D03*
%TO.P,U2,45,P45*%
%TO.N,/MD11*%
X150495000Y-84455000D03*
%TO.P,U2,46,P46*%
%TO.N,/MD4*%
X147955000Y-84455000D03*
%TO.P,U2,47,P47*%
%TO.N,/MD9*%
X150495000Y-81915000D03*
%TO.P,U2,48,P48*%
%TO.N,/MD5*%
X147955000Y-81915000D03*
%TO.P,U2,49,GND*%
%TO.N,GND*%
X150495000Y-79375000D03*
%TO.P,U2,50,P50*%
%TO.N,/MD6*%
X147955000Y-79375000D03*
%TO.P,U2,51,P51*%
%TO.N,/MD8*%
X150495000Y-76835000D03*
%TO.P,U2,52,P52*%
%TO.N,/MD7*%
X147955000Y-76835000D03*
%TO.P,U2,53,P53*%
%TO.N,/MD13*%
X150495000Y-74295000D03*
%TO.P,U2,54,P54*%
%TO.N,/R{slash}W-A14*%
X147955000Y-71755000D03*
%TO.P,U2,55,P55*%
%TO.N,/MD12*%
X147955000Y-74295000D03*
%TO.P,U2,56,P56*%
%TO.N,/MD14*%
X145415000Y-71755000D03*
%TO.P,U2,57,P57*%
%TO.N,unconnected-(U2-P57-Pad57)*%
X145415000Y-74295000D03*
%TO.P,U2,58,P58*%
%TO.N,/DAT6*%
X142875000Y-71755000D03*
%TO.P,U2,59,TDO*%
%TO.N,/TDO*%
X142875000Y-74295000D03*
%TO.P,U2,60,GND*%
%TO.N,GND*%
X140335000Y-71755000D03*
%TO.P,U2,61,P61*%
%TO.N,/DAT5*%
X140335000Y-74295000D03*
%TO.P,U2,62,P62*%
%TO.N,/DAT7*%
X137795000Y-71755000D03*
%TO.P,U2,63,P63*%
%TO.N,/DAT4*%
X137795000Y-74295000D03*
%TO.P,U2,64,VCCIO*%
%TO.N,VCC*%
X135255000Y-71755000D03*
%TO.P,U2,65,P65*%
%TO.N,unconnected-(U2-P65-Pad65)*%
X135255000Y-74295000D03*
%TO.P,U2,66,P66*%
%TO.N,/DAT1*%
X132715000Y-71755000D03*
%TO.P,U2,67,P67*%
%TO.N,/DCLK*%
X132715000Y-74295000D03*
%TO.P,U2,68,P68*%
%TO.N,/DAT3*%
X130175000Y-71755000D03*
%TO.P,U2,69,P69*%
%TO.N,/DAT0*%
X130175000Y-74295000D03*
%TO.P,U2,70,P70*%
%TO.N,/DAT2*%
X127635000Y-71755000D03*
%TO.P,U2,71,P71*%
%TO.N,/SW1*%
X127635000Y-74295000D03*
%TO.P,U2,72,P72*%
%TO.N,/SW0*%
X125095000Y-71755000D03*
%TO.P,U2,73,VCC*%
%TO.N,VCC*%
X125095000Y-74295000D03*
%TO.P,U2,74,I/O/GSR*%
%TO.N,/LED2*%
X122555000Y-71755000D03*
%TO.P,U2,75,P75*%
%TO.N,/PAR_AUX3{slash}SELECT\u002A*%
X120015000Y-74295000D03*
%TO.P,U2,76,I/O/GTS1*%
%TO.N,/LED1*%
X122555000Y-74295000D03*
%TO.P,U2,77,I/O/GTS2*%
%TO.N,/PAR_AUX4{slash}PE*%
X120015000Y-76835000D03*
%TO.P,U2,78,VCC*%
%TO.N,VCC*%
X122555000Y-76835000D03*
%TO.P,U2,79,P79*%
%TO.N,/PAR_AUX6{slash}ACK*%
X120015000Y-79375000D03*
%TO.P,U2,80,P80*%
%TO.N,/PAR_AUX5{slash}BUSY\u002A*%
X122555000Y-79375000D03*
%TO.P,U2,81,P81*%
%TO.N,/PARBUS6*%
X120015000Y-81915000D03*
%TO.P,U2,82,P82*%
%TO.N,/PARBUS7*%
X122555000Y-81915000D03*
%TO.P,U2,83,P83*%
%TO.N,/PARBUS5*%
X120015000Y-84455000D03*
%TO.P,U2,84,P84*%
%TO.N,/PARBUS4*%
X122555000Y-84455000D03*
%TD*%
D17*
%TO.P,U4,1*%
%TO.N,Net-(C5-Pad1)*%
X123825000Y-117475000D03*
D18*
%TO.P,U4,2*%
%TO.N,Net-(C4-Pad1)*%
X126365000Y-117475000D03*
%TO.P,U4,3*%
X128905000Y-117475000D03*
%TO.P,U4,4*%
%TO.N,/XIN{slash}CLK*%
X131445000Y-117475000D03*
%TO.P,U4,5*%
%TO.N,GND*%
X133985000Y-117475000D03*
%TO.P,U4,6*%
%TO.N,unconnected-(U4-Pad6)*%
X136525000Y-117475000D03*
%TO.P,U4,7,GND*%
%TO.N,GND*%
X139065000Y-117475000D03*
%TO.P,U4,8*%
%TO.N,unconnected-(U4-Pad8)*%
X139065000Y-109855000D03*
%TO.P,U4,9*%
%TO.N,GND*%
X136525000Y-109855000D03*
%TO.P,U4,10*%
%TO.N,unconnected-(U4-Pad10)*%
X133985000Y-109855000D03*
%TO.P,U4,11*%
%TO.N,GND*%
X131445000Y-109855000D03*
%TO.P,U4,12*%
%TO.N,unconnected-(U4-Pad12)*%
X128905000Y-109855000D03*
%TO.P,U4,13*%
%TO.N,GND*%
X126365000Y-109855000D03*
%TO.P,U4,14,VCC*%
%TO.N,VCC*%
X123825000Y-109855000D03*
%TD*%
D19*
%TO.P,P4,1,1*%
%TO.N,GND*%
X111125000Y-86360000D03*
D20*
%TO.P,P4,2,2*%
%TO.N,/PIN_TEST0*%
X113665000Y-86360000D03*
%TO.P,P4,3,3*%
%TO.N,GND*%
X111125000Y-88900000D03*
%TO.P,P4,4,4*%
%TO.N,/PIN_TEST1*%
X113665000Y-88900000D03*
%TD*%
D19*
%TO.P,K1,1,P1*%
%TO.N,VCC*%
X170800000Y-66675000D03*
D20*
%TO.P,K1,2,PM*%
%TO.N,Net-(K1-PM)*%
X168260000Y-66675000D03*
%TO.P,K1,3,P3*%
%TO.N,/MD14*%
X165720000Y-66675000D03*
%TD*%
D21*
%TO.P,R2,1*%
%TO.N,Net-(D2-A)*%
X114935000Y-52705000D03*
D13*
%TO.P,R2,2*%
%TO.N,/LED1*%
X114935000Y-62865000D03*
%TD*%
D21*
%TO.P,R8,1*%
%TO.N,Net-(U6--)*%
X134874000Y-39878000D03*
D13*
%TO.P,R8,2*%
%TO.N,Net-(C14-Pad2)*%
X145034000Y-39878000D03*
%TD*%
D21*
%TO.P,R10,1*%
%TO.N,Net-(P3-P1)*%
X187325000Y-52070000D03*
D13*
%TO.P,R10,2*%
%TO.N,Net-(U6-OUT)*%
X187325000Y-41910000D03*
%TD*%
D21*
%TO.P,R9,1*%
%TO.N,Net-(U6-+)*%
X135001000Y-43561000D03*
D13*
%TO.P,R9,2*%
%TO.N,Net-(C2-Pad2)*%
X145161000Y-43561000D03*
%TD*%
D21*
%TO.P,R1,1*%
%TO.N,Net-(C4-Pad1)*%
X125095000Y-126365000D03*
D13*
%TO.P,R1,2*%
%TO.N,Net-(C5-Pad1)*%
X135255000Y-126365000D03*
%TD*%
D21*
%TO.P,R5,1*%
%TO.N,VCC*%
X147955000Y-64135000D03*
D13*
%TO.P,R5,2*%
%TO.N,/SW0*%
X147955000Y-53975000D03*
%TD*%
D21*
%TO.P,R6,1*%
%TO.N,Net-(U6-+)*%
X115570000Y-43561000D03*
D13*
%TO.P,R6,2*%
%TO.N,GND*%
X105410000Y-43561000D03*
%TD*%
D21*
%TO.P,R3,1*%
%TO.N,Net-(D3-A)*%
X118200000Y-52700000D03*
D13*
%TO.P,R3,2*%
%TO.N,/LED2*%
X118200000Y-62860000D03*
%TD*%
D17*
%TO.P,U1,1,VREF*%
%TO.N,Net-(U1-VREF)*%
X123825000Y-65405000D03*
D18*
%TO.P,U1,2,AGND*%
%TO.N,GND*%
X126365000Y-65405000D03*
%TO.P,U1,3,DB2*%
%TO.N,/DAT2*%
X128905000Y-65405000D03*
%TO.P,U1,4,DB3*%
%TO.N,/DAT3*%
X131445000Y-65405000D03*
%TO.P,U1,5,Clock*%
%TO.N,/DCLK*%
X133985000Y-65405000D03*
%TO.P,U1,6,DGND*%
%TO.N,GND*%
X136525000Y-65405000D03*
%TO.P,U1,7,DB7*%
%TO.N,/DAT7*%
X139065000Y-65405000D03*
%TO.P,U1,8,DB6*%
%TO.N,/DAT6*%
X141605000Y-65405000D03*
%TO.P,U1,9,DB5*%
%TO.N,/DAT5*%
X141605000Y-57785000D03*
%TO.P,U1,10,DB4*%
%TO.N,/DAT4*%
X139065000Y-57785000D03*
%TO.P,U1,11,DB1*%
%TO.N,/DAT1*%
X136525000Y-57785000D03*
%TO.P,U1,12,DB0*%
%TO.N,/DAT0*%
X133985000Y-57785000D03*
%TO.P,U1,13,VCCD*%
%TO.N,VCC*%
X131445000Y-57785000D03*
%TO.P,U1,14,VOUT*%
%TO.N,Net-(C2-Pad1)*%
X128905000Y-57785000D03*
%TO.P,U1,15,VOUT*%
%TO.N,Net-(C14-Pad1)*%
X126365000Y-57785000D03*
%TO.P,U1,16,VCCA*%
%TO.N,VCC*%
X123825000Y-57785000D03*
%TD*%
D22*
%TO.P,X1,1,1*%
%TO.N,Net-(C5-Pad1)*%
X120650000Y-121539000D03*
%TO.P,X1,2,2*%
%TO.N,Net-(C4-Pad1)*%
X120650000Y-126439000D03*
%TD*%
D21*
%TO.P,R4,1*%
%TO.N,VCC*%
X152781000Y-64135000D03*
D13*
%TO.P,R4,2*%
%TO.N,/SW1*%
X152781000Y-53975000D03*
%TD*%
D21*
%TO.P,R7,1*%
%TO.N,Net-(U6-OUT)*%
X115570000Y-40132000D03*
D13*
%TO.P,R7,2*%
%TO.N,Net-(U6--)*%
X105410000Y-40132000D03*
%TD*%
D23*
%TO.P,D3,1,K*%
%TO.N,GND*%
X108585000Y-52705000D03*
D24*
%TO.P,D3,2,A*%
%TO.N,Net-(D3-A)*%
X111125000Y-52705000D03*
%TD*%
D23*
%TO.P,D2,1,K*%
%TO.N,GND*%
X108585000Y-60325000D03*
D24*
%TO.P,D2,2,A*%
%TO.N,Net-(D2-A)*%
X111125000Y-60325000D03*
%TD*%
D17*
%TO.P,U6,1,FIN2*%
%TO.N,unconnected-(U6-FIN2-Pad1)*%
X118872000Y-47371000D03*
D18*
%TO.P,U6,2,-*%
%TO.N,Net-(U6--)*%
X121412000Y-47371000D03*
%TO.P,U6,3,+*%
%TO.N,Net-(U6-+)*%
X123952000Y-47371000D03*
%TO.P,U6,4,V-*%
%TO.N,-12V*%
X126492000Y-47371000D03*
%TO.P,U6,5,FOUT*%
%TO.N,unconnected-(U6-FOUT-Pad5)*%
X126492000Y-39751000D03*
%TO.P,U6,6,OUT*%
%TO.N,Net-(U6-OUT)*%
X123952000Y-39751000D03*
%TO.P,U6,7,V+*%
%TO.N,+12V*%
X121412000Y-39751000D03*
%TO.P,U6,8,FIN1*%
%TO.N,unconnected-(U6-FIN1-Pad8)*%
X118872000Y-39751000D03*
%TD*%
D25*
%TO.P,J1,0*%
%TO.N,N/C*%
X100815000Y-64732000D03*
X100815000Y-111832000D03*
D12*
%TO.P,J1,1,1*%
%TO.N,/PAR_AUX0{slash}STROBE\u002A*%
X102235000Y-104902000D03*
D21*
%TO.P,J1,2,2*%
%TO.N,/PARBUS0*%
X102235000Y-102132000D03*
%TO.P,J1,3,3*%
%TO.N,/PARBUS1*%
X102235000Y-99362000D03*
%TO.P,J1,4,4*%
%TO.N,/PARBUS2*%
X102235000Y-96592000D03*
%TO.P,J1,5,5*%
%TO.N,/PARBUS3*%
X102235000Y-93822000D03*
%TO.P,J1,6,6*%
%TO.N,/PARBUS4*%
X102235000Y-91052000D03*
%TO.P,J1,7,7*%
%TO.N,/PARBUS5*%
X102235000Y-88282000D03*
%TO.P,J1,8,8*%
%TO.N,/PARBUS6*%
X102235000Y-85512000D03*
%TO.P,J1,9,9*%
%TO.N,/PARBUS7*%
X102235000Y-82742000D03*
%TO.P,J1,10,10*%
%TO.N,/PAR_AUX6{slash}ACK*%
X102235000Y-79972000D03*
%TO.P,J1,11,11*%
%TO.N,/PAR_AUX5{slash}BUSY\u002A*%
X102235000Y-77202000D03*
%TO.P,J1,12,12*%
%TO.N,/PAR_AUX4{slash}PE*%
X102235000Y-74432000D03*
%TO.P,J1,13,13*%
%TO.N,/PAR_AUX3{slash}SELECT\u002A*%
X102235000Y-71662000D03*
%TO.P,J1,14,P14*%
%TO.N,/PAR_AUX2{slash}AUTOLF\u002A*%
X99395000Y-103517000D03*
%TO.P,J1,15,P15*%
%TO.N,/PAR_AUX1{slash}ERROR\u002A*%
X99395000Y-100747000D03*
%TO.P,J1,16,P16*%
%TO.N,/PAR_AUX7{slash}INIT*%
X99395000Y-97977000D03*
%TO.P,J1,17,P17*%
%TO.N,/PAR_AUX8{slash}SELECT*%
X99395000Y-95207000D03*
%TO.P,J1,18,P18*%
%TO.N,GND*%
X99395000Y-92437000D03*
%TO.P,J1,19,P19*%
X99395000Y-89667000D03*
%TO.P,J1,20,P20*%
X99395000Y-86897000D03*
%TO.P,J1,21,P21*%
X99395000Y-84127000D03*
%TO.P,J1,22,P22*%
X99395000Y-81357000D03*
%TO.P,J1,23,P23*%
X99395000Y-78587000D03*
%TO.P,J1,24,P24*%
X99395000Y-75817000D03*
%TO.P,J1,25,P25*%
X99395000Y-73047000D03*
%TD*%
D26*
%TO.P,U3,1,VI*%
%TO.N,+12V*%
X155575000Y-117475000D03*
D27*
%TO.P,U3,2,GND*%
%TO.N,GND*%
X155575000Y-120015000D03*
%TO.P,U3,3,VO*%
%TO.N,VCC*%
X155575000Y-122555000D03*
%TD*%
D25*
%TO.P,J2,0*%
%TO.N,N/C*%
X141980000Y-130983000D03*
X166980000Y-130983000D03*
D12*
%TO.P,J2,1,1*%
%TO.N,VCC*%
X160020000Y-130683000D03*
D21*
%TO.P,J2,2,2*%
%TO.N,/TDO*%
X157250000Y-130683000D03*
%TO.P,J2,3,3*%
%TO.N,/TDI*%
X154480000Y-130683000D03*
%TO.P,J2,4,4*%
%TO.N,/TCK*%
X151710000Y-130683000D03*
%TO.P,J2,5,5*%
%TO.N,/TMS*%
X148940000Y-130683000D03*
%TO.P,J2,6,P6*%
%TO.N,GND*%
X158635000Y-133523000D03*
%TO.P,J2,7,P7*%
X155865000Y-133523000D03*
%TO.P,J2,8,P8*%
X153095000Y-133523000D03*
%TO.P,J2,9,P9*%
X150325000Y-133523000D03*
%TD*%
D28*
%TO.P,P2,1,P1*%
%TO.N,/+12BATT*%
X189738000Y-130556000D03*
D29*
%TO.P,P2,2,PM*%
%TO.N,GND*%
X189738000Y-125476000D03*
%TO.P,P2,3,P3*%
%TO.N,/-12BATT*%
X189738000Y-120396000D03*
%TD*%
D28*
%TO.P,P3,1,P1*%
%TO.N,Net-(P3-P1)*%
X190500000Y-64135000D03*
D29*
%TO.P,P3,2,PM*%
%TO.N,GND*%
X190500000Y-59055000D03*
%TD*%
D30*
%TO.P,C13,1*%
%TO.N,GND*%
X167005000Y-43942000D03*
D31*
%TO.P,C13,2*%
%TO.N,-12V*%
X152005000Y-43942000D03*
%TD*%
D30*
%TO.P,C6,1*%
%TO.N,+12V*%
X163957000Y-108331000D03*
D31*
%TO.P,C6,2*%
%TO.N,GND*%
X148957000Y-108331000D03*
%TD*%
D30*
%TO.P,C3,1*%
%TO.N,VCC*%
X188595000Y-81280000D03*
D31*
%TO.P,C3,2*%
%TO.N,GND*%
X188595000Y-96280000D03*
%TD*%
D30*
%TO.P,C2,1*%
%TO.N,Net-(C2-Pad1)*%
X129600000Y-53400000D03*
D31*
%TO.P,C2,2*%
%TO.N,Net-(C2-Pad2)*%
X144600000Y-53400000D03*
%TD*%
D14*
%TO.P,SW2,1,1*%
%TO.N,/SW1*%
X171831000Y-53721000D03*
X178331000Y-53721000D03*
%TO.P,SW2,2,2*%
%TO.N,GND*%
X171831000Y-58221000D03*
X178331000Y-58221000D03*
%TD*%
D32*
%TO.P,U5,1,A14*%
%TO.N,Net-(K1-PM)*%
X168255000Y-73015000D03*
D33*
%TO.P,U5,2,A12*%
%TO.N,/MD12*%
X168255000Y-75555000D03*
%TO.P,U5,3,A7*%
%TO.N,/MD7*%
X168255000Y-78095000D03*
%TO.P,U5,4,A6*%
%TO.N,/MD6*%
X168255000Y-80635000D03*
%TO.P,U5,5,A5*%
%TO.N,/MD5*%
X168255000Y-83175000D03*
%TO.P,U5,6,A4*%
%TO.N,/MD4*%
X168255000Y-85715000D03*
%TO.P,U5,7,A3*%
%TO.N,/MD3*%
X168255000Y-88255000D03*
%TO.P,U5,8,A2*%
%TO.N,/MD2*%
X168255000Y-90795000D03*
%TO.P,U5,9,A1*%
%TO.N,/MD1*%
X168255000Y-93335000D03*
%TO.P,U5,10,A0*%
%TO.N,/MD0*%
X168255000Y-95875000D03*
%TO.P,U5,11,D0*%
%TO.N,/MA0*%
X168255000Y-98415000D03*
%TO.P,U5,12,D1*%
%TO.N,/MA1*%
X168255000Y-100955000D03*
%TO.P,U5,13,D2*%
%TO.N,/MA2*%
X168255000Y-103495000D03*
%TO.P,U5,14,GND*%
%TO.N,GND*%
X168255000Y-106035000D03*
%TO.P,U5,15,D3*%
%TO.N,/MA3*%
X175875000Y-106035000D03*
X183495000Y-106035000D03*
%TO.P,U5,16,D4*%
%TO.N,/MA4*%
X175875000Y-103495000D03*
X183495000Y-103495000D03*
%TO.P,U5,17,D5*%
%TO.N,/MA5*%
X175875000Y-100955000D03*
X183495000Y-100955000D03*
%TO.P,U5,18,D6*%
%TO.N,/MA6*%
X175875000Y-98415000D03*
X183495000Y-98415000D03*
%TO.P,U5,19,D7*%
%TO.N,/MA7*%
X175875000Y-95875000D03*
X183495000Y-95875000D03*
%TO.P,U5,20,CS*%
%TO.N,/CSMEM*%
X175875000Y-93335000D03*
X183495000Y-93335000D03*
%TO.P,U5,21,A10*%
%TO.N,/MD10*%
X175875000Y-90795000D03*
X183495000Y-90795000D03*
%TO.P,U5,22,OE*%
%TO.N,/OEMEM*%
X175875000Y-88255000D03*
X183495000Y-88255000D03*
%TO.P,U5,23,A11*%
%TO.N,/MD11*%
X175875000Y-85715000D03*
X183495000Y-85715000D03*
%TO.P,U5,24,A9*%
%TO.N,/MD9*%
X175875000Y-83175000D03*
X183495000Y-83175000D03*
%TO.P,U5,25,A8*%
%TO.N,/MD8*%
X175875000Y-80635000D03*
X183495000Y-80635000D03*
%TO.P,U5,26,A13*%
%TO.N,/MD13*%
X175875000Y-78095000D03*
X183495000Y-78095000D03*
%TO.P,U5,27,WE*%
%TO.N,/R{slash}W-A14*%
X175875000Y-75555000D03*
X183495000Y-75555000D03*
%TO.P,U5,28,VCC*%
%TO.N,VCC*%
X175875000Y-73015000D03*
X183495000Y-73015000D03*
%TD*%
D30*
%TO.P,C14,1*%
%TO.N,Net-(C14-Pad1)*%
X130600000Y-47900000D03*
D31*
%TO.P,C14,2*%
%TO.N,Net-(C14-Pad2)*%
X145600000Y-47900000D03*
%TD*%
D34*
%TO.N,/MA2*%
X140970000Y-105410000D03*
%TO.N,/MA3*%
X135255000Y-107315000D03*
%TO.N,/MA4*%
X137160000Y-106045000D03*
%TO.N,/SW0*%
X120015000Y-67945000D03*
%TO.N,/SW1*%
X121920000Y-67945000D03*
D35*
%TO.N,/TDI*%
X150114000Y-124206000D03*
D34*
%TO.N,/TDO*%
X154305000Y-66040000D03*
%TO.N,GND*%
X126365000Y-67945000D03*
X135890000Y-68580000D03*
X156210000Y-78740000D03*
%TO.N,VCC*%
X132715000Y-106045000D03*
X123825000Y-107315000D03*
%TD*%
D36*
%TO.N,+12V*%
X121412000Y-41275000D02*
X121412000Y-39751000D01*
X181102000Y-115570000D02*
X181102000Y-112903000D01*
X181610000Y-42799000D02*
X176530000Y-37719000D01*
X132842000Y-37719000D02*
X132207000Y-38354000D01*
X186182000Y-71247000D02*
X181610000Y-66675000D01*
X181102000Y-112903000D02*
X186182000Y-107823000D01*
X122047000Y-41910000D02*
X121412000Y-41275000D01*
X176530000Y-37719000D02*
X132842000Y-37719000D01*
X186182000Y-107823000D02*
X186182000Y-71247000D01*
X132207000Y-41148000D02*
X131445000Y-41910000D01*
X132207000Y-38354000D02*
X132207000Y-41148000D01*
X181610000Y-66675000D02*
X181610000Y-42799000D01*
X131445000Y-41910000D02*
X122047000Y-41910000D01*
D37*
%TO.N,/MA2*%
X161925000Y-105410000D02*
X163830000Y-103505000D01*
X140970000Y-105410000D02*
X161925000Y-105410000D01*
X163830000Y-103505000D02*
X168275000Y-103505000D01*
%TO.N,/MA3*%
X169926000Y-109220000D02*
X182880000Y-109220000D01*
X137160000Y-107950000D02*
X140335000Y-107950000D01*
X183515000Y-108585000D02*
X183515000Y-106045000D01*
X140335000Y-107950000D02*
X142621000Y-110236000D01*
X168910000Y-110236000D02*
X169926000Y-109220000D01*
X136525000Y-107315000D02*
X137160000Y-107950000D01*
X135255000Y-107315000D02*
X136525000Y-107315000D01*
X182880000Y-109220000D02*
X183515000Y-108585000D01*
X142621000Y-110236000D02*
X168910000Y-110236000D01*
%TO.N,/MA4*%
X166751000Y-107950000D02*
X177165000Y-107950000D01*
X139065000Y-106680000D02*
X140335000Y-106680000D01*
X177165000Y-107950000D02*
X181610000Y-103505000D01*
X140970000Y-107315000D02*
X145288000Y-107315000D01*
X137160000Y-106045000D02*
X138430000Y-106045000D01*
X145288000Y-107315000D02*
X146177000Y-106426000D01*
X146177000Y-106426000D02*
X165227000Y-106426000D01*
X140335000Y-106680000D02*
X140970000Y-107315000D01*
X181610000Y-103505000D02*
X183515000Y-103505000D01*
X138430000Y-106045000D02*
X139065000Y-106680000D01*
X165227000Y-106426000D02*
X166751000Y-107950000D01*
%TO.N,/SW0*%
X147955000Y-52555000D02*
X146800000Y-51400000D01*
X120015000Y-54483000D02*
X120015000Y-67945000D01*
X123098000Y-51400000D02*
X120015000Y-54483000D01*
X146800000Y-51400000D02*
X123098000Y-51400000D01*
X147955000Y-53975000D02*
X147955000Y-52555000D01*
%TO.N,/SW1*%
X121920000Y-67945000D02*
X121920000Y-56642000D01*
X144145000Y-55880000D02*
X152146000Y-55880000D01*
X123063000Y-55499000D02*
X139319000Y-55499000D01*
X152146000Y-55880000D02*
X152781000Y-55245000D01*
X121920000Y-56642000D02*
X123063000Y-55499000D01*
X139319000Y-55499000D02*
X139573000Y-55245000D01*
X143510000Y-55245000D02*
X144145000Y-55880000D01*
X139573000Y-55245000D02*
X143510000Y-55245000D01*
X152781000Y-55245000D02*
X152781000Y-53975000D01*
%TO.N,/TDI*%
X155720083Y-129442917D02*
X154480000Y-130683000D01*
X155720083Y-124986083D02*
X155720083Y-129442917D01*
X150114000Y-124206000D02*
X154940000Y-124206000D01*
X154940000Y-124206000D02*
X155720083Y-124986083D01*
%TO.N,/TDO*%
X142240000Y-104140000D02*
X141986000Y-103886000D01*
X141986000Y-103886000D02*
X139827000Y-103886000D01*
D38*
X146877999Y-132272999D02*
X155660001Y-132272999D01*
D37*
X116205000Y-108585000D02*
X116205000Y-127635000D01*
D38*
X155660001Y-132272999D02*
X157250000Y-130683000D01*
X137470000Y-128270000D02*
X136200000Y-129540000D01*
D37*
X152400000Y-104140000D02*
X142240000Y-104140000D01*
X154305000Y-102235000D02*
X154305000Y-89789000D01*
X158242000Y-85852000D02*
X158242000Y-69977000D01*
X154305000Y-89789000D02*
X158242000Y-85852000D01*
D38*
X145415000Y-130810000D02*
X146877999Y-132272999D01*
D37*
X154305000Y-102235000D02*
X152400000Y-104140000D01*
X139827000Y-103886000D02*
X139573000Y-104140000D01*
D38*
X145415000Y-128270000D02*
X145415000Y-130810000D01*
D37*
X118110000Y-129540000D02*
X136200000Y-129540000D01*
X158242000Y-69977000D02*
X154305000Y-66040000D01*
D38*
X145415000Y-128270000D02*
X137470000Y-128270000D01*
D37*
X116205000Y-127635000D02*
X118110000Y-129540000D01*
X120650000Y-104140000D02*
X116205000Y-108585000D01*
X139573000Y-104140000D02*
X120650000Y-104140000D01*
D36*
%TO.N,GND*%
X149860000Y-120015000D02*
X155575000Y-120015000D01*
X139065000Y-117475000D02*
X147320000Y-117475000D01*
X147320000Y-117475000D02*
X149860000Y-120015000D01*
X126365000Y-67945000D02*
X132715000Y-67945000D01*
X132715000Y-67945000D02*
X133350000Y-68580000D01*
X153543000Y-68580000D02*
X156210000Y-71247000D01*
X135890000Y-68580000D02*
X153543000Y-68580000D01*
X133350000Y-68580000D02*
X135890000Y-68580000D01*
X156210000Y-71247000D02*
X156210000Y-78740000D01*
%TO.N,VCC*%
X166370000Y-127000000D02*
X178435000Y-127000000D01*
X118745000Y-107950000D02*
X119380000Y-107315000D01*
X119380000Y-123825000D02*
X118745000Y-123190000D01*
X161925000Y-122555000D02*
X166370000Y-127000000D01*
X146685000Y-64135000D02*
X147955000Y-64135000D01*
X191135000Y-106680000D02*
X191135000Y-82550000D01*
X123825000Y-59690000D02*
X125095000Y-60960000D01*
X179070000Y-122047000D02*
X184785000Y-116332000D01*
X125095000Y-60960000D02*
X143510000Y-60960000D01*
X189865000Y-81280000D02*
X188595000Y-81280000D01*
X123825000Y-122555000D02*
X155575000Y-122555000D01*
X119380000Y-107315000D02*
X123825000Y-107315000D01*
X179070000Y-126365000D02*
X179070000Y-122047000D01*
X122555000Y-123825000D02*
X119380000Y-123825000D01*
X184785000Y-113030000D02*
X191135000Y-106680000D01*
X163703000Y-127000000D02*
X160020000Y-130683000D01*
X123825000Y-122555000D02*
X122555000Y-123825000D01*
X178435000Y-127000000D02*
X179070000Y-126365000D01*
X131445000Y-107315000D02*
X132715000Y-106045000D01*
X123825000Y-107315000D02*
X131445000Y-107315000D01*
X118745000Y-123190000D02*
X118745000Y-107950000D01*
X191135000Y-82550000D02*
X189865000Y-81280000D01*
X184785000Y-116332000D02*
X184785000Y-113030000D01*
X155575000Y-122555000D02*
X161925000Y-122555000D01*
X166370000Y-127000000D02*
X163703000Y-127000000D01*
X123825000Y-57785000D02*
X123825000Y-59690000D01*
X143510000Y-60960000D02*
X146685000Y-64135000D01*
%TD*%
M02*
