%TF.GenerationSoftware,KiCad,Pcbnew,8.0.5*%
%TF.CreationDate,2024-10-06T22:29:13+02:00*%
%TF.ProjectId,carte_test,63617274-655f-4746-9573-742e6b696361,0*%
%TF.SameCoordinates,Original*%
%TF.FileFunction,Legend,Top*%
%TF.FilePolarity,Positive*%
%FSLAX46Y46*%
G04 Gerber Fmt 4.6, Leading zero omitted, Abs format (unit mm)*
G04 Created by KiCad (PCBNEW 8.0.5) date 2024-10-06 22:29:13*
%MOMM*%
%LPD*%
G01*
G04 APERTURE LIST*
%ADD10C,0.150000*%
%ADD11C,0.203200*%
%ADD12C,0.120000*%
G04 APERTURE END LIST*
D10*
X183676819Y-122658094D02*
X182676819Y-122658094D01*
X182676819Y-122658094D02*
X182676819Y-122419999D01*
X182676819Y-122419999D02*
X182724438Y-122277142D01*
X182724438Y-122277142D02*
X182819676Y-122181904D01*
X182819676Y-122181904D02*
X182914914Y-122134285D01*
X182914914Y-122134285D02*
X183105390Y-122086666D01*
X183105390Y-122086666D02*
X183248247Y-122086666D01*
X183248247Y-122086666D02*
X183438723Y-122134285D01*
X183438723Y-122134285D02*
X183533961Y-122181904D01*
X183533961Y-122181904D02*
X183629200Y-122277142D01*
X183629200Y-122277142D02*
X183676819Y-122419999D01*
X183676819Y-122419999D02*
X183676819Y-122658094D01*
X183676819Y-121134285D02*
X183676819Y-121705713D01*
X183676819Y-121419999D02*
X182676819Y-121419999D01*
X182676819Y-121419999D02*
X182819676Y-121515237D01*
X182819676Y-121515237D02*
X182914914Y-121610475D01*
X182914914Y-121610475D02*
X182962533Y-121705713D01*
X183356819Y-115831904D02*
X182356819Y-115831904D01*
X183356819Y-115260476D02*
X182785390Y-115689047D01*
X182356819Y-115260476D02*
X182928247Y-115831904D01*
X192644819Y-101703094D02*
X191644819Y-101703094D01*
X191644819Y-101703094D02*
X191644819Y-101464999D01*
X191644819Y-101464999D02*
X191692438Y-101322142D01*
X191692438Y-101322142D02*
X191787676Y-101226904D01*
X191787676Y-101226904D02*
X191882914Y-101179285D01*
X191882914Y-101179285D02*
X192073390Y-101131666D01*
X192073390Y-101131666D02*
X192216247Y-101131666D01*
X192216247Y-101131666D02*
X192406723Y-101179285D01*
X192406723Y-101179285D02*
X192501961Y-101226904D01*
X192501961Y-101226904D02*
X192597200Y-101322142D01*
X192597200Y-101322142D02*
X192644819Y-101464999D01*
X192644819Y-101464999D02*
X192644819Y-101703094D01*
X191978152Y-100274523D02*
X192644819Y-100274523D01*
X191597200Y-100512618D02*
X192311485Y-100750713D01*
X192311485Y-100750713D02*
X192311485Y-100131666D01*
X192964819Y-107576904D02*
X191964819Y-107576904D01*
X192964819Y-107005476D02*
X192393390Y-107434047D01*
X191964819Y-107005476D02*
X192536247Y-107576904D01*
X160158667Y-52128200D02*
X160301524Y-52175819D01*
X160301524Y-52175819D02*
X160539619Y-52175819D01*
X160539619Y-52175819D02*
X160634857Y-52128200D01*
X160634857Y-52128200D02*
X160682476Y-52080580D01*
X160682476Y-52080580D02*
X160730095Y-51985342D01*
X160730095Y-51985342D02*
X160730095Y-51890104D01*
X160730095Y-51890104D02*
X160682476Y-51794866D01*
X160682476Y-51794866D02*
X160634857Y-51747247D01*
X160634857Y-51747247D02*
X160539619Y-51699628D01*
X160539619Y-51699628D02*
X160349143Y-51652009D01*
X160349143Y-51652009D02*
X160253905Y-51604390D01*
X160253905Y-51604390D02*
X160206286Y-51556771D01*
X160206286Y-51556771D02*
X160158667Y-51461533D01*
X160158667Y-51461533D02*
X160158667Y-51366295D01*
X160158667Y-51366295D02*
X160206286Y-51271057D01*
X160206286Y-51271057D02*
X160253905Y-51223438D01*
X160253905Y-51223438D02*
X160349143Y-51175819D01*
X160349143Y-51175819D02*
X160587238Y-51175819D01*
X160587238Y-51175819D02*
X160730095Y-51223438D01*
X161063429Y-51175819D02*
X161301524Y-52175819D01*
X161301524Y-52175819D02*
X161492000Y-51461533D01*
X161492000Y-51461533D02*
X161682476Y-52175819D01*
X161682476Y-52175819D02*
X161920572Y-51175819D01*
X162825333Y-52175819D02*
X162253905Y-52175819D01*
X162539619Y-52175819D02*
X162539619Y-51175819D01*
X162539619Y-51175819D02*
X162444381Y-51318676D01*
X162444381Y-51318676D02*
X162349143Y-51413914D01*
X162349143Y-51413914D02*
X162253905Y-51461533D01*
X134493095Y-83909819D02*
X134493095Y-84719342D01*
X134493095Y-84719342D02*
X134540714Y-84814580D01*
X134540714Y-84814580D02*
X134588333Y-84862200D01*
X134588333Y-84862200D02*
X134683571Y-84909819D01*
X134683571Y-84909819D02*
X134874047Y-84909819D01*
X134874047Y-84909819D02*
X134969285Y-84862200D01*
X134969285Y-84862200D02*
X135016904Y-84814580D01*
X135016904Y-84814580D02*
X135064523Y-84719342D01*
X135064523Y-84719342D02*
X135064523Y-83909819D01*
X135493095Y-84005057D02*
X135540714Y-83957438D01*
X135540714Y-83957438D02*
X135635952Y-83909819D01*
X135635952Y-83909819D02*
X135874047Y-83909819D01*
X135874047Y-83909819D02*
X135969285Y-83957438D01*
X135969285Y-83957438D02*
X136016904Y-84005057D01*
X136016904Y-84005057D02*
X136064523Y-84100295D01*
X136064523Y-84100295D02*
X136064523Y-84195533D01*
X136064523Y-84195533D02*
X136016904Y-84338390D01*
X136016904Y-84338390D02*
X135445476Y-84909819D01*
X135445476Y-84909819D02*
X136064523Y-84909819D01*
X120949819Y-114426904D02*
X121759342Y-114426904D01*
X121759342Y-114426904D02*
X121854580Y-114379285D01*
X121854580Y-114379285D02*
X121902200Y-114331666D01*
X121902200Y-114331666D02*
X121949819Y-114236428D01*
X121949819Y-114236428D02*
X121949819Y-114045952D01*
X121949819Y-114045952D02*
X121902200Y-113950714D01*
X121902200Y-113950714D02*
X121854580Y-113903095D01*
X121854580Y-113903095D02*
X121759342Y-113855476D01*
X121759342Y-113855476D02*
X120949819Y-113855476D01*
X121283152Y-112950714D02*
X121949819Y-112950714D01*
X120902200Y-113188809D02*
X121616485Y-113426904D01*
X121616485Y-113426904D02*
X121616485Y-112807857D01*
X111656905Y-84484819D02*
X111656905Y-83484819D01*
X111656905Y-83484819D02*
X112037857Y-83484819D01*
X112037857Y-83484819D02*
X112133095Y-83532438D01*
X112133095Y-83532438D02*
X112180714Y-83580057D01*
X112180714Y-83580057D02*
X112228333Y-83675295D01*
X112228333Y-83675295D02*
X112228333Y-83818152D01*
X112228333Y-83818152D02*
X112180714Y-83913390D01*
X112180714Y-83913390D02*
X112133095Y-83961009D01*
X112133095Y-83961009D02*
X112037857Y-84008628D01*
X112037857Y-84008628D02*
X111656905Y-84008628D01*
X113085476Y-83818152D02*
X113085476Y-84484819D01*
X112847381Y-83437200D02*
X112609286Y-84151485D01*
X112609286Y-84151485D02*
X113228333Y-84151485D01*
D11*
X167362618Y-64476959D02*
X167362618Y-63206959D01*
X168088333Y-64476959D02*
X167544047Y-63751244D01*
X168088333Y-63206959D02*
X167362618Y-63932673D01*
X169297857Y-64476959D02*
X168572142Y-64476959D01*
X168934999Y-64476959D02*
X168934999Y-63206959D01*
X168934999Y-63206959D02*
X168814047Y-63388387D01*
X168814047Y-63388387D02*
X168693095Y-63509340D01*
X168693095Y-63509340D02*
X168572142Y-63569816D01*
D10*
X115770819Y-50585666D02*
X115294628Y-50918999D01*
X115770819Y-51157094D02*
X114770819Y-51157094D01*
X114770819Y-51157094D02*
X114770819Y-50776142D01*
X114770819Y-50776142D02*
X114818438Y-50680904D01*
X114818438Y-50680904D02*
X114866057Y-50633285D01*
X114866057Y-50633285D02*
X114961295Y-50585666D01*
X114961295Y-50585666D02*
X115104152Y-50585666D01*
X115104152Y-50585666D02*
X115199390Y-50633285D01*
X115199390Y-50633285D02*
X115247009Y-50680904D01*
X115247009Y-50680904D02*
X115294628Y-50776142D01*
X115294628Y-50776142D02*
X115294628Y-51157094D01*
X114866057Y-50204713D02*
X114818438Y-50157094D01*
X114818438Y-50157094D02*
X114770819Y-50061856D01*
X114770819Y-50061856D02*
X114770819Y-49823761D01*
X114770819Y-49823761D02*
X114818438Y-49728523D01*
X114818438Y-49728523D02*
X114866057Y-49680904D01*
X114866057Y-49680904D02*
X114961295Y-49633285D01*
X114961295Y-49633285D02*
X115056533Y-49633285D01*
X115056533Y-49633285D02*
X115199390Y-49680904D01*
X115199390Y-49680904D02*
X115770819Y-50252332D01*
X115770819Y-50252332D02*
X115770819Y-49633285D01*
X139787333Y-38022819D02*
X139454000Y-37546628D01*
X139215905Y-38022819D02*
X139215905Y-37022819D01*
X139215905Y-37022819D02*
X139596857Y-37022819D01*
X139596857Y-37022819D02*
X139692095Y-37070438D01*
X139692095Y-37070438D02*
X139739714Y-37118057D01*
X139739714Y-37118057D02*
X139787333Y-37213295D01*
X139787333Y-37213295D02*
X139787333Y-37356152D01*
X139787333Y-37356152D02*
X139739714Y-37451390D01*
X139739714Y-37451390D02*
X139692095Y-37499009D01*
X139692095Y-37499009D02*
X139596857Y-37546628D01*
X139596857Y-37546628D02*
X139215905Y-37546628D01*
X140358762Y-37451390D02*
X140263524Y-37403771D01*
X140263524Y-37403771D02*
X140215905Y-37356152D01*
X140215905Y-37356152D02*
X140168286Y-37260914D01*
X140168286Y-37260914D02*
X140168286Y-37213295D01*
X140168286Y-37213295D02*
X140215905Y-37118057D01*
X140215905Y-37118057D02*
X140263524Y-37070438D01*
X140263524Y-37070438D02*
X140358762Y-37022819D01*
X140358762Y-37022819D02*
X140549238Y-37022819D01*
X140549238Y-37022819D02*
X140644476Y-37070438D01*
X140644476Y-37070438D02*
X140692095Y-37118057D01*
X140692095Y-37118057D02*
X140739714Y-37213295D01*
X140739714Y-37213295D02*
X140739714Y-37260914D01*
X140739714Y-37260914D02*
X140692095Y-37356152D01*
X140692095Y-37356152D02*
X140644476Y-37403771D01*
X140644476Y-37403771D02*
X140549238Y-37451390D01*
X140549238Y-37451390D02*
X140358762Y-37451390D01*
X140358762Y-37451390D02*
X140263524Y-37499009D01*
X140263524Y-37499009D02*
X140215905Y-37546628D01*
X140215905Y-37546628D02*
X140168286Y-37641866D01*
X140168286Y-37641866D02*
X140168286Y-37832342D01*
X140168286Y-37832342D02*
X140215905Y-37927580D01*
X140215905Y-37927580D02*
X140263524Y-37975200D01*
X140263524Y-37975200D02*
X140358762Y-38022819D01*
X140358762Y-38022819D02*
X140549238Y-38022819D01*
X140549238Y-38022819D02*
X140644476Y-37975200D01*
X140644476Y-37975200D02*
X140692095Y-37927580D01*
X140692095Y-37927580D02*
X140739714Y-37832342D01*
X140739714Y-37832342D02*
X140739714Y-37641866D01*
X140739714Y-37641866D02*
X140692095Y-37546628D01*
X140692095Y-37546628D02*
X140644476Y-37499009D01*
X140644476Y-37499009D02*
X140549238Y-37451390D01*
X185469819Y-47632857D02*
X184993628Y-47966190D01*
X185469819Y-48204285D02*
X184469819Y-48204285D01*
X184469819Y-48204285D02*
X184469819Y-47823333D01*
X184469819Y-47823333D02*
X184517438Y-47728095D01*
X184517438Y-47728095D02*
X184565057Y-47680476D01*
X184565057Y-47680476D02*
X184660295Y-47632857D01*
X184660295Y-47632857D02*
X184803152Y-47632857D01*
X184803152Y-47632857D02*
X184898390Y-47680476D01*
X184898390Y-47680476D02*
X184946009Y-47728095D01*
X184946009Y-47728095D02*
X184993628Y-47823333D01*
X184993628Y-47823333D02*
X184993628Y-48204285D01*
X185469819Y-46680476D02*
X185469819Y-47251904D01*
X185469819Y-46966190D02*
X184469819Y-46966190D01*
X184469819Y-46966190D02*
X184612676Y-47061428D01*
X184612676Y-47061428D02*
X184707914Y-47156666D01*
X184707914Y-47156666D02*
X184755533Y-47251904D01*
X184469819Y-46061428D02*
X184469819Y-45966190D01*
X184469819Y-45966190D02*
X184517438Y-45870952D01*
X184517438Y-45870952D02*
X184565057Y-45823333D01*
X184565057Y-45823333D02*
X184660295Y-45775714D01*
X184660295Y-45775714D02*
X184850771Y-45728095D01*
X184850771Y-45728095D02*
X185088866Y-45728095D01*
X185088866Y-45728095D02*
X185279342Y-45775714D01*
X185279342Y-45775714D02*
X185374580Y-45823333D01*
X185374580Y-45823333D02*
X185422200Y-45870952D01*
X185422200Y-45870952D02*
X185469819Y-45966190D01*
X185469819Y-45966190D02*
X185469819Y-46061428D01*
X185469819Y-46061428D02*
X185422200Y-46156666D01*
X185422200Y-46156666D02*
X185374580Y-46204285D01*
X185374580Y-46204285D02*
X185279342Y-46251904D01*
X185279342Y-46251904D02*
X185088866Y-46299523D01*
X185088866Y-46299523D02*
X184850771Y-46299523D01*
X184850771Y-46299523D02*
X184660295Y-46251904D01*
X184660295Y-46251904D02*
X184565057Y-46204285D01*
X184565057Y-46204285D02*
X184517438Y-46156666D01*
X184517438Y-46156666D02*
X184469819Y-46061428D01*
X132675333Y-43253819D02*
X132342000Y-42777628D01*
X132103905Y-43253819D02*
X132103905Y-42253819D01*
X132103905Y-42253819D02*
X132484857Y-42253819D01*
X132484857Y-42253819D02*
X132580095Y-42301438D01*
X132580095Y-42301438D02*
X132627714Y-42349057D01*
X132627714Y-42349057D02*
X132675333Y-42444295D01*
X132675333Y-42444295D02*
X132675333Y-42587152D01*
X132675333Y-42587152D02*
X132627714Y-42682390D01*
X132627714Y-42682390D02*
X132580095Y-42730009D01*
X132580095Y-42730009D02*
X132484857Y-42777628D01*
X132484857Y-42777628D02*
X132103905Y-42777628D01*
X133151524Y-43253819D02*
X133342000Y-43253819D01*
X133342000Y-43253819D02*
X133437238Y-43206200D01*
X133437238Y-43206200D02*
X133484857Y-43158580D01*
X133484857Y-43158580D02*
X133580095Y-43015723D01*
X133580095Y-43015723D02*
X133627714Y-42825247D01*
X133627714Y-42825247D02*
X133627714Y-42444295D01*
X133627714Y-42444295D02*
X133580095Y-42349057D01*
X133580095Y-42349057D02*
X133532476Y-42301438D01*
X133532476Y-42301438D02*
X133437238Y-42253819D01*
X133437238Y-42253819D02*
X133246762Y-42253819D01*
X133246762Y-42253819D02*
X133151524Y-42301438D01*
X133151524Y-42301438D02*
X133103905Y-42349057D01*
X133103905Y-42349057D02*
X133056286Y-42444295D01*
X133056286Y-42444295D02*
X133056286Y-42682390D01*
X133056286Y-42682390D02*
X133103905Y-42777628D01*
X133103905Y-42777628D02*
X133151524Y-42825247D01*
X133151524Y-42825247D02*
X133246762Y-42872866D01*
X133246762Y-42872866D02*
X133437238Y-42872866D01*
X133437238Y-42872866D02*
X133532476Y-42825247D01*
X133532476Y-42825247D02*
X133580095Y-42777628D01*
X133580095Y-42777628D02*
X133627714Y-42682390D01*
X130008333Y-124509819D02*
X129675000Y-124033628D01*
X129436905Y-124509819D02*
X129436905Y-123509819D01*
X129436905Y-123509819D02*
X129817857Y-123509819D01*
X129817857Y-123509819D02*
X129913095Y-123557438D01*
X129913095Y-123557438D02*
X129960714Y-123605057D01*
X129960714Y-123605057D02*
X130008333Y-123700295D01*
X130008333Y-123700295D02*
X130008333Y-123843152D01*
X130008333Y-123843152D02*
X129960714Y-123938390D01*
X129960714Y-123938390D02*
X129913095Y-123986009D01*
X129913095Y-123986009D02*
X129817857Y-124033628D01*
X129817857Y-124033628D02*
X129436905Y-124033628D01*
X130960714Y-124509819D02*
X130389286Y-124509819D01*
X130675000Y-124509819D02*
X130675000Y-123509819D01*
X130675000Y-123509819D02*
X130579762Y-123652676D01*
X130579762Y-123652676D02*
X130484524Y-123747914D01*
X130484524Y-123747914D02*
X130389286Y-123795533D01*
X146099819Y-59221666D02*
X145623628Y-59554999D01*
X146099819Y-59793094D02*
X145099819Y-59793094D01*
X145099819Y-59793094D02*
X145099819Y-59412142D01*
X145099819Y-59412142D02*
X145147438Y-59316904D01*
X145147438Y-59316904D02*
X145195057Y-59269285D01*
X145195057Y-59269285D02*
X145290295Y-59221666D01*
X145290295Y-59221666D02*
X145433152Y-59221666D01*
X145433152Y-59221666D02*
X145528390Y-59269285D01*
X145528390Y-59269285D02*
X145576009Y-59316904D01*
X145576009Y-59316904D02*
X145623628Y-59412142D01*
X145623628Y-59412142D02*
X145623628Y-59793094D01*
X145099819Y-58316904D02*
X145099819Y-58793094D01*
X145099819Y-58793094D02*
X145576009Y-58840713D01*
X145576009Y-58840713D02*
X145528390Y-58793094D01*
X145528390Y-58793094D02*
X145480771Y-58697856D01*
X145480771Y-58697856D02*
X145480771Y-58459761D01*
X145480771Y-58459761D02*
X145528390Y-58364523D01*
X145528390Y-58364523D02*
X145576009Y-58316904D01*
X145576009Y-58316904D02*
X145671247Y-58269285D01*
X145671247Y-58269285D02*
X145909342Y-58269285D01*
X145909342Y-58269285D02*
X146004580Y-58316904D01*
X146004580Y-58316904D02*
X146052200Y-58364523D01*
X146052200Y-58364523D02*
X146099819Y-58459761D01*
X146099819Y-58459761D02*
X146099819Y-58697856D01*
X146099819Y-58697856D02*
X146052200Y-58793094D01*
X146052200Y-58793094D02*
X146004580Y-58840713D01*
X110323333Y-46325819D02*
X109990000Y-45849628D01*
X109751905Y-46325819D02*
X109751905Y-45325819D01*
X109751905Y-45325819D02*
X110132857Y-45325819D01*
X110132857Y-45325819D02*
X110228095Y-45373438D01*
X110228095Y-45373438D02*
X110275714Y-45421057D01*
X110275714Y-45421057D02*
X110323333Y-45516295D01*
X110323333Y-45516295D02*
X110323333Y-45659152D01*
X110323333Y-45659152D02*
X110275714Y-45754390D01*
X110275714Y-45754390D02*
X110228095Y-45802009D01*
X110228095Y-45802009D02*
X110132857Y-45849628D01*
X110132857Y-45849628D02*
X109751905Y-45849628D01*
X111180476Y-45325819D02*
X110990000Y-45325819D01*
X110990000Y-45325819D02*
X110894762Y-45373438D01*
X110894762Y-45373438D02*
X110847143Y-45421057D01*
X110847143Y-45421057D02*
X110751905Y-45563914D01*
X110751905Y-45563914D02*
X110704286Y-45754390D01*
X110704286Y-45754390D02*
X110704286Y-46135342D01*
X110704286Y-46135342D02*
X110751905Y-46230580D01*
X110751905Y-46230580D02*
X110799524Y-46278200D01*
X110799524Y-46278200D02*
X110894762Y-46325819D01*
X110894762Y-46325819D02*
X111085238Y-46325819D01*
X111085238Y-46325819D02*
X111180476Y-46278200D01*
X111180476Y-46278200D02*
X111228095Y-46230580D01*
X111228095Y-46230580D02*
X111275714Y-46135342D01*
X111275714Y-46135342D02*
X111275714Y-45897247D01*
X111275714Y-45897247D02*
X111228095Y-45802009D01*
X111228095Y-45802009D02*
X111180476Y-45754390D01*
X111180476Y-45754390D02*
X111085238Y-45706771D01*
X111085238Y-45706771D02*
X110894762Y-45706771D01*
X110894762Y-45706771D02*
X110799524Y-45754390D01*
X110799524Y-45754390D02*
X110751905Y-45802009D01*
X110751905Y-45802009D02*
X110704286Y-45897247D01*
X120964819Y-57946666D02*
X120488628Y-58279999D01*
X120964819Y-58518094D02*
X119964819Y-58518094D01*
X119964819Y-58518094D02*
X119964819Y-58137142D01*
X119964819Y-58137142D02*
X120012438Y-58041904D01*
X120012438Y-58041904D02*
X120060057Y-57994285D01*
X120060057Y-57994285D02*
X120155295Y-57946666D01*
X120155295Y-57946666D02*
X120298152Y-57946666D01*
X120298152Y-57946666D02*
X120393390Y-57994285D01*
X120393390Y-57994285D02*
X120441009Y-58041904D01*
X120441009Y-58041904D02*
X120488628Y-58137142D01*
X120488628Y-58137142D02*
X120488628Y-58518094D01*
X119964819Y-57613332D02*
X119964819Y-56994285D01*
X119964819Y-56994285D02*
X120345771Y-57327618D01*
X120345771Y-57327618D02*
X120345771Y-57184761D01*
X120345771Y-57184761D02*
X120393390Y-57089523D01*
X120393390Y-57089523D02*
X120441009Y-57041904D01*
X120441009Y-57041904D02*
X120536247Y-56994285D01*
X120536247Y-56994285D02*
X120774342Y-56994285D01*
X120774342Y-56994285D02*
X120869580Y-57041904D01*
X120869580Y-57041904D02*
X120917200Y-57089523D01*
X120917200Y-57089523D02*
X120964819Y-57184761D01*
X120964819Y-57184761D02*
X120964819Y-57470475D01*
X120964819Y-57470475D02*
X120917200Y-57565713D01*
X120917200Y-57565713D02*
X120869580Y-57613332D01*
X120949819Y-62356904D02*
X121759342Y-62356904D01*
X121759342Y-62356904D02*
X121854580Y-62309285D01*
X121854580Y-62309285D02*
X121902200Y-62261666D01*
X121902200Y-62261666D02*
X121949819Y-62166428D01*
X121949819Y-62166428D02*
X121949819Y-61975952D01*
X121949819Y-61975952D02*
X121902200Y-61880714D01*
X121902200Y-61880714D02*
X121854580Y-61833095D01*
X121854580Y-61833095D02*
X121759342Y-61785476D01*
X121759342Y-61785476D02*
X120949819Y-61785476D01*
X121949819Y-60785476D02*
X121949819Y-61356904D01*
X121949819Y-61071190D02*
X120949819Y-61071190D01*
X120949819Y-61071190D02*
X121092676Y-61166428D01*
X121092676Y-61166428D02*
X121187914Y-61261666D01*
X121187914Y-61261666D02*
X121235533Y-61356904D01*
X116527976Y-116618819D02*
X117194642Y-117618819D01*
X117194642Y-116618819D02*
X116527976Y-117618819D01*
X118099404Y-117618819D02*
X117527976Y-117618819D01*
X117813690Y-117618819D02*
X117813690Y-116618819D01*
X117813690Y-116618819D02*
X117718452Y-116761676D01*
X117718452Y-116761676D02*
X117623214Y-116856914D01*
X117623214Y-116856914D02*
X117527976Y-116904533D01*
X150925819Y-59221666D02*
X150449628Y-59554999D01*
X150925819Y-59793094D02*
X149925819Y-59793094D01*
X149925819Y-59793094D02*
X149925819Y-59412142D01*
X149925819Y-59412142D02*
X149973438Y-59316904D01*
X149973438Y-59316904D02*
X150021057Y-59269285D01*
X150021057Y-59269285D02*
X150116295Y-59221666D01*
X150116295Y-59221666D02*
X150259152Y-59221666D01*
X150259152Y-59221666D02*
X150354390Y-59269285D01*
X150354390Y-59269285D02*
X150402009Y-59316904D01*
X150402009Y-59316904D02*
X150449628Y-59412142D01*
X150449628Y-59412142D02*
X150449628Y-59793094D01*
X150259152Y-58364523D02*
X150925819Y-58364523D01*
X149878200Y-58602618D02*
X150592485Y-58840713D01*
X150592485Y-58840713D02*
X150592485Y-58221666D01*
X114133333Y-38427819D02*
X113800000Y-37951628D01*
X113561905Y-38427819D02*
X113561905Y-37427819D01*
X113561905Y-37427819D02*
X113942857Y-37427819D01*
X113942857Y-37427819D02*
X114038095Y-37475438D01*
X114038095Y-37475438D02*
X114085714Y-37523057D01*
X114085714Y-37523057D02*
X114133333Y-37618295D01*
X114133333Y-37618295D02*
X114133333Y-37761152D01*
X114133333Y-37761152D02*
X114085714Y-37856390D01*
X114085714Y-37856390D02*
X114038095Y-37904009D01*
X114038095Y-37904009D02*
X113942857Y-37951628D01*
X113942857Y-37951628D02*
X113561905Y-37951628D01*
X114466667Y-37427819D02*
X115133333Y-37427819D01*
X115133333Y-37427819D02*
X114704762Y-38427819D01*
X109116905Y-49199819D02*
X109116905Y-48199819D01*
X109116905Y-48199819D02*
X109355000Y-48199819D01*
X109355000Y-48199819D02*
X109497857Y-48247438D01*
X109497857Y-48247438D02*
X109593095Y-48342676D01*
X109593095Y-48342676D02*
X109640714Y-48437914D01*
X109640714Y-48437914D02*
X109688333Y-48628390D01*
X109688333Y-48628390D02*
X109688333Y-48771247D01*
X109688333Y-48771247D02*
X109640714Y-48961723D01*
X109640714Y-48961723D02*
X109593095Y-49056961D01*
X109593095Y-49056961D02*
X109497857Y-49152200D01*
X109497857Y-49152200D02*
X109355000Y-49199819D01*
X109355000Y-49199819D02*
X109116905Y-49199819D01*
X110021667Y-48199819D02*
X110640714Y-48199819D01*
X110640714Y-48199819D02*
X110307381Y-48580771D01*
X110307381Y-48580771D02*
X110450238Y-48580771D01*
X110450238Y-48580771D02*
X110545476Y-48628390D01*
X110545476Y-48628390D02*
X110593095Y-48676009D01*
X110593095Y-48676009D02*
X110640714Y-48771247D01*
X110640714Y-48771247D02*
X110640714Y-49009342D01*
X110640714Y-49009342D02*
X110593095Y-49104580D01*
X110593095Y-49104580D02*
X110545476Y-49152200D01*
X110545476Y-49152200D02*
X110450238Y-49199819D01*
X110450238Y-49199819D02*
X110164524Y-49199819D01*
X110164524Y-49199819D02*
X110069286Y-49152200D01*
X110069286Y-49152200D02*
X110021667Y-49104580D01*
X106576905Y-65224819D02*
X106576905Y-64224819D01*
X106576905Y-64224819D02*
X106815000Y-64224819D01*
X106815000Y-64224819D02*
X106957857Y-64272438D01*
X106957857Y-64272438D02*
X107053095Y-64367676D01*
X107053095Y-64367676D02*
X107100714Y-64462914D01*
X107100714Y-64462914D02*
X107148333Y-64653390D01*
X107148333Y-64653390D02*
X107148333Y-64796247D01*
X107148333Y-64796247D02*
X107100714Y-64986723D01*
X107100714Y-64986723D02*
X107053095Y-65081961D01*
X107053095Y-65081961D02*
X106957857Y-65177200D01*
X106957857Y-65177200D02*
X106815000Y-65224819D01*
X106815000Y-65224819D02*
X106576905Y-65224819D01*
X107529286Y-64320057D02*
X107576905Y-64272438D01*
X107576905Y-64272438D02*
X107672143Y-64224819D01*
X107672143Y-64224819D02*
X107910238Y-64224819D01*
X107910238Y-64224819D02*
X108005476Y-64272438D01*
X108005476Y-64272438D02*
X108053095Y-64320057D01*
X108053095Y-64320057D02*
X108100714Y-64415295D01*
X108100714Y-64415295D02*
X108100714Y-64510533D01*
X108100714Y-64510533D02*
X108053095Y-64653390D01*
X108053095Y-64653390D02*
X107481667Y-65224819D01*
X107481667Y-65224819D02*
X108100714Y-65224819D01*
X116167819Y-47497904D02*
X116977342Y-47497904D01*
X116977342Y-47497904D02*
X117072580Y-47450285D01*
X117072580Y-47450285D02*
X117120200Y-47402666D01*
X117120200Y-47402666D02*
X117167819Y-47307428D01*
X117167819Y-47307428D02*
X117167819Y-47116952D01*
X117167819Y-47116952D02*
X117120200Y-47021714D01*
X117120200Y-47021714D02*
X117072580Y-46974095D01*
X117072580Y-46974095D02*
X116977342Y-46926476D01*
X116977342Y-46926476D02*
X116167819Y-46926476D01*
X116167819Y-46021714D02*
X116167819Y-46212190D01*
X116167819Y-46212190D02*
X116215438Y-46307428D01*
X116215438Y-46307428D02*
X116263057Y-46355047D01*
X116263057Y-46355047D02*
X116405914Y-46450285D01*
X116405914Y-46450285D02*
X116596390Y-46497904D01*
X116596390Y-46497904D02*
X116977342Y-46497904D01*
X116977342Y-46497904D02*
X117072580Y-46450285D01*
X117072580Y-46450285D02*
X117120200Y-46402666D01*
X117120200Y-46402666D02*
X117167819Y-46307428D01*
X117167819Y-46307428D02*
X117167819Y-46116952D01*
X117167819Y-46116952D02*
X117120200Y-46021714D01*
X117120200Y-46021714D02*
X117072580Y-45974095D01*
X117072580Y-45974095D02*
X116977342Y-45926476D01*
X116977342Y-45926476D02*
X116739247Y-45926476D01*
X116739247Y-45926476D02*
X116644009Y-45974095D01*
X116644009Y-45974095D02*
X116596390Y-46021714D01*
X116596390Y-46021714D02*
X116548771Y-46116952D01*
X116548771Y-46116952D02*
X116548771Y-46307428D01*
X116548771Y-46307428D02*
X116596390Y-46402666D01*
X116596390Y-46402666D02*
X116644009Y-46450285D01*
X116644009Y-46450285D02*
X116739247Y-46497904D01*
X104489819Y-88615333D02*
X105204104Y-88615333D01*
X105204104Y-88615333D02*
X105346961Y-88662952D01*
X105346961Y-88662952D02*
X105442200Y-88758190D01*
X105442200Y-88758190D02*
X105489819Y-88901047D01*
X105489819Y-88901047D02*
X105489819Y-88996285D01*
X105489819Y-87615333D02*
X105489819Y-88186761D01*
X105489819Y-87901047D02*
X104489819Y-87901047D01*
X104489819Y-87901047D02*
X104632676Y-87996285D01*
X104632676Y-87996285D02*
X104727914Y-88091523D01*
X104727914Y-88091523D02*
X104775533Y-88186761D01*
X158369095Y-113373819D02*
X158369095Y-114183342D01*
X158369095Y-114183342D02*
X158416714Y-114278580D01*
X158416714Y-114278580D02*
X158464333Y-114326200D01*
X158464333Y-114326200D02*
X158559571Y-114373819D01*
X158559571Y-114373819D02*
X158750047Y-114373819D01*
X158750047Y-114373819D02*
X158845285Y-114326200D01*
X158845285Y-114326200D02*
X158892904Y-114278580D01*
X158892904Y-114278580D02*
X158940523Y-114183342D01*
X158940523Y-114183342D02*
X158940523Y-113373819D01*
X159321476Y-113373819D02*
X159940523Y-113373819D01*
X159940523Y-113373819D02*
X159607190Y-113754771D01*
X159607190Y-113754771D02*
X159750047Y-113754771D01*
X159750047Y-113754771D02*
X159845285Y-113802390D01*
X159845285Y-113802390D02*
X159892904Y-113850009D01*
X159892904Y-113850009D02*
X159940523Y-113945247D01*
X159940523Y-113945247D02*
X159940523Y-114183342D01*
X159940523Y-114183342D02*
X159892904Y-114278580D01*
X159892904Y-114278580D02*
X159845285Y-114326200D01*
X159845285Y-114326200D02*
X159750047Y-114373819D01*
X159750047Y-114373819D02*
X159464333Y-114373819D01*
X159464333Y-114373819D02*
X159369095Y-114326200D01*
X159369095Y-114326200D02*
X159321476Y-114278580D01*
X154146666Y-126437819D02*
X154146666Y-127152104D01*
X154146666Y-127152104D02*
X154099047Y-127294961D01*
X154099047Y-127294961D02*
X154003809Y-127390200D01*
X154003809Y-127390200D02*
X153860952Y-127437819D01*
X153860952Y-127437819D02*
X153765714Y-127437819D01*
X154575238Y-126533057D02*
X154622857Y-126485438D01*
X154622857Y-126485438D02*
X154718095Y-126437819D01*
X154718095Y-126437819D02*
X154956190Y-126437819D01*
X154956190Y-126437819D02*
X155051428Y-126485438D01*
X155051428Y-126485438D02*
X155099047Y-126533057D01*
X155099047Y-126533057D02*
X155146666Y-126628295D01*
X155146666Y-126628295D02*
X155146666Y-126723533D01*
X155146666Y-126723533D02*
X155099047Y-126866390D01*
X155099047Y-126866390D02*
X154527619Y-127437819D01*
X154527619Y-127437819D02*
X155146666Y-127437819D01*
X183932819Y-126214094D02*
X182932819Y-126214094D01*
X182932819Y-126214094D02*
X182932819Y-125833142D01*
X182932819Y-125833142D02*
X182980438Y-125737904D01*
X182980438Y-125737904D02*
X183028057Y-125690285D01*
X183028057Y-125690285D02*
X183123295Y-125642666D01*
X183123295Y-125642666D02*
X183266152Y-125642666D01*
X183266152Y-125642666D02*
X183361390Y-125690285D01*
X183361390Y-125690285D02*
X183409009Y-125737904D01*
X183409009Y-125737904D02*
X183456628Y-125833142D01*
X183456628Y-125833142D02*
X183456628Y-126214094D01*
X183028057Y-125261713D02*
X182980438Y-125214094D01*
X182980438Y-125214094D02*
X182932819Y-125118856D01*
X182932819Y-125118856D02*
X182932819Y-124880761D01*
X182932819Y-124880761D02*
X182980438Y-124785523D01*
X182980438Y-124785523D02*
X183028057Y-124737904D01*
X183028057Y-124737904D02*
X183123295Y-124690285D01*
X183123295Y-124690285D02*
X183218533Y-124690285D01*
X183218533Y-124690285D02*
X183361390Y-124737904D01*
X183361390Y-124737904D02*
X183932819Y-125309332D01*
X183932819Y-125309332D02*
X183932819Y-124690285D01*
X184694819Y-62333094D02*
X183694819Y-62333094D01*
X183694819Y-62333094D02*
X183694819Y-61952142D01*
X183694819Y-61952142D02*
X183742438Y-61856904D01*
X183742438Y-61856904D02*
X183790057Y-61809285D01*
X183790057Y-61809285D02*
X183885295Y-61761666D01*
X183885295Y-61761666D02*
X184028152Y-61761666D01*
X184028152Y-61761666D02*
X184123390Y-61809285D01*
X184123390Y-61809285D02*
X184171009Y-61856904D01*
X184171009Y-61856904D02*
X184218628Y-61952142D01*
X184218628Y-61952142D02*
X184218628Y-62333094D01*
X183694819Y-61428332D02*
X183694819Y-60809285D01*
X183694819Y-60809285D02*
X184075771Y-61142618D01*
X184075771Y-61142618D02*
X184075771Y-60999761D01*
X184075771Y-60999761D02*
X184123390Y-60904523D01*
X184123390Y-60904523D02*
X184171009Y-60856904D01*
X184171009Y-60856904D02*
X184266247Y-60809285D01*
X184266247Y-60809285D02*
X184504342Y-60809285D01*
X184504342Y-60809285D02*
X184599580Y-60856904D01*
X184599580Y-60856904D02*
X184647200Y-60904523D01*
X184647200Y-60904523D02*
X184694819Y-60999761D01*
X184694819Y-60999761D02*
X184694819Y-61285475D01*
X184694819Y-61285475D02*
X184647200Y-61380713D01*
X184647200Y-61380713D02*
X184599580Y-61428332D01*
X158862142Y-47611580D02*
X158814523Y-47659200D01*
X158814523Y-47659200D02*
X158671666Y-47706819D01*
X158671666Y-47706819D02*
X158576428Y-47706819D01*
X158576428Y-47706819D02*
X158433571Y-47659200D01*
X158433571Y-47659200D02*
X158338333Y-47563961D01*
X158338333Y-47563961D02*
X158290714Y-47468723D01*
X158290714Y-47468723D02*
X158243095Y-47278247D01*
X158243095Y-47278247D02*
X158243095Y-47135390D01*
X158243095Y-47135390D02*
X158290714Y-46944914D01*
X158290714Y-46944914D02*
X158338333Y-46849676D01*
X158338333Y-46849676D02*
X158433571Y-46754438D01*
X158433571Y-46754438D02*
X158576428Y-46706819D01*
X158576428Y-46706819D02*
X158671666Y-46706819D01*
X158671666Y-46706819D02*
X158814523Y-46754438D01*
X158814523Y-46754438D02*
X158862142Y-46802057D01*
X159814523Y-47706819D02*
X159243095Y-47706819D01*
X159528809Y-47706819D02*
X159528809Y-46706819D01*
X159528809Y-46706819D02*
X159433571Y-46849676D01*
X159433571Y-46849676D02*
X159338333Y-46944914D01*
X159338333Y-46944914D02*
X159243095Y-46992533D01*
X160147857Y-46706819D02*
X160766904Y-46706819D01*
X160766904Y-46706819D02*
X160433571Y-47087771D01*
X160433571Y-47087771D02*
X160576428Y-47087771D01*
X160576428Y-47087771D02*
X160671666Y-47135390D01*
X160671666Y-47135390D02*
X160719285Y-47183009D01*
X160719285Y-47183009D02*
X160766904Y-47278247D01*
X160766904Y-47278247D02*
X160766904Y-47516342D01*
X160766904Y-47516342D02*
X160719285Y-47611580D01*
X160719285Y-47611580D02*
X160671666Y-47659200D01*
X160671666Y-47659200D02*
X160576428Y-47706819D01*
X160576428Y-47706819D02*
X160290714Y-47706819D01*
X160290714Y-47706819D02*
X160195476Y-47659200D01*
X160195476Y-47659200D02*
X160147857Y-47611580D01*
X156290333Y-112000580D02*
X156242714Y-112048200D01*
X156242714Y-112048200D02*
X156099857Y-112095819D01*
X156099857Y-112095819D02*
X156004619Y-112095819D01*
X156004619Y-112095819D02*
X155861762Y-112048200D01*
X155861762Y-112048200D02*
X155766524Y-111952961D01*
X155766524Y-111952961D02*
X155718905Y-111857723D01*
X155718905Y-111857723D02*
X155671286Y-111667247D01*
X155671286Y-111667247D02*
X155671286Y-111524390D01*
X155671286Y-111524390D02*
X155718905Y-111333914D01*
X155718905Y-111333914D02*
X155766524Y-111238676D01*
X155766524Y-111238676D02*
X155861762Y-111143438D01*
X155861762Y-111143438D02*
X156004619Y-111095819D01*
X156004619Y-111095819D02*
X156099857Y-111095819D01*
X156099857Y-111095819D02*
X156242714Y-111143438D01*
X156242714Y-111143438D02*
X156290333Y-111191057D01*
X157147476Y-111095819D02*
X156957000Y-111095819D01*
X156957000Y-111095819D02*
X156861762Y-111143438D01*
X156861762Y-111143438D02*
X156814143Y-111191057D01*
X156814143Y-111191057D02*
X156718905Y-111333914D01*
X156718905Y-111333914D02*
X156671286Y-111524390D01*
X156671286Y-111524390D02*
X156671286Y-111905342D01*
X156671286Y-111905342D02*
X156718905Y-112000580D01*
X156718905Y-112000580D02*
X156766524Y-112048200D01*
X156766524Y-112048200D02*
X156861762Y-112095819D01*
X156861762Y-112095819D02*
X157052238Y-112095819D01*
X157052238Y-112095819D02*
X157147476Y-112048200D01*
X157147476Y-112048200D02*
X157195095Y-112000580D01*
X157195095Y-112000580D02*
X157242714Y-111905342D01*
X157242714Y-111905342D02*
X157242714Y-111667247D01*
X157242714Y-111667247D02*
X157195095Y-111572009D01*
X157195095Y-111572009D02*
X157147476Y-111524390D01*
X157147476Y-111524390D02*
X157052238Y-111476771D01*
X157052238Y-111476771D02*
X156861762Y-111476771D01*
X156861762Y-111476771D02*
X156766524Y-111524390D01*
X156766524Y-111524390D02*
X156718905Y-111572009D01*
X156718905Y-111572009D02*
X156671286Y-111667247D01*
X192264580Y-88946666D02*
X192312200Y-88994285D01*
X192312200Y-88994285D02*
X192359819Y-89137142D01*
X192359819Y-89137142D02*
X192359819Y-89232380D01*
X192359819Y-89232380D02*
X192312200Y-89375237D01*
X192312200Y-89375237D02*
X192216961Y-89470475D01*
X192216961Y-89470475D02*
X192121723Y-89518094D01*
X192121723Y-89518094D02*
X191931247Y-89565713D01*
X191931247Y-89565713D02*
X191788390Y-89565713D01*
X191788390Y-89565713D02*
X191597914Y-89518094D01*
X191597914Y-89518094D02*
X191502676Y-89470475D01*
X191502676Y-89470475D02*
X191407438Y-89375237D01*
X191407438Y-89375237D02*
X191359819Y-89232380D01*
X191359819Y-89232380D02*
X191359819Y-89137142D01*
X191359819Y-89137142D02*
X191407438Y-88994285D01*
X191407438Y-88994285D02*
X191455057Y-88946666D01*
X191359819Y-88613332D02*
X191359819Y-87994285D01*
X191359819Y-87994285D02*
X191740771Y-88327618D01*
X191740771Y-88327618D02*
X191740771Y-88184761D01*
X191740771Y-88184761D02*
X191788390Y-88089523D01*
X191788390Y-88089523D02*
X191836009Y-88041904D01*
X191836009Y-88041904D02*
X191931247Y-87994285D01*
X191931247Y-87994285D02*
X192169342Y-87994285D01*
X192169342Y-87994285D02*
X192264580Y-88041904D01*
X192264580Y-88041904D02*
X192312200Y-88089523D01*
X192312200Y-88089523D02*
X192359819Y-88184761D01*
X192359819Y-88184761D02*
X192359819Y-88470475D01*
X192359819Y-88470475D02*
X192312200Y-88565713D01*
X192312200Y-88565713D02*
X192264580Y-88613332D01*
X126579333Y-53699580D02*
X126531714Y-53747200D01*
X126531714Y-53747200D02*
X126388857Y-53794819D01*
X126388857Y-53794819D02*
X126293619Y-53794819D01*
X126293619Y-53794819D02*
X126150762Y-53747200D01*
X126150762Y-53747200D02*
X126055524Y-53651961D01*
X126055524Y-53651961D02*
X126007905Y-53556723D01*
X126007905Y-53556723D02*
X125960286Y-53366247D01*
X125960286Y-53366247D02*
X125960286Y-53223390D01*
X125960286Y-53223390D02*
X126007905Y-53032914D01*
X126007905Y-53032914D02*
X126055524Y-52937676D01*
X126055524Y-52937676D02*
X126150762Y-52842438D01*
X126150762Y-52842438D02*
X126293619Y-52794819D01*
X126293619Y-52794819D02*
X126388857Y-52794819D01*
X126388857Y-52794819D02*
X126531714Y-52842438D01*
X126531714Y-52842438D02*
X126579333Y-52890057D01*
X126960286Y-52890057D02*
X127007905Y-52842438D01*
X127007905Y-52842438D02*
X127103143Y-52794819D01*
X127103143Y-52794819D02*
X127341238Y-52794819D01*
X127341238Y-52794819D02*
X127436476Y-52842438D01*
X127436476Y-52842438D02*
X127484095Y-52890057D01*
X127484095Y-52890057D02*
X127531714Y-52985295D01*
X127531714Y-52985295D02*
X127531714Y-53080533D01*
X127531714Y-53080533D02*
X127484095Y-53223390D01*
X127484095Y-53223390D02*
X126912667Y-53794819D01*
X126912667Y-53794819D02*
X127531714Y-53794819D01*
X173747667Y-52128200D02*
X173890524Y-52175819D01*
X173890524Y-52175819D02*
X174128619Y-52175819D01*
X174128619Y-52175819D02*
X174223857Y-52128200D01*
X174223857Y-52128200D02*
X174271476Y-52080580D01*
X174271476Y-52080580D02*
X174319095Y-51985342D01*
X174319095Y-51985342D02*
X174319095Y-51890104D01*
X174319095Y-51890104D02*
X174271476Y-51794866D01*
X174271476Y-51794866D02*
X174223857Y-51747247D01*
X174223857Y-51747247D02*
X174128619Y-51699628D01*
X174128619Y-51699628D02*
X173938143Y-51652009D01*
X173938143Y-51652009D02*
X173842905Y-51604390D01*
X173842905Y-51604390D02*
X173795286Y-51556771D01*
X173795286Y-51556771D02*
X173747667Y-51461533D01*
X173747667Y-51461533D02*
X173747667Y-51366295D01*
X173747667Y-51366295D02*
X173795286Y-51271057D01*
X173795286Y-51271057D02*
X173842905Y-51223438D01*
X173842905Y-51223438D02*
X173938143Y-51175819D01*
X173938143Y-51175819D02*
X174176238Y-51175819D01*
X174176238Y-51175819D02*
X174319095Y-51223438D01*
X174652429Y-51175819D02*
X174890524Y-52175819D01*
X174890524Y-52175819D02*
X175081000Y-51461533D01*
X175081000Y-51461533D02*
X175271476Y-52175819D01*
X175271476Y-52175819D02*
X175509572Y-51175819D01*
X175842905Y-51271057D02*
X175890524Y-51223438D01*
X175890524Y-51223438D02*
X175985762Y-51175819D01*
X175985762Y-51175819D02*
X176223857Y-51175819D01*
X176223857Y-51175819D02*
X176319095Y-51223438D01*
X176319095Y-51223438D02*
X176366714Y-51271057D01*
X176366714Y-51271057D02*
X176414333Y-51366295D01*
X176414333Y-51366295D02*
X176414333Y-51461533D01*
X176414333Y-51461533D02*
X176366714Y-51604390D01*
X176366714Y-51604390D02*
X175795286Y-52175819D01*
X175795286Y-52175819D02*
X176414333Y-52175819D01*
X173913095Y-69079819D02*
X173913095Y-69889342D01*
X173913095Y-69889342D02*
X173960714Y-69984580D01*
X173960714Y-69984580D02*
X174008333Y-70032200D01*
X174008333Y-70032200D02*
X174103571Y-70079819D01*
X174103571Y-70079819D02*
X174294047Y-70079819D01*
X174294047Y-70079819D02*
X174389285Y-70032200D01*
X174389285Y-70032200D02*
X174436904Y-69984580D01*
X174436904Y-69984580D02*
X174484523Y-69889342D01*
X174484523Y-69889342D02*
X174484523Y-69079819D01*
X175436904Y-69079819D02*
X174960714Y-69079819D01*
X174960714Y-69079819D02*
X174913095Y-69556009D01*
X174913095Y-69556009D02*
X174960714Y-69508390D01*
X174960714Y-69508390D02*
X175055952Y-69460771D01*
X175055952Y-69460771D02*
X175294047Y-69460771D01*
X175294047Y-69460771D02*
X175389285Y-69508390D01*
X175389285Y-69508390D02*
X175436904Y-69556009D01*
X175436904Y-69556009D02*
X175484523Y-69651247D01*
X175484523Y-69651247D02*
X175484523Y-69889342D01*
X175484523Y-69889342D02*
X175436904Y-69984580D01*
X175436904Y-69984580D02*
X175389285Y-70032200D01*
X175389285Y-70032200D02*
X175294047Y-70079819D01*
X175294047Y-70079819D02*
X175055952Y-70079819D01*
X175055952Y-70079819D02*
X174960714Y-70032200D01*
X174960714Y-70032200D02*
X174913095Y-69984580D01*
X130057142Y-44759580D02*
X130009523Y-44807200D01*
X130009523Y-44807200D02*
X129866666Y-44854819D01*
X129866666Y-44854819D02*
X129771428Y-44854819D01*
X129771428Y-44854819D02*
X129628571Y-44807200D01*
X129628571Y-44807200D02*
X129533333Y-44711961D01*
X129533333Y-44711961D02*
X129485714Y-44616723D01*
X129485714Y-44616723D02*
X129438095Y-44426247D01*
X129438095Y-44426247D02*
X129438095Y-44283390D01*
X129438095Y-44283390D02*
X129485714Y-44092914D01*
X129485714Y-44092914D02*
X129533333Y-43997676D01*
X129533333Y-43997676D02*
X129628571Y-43902438D01*
X129628571Y-43902438D02*
X129771428Y-43854819D01*
X129771428Y-43854819D02*
X129866666Y-43854819D01*
X129866666Y-43854819D02*
X130009523Y-43902438D01*
X130009523Y-43902438D02*
X130057142Y-43950057D01*
X131009523Y-44854819D02*
X130438095Y-44854819D01*
X130723809Y-44854819D02*
X130723809Y-43854819D01*
X130723809Y-43854819D02*
X130628571Y-43997676D01*
X130628571Y-43997676D02*
X130533333Y-44092914D01*
X130533333Y-44092914D02*
X130438095Y-44140533D01*
X131866666Y-44188152D02*
X131866666Y-44854819D01*
X131628571Y-43807200D02*
X131390476Y-44521485D01*
X131390476Y-44521485D02*
X132009523Y-44521485D01*
D12*
%TO.C,D1*%
X179982000Y-119800000D02*
X179982000Y-124040000D01*
X179982000Y-124040000D02*
X182222000Y-124040000D01*
X181102000Y-116610000D02*
X181102000Y-119800000D01*
X181102000Y-127230000D02*
X181102000Y-124040000D01*
X182222000Y-119800000D02*
X179982000Y-119800000D01*
X182222000Y-120400000D02*
X179982000Y-120400000D01*
X182222000Y-120520000D02*
X179982000Y-120520000D01*
X182222000Y-120640000D02*
X179982000Y-120640000D01*
X182222000Y-124040000D02*
X182222000Y-119800000D01*
%TO.C,D4*%
X193190000Y-98845000D02*
X193190000Y-103085000D01*
X193190000Y-102245000D02*
X195430000Y-102245000D01*
X193190000Y-102365000D02*
X195430000Y-102365000D01*
X193190000Y-102485000D02*
X195430000Y-102485000D01*
X193190000Y-103085000D02*
X195430000Y-103085000D01*
X194310000Y-95655000D02*
X194310000Y-98845000D01*
X194310000Y-106275000D02*
X194310000Y-103085000D01*
X195430000Y-98845000D02*
X193190000Y-98845000D01*
X195430000Y-103085000D02*
X195430000Y-98845000D01*
%TO.C,SW1*%
X157992000Y-55221000D02*
X157992000Y-56721000D01*
X159242000Y-59221000D02*
X163742000Y-59221000D01*
X163742000Y-52721000D02*
X159242000Y-52721000D01*
X164992000Y-56721000D02*
X164992000Y-55221000D01*
D10*
%TO.C,U2*%
X118745000Y-70485000D02*
X118745000Y-103505000D01*
X118745000Y-103505000D02*
X151765000Y-103505000D01*
X125095000Y-76835000D02*
X125095000Y-93345000D01*
X125095000Y-93345000D02*
X127635000Y-97155000D01*
X127635000Y-97155000D02*
X145415000Y-97155000D01*
X145415000Y-76835000D02*
X125095000Y-76835000D01*
X145415000Y-97155000D02*
X145415000Y-76835000D01*
X151765000Y-70485000D02*
X118745000Y-70485000D01*
X151765000Y-103505000D02*
X151765000Y-70485000D01*
D12*
%TO.C,U4*%
X122495000Y-111415000D02*
X122495000Y-112665000D01*
X122495000Y-114665000D02*
X122495000Y-115915000D01*
X122495000Y-115915000D02*
X140395000Y-115915000D01*
X140395000Y-111415000D02*
X122495000Y-111415000D01*
X140395000Y-115915000D02*
X140395000Y-111415000D01*
X122495000Y-112665000D02*
G75*
G02*
X122495000Y-114665000I0J-1000000D01*
G01*
%TO.C,P4*%
X109795000Y-85030000D02*
X111125000Y-85030000D01*
X109795000Y-86360000D02*
X109795000Y-85030000D01*
X109795000Y-87630000D02*
X109795000Y-90230000D01*
X109795000Y-87630000D02*
X112395000Y-87630000D01*
X109795000Y-90230000D02*
X114995000Y-90230000D01*
X112395000Y-85030000D02*
X114995000Y-85030000D01*
X112395000Y-87630000D02*
X112395000Y-85030000D01*
X114995000Y-85030000D02*
X114995000Y-90230000D01*
%TO.C,K1*%
X164390000Y-65345000D02*
X164390000Y-68005000D01*
X169530000Y-65345000D02*
X164390000Y-65345000D01*
X169530000Y-65345000D02*
X169530000Y-68005000D01*
X169530000Y-68005000D02*
X164390000Y-68005000D01*
X170800000Y-65345000D02*
X172130000Y-65345000D01*
X172130000Y-65345000D02*
X172130000Y-66675000D01*
%TO.C,R2*%
X113565000Y-54515000D02*
X113565000Y-61055000D01*
X113565000Y-61055000D02*
X116305000Y-61055000D01*
X114935000Y-53745000D02*
X114935000Y-54515000D01*
X114935000Y-61825000D02*
X114935000Y-61055000D01*
X116305000Y-54515000D02*
X113565000Y-54515000D01*
X116305000Y-61055000D02*
X116305000Y-54515000D01*
%TO.C,R8*%
X135914000Y-39878000D02*
X136684000Y-39878000D01*
X136684000Y-38508000D02*
X136684000Y-41248000D01*
X136684000Y-41248000D02*
X143224000Y-41248000D01*
X143224000Y-38508000D02*
X136684000Y-38508000D01*
X143224000Y-41248000D02*
X143224000Y-38508000D01*
X143994000Y-39878000D02*
X143224000Y-39878000D01*
%TO.C,R10*%
X185955000Y-43720000D02*
X185955000Y-50260000D01*
X185955000Y-50260000D02*
X188695000Y-50260000D01*
X187325000Y-42950000D02*
X187325000Y-43720000D01*
X187325000Y-51030000D02*
X187325000Y-50260000D01*
X188695000Y-43720000D02*
X185955000Y-43720000D01*
X188695000Y-50260000D02*
X188695000Y-43720000D01*
%TO.C,R9*%
X136041000Y-43561000D02*
X136811000Y-43561000D01*
X136811000Y-42191000D02*
X136811000Y-44931000D01*
X136811000Y-44931000D02*
X143351000Y-44931000D01*
X143351000Y-42191000D02*
X136811000Y-42191000D01*
X143351000Y-44931000D02*
X143351000Y-42191000D01*
X144121000Y-43561000D02*
X143351000Y-43561000D01*
%TO.C,R1*%
X126135000Y-126365000D02*
X126905000Y-126365000D01*
X126905000Y-124995000D02*
X126905000Y-127735000D01*
X126905000Y-127735000D02*
X133445000Y-127735000D01*
X133445000Y-124995000D02*
X126905000Y-124995000D01*
X133445000Y-127735000D02*
X133445000Y-124995000D01*
X134215000Y-126365000D02*
X133445000Y-126365000D01*
%TO.C,R5*%
X146585000Y-55785000D02*
X146585000Y-62325000D01*
X146585000Y-62325000D02*
X149325000Y-62325000D01*
X147955000Y-55015000D02*
X147955000Y-55785000D01*
X147955000Y-63095000D02*
X147955000Y-62325000D01*
X149325000Y-55785000D02*
X146585000Y-55785000D01*
X149325000Y-62325000D02*
X149325000Y-55785000D01*
%TO.C,R6*%
X106450000Y-43561000D02*
X107220000Y-43561000D01*
X107220000Y-42191000D02*
X107220000Y-44931000D01*
X107220000Y-44931000D02*
X113760000Y-44931000D01*
X113760000Y-42191000D02*
X107220000Y-42191000D01*
X113760000Y-44931000D02*
X113760000Y-42191000D01*
X114530000Y-43561000D02*
X113760000Y-43561000D01*
%TO.C,R3*%
X116830000Y-54510000D02*
X116830000Y-61050000D01*
X116830000Y-61050000D02*
X119570000Y-61050000D01*
X118200000Y-53740000D02*
X118200000Y-54510000D01*
X118200000Y-61820000D02*
X118200000Y-61050000D01*
X119570000Y-54510000D02*
X116830000Y-54510000D01*
X119570000Y-61050000D02*
X119570000Y-54510000D01*
%TO.C,U1*%
X122435000Y-56345000D02*
X122435000Y-66845000D01*
X122435000Y-66845000D02*
X142995000Y-66845000D01*
X122495000Y-59345000D02*
X122495000Y-60595000D01*
X122495000Y-62595000D02*
X122495000Y-63845000D01*
X122495000Y-63845000D02*
X142935000Y-63845000D01*
X142935000Y-59345000D02*
X122495000Y-59345000D01*
X142935000Y-63845000D02*
X142935000Y-59345000D01*
X142995000Y-56345000D02*
X122435000Y-56345000D01*
X142995000Y-66845000D02*
X142995000Y-56345000D01*
X122495000Y-60595000D02*
G75*
G02*
X122495000Y-62595000I0J-1000000D01*
G01*
%TO.C,X1*%
X105450000Y-118339000D02*
X105450000Y-129639000D01*
X105450000Y-129639000D02*
X118850000Y-129639000D01*
X118850000Y-117989000D02*
X118970000Y-117989000D01*
X118850000Y-118339000D02*
X105450000Y-118339000D01*
X118850000Y-121539000D02*
X119700000Y-121539000D01*
X118850000Y-126439000D02*
X119700000Y-126439000D01*
X118850000Y-129639000D02*
X118850000Y-118339000D01*
X118850000Y-129989000D02*
X118850000Y-117989000D01*
X118970000Y-117989000D02*
X118970000Y-129989000D01*
X118970000Y-129989000D02*
X118850000Y-129989000D01*
X119700000Y-121539000D02*
X119700000Y-121539000D01*
X119700000Y-126439000D02*
X119700000Y-126439000D01*
%TO.C,R4*%
X151411000Y-55785000D02*
X151411000Y-62325000D01*
X151411000Y-62325000D02*
X154151000Y-62325000D01*
X152781000Y-55015000D02*
X152781000Y-55785000D01*
X152781000Y-63095000D02*
X152781000Y-62325000D01*
X154151000Y-55785000D02*
X151411000Y-55785000D01*
X154151000Y-62325000D02*
X154151000Y-55785000D01*
%TO.C,R7*%
X106450000Y-40132000D02*
X107220000Y-40132000D01*
X107220000Y-38762000D02*
X107220000Y-41502000D01*
X107220000Y-41502000D02*
X113760000Y-41502000D01*
X113760000Y-38762000D02*
X107220000Y-38762000D01*
X113760000Y-41502000D02*
X113760000Y-38762000D01*
X114530000Y-40132000D02*
X113760000Y-40132000D01*
%TO.C,D3*%
X107295000Y-51160000D02*
X107295000Y-54250000D01*
X107295000Y-51160170D02*
G75*
G02*
X112845000Y-52705462I2560000J-1544830D01*
G01*
X112845000Y-52704538D02*
G75*
G02*
X107295000Y-54249830I-2990000J-462D01*
G01*
X112355000Y-52705000D02*
G75*
G02*
X107355000Y-52705000I-2500000J0D01*
G01*
X107355000Y-52705000D02*
G75*
G02*
X112355000Y-52705000I2500000J0D01*
G01*
%TO.C,D2*%
X107295000Y-58780000D02*
X107295000Y-61870000D01*
X107295000Y-58780170D02*
G75*
G02*
X112845000Y-60325462I2560000J-1544830D01*
G01*
X112845000Y-60324538D02*
G75*
G02*
X107295000Y-61869830I-2990000J-462D01*
G01*
X112355000Y-60325000D02*
G75*
G02*
X107355000Y-60325000I-2500000J0D01*
G01*
X107355000Y-60325000D02*
G75*
G02*
X112355000Y-60325000I2500000J0D01*
G01*
%TO.C,U6*%
X117542000Y-41311000D02*
X117542000Y-42561000D01*
X117542000Y-44561000D02*
X117542000Y-45811000D01*
X117542000Y-45811000D02*
X127822000Y-45811000D01*
X127822000Y-41311000D02*
X117542000Y-41311000D01*
X127822000Y-45811000D02*
X127822000Y-41311000D01*
X117542000Y-42561000D02*
G75*
G02*
X117542000Y-44561000I0J-1000000D01*
G01*
%TO.C,J1*%
X89555000Y-61672000D02*
X104095000Y-61672000D01*
X104095000Y-61672000D02*
X104095000Y-114892000D01*
X104095000Y-114892000D02*
X89555000Y-114892000D01*
X104556325Y-104902000D02*
X104989338Y-104652000D01*
X104989338Y-104652000D02*
X104989338Y-105152000D01*
X104989338Y-105152000D02*
X104556325Y-104902000D01*
%TO.C,U3*%
X159265000Y-114895000D02*
X159265000Y-125135000D01*
X159265000Y-117475000D02*
X156725000Y-117475000D01*
X159265000Y-120015000D02*
X156725000Y-120015000D01*
X159265000Y-122555000D02*
X156725000Y-122555000D01*
X175155000Y-114895000D02*
X159265000Y-114895000D01*
X175155000Y-114895000D02*
X175155000Y-125135000D01*
X175155000Y-125135000D02*
X159265000Y-125135000D01*
%TO.C,J2*%
X138995000Y-127923000D02*
X169965000Y-127923000D01*
X138995000Y-138403000D02*
X138995000Y-127923000D01*
X159770000Y-127028662D02*
X160270000Y-127028662D01*
X160020000Y-127461675D02*
X159770000Y-127028662D01*
X160270000Y-127028662D02*
X160020000Y-127461675D01*
X169965000Y-127923000D02*
X169965000Y-138403000D01*
%TO.C,P2*%
X184477000Y-117796000D02*
X194398000Y-117796000D01*
X184477000Y-133156000D02*
X184477000Y-117796000D01*
X184477000Y-133156000D02*
X194398000Y-133156000D01*
X187437000Y-133156000D02*
X187437000Y-117796000D01*
X188463000Y-119326000D02*
X188499000Y-119361000D01*
X188463000Y-124406000D02*
X188499000Y-124441000D01*
X188669000Y-119121000D02*
X188715000Y-119168000D01*
X188669000Y-124201000D02*
X188715000Y-124248000D01*
X190761000Y-121623000D02*
X190807000Y-121670000D01*
X190761000Y-126703000D02*
X190807000Y-126750000D01*
X190977000Y-121430000D02*
X191012000Y-121465000D01*
X190977000Y-126510000D02*
X191012000Y-126545000D01*
X192338000Y-133156000D02*
X192338000Y-117796000D01*
X193838000Y-133156000D02*
X193838000Y-117796000D01*
X193898000Y-133396000D02*
X194638000Y-133396000D01*
X194398000Y-133156000D02*
X194398000Y-117796000D01*
X194638000Y-133396000D02*
X194638000Y-132896000D01*
X188202573Y-131239042D02*
G75*
G02*
X188203000Y-129872000I1535420J683041D01*
G01*
X189054958Y-129020573D02*
G75*
G02*
X190422000Y-129021000I683042J-1535427D01*
G01*
X190421042Y-132091427D02*
G75*
G02*
X189054000Y-132091000I-683041J1535420D01*
G01*
X191272756Y-129872682D02*
G75*
G02*
X191418000Y-130556000I-1534756J-683318D01*
G01*
X191418253Y-130527195D02*
G75*
G02*
X191273000Y-131240000I-1680254J-28806D01*
G01*
X191418000Y-120396000D02*
G75*
G02*
X188058000Y-120396000I-1680000J0D01*
G01*
X188058000Y-120396000D02*
G75*
G02*
X191418000Y-120396000I1680000J0D01*
G01*
X191418000Y-125476000D02*
G75*
G02*
X188058000Y-125476000I-1680000J0D01*
G01*
X188058000Y-125476000D02*
G75*
G02*
X191418000Y-125476000I1680000J0D01*
G01*
%TO.C,P3*%
X185239000Y-56455000D02*
X195160000Y-56455000D01*
X185239000Y-66735000D02*
X185239000Y-56455000D01*
X185239000Y-66735000D02*
X195160000Y-66735000D01*
X188199000Y-66735000D02*
X188199000Y-56455000D01*
X189225000Y-57985000D02*
X189261000Y-58020000D01*
X189431000Y-57780000D02*
X189477000Y-57827000D01*
X191523000Y-60282000D02*
X191569000Y-60329000D01*
X191739000Y-60089000D02*
X191774000Y-60124000D01*
X193100000Y-66735000D02*
X193100000Y-56455000D01*
X194600000Y-66735000D02*
X194600000Y-56455000D01*
X194660000Y-66975000D02*
X195400000Y-66975000D01*
X195160000Y-66735000D02*
X195160000Y-56455000D01*
X195400000Y-66975000D02*
X195400000Y-66475000D01*
X188964573Y-64818042D02*
G75*
G02*
X188965000Y-63451000I1535420J683041D01*
G01*
X189816958Y-62599573D02*
G75*
G02*
X191184000Y-62600000I683042J-1535427D01*
G01*
X191183042Y-65670427D02*
G75*
G02*
X189816000Y-65670000I-683041J1535420D01*
G01*
X192034756Y-63451682D02*
G75*
G02*
X192180000Y-64135000I-1534756J-683318D01*
G01*
X192180253Y-64106195D02*
G75*
G02*
X192035000Y-64819000I-1680254J-28806D01*
G01*
X192180000Y-59055000D02*
G75*
G02*
X188820000Y-59055000I-1680000J0D01*
G01*
X188820000Y-59055000D02*
G75*
G02*
X192180000Y-59055000I1680000J0D01*
G01*
%TO.C,C13*%
X153245000Y-43942000D02*
X154385000Y-43942000D01*
X154385000Y-46312000D02*
X154385000Y-41572000D01*
X161625000Y-41572000D02*
X154385000Y-41572000D01*
X161625000Y-46312000D02*
X154385000Y-46312000D01*
X162375000Y-42322000D02*
X161625000Y-41572000D01*
X162375000Y-45562000D02*
X161625000Y-46312000D01*
X163125000Y-41572000D02*
X162375000Y-42322000D01*
X163125000Y-46312000D02*
X162375000Y-45562000D01*
X164625000Y-41572000D02*
X163125000Y-41572000D01*
X164625000Y-46312000D02*
X163125000Y-46312000D01*
X164625000Y-46312000D02*
X164625000Y-41572000D01*
X165625000Y-46892000D02*
X165625000Y-45392000D01*
X165765000Y-43942000D02*
X164625000Y-43942000D01*
X166375000Y-46142000D02*
X164875000Y-46142000D01*
%TO.C,C6*%
X150197000Y-108331000D02*
X151337000Y-108331000D01*
X151337000Y-110701000D02*
X151337000Y-105961000D01*
X158577000Y-105961000D02*
X151337000Y-105961000D01*
X158577000Y-110701000D02*
X151337000Y-110701000D01*
X159327000Y-106711000D02*
X158577000Y-105961000D01*
X159327000Y-109951000D02*
X158577000Y-110701000D01*
X160077000Y-105961000D02*
X159327000Y-106711000D01*
X160077000Y-110701000D02*
X159327000Y-109951000D01*
X161577000Y-105961000D02*
X160077000Y-105961000D01*
X161577000Y-110701000D02*
X160077000Y-110701000D01*
X161577000Y-110701000D02*
X161577000Y-105961000D01*
X162577000Y-111281000D02*
X162577000Y-109781000D01*
X162717000Y-108331000D02*
X161577000Y-108331000D01*
X163327000Y-110531000D02*
X161827000Y-110531000D01*
%TO.C,C3*%
X186225000Y-83660000D02*
X186225000Y-85160000D01*
X186225000Y-85160000D02*
X186975000Y-85910000D01*
X186225000Y-86660000D02*
X186225000Y-93900000D01*
X186975000Y-85910000D02*
X186225000Y-86660000D01*
X188595000Y-82520000D02*
X188595000Y-83660000D01*
X188595000Y-95040000D02*
X188595000Y-93900000D01*
X190215000Y-85910000D02*
X190965000Y-86660000D01*
X190795000Y-81910000D02*
X190795000Y-83410000D01*
X190965000Y-83660000D02*
X186225000Y-83660000D01*
X190965000Y-83660000D02*
X190965000Y-85160000D01*
X190965000Y-85160000D02*
X190215000Y-85910000D01*
X190965000Y-86660000D02*
X190965000Y-93900000D01*
X190965000Y-93900000D02*
X186225000Y-93900000D01*
X191545000Y-82660000D02*
X190045000Y-82660000D01*
%TO.C,C2*%
X130230000Y-51200000D02*
X131730000Y-51200000D01*
X130840000Y-53400000D02*
X131980000Y-53400000D01*
X130980000Y-50450000D02*
X130980000Y-51950000D01*
X131980000Y-51030000D02*
X131980000Y-55770000D01*
X131980000Y-51030000D02*
X133480000Y-51030000D01*
X131980000Y-55770000D02*
X133480000Y-55770000D01*
X133480000Y-51030000D02*
X134230000Y-51780000D01*
X133480000Y-55770000D02*
X134230000Y-55020000D01*
X134230000Y-51780000D02*
X134980000Y-51030000D01*
X134230000Y-55020000D02*
X134980000Y-55770000D01*
X134980000Y-51030000D02*
X142220000Y-51030000D01*
X134980000Y-55770000D02*
X142220000Y-55770000D01*
X142220000Y-51030000D02*
X142220000Y-55770000D01*
X143360000Y-53400000D02*
X142220000Y-53400000D01*
%TO.C,SW2*%
X171581000Y-55221000D02*
X171581000Y-56721000D01*
X172831000Y-59221000D02*
X177331000Y-59221000D01*
X177331000Y-52721000D02*
X172831000Y-52721000D01*
X178581000Y-56721000D02*
X178581000Y-55221000D01*
D10*
%TO.C,U5*%
X169525000Y-70475000D02*
X182225000Y-70475000D01*
X169525000Y-108575000D02*
X169525000Y-70475000D01*
X170795000Y-71745000D02*
X170795000Y-70475000D01*
X173335000Y-70475000D02*
X173335000Y-71745000D01*
X173335000Y-71745000D02*
X170795000Y-71745000D01*
X174605000Y-70475000D02*
X174605000Y-108575000D01*
X174605000Y-71745000D02*
X174605000Y-70475000D01*
X177145000Y-70475000D02*
X177145000Y-70475000D01*
X177145000Y-70475000D02*
X177145000Y-71745000D01*
X177145000Y-71745000D02*
X174605000Y-71745000D01*
X182225000Y-70475000D02*
X182225000Y-108575000D01*
X182225000Y-108575000D02*
X169525000Y-108575000D01*
D12*
%TO.C,C14*%
X131230000Y-45700000D02*
X132730000Y-45700000D01*
X131840000Y-47900000D02*
X132980000Y-47900000D01*
X131980000Y-44950000D02*
X131980000Y-46450000D01*
X132980000Y-45530000D02*
X132980000Y-50270000D01*
X132980000Y-45530000D02*
X134480000Y-45530000D01*
X132980000Y-50270000D02*
X134480000Y-50270000D01*
X134480000Y-45530000D02*
X135230000Y-46280000D01*
X134480000Y-50270000D02*
X135230000Y-49520000D01*
X135230000Y-46280000D02*
X135980000Y-45530000D01*
X135230000Y-49520000D02*
X135980000Y-50270000D01*
X135980000Y-45530000D02*
X143220000Y-45530000D01*
X135980000Y-50270000D02*
X143220000Y-50270000D01*
X143220000Y-45530000D02*
X143220000Y-50270000D01*
X144360000Y-47900000D02*
X143220000Y-47900000D01*
%TD*%
M02*
