G04 #@! TF.FileFunction,Soldermask,Bot*
%FSLAX46Y46*%
G04 Gerber Fmt 4.6, Leading zero omitted, Abs format (unit mm)*
G04 Created by KiCad (PCBNEW 4.1.0-alpha+201608101232+7015~46~ubuntu14.04.1-product) date Fri Aug 19 12:09:27 2016*
%MOMM*%
%LPD*%
G01*
G04 APERTURE LIST*
%ADD10C,0.100000*%
%ADD11O,1.760000X2.660000*%
%ADD12R,2.660000X2.160000*%
%ADD13O,2.700000X1.684000*%
%ADD14O,2.160000X3.160000*%
%ADD15R,1.887200X2.192000*%
%ADD16O,1.887200X2.192000*%
%ADD17R,2.192000X1.887200*%
%ADD18O,2.192000X1.887200*%
%ADD19R,1.887200X1.887200*%
%ADD20O,1.887200X1.887200*%
%ADD21R,2.192000X2.192000*%
%ADD22O,2.192000X2.192000*%
G04 APERTURE END LIST*
D10*
D11*
X177905000Y-43275000D03*
X175365000Y-43275000D03*
X172825000Y-43275000D03*
X169815000Y-43275000D03*
X167275000Y-43275000D03*
X164735000Y-43275000D03*
X161705000Y-43275000D03*
X159165000Y-43275000D03*
X156625000Y-43275000D03*
X153605000Y-43275000D03*
X151065000Y-43275000D03*
X148525000Y-43275000D03*
D12*
X132500000Y-128000000D03*
X128000000Y-128000000D03*
X132500000Y-125000000D03*
X128000000Y-125000000D03*
X139000000Y-128000000D03*
X143500000Y-128000000D03*
X139000000Y-125000000D03*
X143500000Y-125000000D03*
X157250000Y-128000000D03*
X152750000Y-128000000D03*
X157250000Y-125000000D03*
X152750000Y-125000000D03*
X164800000Y-128000000D03*
X169300000Y-128000000D03*
X164800000Y-125000000D03*
X169300000Y-125000000D03*
D13*
X117550000Y-98500000D03*
X117550000Y-101040000D03*
X117550000Y-103580000D03*
D11*
X145525000Y-43275000D03*
X142985000Y-43275000D03*
X140445000Y-43275000D03*
X137905000Y-43275000D03*
X135125000Y-43275000D03*
X132585000Y-43275000D03*
X130045000Y-43275000D03*
X127505000Y-43275000D03*
D14*
X143550000Y-135300000D03*
X138470000Y-135300000D03*
X148630000Y-135300000D03*
X153710000Y-135300000D03*
X164000000Y-135300000D03*
X158920000Y-135300000D03*
X169080000Y-135300000D03*
X174160000Y-135300000D03*
X122980000Y-135300000D03*
X117900000Y-135300000D03*
X133270000Y-135300000D03*
X128190000Y-135300000D03*
D15*
X176790000Y-112890000D03*
D16*
X179330000Y-112890000D03*
X181870000Y-112890000D03*
D15*
X176790000Y-106890000D03*
D16*
X179330000Y-106890000D03*
X181870000Y-106890000D03*
D15*
X176790000Y-100890000D03*
D16*
X179330000Y-100890000D03*
X181870000Y-100890000D03*
D15*
X176760000Y-94930000D03*
D16*
X179300000Y-94930000D03*
X181840000Y-94930000D03*
D17*
X141525000Y-59130000D03*
D18*
X141525000Y-56590000D03*
X141525000Y-54050000D03*
D17*
X153980000Y-59115000D03*
D18*
X153980000Y-56575000D03*
X153980000Y-54035000D03*
D17*
X134375000Y-54050000D03*
D18*
X134375000Y-56590000D03*
X134375000Y-59130000D03*
D17*
X137950000Y-54050000D03*
D18*
X137950000Y-56590000D03*
X137950000Y-59130000D03*
D17*
X146830000Y-54020000D03*
D18*
X146830000Y-56560000D03*
X146830000Y-59100000D03*
D17*
X150405000Y-54020000D03*
D18*
X150405000Y-56560000D03*
X150405000Y-59100000D03*
D19*
X181420000Y-76620000D03*
D20*
X178880000Y-76620000D03*
X181420000Y-74080000D03*
X178880000Y-74080000D03*
X181420000Y-71540000D03*
X178880000Y-71540000D03*
D21*
X122800000Y-121860000D03*
D22*
X122800000Y-124400000D03*
M02*
