G04 FreePCB version 1.355*
G04 C:\FcPoly-Ttest\top_paste_mask.grb*
G04 top paste mask layer *
G04 Scale: 100 percent, Rotated: No, Reflected: No *
%FSLAX24Y24*%
%MOIN*%
%LN top paste mask *%
G04 Rounded Rectangle Macro, params: W/2, H/2, R *
%AMRNDREC*
21,1,$1+$1,$2+$2-$3-$3,0,0,0*
21,1,$1+$1-$3-$3,$2+$2,0,0,0*
1,1,$3+$3,$1-$3,$2-$3*
1,1,$3+$3,$3-$1,$2-$3*
1,1,$3+$3,$1-$3,$3-$2*
1,1,$3+$3,$3-$1,$3-$2*%
G04 Rectangular Thermal Macro, params: W/2, H/2, T/2 *
%AMRECTHERM*
$4=$3/2*
21,1,$1-$3,$2-$3,0-$1/2-$4,0-$2/2-$4,0*
21,1,$1-$3,$2-$3,0-$1/2-$4,$2/2+$4,0*
21,1,$1-$3,$2-$3,$1/2+$4,0-$2/2-$4,0*
21,1,$1-$3,$2-$3,$1/2+$4,$2/2+$4,0*%
%ADD10C,0.005000*%
%ADD11R,0.050000X0.050000*%
%ADD12R,0.070000X0.102000*%
%ADD13R,0.080000X0.024000*%
%ADD14R,0.060000X0.060000*%
G90*
G70D02*

G04 Step and Repeat for panelization *

G04 ----------------------- Draw board outline (positive)*
%LPD*%
G54D10*
G01X0Y11800D02*
G01X23250Y11800D01*
G04 end of side 1*
G01X23250Y0D01*
G04 end of side 2*
G01X0Y0D01*
G04 end of side 3*
G01X0Y11800D01*

G04 -------------- Draw Parts, Pads, Traces, Vias and Text (positive)*
%LPD*%
G04 Draw part J1*
G04 Draw part C1*
G54D11*
G01X6280Y9000D03*
G01X6280Y9750D03*
G04 Draw part C2*
G54D12*
G01X8000Y8240D03*
G01X8000Y9740D03*
G04 Draw part U1*
G54D13*
G01X9630Y5200D03*
G01X9630Y4700D03*
G01X9630Y4200D03*
G01X9630Y3700D03*
G01X9630Y3200D03*
G01X9630Y2700D03*
G01X9630Y2200D03*
G01X9630Y1700D03*
G01X13630Y1700D03*
G01X13630Y2200D03*
G01X13630Y2700D03*
G01X13630Y3200D03*
G01X13630Y3700D03*
G01X13630Y4200D03*
G01X13630Y4700D03*
G01X13630Y5200D03*
G04 Draw part C3*
G54D11*
G01X8320Y4700D03*
G01X8320Y3950D03*
G04 Draw part C4*
G01X8320Y6380D03*
G01X8320Y5630D03*
G04 Draw part C5*
G01X14950Y6700D03*
G01X14950Y5950D03*
G04 Draw part C6*
G01X14950Y4950D03*
G01X14950Y4200D03*
G04 Draw part R1*
G54D14*
G01X5440Y5650D03*
G01X5440Y6900D03*
G04 Draw part R2*
G01X6800Y2200D03*
G01X5550Y2200D03*
G04 Draw part R3*
G01X17720Y6860D03*
G01X17720Y5610D03*
G04 Draw part R4*
G01X17740Y2200D03*
G01X16490Y2200D03*
G04 Draw part J2*
G04 Draw part C7*
G54D11*
G01X16960Y8980D03*
G01X16960Y9730D03*
G04 Draw part C8*
G54D12*
G01X15100Y8240D03*
G01X15100Y9740D03*
G04 Draw part J3*
G04 Draw part J4*
G04 Draw part U2*

G04 Draw traces*

G04 Draw Text*
M00*
M02*
