G04 This is an RS-274x file exported by *
G04 gerbv version 2.6A *
G04 More information is available about gerbv at *
G04 http://gerbv.geda-project.org/ *
G04 --End of header info--*
%MOIN*%
%FSLAX34Y34*%
%IPPOS*%
G04 --Define apertures--*
%ADD10C,0.0050*%
%ADD11C,0.0760*%
%ADD12R,0.0660X0.0660*%
%ADD13R,0.0860X0.1180*%
%ADD14R,0.0960X0.0400*%
%ADD15R,0.0760X0.0760*%
G04 --Start main section--*
G54D10*
G01X0000000Y0011800D02*
G01X0023250Y0011800D01*
G01X0023250Y0011800D02*
G01X0023250Y0000000D01*
G01X0023250Y0000000D02*
G01X0000000Y0000000D01*
G01X0000000Y0000000D02*
G01X0000000Y0011800D01*
G54D11*
G01X0003960Y0007900D03*
G01X0003960Y0006900D03*
G01X0003960Y0005900D03*
G01X0003960Y0004900D03*
G01X0003960Y0003900D03*
G54D12*
G01X0006280Y0009000D03*
G01X0006280Y0009750D03*
G54D13*
G01X0008000Y0008240D03*
G01X0008000Y0009740D03*
G54D14*
G01X0009630Y0005200D03*
G01X0009630Y0004700D03*
G01X0009630Y0004200D03*
G01X0009630Y0003700D03*
G01X0009630Y0003200D03*
G01X0009630Y0002700D03*
G01X0009630Y0002200D03*
G01X0009630Y0001700D03*
G01X0013630Y0001700D03*
G01X0013630Y0002200D03*
G01X0013630Y0002700D03*
G01X0013630Y0003200D03*
G01X0013630Y0003700D03*
G01X0013630Y0004200D03*
G01X0013630Y0004700D03*
G01X0013630Y0005200D03*
G54D12*
G01X0008320Y0004700D03*
G01X0008320Y0003950D03*
G01X0008320Y0006380D03*
G01X0008320Y0005630D03*
G01X0014950Y0006700D03*
G01X0014950Y0005950D03*
G01X0014950Y0004950D03*
G01X0014950Y0004200D03*
G54D15*
G01X0005440Y0005650D03*
G01X0005440Y0006900D03*
G01X0006800Y0002200D03*
G01X0005550Y0002200D03*
G01X0017720Y0006860D03*
G01X0017720Y0005610D03*
G01X0017740Y0002200D03*
G01X0016490Y0002200D03*
G54D11*
G01X0019280Y0007860D03*
G01X0019280Y0006860D03*
G01X0019280Y0005860D03*
G01X0019280Y0004860D03*
G01X0019280Y0003860D03*
G54D12*
G01X0016960Y0008980D03*
G01X0016960Y0009730D03*
G54D13*
G01X0015100Y0008240D03*
G01X0015100Y0009740D03*
G54D11*
G01X0016340Y0006700D03*
G01X0016340Y0005700D03*
G01X0016340Y0004700D03*
G01X0006920Y0006700D03*
G01X0006920Y0005700D03*
G01X0006920Y0004700D03*
G01X0010130Y0007000D03*
G01X0011130Y0007000D03*
G01X0012130Y0007000D03*
G01X0013130Y0007000D03*
M02*
