%TF.GenerationSoftware,KiCad,Pcbnew,6.0.2+dfsg-1*%
%TF.CreationDate,2023-07-02T18:14:50+02:00*%
%TF.ProjectId,main,6d61696e-2e6b-4696-9361-645f70636258,rev?*%
%TF.SameCoordinates,Original*%
%TF.FileFunction,Legend,Top*%
%TF.FilePolarity,Positive*%
%FSLAX46Y46*%
G04 Gerber Fmt 4.6, Leading zero omitted, Abs format (unit mm)*
G04 Created by KiCad (PCBNEW 6.0.2+dfsg-1) date 2023-07-02 18:14:50*
%MOMM*%
%LPD*%
G01*
G04 APERTURE LIST*
%ADD10C,0.150000*%
%ADD11O,2.032000X1.727200*%
%ADD12C,2.540000*%
G04 APERTURE END LIST*
D10*
X142017714Y-71699380D02*
X141446285Y-71699380D01*
X141732000Y-71699380D02*
X141732000Y-70699380D01*
X141636761Y-70842238D01*
X141541523Y-70937476D01*
X141446285Y-70985095D01*
%TO.C,P1*%
X142438380Y-88368095D02*
X141438380Y-88368095D01*
X141438380Y-87987142D01*
X141486000Y-87891904D01*
X141533619Y-87844285D01*
X141628857Y-87796666D01*
X141771714Y-87796666D01*
X141866952Y-87844285D01*
X141914571Y-87891904D01*
X141962190Y-87987142D01*
X141962190Y-88368095D01*
X142438380Y-86844285D02*
X142438380Y-87415714D01*
X142438380Y-87130000D02*
X141438380Y-87130000D01*
X141581238Y-87225238D01*
X141676476Y-87320476D01*
X141724095Y-87415714D01*
%TO.C,P2*%
X152598380Y-88368095D02*
X151598380Y-88368095D01*
X151598380Y-87987142D01*
X151646000Y-87891904D01*
X151693619Y-87844285D01*
X151788857Y-87796666D01*
X151931714Y-87796666D01*
X152026952Y-87844285D01*
X152074571Y-87891904D01*
X152122190Y-87987142D01*
X152122190Y-88368095D01*
X151693619Y-87415714D02*
X151646000Y-87368095D01*
X151598380Y-87272857D01*
X151598380Y-87034761D01*
X151646000Y-86939523D01*
X151693619Y-86891904D01*
X151788857Y-86844285D01*
X151884095Y-86844285D01*
X152026952Y-86891904D01*
X152598380Y-87463333D01*
X152598380Y-86844285D01*
%TO.C,P1*%
X140716000Y-72517000D02*
X140716000Y-108077000D01*
X138176000Y-69977000D02*
X138176000Y-72517000D01*
X138176000Y-108077000D02*
X138176000Y-72517000D01*
X140716000Y-108077000D02*
X138176000Y-108077000D01*
X140716000Y-72517000D02*
X140716000Y-69977000D01*
X140716000Y-69977000D02*
X138176000Y-69977000D01*
X138176000Y-72517000D02*
X140716000Y-72517000D01*
%TO.C,P2*%
X155956000Y-69977000D02*
X153416000Y-69977000D01*
X155956000Y-72517000D02*
X155956000Y-69977000D01*
X155956000Y-108077000D02*
X153416000Y-108077000D01*
X155956000Y-72517000D02*
X155956000Y-108077000D01*
X153416000Y-72517000D02*
X155956000Y-72517000D01*
X153416000Y-69977000D02*
X153416000Y-72517000D01*
X153416000Y-108077000D02*
X153416000Y-72517000D01*
%TD*%
D11*
%TO.C,P1*%
X139446000Y-71247000D03*
X139446000Y-73787000D03*
X139446000Y-76327000D03*
X139446000Y-78867000D03*
X139446000Y-81407000D03*
X139446000Y-83947000D03*
X139446000Y-86487000D03*
X139446000Y-89027000D03*
X139446000Y-91567000D03*
X139446000Y-94107000D03*
X139446000Y-96647000D03*
X139446000Y-99187000D03*
X139446000Y-101727000D03*
X139446000Y-104267000D03*
X139446000Y-106807000D03*
%TD*%
%TO.C,P2*%
X154686000Y-71247000D03*
X154686000Y-73787000D03*
X154686000Y-76327000D03*
X154686000Y-78867000D03*
X154686000Y-81407000D03*
X154686000Y-83947000D03*
X154686000Y-86487000D03*
X154686000Y-89027000D03*
X154686000Y-91567000D03*
X154686000Y-94107000D03*
X154686000Y-96647000D03*
X154686000Y-99187000D03*
X154686000Y-101727000D03*
X154686000Y-104267000D03*
X154686000Y-106807000D03*
%TD*%
D12*
%TO.C,P3*%
X139446000Y-68707000D03*
%TD*%
%TO.C,P4*%
X139446000Y-109347000D03*
%TD*%
%TO.C,P5*%
X154686000Y-109347000D03*
%TD*%
%TO.C,P6*%
X154686000Y-68707000D03*
%TD*%
M02*
