M48
;DRILL file {KiCad 4.1.0-alpha+201608101232+7015~46~ubuntu14.04.1-product} date Fri Aug 19 12:09:32 2016
;FORMAT={-:-/ absolute / metric / decimal}
FMAT,2
METRIC,TZ
T1C0.400
T2C0.500
T3C0.700
T4C0.800
T5C1.000
T6C1.100
T7C1.400
T8C1.000
T9C3.000
%
G90
G05
M71
T1
X110.98Y-118.692
X111.34Y-48.23
X112.598Y-117.93
X113.76Y-66.12
X114.027Y-120.364
X114.03Y-90.4
X114.79Y-63.62
X115.88Y-127.91
X116.51Y-67.6
X117.005Y-119.119
X117.82Y-69.51
X118.22Y-93.97
X118.22Y-113.66
X118.268Y-119.676
X118.472Y-92.542
X118.94Y-91.25
X119.Y-84.34
X119.01Y-80.34
X119.17Y-61.75
X121.68Y-115.25
X121.725Y-98.9
X122.31Y-82.64
X124.83Y-88.
X124.98Y-120.432
X125.Y-104.04
X126.18Y-70.83
X126.2Y-116.95
X126.21Y-119.12
X126.227Y-114.9
X127.33Y-82.64
X127.41Y-66.57
X127.8Y-57.04
X127.92Y-74.84
X128.43Y-97.74
X128.44Y-96.27
X129.25Y-122.15
X129.86Y-88.
X130.04Y-79.12
X130.368Y-48.579
X130.37Y-57.04
X130.42Y-68.35
X131.17Y-67.62
X131.24Y-90.85
X131.3Y-72.13
X132.289Y-61.591
X132.32Y-82.64
X132.52Y-66.43
X132.85Y-92.75
X133.03Y-103.01
X133.75Y-73.091
X134.54Y-71.25
X134.63Y-89.32
X134.88Y-88.
X135.068Y-72.353
X135.78Y-90.99
X137.01Y-103.01
X137.31Y-73.82
X137.42Y-82.64
X138.22Y-86.94
X139.5Y-89.34
X139.88Y-117.44
X140.027Y-62.577
X140.3Y-75.27
X140.397Y-83.583
X140.88Y-90.73
X141.134Y-50.501
X141.38Y-86.57
X141.73Y-78.6
X141.76Y-96.76
X141.76Y-120.49
X141.97Y-101.568
X142.016Y-76.569
X142.66Y-97.56
X143.389Y-116.731
X143.87Y-48.42
X144.605Y-113.503
X145.442Y-116.361
X145.53Y-68.35
X145.84Y-83.65
X145.92Y-101.563
X146.25Y-90.97
X146.31Y-77.37
X146.75Y-85.58
X147.7Y-63.44
X148.02Y-67.579
X148.4Y-82.67
X148.515Y-61.756
X148.66Y-99.6
X148.88Y-78.23
X149.582Y-117.929
X149.97Y-128.55
X150.15Y-82.98
X150.312Y-114.49
X150.74Y-78.914
X150.932Y-119.13
X151.078Y-87.84
X151.12Y-134.27
X151.12Y-135.99
X151.237Y-64.962
X152.034Y-107.08
X152.7Y-101.44
X153.45Y-91.19
X153.7Y-105.44
X154.15Y-82.65
X154.508Y-102.82
X154.76Y-96.57
X154.76Y-97.84
X155.41Y-91.17
X155.53Y-75.4
X156.17Y-72.26
X156.54Y-49.2
X156.63Y-87.41
X157.62Y-121.53
X157.8Y-49.87
X158.1Y-77.37
X158.15Y-90.878
X158.72Y-58.89
X159.05Y-82.66
X159.44Y-91.38
X159.71Y-102.92
X159.73Y-76.64
X160.33Y-62.07
X161.25Y-55.77
X161.25Y-90.8
X161.45Y-72.66
X161.61Y-64.5
X162.73Y-102.92
X163.16Y-90.82
X163.84Y-58.72
X164.07Y-63.77
X164.19Y-82.66
X164.85Y-121.56
X165.Y-76.31
X165.08Y-90.82
X165.56Y-132.66
X165.58Y-69.8
X165.75Y-77.25
X165.803Y-63.927
X165.95Y-111.43
X166.39Y-55.77
X166.7Y-87.41
X166.83Y-76.159
X166.926Y-71.238
X167.29Y-79.25
X167.29Y-132.66
X167.351Y-67.979
X167.52Y-69.18
X167.662Y-76.719
X167.93Y-97.8
X167.93Y-99.34
X168.16Y-90.86
X168.195Y-71.105
X169.03Y-82.66
X169.06Y-58.88
X169.142Y-101.147
X169.71Y-116.
X169.72Y-119.96
X170.07Y-90.86
X170.983Y-112.931
X171.57Y-79.24
X171.59Y-132.66
X171.6Y-55.77
X171.644Y-101.147
X172.22Y-59.3
X172.61Y-82.45
X173.27Y-112.06
X173.303Y-110.4
X173.38Y-91.54
X173.61Y-79.27
X173.65Y-66.03
X173.969Y-108.478
X174.Y-69.04
X174.04Y-113.21
X174.09Y-118.84
X174.23Y-76.9
X174.24Y-64.61
X174.29Y-71.43
X174.649Y-49.612
X175.47Y-77.8
X175.58Y-89.86
X175.61Y-115.94
X175.64Y-97.95
X175.64Y-103.92
X175.64Y-109.92
X175.89Y-86.83
X176.13Y-132.66
X176.33Y-74.24
X177.891Y-49.818
X179.21Y-66.56
X179.3Y-62.91
X179.9Y-46.32
X180.6Y-79.4
X181.92Y-132.64
X181.99Y-46.28
X182.Y-54.81
X182.Y-79.87
X182.22Y-91.29
X182.61Y-59.72
X184.43Y-92.13
T2
X122.723Y-107.164
X133.Y-107.
X133.Y-109.
X133.Y-111.
X133.Y-113.
X133.Y-115.
X133.Y-117.
X133.Y-119.
X137.Y-107.
X137.Y-109.
X137.Y-111.
X137.Y-113.
X137.Y-115.
X137.Y-117.
X137.Y-119.
X147.339Y-108.549
X159.25Y-106.825
X159.25Y-108.825
X159.25Y-110.825
X159.25Y-112.825
X159.25Y-114.825
X159.25Y-116.825
X159.25Y-118.825
X163.25Y-106.825
X163.25Y-108.825
X163.25Y-110.825
X163.25Y-112.825
X163.25Y-114.825
X163.25Y-116.825
X163.25Y-118.825
T3
X111.68Y-76.1
X120.586Y-96.851
X122.96Y-108.756
X125.634Y-111.619
X127.484Y-122.58
X129.85Y-131.75
X135.289Y-99.883
X144.389Y-122.4
X145.602Y-112.439
X146.2Y-129.73
X146.865Y-111.149
X152.434Y-110.72
X155.405Y-132.19
X161.355Y-99.763
X169.953Y-110.932
T4
X117.55Y-98.5
X117.55Y-101.04
X117.55Y-103.58
T5
X122.8Y-121.86
X122.8Y-124.4
X134.375Y-54.05
X134.375Y-56.59
X134.375Y-59.13
X137.95Y-54.05
X137.95Y-56.59
X137.95Y-59.13
X141.525Y-54.05
X141.525Y-56.59
X141.525Y-59.13
X146.83Y-54.02
X146.83Y-56.56
X146.83Y-59.1
X150.405Y-54.02
X150.405Y-56.56
X150.405Y-59.1
X153.98Y-54.035
X153.98Y-56.575
X153.98Y-59.115
X176.76Y-94.93
X176.79Y-100.89
X176.79Y-106.89
X176.79Y-112.89
X178.88Y-71.54
X178.88Y-74.08
X178.88Y-76.62
X179.3Y-94.93
X179.33Y-100.89
X179.33Y-106.89
X179.33Y-112.89
X181.42Y-71.54
X181.42Y-74.08
X181.42Y-76.62
X181.84Y-94.93
X181.87Y-100.89
X181.87Y-106.89
X181.87Y-112.89
T6
X127.505Y-43.275
X130.045Y-43.275
X132.585Y-43.275
X135.125Y-43.275
X137.905Y-43.275
X140.445Y-43.275
X142.985Y-43.275
X145.525Y-43.275
X148.525Y-43.275
X151.065Y-43.275
X153.605Y-43.275
X156.625Y-43.275
X159.165Y-43.275
X161.705Y-43.275
X164.735Y-43.275
X167.275Y-43.275
X169.815Y-43.275
X172.825Y-43.275
X175.365Y-43.275
X177.905Y-43.275
T7
X117.9Y-135.3
X122.98Y-135.3
X128.19Y-135.3
X133.27Y-135.3
X138.47Y-135.3
X143.55Y-135.3
X148.63Y-135.3
X153.71Y-135.3
X158.92Y-135.3
X164.Y-135.3
X169.08Y-135.3
X174.16Y-135.3
T8
X117.575Y-44.8
X121.975Y-44.8
T9
X111.Y-43.
X111.Y-137.
X182.Y-43.
X182.Y-137.
T0
M30
