G04 #@! TF.FileFunction,Paste,Top*
%FSLAX46Y46*%
G04 Gerber Fmt 4.6, Leading zero omitted, Abs format (unit mm)*
G04 Created by KiCad (PCBNEW 4.1.0-alpha+201608101232+7015~46~ubuntu14.04.1-product) date Fri Aug 19 12:09:27 2016*
%MOMM*%
%LPD*%
G01*
G04 APERTURE LIST*
%ADD10C,0.100000*%
%ADD11R,0.347600X2.097600*%
%ADD12R,1.897600X3.347600*%
%ADD13R,1.897600X3.847600*%
%ADD14R,0.547600X1.147600*%
%ADD15R,1.046480X1.046480*%
%ADD16R,0.247600X0.947600*%
%ADD17R,1.447600X0.397600*%
%ADD18R,0.397600X1.447600*%
%ADD19R,0.847600X1.097600*%
%ADD20R,2.847600X1.847600*%
%ADD21R,1.097600X0.847600*%
%ADD22R,0.757600X1.067600*%
%ADD23R,2.347600X1.847600*%
%ADD24R,0.297600X0.437600*%
%ADD25R,3.347600X1.447600*%
%ADD26R,1.147600X0.547600*%
%ADD27R,1.547600X0.747600*%
%ADD28R,0.847600X0.247600*%
%ADD29R,2.598420X1.648460*%
%ADD30R,1.648460X2.598420*%
%ADD31R,0.647600X1.047600*%
%ADD32R,1.447600X0.147600*%
%ADD33R,2.347600X1.447600*%
%ADD34R,1.297600X0.297600*%
%ADD35R,3.848100X2.247900*%
%ADD36R,1.847600X0.547600*%
G04 APERTURE END LIST*
D10*
D11*
X119775000Y-47125000D03*
X120575000Y-47125000D03*
X121375000Y-47125000D03*
X118975000Y-47125000D03*
X118175000Y-47125000D03*
D12*
X124700000Y-47125000D03*
X114850000Y-47125000D03*
D13*
X124700000Y-42875000D03*
X114850000Y-42875000D03*
D14*
X176430000Y-64820000D03*
X178330000Y-64820000D03*
D15*
X180130980Y-64830000D03*
X182229020Y-64830000D03*
X180141960Y-61250000D03*
X182240000Y-61250000D03*
X180140980Y-68550000D03*
X182239020Y-68550000D03*
D14*
X176430000Y-61250000D03*
X178330000Y-61250000D03*
X176430000Y-68560000D03*
X178330000Y-68560000D03*
D16*
X129855000Y-75360000D03*
X130505000Y-75360000D03*
X131155000Y-75360000D03*
X131805000Y-75360000D03*
X132455000Y-75360000D03*
X133105000Y-75360000D03*
X133755000Y-75360000D03*
X134405000Y-75360000D03*
X135055000Y-75360000D03*
X135705000Y-75360000D03*
X136355000Y-75360000D03*
X137005000Y-75360000D03*
X137655000Y-75360000D03*
X138305000Y-75360000D03*
X138305000Y-69660000D03*
X137655000Y-69660000D03*
X137005000Y-69660000D03*
X136355000Y-69660000D03*
X135705000Y-69660000D03*
X135055000Y-69660000D03*
X134405000Y-69660000D03*
X133755000Y-69660000D03*
X133105000Y-69660000D03*
X132455000Y-69660000D03*
X131805000Y-69660000D03*
X131155000Y-69660000D03*
X130505000Y-69660000D03*
X129855000Y-69660000D03*
D17*
X163550000Y-67460000D03*
X163550000Y-68260000D03*
X163550000Y-69060000D03*
X163550000Y-69860000D03*
X163550000Y-70660000D03*
X163550000Y-71460000D03*
X163550000Y-72260000D03*
X163550000Y-73060000D03*
D18*
X165000000Y-74510000D03*
X165800000Y-74510000D03*
X166600000Y-74510000D03*
X167400000Y-74510000D03*
X168200000Y-74510000D03*
X169000000Y-74510000D03*
X169800000Y-74510000D03*
X170600000Y-74510000D03*
D17*
X172050000Y-73060000D03*
X172050000Y-72260000D03*
X172050000Y-71460000D03*
X172050000Y-70660000D03*
X172050000Y-69860000D03*
X172050000Y-69060000D03*
X172050000Y-68260000D03*
X172050000Y-67460000D03*
D18*
X170600000Y-66010000D03*
X169800000Y-66010000D03*
X169000000Y-66010000D03*
X168200000Y-66010000D03*
X167400000Y-66010000D03*
X166600000Y-66010000D03*
X165800000Y-66010000D03*
X165000000Y-66010000D03*
D19*
X124310000Y-113580000D03*
X122310000Y-113580000D03*
D20*
X115300000Y-122300000D03*
X115300000Y-116100000D03*
D21*
X156170000Y-68700000D03*
X156170000Y-70700000D03*
X124630000Y-74820000D03*
X124630000Y-76820000D03*
X112825000Y-58775000D03*
X112825000Y-56775000D03*
X111590000Y-70440000D03*
X111590000Y-72440000D03*
X127825000Y-60550000D03*
X127825000Y-58550000D03*
D19*
X123340000Y-81120000D03*
X121340000Y-81120000D03*
X128340000Y-81120000D03*
X126340000Y-81120000D03*
X133340000Y-81120000D03*
X131340000Y-81120000D03*
X138440000Y-81120000D03*
X136440000Y-81120000D03*
X146000000Y-118000000D03*
X144000000Y-118000000D03*
X155160000Y-81080000D03*
X153160000Y-81080000D03*
X160110000Y-81080000D03*
X158110000Y-81080000D03*
X165190000Y-81030000D03*
X163190000Y-81030000D03*
X170230000Y-80980000D03*
X168230000Y-80980000D03*
X172950000Y-117250000D03*
X170950000Y-117250000D03*
X152000000Y-113000000D03*
X150000000Y-113000000D03*
X179230000Y-97930000D03*
X177230000Y-97930000D03*
X179270000Y-103920000D03*
X177270000Y-103920000D03*
X179300000Y-109920000D03*
X177300000Y-109920000D03*
X179250000Y-115920000D03*
X177250000Y-115920000D03*
X122000000Y-53000000D03*
X124000000Y-53000000D03*
D21*
X117710000Y-54060000D03*
X117710000Y-52060000D03*
X113960000Y-54060000D03*
X113960000Y-52060000D03*
X148900000Y-87830000D03*
X148900000Y-89830000D03*
X180590000Y-87880000D03*
X180590000Y-89880000D03*
X154680000Y-49670000D03*
X154680000Y-47670000D03*
X149040000Y-49570000D03*
X149040000Y-47570000D03*
X142390000Y-49380000D03*
X142390000Y-47380000D03*
X136580000Y-49460000D03*
X136580000Y-47460000D03*
D15*
X111581960Y-84400000D03*
X113680000Y-84400000D03*
X111620980Y-80390000D03*
X113719020Y-80390000D03*
D22*
X120705000Y-85335000D03*
X123975000Y-85335000D03*
X125705000Y-85335000D03*
X128975000Y-85335000D03*
X130705000Y-85335000D03*
X133975000Y-85335000D03*
X135805000Y-85335000D03*
X139075000Y-85335000D03*
D23*
X128000000Y-128000000D03*
X132500000Y-128000000D03*
X128000000Y-125000000D03*
X132500000Y-125000000D03*
X143500000Y-128000000D03*
X139000000Y-128000000D03*
X143500000Y-125000000D03*
X139000000Y-125000000D03*
D22*
X152475000Y-85335000D03*
X155745000Y-85335000D03*
X157520000Y-85335000D03*
X160790000Y-85335000D03*
X162570000Y-85335000D03*
X165840000Y-85335000D03*
X167570000Y-85335000D03*
X170840000Y-85335000D03*
D23*
X152750000Y-128000000D03*
X157250000Y-128000000D03*
X152750000Y-125000000D03*
X157250000Y-125000000D03*
X169300000Y-128000000D03*
X164800000Y-128000000D03*
X169300000Y-125000000D03*
X164800000Y-125000000D03*
D22*
X121440000Y-65825000D03*
X124710000Y-65825000D03*
D24*
X156430000Y-63205000D03*
X156430000Y-65315000D03*
X152890000Y-63205000D03*
X152890000Y-65315000D03*
X142160000Y-63185000D03*
X142160000Y-65295000D03*
X138560000Y-63165000D03*
X138560000Y-65275000D03*
D25*
X123000000Y-57561600D03*
X123000000Y-62438400D03*
D19*
X124000000Y-55000000D03*
X122000000Y-55000000D03*
D26*
X130325000Y-58600000D03*
X130325000Y-60500000D03*
X145520000Y-72625000D03*
X145520000Y-70725000D03*
X148020000Y-72625000D03*
X148020000Y-70725000D03*
X143170000Y-70675000D03*
X143170000Y-72575000D03*
X131090000Y-63300000D03*
X131090000Y-65200000D03*
X127415000Y-63300000D03*
X127415000Y-65200000D03*
D14*
X115965000Y-84335000D03*
X117865000Y-84335000D03*
X117905000Y-80335000D03*
X116005000Y-80335000D03*
X124950000Y-116150000D03*
X123050000Y-116150000D03*
X144050000Y-115000000D03*
X145950000Y-115000000D03*
X123410000Y-89310000D03*
X121510000Y-89310000D03*
X128215000Y-89310000D03*
X126315000Y-89310000D03*
X133115000Y-89340000D03*
X131215000Y-89340000D03*
X138315000Y-89340000D03*
X136415000Y-89340000D03*
D27*
X125130000Y-108540000D03*
X125130000Y-105640000D03*
X145000000Y-108550000D03*
X145000000Y-105650000D03*
D14*
X155435000Y-89410000D03*
X153535000Y-89410000D03*
X160055000Y-89380000D03*
X158155000Y-89380000D03*
X165055000Y-89380000D03*
X163155000Y-89380000D03*
X170055000Y-89380000D03*
X168155000Y-89380000D03*
X152000000Y-116000000D03*
X150100000Y-116000000D03*
X171000000Y-114750000D03*
X172900000Y-114750000D03*
D27*
X151450000Y-108380000D03*
X151450000Y-105480000D03*
X171000000Y-108400000D03*
X171000000Y-105500000D03*
D26*
X117650000Y-58700000D03*
X117650000Y-56800000D03*
X115170000Y-58700000D03*
X115170000Y-56800000D03*
X142490000Y-87750000D03*
X142490000Y-89650000D03*
D14*
X144160000Y-80970000D03*
X142260000Y-80970000D03*
D26*
X145590000Y-89690000D03*
X145590000Y-87790000D03*
D14*
X148890000Y-80970000D03*
X146990000Y-80970000D03*
D26*
X151880000Y-49580000D03*
X151880000Y-47680000D03*
X159900000Y-63320000D03*
X159900000Y-65220000D03*
X146160000Y-49480000D03*
X146160000Y-47580000D03*
X149340000Y-63310000D03*
X149340000Y-65210000D03*
X173940000Y-87960000D03*
X173940000Y-89860000D03*
D14*
X175760000Y-80980000D03*
X173860000Y-80980000D03*
D26*
X177210000Y-89860000D03*
X177210000Y-87960000D03*
D14*
X180600000Y-80980000D03*
X178700000Y-80980000D03*
D26*
X139510000Y-49180000D03*
X139510000Y-47280000D03*
X145710000Y-63290000D03*
X145710000Y-65190000D03*
X133650000Y-49350000D03*
X133650000Y-47450000D03*
X134830000Y-63270000D03*
X134830000Y-65170000D03*
D28*
X117800000Y-67600000D03*
X117800000Y-66950000D03*
X117800000Y-66300000D03*
X117800000Y-65650000D03*
X117800000Y-65000000D03*
X117800000Y-64350000D03*
X117800000Y-63700000D03*
X117800000Y-63050000D03*
X117800000Y-62400000D03*
X117800000Y-61750000D03*
X112000000Y-61750000D03*
X112000000Y-62400000D03*
X112000000Y-63050000D03*
X112000000Y-63700000D03*
X112000000Y-64350000D03*
X112000000Y-65000000D03*
X112000000Y-65650000D03*
X112000000Y-66300000D03*
X112000000Y-66950000D03*
X112000000Y-67600000D03*
D29*
X118223820Y-111000000D03*
X112976180Y-111000000D03*
X118223820Y-127900000D03*
X112976180Y-127900000D03*
D30*
X114610000Y-76143820D03*
X114610000Y-70896180D03*
X120110000Y-76153820D03*
X120110000Y-70906180D03*
X152870000Y-74673820D03*
X152870000Y-69426180D03*
D14*
X159060000Y-48150000D03*
X160960000Y-48150000D03*
X164130000Y-48150000D03*
X166030000Y-48150000D03*
X169390000Y-48160000D03*
X171290000Y-48160000D03*
X181880000Y-48150000D03*
X179980000Y-48150000D03*
X176550000Y-48150000D03*
X174650000Y-48150000D03*
D31*
X176920000Y-51400000D03*
X174380000Y-51400000D03*
X174380000Y-57400000D03*
X176920000Y-57400000D03*
X182210000Y-51400000D03*
X179670000Y-51400000D03*
X179670000Y-57400000D03*
X182210000Y-57400000D03*
X171605000Y-51460000D03*
X169065000Y-51460000D03*
X169065000Y-57460000D03*
X171605000Y-57460000D03*
X166380000Y-51410000D03*
X163840000Y-51410000D03*
X163840000Y-57410000D03*
X166380000Y-57410000D03*
X161250000Y-51481738D03*
X158710000Y-51481738D03*
X158710000Y-57481738D03*
X161250000Y-57481738D03*
D32*
X159880000Y-71710000D03*
X159880000Y-72660000D03*
X159880000Y-73610000D03*
D33*
X171190000Y-61360000D03*
X163690000Y-61360000D03*
D15*
X111630980Y-88580000D03*
X113729020Y-88580000D03*
D14*
X116030000Y-88550000D03*
X117930000Y-88550000D03*
D34*
X142640000Y-83610000D03*
X142640000Y-84260000D03*
X142640000Y-84910000D03*
X142640000Y-85560000D03*
X148540000Y-85560000D03*
X148540000Y-84910000D03*
X148540000Y-84260000D03*
X148540000Y-83610000D03*
X174260000Y-83610000D03*
X174260000Y-84260000D03*
X174260000Y-84910000D03*
X174260000Y-85560000D03*
X180160000Y-85560000D03*
X180160000Y-84910000D03*
X180160000Y-84260000D03*
X180160000Y-83610000D03*
D35*
X132900500Y-97145000D03*
X124899500Y-97145000D03*
X158980500Y-97105000D03*
X150979500Y-97105000D03*
X137709500Y-97190000D03*
X145710500Y-97190000D03*
X163849500Y-97130000D03*
X171850500Y-97130000D03*
D36*
X154500000Y-107110000D03*
X154500000Y-108380000D03*
X154500000Y-109650000D03*
X154500000Y-110920000D03*
X154500000Y-112190000D03*
X154500000Y-113460000D03*
X154500000Y-114730000D03*
X154500000Y-116000000D03*
X154500000Y-117270000D03*
X154500000Y-118540000D03*
X168000000Y-107110000D03*
X168000000Y-108380000D03*
X168000000Y-109650000D03*
X168000000Y-110920000D03*
X168000000Y-112190000D03*
X168000000Y-113460000D03*
X168000000Y-114730000D03*
X168000000Y-116000000D03*
X168000000Y-117270000D03*
X168000000Y-118540000D03*
X128250000Y-107285000D03*
X128250000Y-108555000D03*
X128250000Y-109825000D03*
X128250000Y-111095000D03*
X128250000Y-112365000D03*
X128250000Y-113635000D03*
X128250000Y-114905000D03*
X128250000Y-116175000D03*
X128250000Y-117445000D03*
X128250000Y-118715000D03*
X141750000Y-107285000D03*
X141750000Y-108555000D03*
X141750000Y-109825000D03*
X141750000Y-111095000D03*
X141750000Y-112365000D03*
X141750000Y-113635000D03*
X141750000Y-114905000D03*
X141750000Y-116175000D03*
X141750000Y-117445000D03*
X141750000Y-118715000D03*
M02*
