G04 FreePCB version 1.355*
G04 C:\FcPoly-Ttest\top_copper.grb*
G04 top copper layer *
G04 Scale: 100 percent, Rotated: No, Reflected: No *
%FSLAX24Y24*%
%MOIN*%
%LN top copper *%
G04 Rounded Rectangle Macro, params: W/2, H/2, R *
%AMRNDREC*
21,1,$1+$1,$2+$2-$3-$3,0,0,0*
21,1,$1+$1-$3-$3,$2+$2,0,0,0*
1,1,$3+$3,$1-$3,$2-$3*
1,1,$3+$3,$3-$1,$2-$3*
1,1,$3+$3,$1-$3,$3-$2*
1,1,$3+$3,$3-$1,$3-$2*%
G04 Rectangular Thermal Macro, params: W/2, H/2, T/2 *
%AMRECTHERM*
$4=$3/2*
21,1,$1-$3,$2-$3,0-$1/2-$4,0-$2/2-$4,0*
21,1,$1-$3,$2-$3,0-$1/2-$4,$2/2+$4,0*
21,1,$1-$3,$2-$3,$1/2+$4,0-$2/2-$4,0*
21,1,$1-$3,$2-$3,$1/2+$4,$2/2+$4,0*%
%ADD10C,0.005000*%
%ADD11C,0.120000*%
%ADD12C,0.001000*%
%ADD13R,0.110000X0.110000*%
%ADD14R,0.130000X0.162000*%
%ADD15R,0.140000X0.084000*%
%ADD16R,0.120000X0.120000*%
%ADD17C,0.075000*%
%ADD18C,0.085000*%
%ADD19C,0.060000*%
%ADD20R,0.050000X0.050000*%
%ADD21R,0.070000X0.102000*%
%ADD22R,0.080000X0.024000*%
%ADD23R,0.060000X0.060000*%
%ADD24C,0.015000*%
%ADD25C,0.025000*%
%ADD26C,0.024000*%
%ADD27C,0.010000*%
G90*
G70D02*

G04 Step and Repeat for panelization *

G04 ----------------------- Draw board outline (positive)*
%LPD*%
G54D10*
G01X0Y11800D02*
G01X23250Y11800D01*
G04 end of side 1*
G01X23250Y0D01*
G04 end of side 2*
G01X0Y0D01*
G04 end of side 3*
G01X0Y11800D01*

G04 ----------------------- Draw copper area (positive)*
G36*
G01X11140Y0D02*
G01X0Y0D01*
G01X0Y11800D01*
G01X11140Y11800D01*
G01X11140Y0D01*
G37*

G04 ----------------------- Draw copper area (positive)*
G36*
G01X23250Y0D02*
G01X12000Y0D01*
G01X12000Y11800D01*
G01X23250Y11800D01*
G01X23250Y0D01*
G37*

G04 -------------------- Draw copper area clearances (negative)*
%LPC*%

G04 Draw clearances for pads*
G54D11*
G01X3960Y7900D03*
G01X3960Y6900D03*
G01X3960Y5900D03*
G54D12*
G54D13*
G01X6280Y9000D03*
G54D12*
G54D14*
G01X8000Y8240D03*
G54D12*
G54D15*
G01X9630Y5200D03*
G54D12*
G54D15*
G01X9630Y4200D03*
G01X9630Y3700D03*
G01X9630Y3200D03*
G01X9630Y2700D03*
G01X9630Y2200D03*
G54D12*
G54D15*
G01X13630Y2200D03*
G01X13630Y2700D03*
G01X13630Y3200D03*
G01X13630Y3700D03*
G01X13630Y4200D03*
G54D12*
G54D15*
G01X13630Y5200D03*
G54D12*
G54D13*
G01X8320Y3950D03*
G01X8320Y6380D03*
G54D12*
G54D13*
G01X14950Y6700D03*
G54D12*
G54D13*
G01X14950Y4200D03*
G54D16*
G01X5440Y5650D03*
G01X5440Y6900D03*
G01X6800Y2200D03*
G01X5550Y2200D03*
G01X17720Y6860D03*
G01X17720Y5610D03*
G01X17740Y2200D03*
G01X16490Y2200D03*
G54D11*
G01X19280Y7860D03*
G01X19280Y6860D03*
G01X19280Y5860D03*
G54D12*
G54D13*
G01X16960Y8980D03*
G54D12*
G54D14*
G01X15100Y8240D03*
G54D12*
G54D11*
G01X16340Y6700D03*
G01X16340Y5700D03*
G54D12*
G54D11*
G01X6920Y6700D03*
G01X6920Y5700D03*
G54D12*
G54D11*
G01X11130Y7000D03*
G54D12*
G54D11*
G01X13130Y7000D03*

G04 Draw clearances for traces*
G54D17*
G01X19280Y5860D02*
G01X19010Y5860D01*
G01X19010Y5860D02*
G01X18450Y5300D01*
G01X18450Y5300D02*
G01X18450Y2910D01*
G01X18450Y2910D02*
G01X17740Y2200D01*
G54D18*
G01X3960Y7900D02*
G01X7990Y7900D01*
G01X7990Y7900D02*
G01X8000Y8240D01*
G01X8320Y6380D02*
G01X9630Y6380D01*
G01X9630Y6380D02*
G01X9630Y5200D01*
G01X8320Y6380D02*
G01X10840Y6380D01*
G01X10840Y6380D02*
G01X11130Y6670D01*
G01X11130Y6670D02*
G01X11130Y7000D01*
G01X8000Y8240D02*
G01X8000Y7900D01*
G01X8000Y7900D02*
G01X6280Y7900D01*
G01X6280Y7900D02*
G01X6280Y9000D01*
G01X6920Y6700D02*
G01X6920Y7900D01*
G01X6920Y7900D02*
G01X8000Y7900D01*
G01X8000Y7900D02*
G01X8000Y8240D01*
G01X8000Y8240D02*
G01X8000Y7310D01*
G01X8000Y7310D02*
G01X8320Y6990D01*
G01X8320Y6990D02*
G01X8320Y6380D01*
G01X13130Y7000D02*
G01X13130Y6310D01*
G01X13130Y6310D02*
G01X13630Y5810D01*
G01X13630Y5810D02*
G01X13630Y5200D01*
G01X15100Y8240D02*
G01X15940Y8240D01*
G01X15940Y8240D02*
G01X16340Y7860D01*
G01X16340Y7860D02*
G01X16340Y6700D01*
G01X15100Y8240D02*
G01X15940Y8240D01*
G01X15940Y8240D02*
G01X16320Y7860D01*
G01X16320Y7860D02*
G01X16960Y7860D01*
G01X16960Y7860D02*
G01X16960Y8980D01*
G01X15100Y8240D02*
G01X14370Y8240D01*
G01X14370Y8240D02*
G01X13130Y7000D01*
G01X15100Y8240D02*
G01X15960Y8240D01*
G01X15960Y8240D02*
G01X16340Y7860D01*
G01X16340Y7860D02*
G01X19280Y7860D01*
G01X14950Y6700D02*
G01X16340Y6700D01*
G54D17*
G01X13630Y2200D02*
G01X16490Y2200D01*
G01X13630Y4200D02*
G01X13070Y4200D01*
G01X13070Y4200D02*
G01X12820Y3950D01*
G01X12820Y3950D02*
G01X12820Y3460D01*
G01X12820Y3460D02*
G01X13080Y3200D01*
G01X13080Y3200D02*
G01X13630Y3200D01*
G01X14950Y4200D02*
G01X13630Y4200D01*
G01X16340Y5700D02*
G01X16640Y5690D01*
G01X16640Y5690D02*
G01X17000Y5330D01*
G01X17000Y5330D02*
G01X17000Y4080D01*
G01X17000Y4080D02*
G01X16620Y3700D01*
G01X16620Y3700D02*
G01X13630Y3700D01*
G54D12*
G54D17*
G01X6920Y5700D02*
G01X6480Y5700D01*
G01X6480Y5700D02*
G01X6120Y5340D01*
G01X6120Y5340D02*
G01X6120Y3910D01*
G01X6120Y3910D02*
G01X6420Y3610D01*
G01X6420Y3610D02*
G01X7450Y3610D01*
G01X7450Y3610D02*
G01X7860Y3200D01*
G01X7860Y3200D02*
G01X9630Y3200D01*
G54D12*
G54D17*
G01X5440Y5650D02*
G01X5440Y3570D01*
G01X5440Y3570D02*
G01X5950Y3060D01*
G01X5950Y3060D02*
G01X7360Y3060D01*
G01X7360Y3060D02*
G01X7720Y2700D01*
G01X7720Y2700D02*
G01X9630Y2700D01*
G01X6800Y2200D02*
G01X9630Y2200D01*
G01X9630Y3700D02*
G01X9630Y4200D01*
G01X9630Y3700D02*
G01X8570Y3700D01*
G01X8570Y3700D02*
G01X8320Y3950D01*
G01X3960Y6900D02*
G01X5440Y6900D01*
G01X3960Y5900D02*
G01X4090Y5900D01*
G01X4090Y5900D02*
G01X4760Y5230D01*
G01X4760Y5230D02*
G01X4760Y2990D01*
G01X4760Y2990D02*
G01X5550Y2200D01*
G01X19280Y6860D02*
G01X17720Y6860D01*
G01X13630Y2700D02*
G01X14885Y2700D01*
G01X14885Y2700D02*
G01X15314Y3120D01*
G01X15314Y3120D02*
G01X16950Y3120D01*
G01X16950Y3120D02*
G01X17720Y3890D01*
G01X17720Y3890D02*
G01X17720Y5610D01*

G04 Draw clearances for text*

G04 -------------- Draw Parts, Pads, Traces, Vias and Text (positive)*
%LPD*%
G04 Draw part J1*
G54D19*
G01X3960Y7900D03*
G01X3960Y6900D03*
G01X3960Y5900D03*
G01X3960Y4900D03*
G01X3960Y3900D03*
G04 Draw part C1*
G54D20*
G01X6280Y9000D03*
G01X6280Y9750D03*
G04 Draw part C2*
G54D21*
G01X8000Y8240D03*
G01X8000Y9740D03*
G04 Draw part U1*
G54D22*
G01X9630Y5200D03*
G01X9630Y4700D03*
G01X9630Y4200D03*
G01X9630Y3700D03*
G01X9630Y3200D03*
G01X9630Y2700D03*
G01X9630Y2200D03*
G01X9630Y1700D03*
G01X13630Y1700D03*
G01X13630Y2200D03*
G01X13630Y2700D03*
G01X13630Y3200D03*
G01X13630Y3700D03*
G01X13630Y4200D03*
G01X13630Y4700D03*
G01X13630Y5200D03*
G04 Draw part C3*
G54D20*
G01X8320Y4700D03*
G01X8320Y3950D03*
G04 Draw part C4*
G01X8320Y6380D03*
G01X8320Y5630D03*
G04 Draw part C5*
G01X14950Y6700D03*
G01X14950Y5950D03*
G04 Draw part C6*
G01X14950Y4950D03*
G01X14950Y4200D03*
G04 Draw part R1*
G54D23*
G01X5440Y5650D03*
G01X5440Y6900D03*
G04 Draw part R2*
G01X6800Y2200D03*
G01X5550Y2200D03*
G04 Draw part R3*
G01X17720Y6860D03*
G01X17720Y5610D03*
G04 Draw part R4*
G01X17740Y2200D03*
G01X16490Y2200D03*
G04 Draw part J2*
G54D19*
G01X19280Y7860D03*
G01X19280Y6860D03*
G01X19280Y5860D03*
G01X19280Y4860D03*
G01X19280Y3860D03*
G04 Draw part C7*
G54D20*
G01X16960Y8980D03*
G01X16960Y9730D03*
G04 Draw part C8*
G54D21*
G01X15100Y8240D03*
G01X15100Y9740D03*
G04 Draw part J3*
G54D19*
G01X16340Y6700D03*
G01X16340Y5700D03*
G01X16340Y4700D03*
G04 Draw part J4*
G01X6920Y6700D03*
G01X6920Y5700D03*
G01X6920Y4700D03*
G04 Draw part U2*
G01X10130Y7000D03*
G01X11130Y7000D03*
G01X12130Y7000D03*
G01X13130Y7000D03*

G04 Draw traces*
G54D24*
G01X19280Y5860D02*
G01X19010Y5860D01*
G01X19010Y5860D02*
G01X18450Y5300D01*
G01X18450Y5300D02*
G01X18450Y2910D01*
G01X18450Y2910D02*
G01X17740Y2200D01*
G54D25*
G01X3960Y7900D02*
G01X7990Y7900D01*
G01X7990Y7900D02*
G01X8000Y8240D01*
G01X8320Y6380D02*
G01X9630Y6380D01*
G01X9630Y6380D02*
G01X9630Y5200D01*
G01X8320Y6380D02*
G01X10840Y6380D01*
G01X10840Y6380D02*
G01X11130Y6670D01*
G01X11130Y6670D02*
G01X11130Y7000D01*
G01X8000Y8240D02*
G01X8000Y7900D01*
G01X8000Y7900D02*
G01X6280Y7900D01*
G01X6280Y7900D02*
G01X6280Y9000D01*
G01X6920Y6700D02*
G01X6920Y7900D01*
G01X6920Y7900D02*
G01X8000Y7900D01*
G01X8000Y7900D02*
G01X8000Y8240D01*
G01X8000Y8240D02*
G01X8000Y7310D01*
G01X8000Y7310D02*
G01X8320Y6990D01*
G01X8320Y6990D02*
G01X8320Y6380D01*
G01X13130Y7000D02*
G01X13130Y6310D01*
G01X13130Y6310D02*
G01X13630Y5810D01*
G01X13630Y5810D02*
G01X13630Y5200D01*
G01X15100Y8240D02*
G01X15940Y8240D01*
G01X15940Y8240D02*
G01X16340Y7860D01*
G01X16340Y7860D02*
G01X16340Y6700D01*
G01X15100Y8240D02*
G01X15940Y8240D01*
G01X15940Y8240D02*
G01X16320Y7860D01*
G01X16320Y7860D02*
G01X16960Y7860D01*
G01X16960Y7860D02*
G01X16960Y8980D01*
G01X15100Y8240D02*
G01X14370Y8240D01*
G01X14370Y8240D02*
G01X13130Y7000D01*
G01X15100Y8240D02*
G01X15960Y8240D01*
G01X15960Y8240D02*
G01X16340Y7860D01*
G01X16340Y7860D02*
G01X19280Y7860D01*
G01X14950Y6700D02*
G01X16340Y6700D01*
G54D24*
G01X13630Y2200D02*
G01X16490Y2200D01*
G01X13630Y4200D02*
G01X13070Y4200D01*
G01X13070Y4200D02*
G01X12820Y3950D01*
G01X12820Y3950D02*
G01X12820Y3460D01*
G01X12820Y3460D02*
G01X13080Y3200D01*
G01X13080Y3200D02*
G01X13630Y3200D01*
G01X14950Y4200D02*
G01X13630Y4200D01*
G01X16340Y5700D02*
G01X16640Y5690D01*
G01X16640Y5690D02*
G01X17000Y5330D01*
G01X17000Y5330D02*
G01X17000Y4080D01*
G01X17000Y4080D02*
G01X16620Y3700D01*
G01X16620Y3700D02*
G01X13630Y3700D01*
G54D26*
G01X9630Y4700D02*
G01X10430Y4700D01*
G01X10430Y4700D02*
G01X10430Y1920D01*
G01X10430Y1920D02*
G01X10210Y1700D01*
G01X10210Y1700D02*
G01X9630Y1700D01*
G01X3960Y3900D02*
G01X3960Y1160D01*
G01X3960Y1160D02*
G01X8720Y1160D01*
G01X8720Y1160D02*
G01X8720Y1700D01*
G01X8720Y1700D02*
G01X9630Y1700D01*
G01X10130Y7000D02*
G01X10130Y9740D01*
G01X10130Y9740D02*
G01X8000Y9740D01*
G01X6280Y9750D02*
G01X2670Y9750D01*
G01X2670Y9750D02*
G01X2670Y4900D01*
G01X2670Y4900D02*
G01X3960Y4900D01*
G01X8000Y9740D02*
G01X6280Y9750D01*
G01X8320Y5630D02*
G01X8320Y4700D01*
G01X8320Y4700D02*
G01X9630Y4700D01*
G01X6920Y4700D02*
G01X8320Y4700D01*
G54D24*
G01X6920Y5700D02*
G01X6480Y5700D01*
G01X6480Y5700D02*
G01X6120Y5340D01*
G01X6120Y5340D02*
G01X6120Y3910D01*
G01X6120Y3910D02*
G01X6420Y3610D01*
G01X6420Y3610D02*
G01X7450Y3610D01*
G01X7450Y3610D02*
G01X7860Y3200D01*
G01X7860Y3200D02*
G01X9630Y3200D01*
G54D26*
G01X12130Y7000D02*
G01X12130Y4700D01*
G01X12130Y4700D02*
G01X13630Y4700D01*
G01X12130Y7000D02*
G01X12130Y9740D01*
G01X12130Y9740D02*
G01X15100Y9740D01*
G01X16960Y9730D02*
G01X20390Y9722D01*
G01X20390Y9722D02*
G01X20390Y4860D01*
G01X20390Y4860D02*
G01X19280Y4860D01*
G01X15100Y9740D02*
G01X16960Y9730D01*
G01X14950Y4950D02*
G01X14950Y5950D01*
G01X13630Y4700D02*
G01X14150Y4700D01*
G01X14150Y4700D02*
G01X14400Y4950D01*
G01X14400Y4950D02*
G01X14950Y4950D01*
G01X14950Y4950D02*
G01X15420Y4950D01*
G01X15420Y4950D02*
G01X15670Y4700D01*
G01X15670Y4700D02*
G01X16340Y4700D01*
G01X13630Y1700D02*
G01X14560Y1700D01*
G01X14560Y1700D02*
G01X14560Y1170D01*
G01X14560Y1170D02*
G01X19280Y1170D01*
G01X19280Y1170D02*
G01X19280Y3860D01*
G01X12130Y7000D02*
G01X12130Y1700D01*
G01X12130Y1700D02*
G01X13630Y1700D01*
G54D24*
G01X5440Y5650D02*
G01X5440Y3570D01*
G01X5440Y3570D02*
G01X5950Y3060D01*
G01X5950Y3060D02*
G01X7360Y3060D01*
G01X7360Y3060D02*
G01X7720Y2700D01*
G01X7720Y2700D02*
G01X9630Y2700D01*
G01X6800Y2200D02*
G01X9630Y2200D01*
G01X9630Y3700D02*
G01X9630Y4200D01*
G01X9630Y3700D02*
G01X8570Y3700D01*
G01X8570Y3700D02*
G01X8320Y3950D01*
G01X3960Y6900D02*
G01X5440Y6900D01*
G01X3960Y5900D02*
G01X4090Y5900D01*
G01X4090Y5900D02*
G01X4760Y5230D01*
G01X4760Y5230D02*
G01X4760Y2990D01*
G01X4760Y2990D02*
G01X5550Y2200D01*
G01X19280Y6860D02*
G01X17720Y6860D01*
G01X13630Y2700D02*
G01X14885Y2700D01*
G01X14885Y2700D02*
G01X15314Y3120D01*
G01X15314Y3120D02*
G01X16950Y3120D01*
G01X16950Y3120D02*
G01X17720Y3890D01*
G01X17720Y3890D02*
G01X17720Y5610D01*

G04 Draw Text*

G04 ----------------------- Draw Pilot Holes (scratch)*
%LPC*%
G04 draw pilot holes for part J1*
G54D27*
G01X3960Y7900D03*
G01X3960Y6900D03*
G01X3960Y5900D03*
G01X3960Y4900D03*
G01X3960Y3900D03*
G04 draw pilot holes for part C1*
G04 draw pilot holes for part C2*
G04 draw pilot holes for part U1*
G04 draw pilot holes for part C3*
G04 draw pilot holes for part C4*
G04 draw pilot holes for part C5*
G04 draw pilot holes for part C6*
G04 draw pilot holes for part R1*
G04 draw pilot holes for part R2*
G04 draw pilot holes for part R3*
G04 draw pilot holes for part R4*
G04 draw pilot holes for part J2*
G01X19280Y7860D03*
G01X19280Y6860D03*
G01X19280Y5860D03*
G01X19280Y4860D03*
G01X19280Y3860D03*
G04 draw pilot holes for part C7*
G04 draw pilot holes for part C8*
G04 draw pilot holes for part J3*
G01X16340Y6700D03*
G01X16340Y5700D03*
G01X16340Y4700D03*
G04 draw pilot holes for part J4*
G01X6920Y6700D03*
G01X6920Y5700D03*
G01X6920Y4700D03*
G04 draw pilot holes for part U2*
G01X10130Y7000D03*
G01X11130Y7000D03*
G01X12130Y7000D03*
G01X13130Y7000D03*

G04 Draw pilot holes for vias*
M00*
M02*
