%TF.GenerationSoftware,KiCad,Pcbnew,7.0.6-7.0.6~ubuntu22.04.1*%
%TF.CreationDate,2023-07-12T11:50:11+01:00*%
%TF.ProjectId,simple_2layer,73696d70-6c65-45f3-926c-617965722e6b,rev?*%
%TF.SameCoordinates,Original*%
%TF.FileFunction,Soldermask,Top*%
%TF.FilePolarity,Negative*%
%FSLAX46Y46*%
G04 Gerber Fmt 4.6, Leading zero omitted, Abs format (unit mm)*
G04 Created by KiCad (PCBNEW 7.0.6-7.0.6~ubuntu22.04.1) date 2023-07-12 11:50:11*
%MOMM*%
%LPD*%
G01*
G04 APERTURE LIST*
G04 Aperture macros list*
%AMRoundRect*
0 Rectangle with rounded corners*
0 $1 Rounding radius*
0 $2 $3 $4 $5 $6 $7 $8 $9 X,Y pos of 4 corners*
0 Add a 4 corners polygon primitive as box body*
4,1,4,$2,$3,$4,$5,$6,$7,$8,$9,$2,$3,0*
0 Add four circle primitives for the rounded corners*
1,1,$1+$1,$2,$3*
1,1,$1+$1,$4,$5*
1,1,$1+$1,$6,$7*
1,1,$1+$1,$8,$9*
0 Add four rect primitives between the rounded corners*
20,1,$1+$1,$2,$3,$4,$5,0*
20,1,$1+$1,$4,$5,$6,$7,0*
20,1,$1+$1,$6,$7,$8,$9,0*
20,1,$1+$1,$8,$9,$2,$3,0*%
G04 Aperture macros list end*
%ADD10C,0.650000*%
%ADD11R,1.100000X0.300000*%
%ADD12O,1.600000X1.600000*%
%ADD13C,3.600000*%
%ADD14C,5.700000*%
%ADD15RoundRect,0.100000X-0.100000X0.712500X-0.100000X-0.712500X0.100000X-0.712500X0.100000X0.712500X0*%
%ADD16RoundRect,0.250000X0.262500X0.450000X-0.262500X0.450000X-0.262500X-0.450000X0.262500X-0.450000X0*%
%ADD17RoundRect,0.200000X-0.275000X0.200000X-0.275000X-0.200000X0.275000X-0.200000X0.275000X0.200000X0*%
%ADD18R,0.900000X0.400000*%
%ADD19R,1.350000X1.350000*%
%ADD20O,1.350000X1.350000*%
%ADD21RoundRect,0.250000X-0.262500X-0.450000X0.262500X-0.450000X0.262500X0.450000X-0.262500X0.450000X0*%
G04 APERTURE END LIST*
D10*
%TO.C,J2*%
X106760000Y-99350000D03*
X106760000Y-96950000D03*
X106760000Y-98550000D03*
X106760000Y-96150000D03*
D11*
X108770000Y-96000000D03*
X108770000Y-96500000D03*
X108770000Y-99500000D03*
X108770000Y-99000000D03*
D12*
X101580000Y-93480000D03*
D10*
X107460000Y-100550000D03*
X106760000Y-95350000D03*
X107460000Y-97350000D03*
D11*
X108770000Y-95000000D03*
X108770000Y-95500000D03*
D12*
X106310000Y-102020000D03*
X101580000Y-102020000D03*
D10*
X107460000Y-96550000D03*
D11*
X108770000Y-98500000D03*
X108770000Y-100000000D03*
D10*
X106760000Y-100150000D03*
X107460000Y-94950000D03*
D11*
X108770000Y-97000000D03*
X108770000Y-97500000D03*
D10*
X107460000Y-98950000D03*
X107460000Y-98150000D03*
X107460000Y-95750000D03*
D12*
X106310000Y-93480000D03*
D10*
X107460000Y-99750000D03*
D11*
X108770000Y-98000000D03*
X108770000Y-100500000D03*
%TD*%
D13*
%TO.C,H3*%
X105000000Y-120000000D03*
D14*
X105000000Y-120000000D03*
%TD*%
D13*
%TO.C,H2*%
X135000000Y-75000000D03*
D14*
X135000000Y-75000000D03*
%TD*%
D15*
%TO.C,U1*%
X114550000Y-95907500D03*
X113900000Y-95907500D03*
X113250000Y-95907500D03*
X112600000Y-95907500D03*
X112600000Y-100132500D03*
X113250000Y-100132500D03*
X113900000Y-100132500D03*
X114550000Y-100132500D03*
%TD*%
D16*
%TO.C,L1*%
X118662500Y-100250000D03*
X116837500Y-100250000D03*
%TD*%
D13*
%TO.C,H1*%
X105000000Y-75000000D03*
D14*
X105000000Y-75000000D03*
%TD*%
D17*
%TO.C,R1*%
X103270000Y-104250000D03*
X103270000Y-105900000D03*
%TD*%
D18*
%TO.C,FL1*%
X118450000Y-98020000D03*
X118450000Y-97220000D03*
X116750000Y-97220000D03*
X116750000Y-98020000D03*
%TD*%
D13*
%TO.C,H4*%
X135000000Y-120000000D03*
D14*
X135000000Y-120000000D03*
%TD*%
D19*
%TO.C,J1*%
X134750000Y-92520000D03*
D20*
X136750000Y-92520000D03*
X134750000Y-94520000D03*
X136750000Y-94520000D03*
X134750000Y-96520000D03*
X136750000Y-96520000D03*
X134750000Y-98520000D03*
X136750000Y-98520000D03*
X134750000Y-100520000D03*
X136750000Y-100520000D03*
%TD*%
D17*
%TO.C,R2*%
X105250000Y-104175000D03*
X105250000Y-105825000D03*
%TD*%
D21*
%TO.C,L2*%
X110587500Y-107000000D03*
X112412500Y-107000000D03*
%TD*%
M02*
