%TF.GenerationSoftware,KiCad,Pcbnew,7.0.6-7.0.6~ubuntu22.04.1*%
%TF.CreationDate,2023-07-12T11:50:11+01:00*%
%TF.ProjectId,simple_2layer,73696d70-6c65-45f3-926c-617965722e6b,rev?*%
%TF.SameCoordinates,Original*%
%TF.FileFunction,Legend,Top*%
%TF.FilePolarity,Positive*%
%FSLAX46Y46*%
G04 Gerber Fmt 4.6, Leading zero omitted, Abs format (unit mm)*
G04 Created by KiCad (PCBNEW 7.0.6-7.0.6~ubuntu22.04.1) date 2023-07-12 11:50:11*
%MOMM*%
%LPD*%
G01*
G04 APERTURE LIST*
%ADD10C,0.150000*%
%ADD11C,0.120000*%
G04 APERTURE END LIST*
D10*
X109666666Y-89454819D02*
X109666666Y-90169104D01*
X109666666Y-90169104D02*
X109619047Y-90311961D01*
X109619047Y-90311961D02*
X109523809Y-90407200D01*
X109523809Y-90407200D02*
X109380952Y-90454819D01*
X109380952Y-90454819D02*
X109285714Y-90454819D01*
X110095238Y-89550057D02*
X110142857Y-89502438D01*
X110142857Y-89502438D02*
X110238095Y-89454819D01*
X110238095Y-89454819D02*
X110476190Y-89454819D01*
X110476190Y-89454819D02*
X110571428Y-89502438D01*
X110571428Y-89502438D02*
X110619047Y-89550057D01*
X110619047Y-89550057D02*
X110666666Y-89645295D01*
X110666666Y-89645295D02*
X110666666Y-89740533D01*
X110666666Y-89740533D02*
X110619047Y-89883390D01*
X110619047Y-89883390D02*
X110047619Y-90454819D01*
X110047619Y-90454819D02*
X110666666Y-90454819D01*
X104238095Y-116604819D02*
X104238095Y-115604819D01*
X104238095Y-116081009D02*
X104809523Y-116081009D01*
X104809523Y-116604819D02*
X104809523Y-115604819D01*
X105190476Y-115604819D02*
X105809523Y-115604819D01*
X105809523Y-115604819D02*
X105476190Y-115985771D01*
X105476190Y-115985771D02*
X105619047Y-115985771D01*
X105619047Y-115985771D02*
X105714285Y-116033390D01*
X105714285Y-116033390D02*
X105761904Y-116081009D01*
X105761904Y-116081009D02*
X105809523Y-116176247D01*
X105809523Y-116176247D02*
X105809523Y-116414342D01*
X105809523Y-116414342D02*
X105761904Y-116509580D01*
X105761904Y-116509580D02*
X105714285Y-116557200D01*
X105714285Y-116557200D02*
X105619047Y-116604819D01*
X105619047Y-116604819D02*
X105333333Y-116604819D01*
X105333333Y-116604819D02*
X105238095Y-116557200D01*
X105238095Y-116557200D02*
X105190476Y-116509580D01*
X134238095Y-71604819D02*
X134238095Y-70604819D01*
X134238095Y-71081009D02*
X134809523Y-71081009D01*
X134809523Y-71604819D02*
X134809523Y-70604819D01*
X135238095Y-70700057D02*
X135285714Y-70652438D01*
X135285714Y-70652438D02*
X135380952Y-70604819D01*
X135380952Y-70604819D02*
X135619047Y-70604819D01*
X135619047Y-70604819D02*
X135714285Y-70652438D01*
X135714285Y-70652438D02*
X135761904Y-70700057D01*
X135761904Y-70700057D02*
X135809523Y-70795295D01*
X135809523Y-70795295D02*
X135809523Y-70890533D01*
X135809523Y-70890533D02*
X135761904Y-71033390D01*
X135761904Y-71033390D02*
X135190476Y-71604819D01*
X135190476Y-71604819D02*
X135809523Y-71604819D01*
X112738095Y-93454819D02*
X112738095Y-94264342D01*
X112738095Y-94264342D02*
X112785714Y-94359580D01*
X112785714Y-94359580D02*
X112833333Y-94407200D01*
X112833333Y-94407200D02*
X112928571Y-94454819D01*
X112928571Y-94454819D02*
X113119047Y-94454819D01*
X113119047Y-94454819D02*
X113214285Y-94407200D01*
X113214285Y-94407200D02*
X113261904Y-94359580D01*
X113261904Y-94359580D02*
X113309523Y-94264342D01*
X113309523Y-94264342D02*
X113309523Y-93454819D01*
X114309523Y-94454819D02*
X113738095Y-94454819D01*
X114023809Y-94454819D02*
X114023809Y-93454819D01*
X114023809Y-93454819D02*
X113928571Y-93597676D01*
X113928571Y-93597676D02*
X113833333Y-93692914D01*
X113833333Y-93692914D02*
X113738095Y-93740533D01*
X117333333Y-102954819D02*
X116857143Y-102954819D01*
X116857143Y-102954819D02*
X116857143Y-101954819D01*
X118190476Y-102954819D02*
X117619048Y-102954819D01*
X117904762Y-102954819D02*
X117904762Y-101954819D01*
X117904762Y-101954819D02*
X117809524Y-102097676D01*
X117809524Y-102097676D02*
X117714286Y-102192914D01*
X117714286Y-102192914D02*
X117619048Y-102240533D01*
X104238095Y-71604819D02*
X104238095Y-70604819D01*
X104238095Y-71081009D02*
X104809523Y-71081009D01*
X104809523Y-71604819D02*
X104809523Y-70604819D01*
X105809523Y-71604819D02*
X105238095Y-71604819D01*
X105523809Y-71604819D02*
X105523809Y-70604819D01*
X105523809Y-70604819D02*
X105428571Y-70747676D01*
X105428571Y-70747676D02*
X105333333Y-70842914D01*
X105333333Y-70842914D02*
X105238095Y-70890533D01*
X103954819Y-108166666D02*
X103478628Y-108499999D01*
X103954819Y-108738094D02*
X102954819Y-108738094D01*
X102954819Y-108738094D02*
X102954819Y-108357142D01*
X102954819Y-108357142D02*
X103002438Y-108261904D01*
X103002438Y-108261904D02*
X103050057Y-108214285D01*
X103050057Y-108214285D02*
X103145295Y-108166666D01*
X103145295Y-108166666D02*
X103288152Y-108166666D01*
X103288152Y-108166666D02*
X103383390Y-108214285D01*
X103383390Y-108214285D02*
X103431009Y-108261904D01*
X103431009Y-108261904D02*
X103478628Y-108357142D01*
X103478628Y-108357142D02*
X103478628Y-108738094D01*
X103954819Y-107214285D02*
X103954819Y-107785713D01*
X103954819Y-107499999D02*
X102954819Y-107499999D01*
X102954819Y-107499999D02*
X103097676Y-107595237D01*
X103097676Y-107595237D02*
X103192914Y-107690475D01*
X103192914Y-107690475D02*
X103240533Y-107785713D01*
X116861904Y-95431009D02*
X116528571Y-95431009D01*
X116528571Y-95954819D02*
X116528571Y-94954819D01*
X116528571Y-94954819D02*
X117004761Y-94954819D01*
X117861904Y-95954819D02*
X117385714Y-95954819D01*
X117385714Y-95954819D02*
X117385714Y-94954819D01*
X118719047Y-95954819D02*
X118147619Y-95954819D01*
X118433333Y-95954819D02*
X118433333Y-94954819D01*
X118433333Y-94954819D02*
X118338095Y-95097676D01*
X118338095Y-95097676D02*
X118242857Y-95192914D01*
X118242857Y-95192914D02*
X118147619Y-95240533D01*
X134238095Y-116604819D02*
X134238095Y-115604819D01*
X134238095Y-116081009D02*
X134809523Y-116081009D01*
X134809523Y-116604819D02*
X134809523Y-115604819D01*
X135714285Y-115938152D02*
X135714285Y-116604819D01*
X135476190Y-115557200D02*
X135238095Y-116271485D01*
X135238095Y-116271485D02*
X135857142Y-116271485D01*
X135416666Y-89914819D02*
X135416666Y-90629104D01*
X135416666Y-90629104D02*
X135369047Y-90771961D01*
X135369047Y-90771961D02*
X135273809Y-90867200D01*
X135273809Y-90867200D02*
X135130952Y-90914819D01*
X135130952Y-90914819D02*
X135035714Y-90914819D01*
X136416666Y-90914819D02*
X135845238Y-90914819D01*
X136130952Y-90914819D02*
X136130952Y-89914819D01*
X136130952Y-89914819D02*
X136035714Y-90057676D01*
X136035714Y-90057676D02*
X135940476Y-90152914D01*
X135940476Y-90152914D02*
X135845238Y-90200533D01*
X105954819Y-108166666D02*
X105478628Y-108499999D01*
X105954819Y-108738094D02*
X104954819Y-108738094D01*
X104954819Y-108738094D02*
X104954819Y-108357142D01*
X104954819Y-108357142D02*
X105002438Y-108261904D01*
X105002438Y-108261904D02*
X105050057Y-108214285D01*
X105050057Y-108214285D02*
X105145295Y-108166666D01*
X105145295Y-108166666D02*
X105288152Y-108166666D01*
X105288152Y-108166666D02*
X105383390Y-108214285D01*
X105383390Y-108214285D02*
X105431009Y-108261904D01*
X105431009Y-108261904D02*
X105478628Y-108357142D01*
X105478628Y-108357142D02*
X105478628Y-108738094D01*
X105050057Y-107785713D02*
X105002438Y-107738094D01*
X105002438Y-107738094D02*
X104954819Y-107642856D01*
X104954819Y-107642856D02*
X104954819Y-107404761D01*
X104954819Y-107404761D02*
X105002438Y-107309523D01*
X105002438Y-107309523D02*
X105050057Y-107261904D01*
X105050057Y-107261904D02*
X105145295Y-107214285D01*
X105145295Y-107214285D02*
X105240533Y-107214285D01*
X105240533Y-107214285D02*
X105383390Y-107261904D01*
X105383390Y-107261904D02*
X105954819Y-107833332D01*
X105954819Y-107833332D02*
X105954819Y-107214285D01*
X114333333Y-107454819D02*
X113857143Y-107454819D01*
X113857143Y-107454819D02*
X113857143Y-106454819D01*
X114619048Y-106550057D02*
X114666667Y-106502438D01*
X114666667Y-106502438D02*
X114761905Y-106454819D01*
X114761905Y-106454819D02*
X115000000Y-106454819D01*
X115000000Y-106454819D02*
X115095238Y-106502438D01*
X115095238Y-106502438D02*
X115142857Y-106550057D01*
X115142857Y-106550057D02*
X115190476Y-106645295D01*
X115190476Y-106645295D02*
X115190476Y-106740533D01*
X115190476Y-106740533D02*
X115142857Y-106883390D01*
X115142857Y-106883390D02*
X114571429Y-107454819D01*
X114571429Y-107454819D02*
X115190476Y-107454819D01*
D11*
%TO.C,J2*%
X109120000Y-93000000D02*
X109120000Y-94500000D01*
X109120000Y-102500000D02*
X101860000Y-102500000D01*
X109120000Y-101000000D02*
X109120000Y-102500000D01*
X109120000Y-93000000D02*
X101860000Y-93000000D01*
%TO.C,U1*%
X115185000Y-98020000D02*
X115185000Y-95095000D01*
X115185000Y-98020000D02*
X115185000Y-99520000D01*
X111965000Y-98020000D02*
X111965000Y-96520000D01*
X111965000Y-98020000D02*
X111965000Y-99520000D01*
%TO.C,L1*%
X117977064Y-100985000D02*
X117522936Y-100985000D01*
X117977064Y-99515000D02*
X117522936Y-99515000D01*
%TO.C,R1*%
X103792500Y-104837742D02*
X103792500Y-105312258D01*
X102747500Y-104837742D02*
X102747500Y-105312258D01*
%TO.C,FL1*%
X117200000Y-98540000D02*
X118000000Y-98540000D01*
X117200000Y-96700000D02*
X118000000Y-96700000D01*
%TO.C,J1*%
X133690000Y-91460000D02*
X134750000Y-91460000D01*
X133690000Y-92520000D02*
X133690000Y-91460000D01*
X133690000Y-93520000D02*
X133690000Y-101580000D01*
X133690000Y-93520000D02*
X135750000Y-93520000D01*
X133690000Y-101580000D02*
X137810000Y-101580000D01*
X135750000Y-91460000D02*
X137810000Y-91460000D01*
X135750000Y-93520000D02*
X135750000Y-91460000D01*
X137810000Y-91460000D02*
X137810000Y-101580000D01*
%TO.C,R2*%
X105772500Y-104762742D02*
X105772500Y-105237258D01*
X104727500Y-104762742D02*
X104727500Y-105237258D01*
%TO.C,L2*%
X111272936Y-106265000D02*
X111727064Y-106265000D01*
X111272936Y-107735000D02*
X111727064Y-107735000D01*
%TD*%
M02*
