G04 EAGLE Gerber RS-274X export*
G75*
%MOMM*%
%FSLAX34Y34*%
%LPD*%
%INTop Copper*%
%IPPOS*%
%AMOC8*
5,1,8,0,0,1.08239X$1,22.5*%
G01*
%ADD10C,0.665000*%
%ADD11C,0.560000*%
%ADD12C,0.980000*%
%ADD13C,0.420000*%
%ADD14C,0.203000*%
%ADD15C,0.480000*%
%ADD16R,0.800000X1.000000*%
%ADD17C,0.210000*%
%ADD18R,1.600000X1.600000*%
%ADD19C,1.600000*%
%ADD20R,1.400000X1.400000*%
%ADD21C,1.400000*%
%ADD22R,1.700000X1.700000*%
%ADD23C,1.700000*%
%ADD24R,1.800000X0.650000*%
%ADD25C,1.016000*%
%ADD26C,0.300000*%
%ADD27C,0.600000*%
%ADD28C,0.200000*%
%ADD29C,0.290000*%
%ADD30C,0.152400*%
%ADD31C,0.550000*%
%ADD32C,0.203200*%
%ADD33C,0.500000*%
%ADD34C,0.304800*%
%ADD35C,6.500000*%

G36*
X588258Y3252D02*
X588258Y3252D01*
X588267Y3251D01*
X588355Y3272D01*
X588445Y3290D01*
X588452Y3295D01*
X588460Y3297D01*
X588533Y3351D01*
X588609Y3403D01*
X588613Y3410D01*
X588620Y3415D01*
X588667Y3493D01*
X588716Y3570D01*
X588717Y3579D01*
X588722Y3586D01*
X588749Y3750D01*
X588749Y691250D01*
X588748Y691258D01*
X588749Y691267D01*
X588728Y691355D01*
X588710Y691445D01*
X588705Y691452D01*
X588703Y691460D01*
X588649Y691533D01*
X588597Y691609D01*
X588590Y691613D01*
X588585Y691620D01*
X588507Y691667D01*
X588430Y691716D01*
X588421Y691717D01*
X588414Y691722D01*
X588250Y691749D01*
X3750Y691749D01*
X3742Y691748D01*
X3733Y691749D01*
X3645Y691728D01*
X3555Y691710D01*
X3548Y691705D01*
X3540Y691703D01*
X3467Y691649D01*
X3391Y691597D01*
X3387Y691590D01*
X3380Y691585D01*
X3333Y691507D01*
X3284Y691430D01*
X3283Y691421D01*
X3278Y691414D01*
X3251Y691250D01*
X3251Y3750D01*
X3252Y3742D01*
X3251Y3733D01*
X3272Y3645D01*
X3290Y3555D01*
X3295Y3548D01*
X3297Y3540D01*
X3351Y3467D01*
X3403Y3391D01*
X3410Y3387D01*
X3415Y3380D01*
X3493Y3333D01*
X3570Y3284D01*
X3579Y3283D01*
X3586Y3278D01*
X3750Y3251D01*
X588250Y3251D01*
X588258Y3252D01*
G37*
%LPC*%
G36*
X253312Y161799D02*
X253312Y161799D01*
X249085Y163550D01*
X245850Y166785D01*
X244099Y171012D01*
X244099Y175588D01*
X245503Y178977D01*
X245510Y179014D01*
X245527Y179049D01*
X245532Y179128D01*
X245541Y179172D01*
X245540Y179178D01*
X245586Y179234D01*
X245604Y179268D01*
X245662Y179360D01*
X245850Y179815D01*
X247062Y181026D01*
X247073Y181044D01*
X247094Y181061D01*
X250906Y185682D01*
X250934Y185736D01*
X250971Y185784D01*
X250981Y185823D01*
X250999Y185858D01*
X251005Y185918D01*
X251019Y185977D01*
X251013Y186016D01*
X251017Y186056D01*
X250998Y186114D01*
X250989Y186174D01*
X250966Y186213D01*
X250956Y186245D01*
X250932Y186273D01*
X250906Y186318D01*
X248046Y189784D01*
X247094Y190939D01*
X247077Y190952D01*
X247061Y190974D01*
X245850Y192185D01*
X245662Y192640D01*
X245640Y192672D01*
X245640Y192673D01*
X245639Y192676D01*
X245633Y192685D01*
X245586Y192766D01*
X245535Y192827D01*
X245540Y192861D01*
X245523Y192938D01*
X245518Y192982D01*
X245509Y192999D01*
X245503Y193023D01*
X244099Y196412D01*
X244099Y200988D01*
X244876Y202862D01*
X244878Y202872D01*
X244883Y202882D01*
X246610Y207617D01*
X246625Y207715D01*
X246640Y207813D01*
X246639Y207813D01*
X246639Y207814D01*
X246616Y207904D01*
X246590Y208006D01*
X246588Y208009D01*
X246494Y208141D01*
X225699Y228936D01*
X225699Y242000D01*
X225698Y242008D01*
X225699Y242017D01*
X225678Y242105D01*
X225660Y242195D01*
X225655Y242202D01*
X225653Y242210D01*
X225599Y242283D01*
X225547Y242359D01*
X225540Y242363D01*
X225535Y242370D01*
X225457Y242417D01*
X225380Y242466D01*
X225371Y242467D01*
X225364Y242472D01*
X225200Y242499D01*
X220957Y242499D01*
X219199Y244257D01*
X219199Y262743D01*
X220957Y264501D01*
X224429Y264501D01*
X224433Y264502D01*
X224437Y264501D01*
X224531Y264521D01*
X224624Y264540D01*
X224627Y264543D01*
X224631Y264544D01*
X224709Y264599D01*
X224788Y264653D01*
X224790Y264656D01*
X224793Y264659D01*
X224843Y264740D01*
X224895Y264820D01*
X224896Y264825D01*
X224898Y264828D01*
X224912Y264922D01*
X224928Y265017D01*
X224927Y265021D01*
X224928Y265025D01*
X224904Y265117D01*
X224882Y265210D01*
X224879Y265213D01*
X224878Y265217D01*
X224782Y265353D01*
X209588Y280547D01*
X209583Y280550D01*
X209580Y280555D01*
X209500Y280605D01*
X209423Y280656D01*
X209416Y280658D01*
X209411Y280661D01*
X209319Y280676D01*
X209227Y280693D01*
X209221Y280691D01*
X209215Y280692D01*
X209125Y280670D01*
X209033Y280650D01*
X209028Y280646D01*
X209022Y280645D01*
X208947Y280589D01*
X208871Y280535D01*
X208868Y280529D01*
X208862Y280526D01*
X208774Y280385D01*
X208706Y280219D01*
X207018Y278531D01*
X204812Y277618D01*
X202529Y277618D01*
X202489Y277609D01*
X202386Y277597D01*
X202230Y277550D01*
X202217Y277557D01*
X201062Y278179D01*
X201040Y278186D01*
X201016Y278201D01*
X200219Y278531D01*
X200049Y278702D01*
X200044Y278705D01*
X200042Y278708D01*
X200022Y278719D01*
X200015Y278724D01*
X199933Y278788D01*
X198130Y279760D01*
X198118Y279764D01*
X198109Y279771D01*
X198084Y279777D01*
X197491Y280100D01*
X197451Y280112D01*
X197416Y280133D01*
X197343Y280145D01*
X197300Y280158D01*
X197279Y280156D01*
X197252Y280161D01*
X170988Y280161D01*
X170973Y280158D01*
X170958Y280160D01*
X170796Y280122D01*
X170793Y280121D01*
X170012Y279796D01*
X169938Y279765D01*
X169898Y279756D01*
X168848Y279323D01*
X168042Y278991D01*
X167956Y278956D01*
X167944Y278947D01*
X167929Y278944D01*
X167793Y278847D01*
X167258Y278311D01*
X166496Y278311D01*
X166481Y278308D01*
X166467Y278311D01*
X166305Y278273D01*
X165949Y278126D01*
X165935Y278123D01*
X165592Y277982D01*
X165255Y278122D01*
X165240Y278125D01*
X165227Y278133D01*
X165063Y278161D01*
X163645Y278161D01*
X161440Y279074D01*
X159751Y280762D01*
X159683Y280928D01*
X159680Y280933D01*
X159678Y280939D01*
X159624Y281015D01*
X159572Y281092D01*
X159567Y281096D01*
X159563Y281101D01*
X159484Y281150D01*
X159405Y281201D01*
X159399Y281202D01*
X159394Y281205D01*
X159302Y281219D01*
X159209Y281236D01*
X159203Y281234D01*
X159197Y281235D01*
X159107Y281212D01*
X159016Y281191D01*
X159010Y281187D01*
X159004Y281186D01*
X158869Y281090D01*
X156778Y278999D01*
X119722Y278999D01*
X93499Y305222D01*
X93499Y360278D01*
X112647Y379426D01*
X112683Y379481D01*
X112727Y379530D01*
X112741Y379567D01*
X112757Y379592D01*
X112764Y379631D01*
X112785Y379686D01*
X113302Y382407D01*
X113302Y382417D01*
X113306Y382427D01*
X113302Y382593D01*
X112785Y385314D01*
X112760Y385375D01*
X112744Y385438D01*
X112721Y385470D01*
X112709Y385498D01*
X112681Y385526D01*
X112647Y385574D01*
X105499Y392722D01*
X105499Y455015D01*
X105497Y455027D01*
X105499Y455040D01*
X105477Y455124D01*
X105460Y455210D01*
X105453Y455220D01*
X105449Y455232D01*
X105353Y455368D01*
X98368Y462353D01*
X94999Y465722D01*
X94999Y491778D01*
X120222Y517001D01*
X221250Y517001D01*
X221258Y517002D01*
X221267Y517001D01*
X221355Y517022D01*
X221445Y517040D01*
X221452Y517045D01*
X221460Y517047D01*
X221533Y517101D01*
X221609Y517153D01*
X221613Y517160D01*
X221620Y517165D01*
X221667Y517243D01*
X221716Y517320D01*
X221717Y517329D01*
X221722Y517336D01*
X221749Y517500D01*
X221749Y528528D01*
X241222Y548001D01*
X305278Y548001D01*
X317001Y536278D01*
X317001Y490002D01*
X317003Y489990D01*
X317001Y489977D01*
X317023Y489893D01*
X317040Y489807D01*
X317047Y489797D01*
X317051Y489785D01*
X317147Y489649D01*
X318288Y488508D01*
X318992Y486809D01*
X318997Y486800D01*
X319000Y486790D01*
X319053Y486718D01*
X319103Y486644D01*
X319112Y486638D01*
X319118Y486630D01*
X319194Y486585D01*
X319269Y486536D01*
X319280Y486534D01*
X319289Y486528D01*
X319453Y486501D01*
X335000Y486501D01*
X335008Y486502D01*
X335017Y486501D01*
X335105Y486522D01*
X335195Y486540D01*
X335202Y486545D01*
X335210Y486547D01*
X335283Y486601D01*
X335359Y486653D01*
X335363Y486660D01*
X335370Y486665D01*
X335417Y486743D01*
X335466Y486820D01*
X335467Y486829D01*
X335472Y486836D01*
X335499Y487000D01*
X335499Y489669D01*
X335497Y489679D01*
X335499Y489689D01*
X335477Y489776D01*
X335460Y489863D01*
X335454Y489872D01*
X335451Y489882D01*
X335398Y489954D01*
X335347Y490027D01*
X335338Y490033D01*
X335332Y490041D01*
X335191Y490130D01*
X334992Y490212D01*
X333212Y491992D01*
X332249Y494317D01*
X332249Y499683D01*
X333212Y502008D01*
X334992Y503788D01*
X337317Y504751D01*
X342683Y504751D01*
X345008Y503788D01*
X346788Y502008D01*
X347751Y499683D01*
X347751Y494317D01*
X346788Y491992D01*
X345008Y490212D01*
X344809Y490130D01*
X344800Y490124D01*
X344790Y490121D01*
X344718Y490069D01*
X344644Y490019D01*
X344638Y490010D01*
X344630Y490004D01*
X344584Y489927D01*
X344536Y489852D01*
X344534Y489842D01*
X344528Y489833D01*
X344501Y489669D01*
X344501Y487000D01*
X344502Y486992D01*
X344501Y486983D01*
X344522Y486895D01*
X344540Y486805D01*
X344545Y486798D01*
X344547Y486790D01*
X344601Y486717D01*
X344653Y486641D01*
X344660Y486637D01*
X344665Y486630D01*
X344743Y486583D01*
X344820Y486534D01*
X344829Y486533D01*
X344836Y486528D01*
X345000Y486501D01*
X379500Y486501D01*
X379508Y486502D01*
X379517Y486501D01*
X379605Y486522D01*
X379695Y486540D01*
X379702Y486545D01*
X379710Y486547D01*
X379783Y486601D01*
X379859Y486653D01*
X379863Y486660D01*
X379870Y486665D01*
X379917Y486743D01*
X379966Y486820D01*
X379967Y486829D01*
X379972Y486836D01*
X379999Y487000D01*
X379999Y509207D01*
X381454Y510663D01*
X381463Y510675D01*
X381474Y510684D01*
X381563Y510824D01*
X382702Y513575D01*
X384925Y515798D01*
X387676Y516937D01*
X387688Y516946D01*
X387702Y516949D01*
X387837Y517046D01*
X388353Y517561D01*
X388793Y518001D01*
X389500Y518001D01*
X389508Y518002D01*
X389517Y518001D01*
X389605Y518022D01*
X389695Y518040D01*
X389702Y518045D01*
X389710Y518047D01*
X389783Y518101D01*
X389859Y518153D01*
X389863Y518160D01*
X389870Y518165D01*
X389917Y518243D01*
X389966Y518320D01*
X389967Y518329D01*
X389972Y518336D01*
X389972Y518337D01*
X394136Y522501D01*
X444364Y522501D01*
X449501Y517364D01*
X449501Y515914D01*
X449503Y515902D01*
X449501Y515889D01*
X449523Y515805D01*
X449540Y515719D01*
X449547Y515709D01*
X449551Y515697D01*
X449647Y515561D01*
X532001Y433207D01*
X532001Y432571D01*
X532003Y432559D01*
X532001Y432546D01*
X532023Y432462D01*
X532040Y432376D01*
X532047Y432366D01*
X532051Y432354D01*
X532147Y432218D01*
X534001Y430364D01*
X534001Y359636D01*
X515147Y340782D01*
X515091Y340726D01*
X515087Y340721D01*
X515083Y340718D01*
X515033Y340638D01*
X514981Y340560D01*
X514980Y340554D01*
X514977Y340549D01*
X514975Y340538D01*
X513694Y339326D01*
X513687Y339316D01*
X513674Y339306D01*
X512455Y338019D01*
X512420Y338011D01*
X512415Y338007D01*
X512410Y338006D01*
X512365Y337973D01*
X512297Y337960D01*
X512292Y337956D01*
X512286Y337955D01*
X512148Y337863D01*
X509479Y335335D01*
X509475Y335330D01*
X509469Y335326D01*
X508165Y334022D01*
X508119Y334003D01*
X508113Y333998D01*
X508105Y333997D01*
X508023Y333942D01*
X507946Y333924D01*
X507917Y333919D01*
X507914Y333917D01*
X507909Y333916D01*
X506661Y333399D01*
X506648Y333390D01*
X506634Y333387D01*
X506499Y333290D01*
X487147Y313939D01*
X487140Y313928D01*
X487130Y313921D01*
X487085Y313846D01*
X487037Y313773D01*
X487035Y313761D01*
X487028Y313750D01*
X487001Y313586D01*
X487001Y306636D01*
X465864Y285499D01*
X461831Y285499D01*
X461821Y285497D01*
X461811Y285499D01*
X461724Y285477D01*
X461637Y285460D01*
X461628Y285454D01*
X461618Y285451D01*
X461546Y285398D01*
X461473Y285347D01*
X461467Y285338D01*
X461459Y285332D01*
X461370Y285191D01*
X461288Y284992D01*
X459508Y283212D01*
X457183Y282249D01*
X455664Y282249D01*
X455652Y282247D01*
X455639Y282249D01*
X455555Y282227D01*
X455469Y282210D01*
X455459Y282203D01*
X455447Y282199D01*
X455311Y282103D01*
X450707Y277499D01*
X377414Y277499D01*
X377402Y277497D01*
X377389Y277499D01*
X377305Y277477D01*
X377219Y277460D01*
X377209Y277453D01*
X377197Y277449D01*
X377061Y277353D01*
X365207Y265499D01*
X329914Y265499D01*
X329902Y265497D01*
X329889Y265499D01*
X329805Y265477D01*
X329719Y265460D01*
X329709Y265453D01*
X329697Y265449D01*
X329561Y265353D01*
X327973Y263764D01*
X327927Y263696D01*
X327877Y263631D01*
X327873Y263614D01*
X327863Y263599D01*
X327848Y263518D01*
X327827Y263438D01*
X327830Y263421D01*
X327826Y263403D01*
X327844Y263323D01*
X327856Y263242D01*
X327865Y263226D01*
X327869Y263209D01*
X327917Y263142D01*
X327960Y263072D01*
X327974Y263061D01*
X327984Y263047D01*
X328055Y263004D01*
X328121Y262956D01*
X328139Y262952D01*
X328154Y262943D01*
X328235Y262930D01*
X328315Y262912D01*
X328335Y262915D01*
X328350Y262913D01*
X328394Y262924D01*
X328480Y262937D01*
X329458Y263255D01*
X330801Y263467D01*
X330801Y254499D01*
X321833Y254499D01*
X322045Y255842D01*
X322363Y256820D01*
X322373Y256902D01*
X322388Y256983D01*
X322384Y257000D01*
X322386Y257018D01*
X322363Y257097D01*
X322345Y257177D01*
X322335Y257191D01*
X322330Y257208D01*
X322277Y257272D01*
X322230Y257339D01*
X322215Y257348D01*
X322203Y257362D01*
X322130Y257400D01*
X322060Y257443D01*
X322043Y257446D01*
X322027Y257454D01*
X321945Y257461D01*
X321864Y257473D01*
X321847Y257469D01*
X321829Y257470D01*
X321751Y257444D01*
X321671Y257424D01*
X321655Y257412D01*
X321640Y257407D01*
X321606Y257378D01*
X321536Y257327D01*
X318647Y254439D01*
X318196Y253988D01*
X318153Y253971D01*
X318098Y253960D01*
X318062Y253935D01*
X318021Y253918D01*
X317981Y253879D01*
X317934Y253847D01*
X317910Y253810D01*
X317879Y253779D01*
X317850Y253716D01*
X317827Y253680D01*
X317823Y253656D01*
X317810Y253627D01*
X317534Y252579D01*
X317519Y252413D01*
X317815Y248620D01*
X317840Y248530D01*
X317863Y248441D01*
X317867Y248435D01*
X317869Y248429D01*
X317891Y248401D01*
X317959Y248306D01*
X333518Y232747D01*
X336301Y229964D01*
X336301Y210700D01*
X336302Y210692D01*
X336301Y210683D01*
X336322Y210595D01*
X336340Y210505D01*
X336345Y210498D01*
X336347Y210490D01*
X336401Y210417D01*
X336453Y210341D01*
X336460Y210337D01*
X336465Y210330D01*
X336543Y210283D01*
X336620Y210234D01*
X336629Y210233D01*
X336636Y210228D01*
X336800Y210201D01*
X341543Y210201D01*
X343301Y208443D01*
X343301Y188957D01*
X341543Y187199D01*
X324000Y187199D01*
X323992Y187198D01*
X323983Y187199D01*
X323895Y187178D01*
X323805Y187160D01*
X323798Y187155D01*
X323790Y187153D01*
X323717Y187099D01*
X323641Y187047D01*
X323637Y187040D01*
X323630Y187035D01*
X323583Y186957D01*
X323534Y186880D01*
X323533Y186871D01*
X323528Y186864D01*
X323501Y186700D01*
X323501Y186571D01*
X323503Y186559D01*
X323501Y186546D01*
X323523Y186462D01*
X323540Y186376D01*
X323547Y186366D01*
X323551Y186354D01*
X323647Y186218D01*
X324966Y184899D01*
X324978Y184891D01*
X324986Y184880D01*
X325060Y184837D01*
X325131Y184789D01*
X325146Y184787D01*
X325158Y184780D01*
X325322Y184753D01*
X329374Y184783D01*
X329387Y184786D01*
X329399Y184784D01*
X329473Y184801D01*
X331753Y184801D01*
X331755Y184801D01*
X331757Y184801D01*
X333712Y184815D01*
X333797Y184801D01*
X334088Y184801D01*
X338315Y183050D01*
X341550Y179815D01*
X343301Y175588D01*
X343301Y171012D01*
X341550Y166785D01*
X338315Y163550D01*
X334088Y161799D01*
X329512Y161799D01*
X325285Y163550D01*
X322050Y166785D01*
X321166Y168920D01*
X321130Y168973D01*
X321103Y169030D01*
X321072Y169059D01*
X321055Y169084D01*
X321022Y169106D01*
X320981Y169144D01*
X320893Y169203D01*
X320756Y169885D01*
X320741Y169922D01*
X320728Y169978D01*
X320299Y171012D01*
X320299Y172104D01*
X320291Y172143D01*
X320289Y172203D01*
X320117Y173061D01*
X319153Y177848D01*
X319128Y177908D01*
X319111Y177970D01*
X319087Y178003D01*
X319076Y178031D01*
X319047Y178059D01*
X319014Y178105D01*
X318683Y178432D01*
X318631Y178504D01*
X318616Y178519D01*
X317097Y180038D01*
X317095Y180039D01*
X317094Y180041D01*
X317013Y180094D01*
X316931Y180148D01*
X316929Y180148D01*
X316927Y180149D01*
X316832Y180166D01*
X316736Y180184D01*
X316734Y180184D01*
X316732Y180184D01*
X316637Y180162D01*
X316541Y180141D01*
X316540Y180140D01*
X316538Y180140D01*
X316458Y180082D01*
X316379Y180026D01*
X316378Y180024D01*
X316377Y180023D01*
X316326Y179940D01*
X316275Y179857D01*
X316275Y179855D01*
X316274Y179853D01*
X316260Y179756D01*
X316245Y179660D01*
X316246Y179658D01*
X316246Y179656D01*
X316283Y179494D01*
X317901Y175588D01*
X317901Y171012D01*
X316150Y166785D01*
X312915Y163550D01*
X308688Y161799D01*
X304112Y161799D01*
X299885Y163550D01*
X296650Y166785D01*
X295246Y170174D01*
X295225Y170206D01*
X295212Y170243D01*
X295160Y170302D01*
X295135Y170339D01*
X295130Y170343D01*
X295123Y170415D01*
X295112Y170452D01*
X295087Y170558D01*
X294899Y171012D01*
X294899Y172725D01*
X294895Y172746D01*
X294897Y172773D01*
X294313Y178860D01*
X294287Y178945D01*
X294266Y179030D01*
X294258Y179041D01*
X294255Y179051D01*
X294228Y179083D01*
X294169Y179166D01*
X289349Y183986D01*
X289349Y190994D01*
X289348Y190998D01*
X289349Y191002D01*
X289329Y191095D01*
X289310Y191189D01*
X289307Y191192D01*
X289306Y191196D01*
X289251Y191274D01*
X289197Y191353D01*
X289194Y191355D01*
X289191Y191358D01*
X289109Y191409D01*
X289030Y191460D01*
X289025Y191460D01*
X289022Y191462D01*
X288928Y191477D01*
X288833Y191493D01*
X288829Y191492D01*
X288825Y191492D01*
X288733Y191469D01*
X288640Y191447D01*
X288637Y191444D01*
X288633Y191443D01*
X288497Y191347D01*
X287841Y190691D01*
X286504Y189719D01*
X285031Y188969D01*
X283459Y188458D01*
X281999Y188227D01*
X281999Y198200D01*
X281998Y198208D01*
X281999Y198216D01*
X281978Y198305D01*
X281960Y198395D01*
X281955Y198402D01*
X281953Y198410D01*
X281899Y198483D01*
X281847Y198559D01*
X281840Y198563D01*
X281835Y198570D01*
X281757Y198616D01*
X281680Y198666D01*
X281671Y198667D01*
X281664Y198671D01*
X281500Y198699D01*
X280999Y198699D01*
X280999Y198701D01*
X281500Y198701D01*
X281508Y198703D01*
X281516Y198701D01*
X281605Y198722D01*
X281695Y198740D01*
X281702Y198745D01*
X281710Y198747D01*
X281783Y198801D01*
X281859Y198853D01*
X281863Y198860D01*
X281870Y198865D01*
X281916Y198943D01*
X281966Y199021D01*
X281967Y199029D01*
X281971Y199036D01*
X281999Y199200D01*
X281999Y209173D01*
X283459Y208942D01*
X285031Y208431D01*
X286504Y207681D01*
X287841Y206709D01*
X288497Y206053D01*
X288500Y206051D01*
X288503Y206047D01*
X288583Y205996D01*
X288663Y205943D01*
X288667Y205943D01*
X288670Y205940D01*
X288764Y205925D01*
X288858Y205907D01*
X288862Y205908D01*
X288867Y205907D01*
X288958Y205929D01*
X289052Y205950D01*
X289056Y205952D01*
X289060Y205953D01*
X289136Y206009D01*
X289215Y206065D01*
X289217Y206069D01*
X289220Y206071D01*
X289268Y206153D01*
X289319Y206234D01*
X289319Y206239D01*
X289322Y206242D01*
X289349Y206406D01*
X289349Y213179D01*
X289347Y213191D01*
X289349Y213204D01*
X289327Y213288D01*
X289310Y213374D01*
X289303Y213384D01*
X289299Y213396D01*
X289203Y213532D01*
X260794Y241941D01*
X260717Y241992D01*
X260642Y242045D01*
X260634Y242047D01*
X260629Y242050D01*
X260594Y242057D01*
X260480Y242085D01*
X256810Y242372D01*
X255190Y242498D01*
X255173Y242496D01*
X255152Y242499D01*
X253412Y242499D01*
X253077Y242638D01*
X253048Y242644D01*
X252925Y242674D01*
X252878Y242678D01*
X252864Y242696D01*
X252790Y242743D01*
X252755Y242770D01*
X252740Y242774D01*
X252723Y242784D01*
X249369Y244174D01*
X246274Y247269D01*
X246154Y247559D01*
X246150Y247565D01*
X246148Y247572D01*
X246095Y247647D01*
X246049Y247715D01*
X245394Y249392D01*
X245392Y249396D01*
X245391Y249402D01*
X244599Y251312D01*
X244599Y251336D01*
X244597Y251345D01*
X244599Y251355D01*
X244565Y251518D01*
X243721Y253681D01*
X243713Y253695D01*
X243709Y253710D01*
X243659Y253778D01*
X243613Y253849D01*
X243600Y253857D01*
X243591Y253870D01*
X243519Y253913D01*
X243449Y253960D01*
X243433Y253964D01*
X243420Y253972D01*
X243256Y253999D01*
X241700Y253999D01*
X241692Y253998D01*
X241683Y253999D01*
X241595Y253978D01*
X241505Y253960D01*
X241498Y253955D01*
X241490Y253953D01*
X241417Y253899D01*
X241341Y253847D01*
X241337Y253840D01*
X241330Y253835D01*
X241283Y253757D01*
X241234Y253680D01*
X241233Y253671D01*
X241228Y253664D01*
X241201Y253500D01*
X241201Y244257D01*
X239443Y242499D01*
X235200Y242499D01*
X235192Y242498D01*
X235183Y242499D01*
X235095Y242478D01*
X235005Y242460D01*
X234998Y242455D01*
X234990Y242453D01*
X234917Y242399D01*
X234841Y242347D01*
X234837Y242340D01*
X234830Y242335D01*
X234783Y242257D01*
X234734Y242180D01*
X234733Y242171D01*
X234728Y242164D01*
X234701Y242000D01*
X234701Y232871D01*
X234703Y232859D01*
X234701Y232846D01*
X234723Y232762D01*
X234740Y232676D01*
X234747Y232666D01*
X234751Y232654D01*
X234847Y232518D01*
X254330Y213035D01*
X254351Y213021D01*
X254367Y213001D01*
X254464Y212946D01*
X254496Y212925D01*
X254504Y212924D01*
X254512Y212919D01*
X255223Y212660D01*
X255364Y212357D01*
X255403Y212305D01*
X255433Y212248D01*
X255464Y212222D01*
X255482Y212197D01*
X255516Y212177D01*
X255560Y212140D01*
X260758Y209018D01*
X260788Y209007D01*
X260824Y208984D01*
X262115Y208450D01*
X262690Y207875D01*
X262727Y207850D01*
X262786Y207800D01*
X263120Y207599D01*
X263138Y207528D01*
X263160Y207481D01*
X263173Y207431D01*
X263206Y207384D01*
X263223Y207348D01*
X263246Y207328D01*
X263269Y207296D01*
X265350Y205215D01*
X267101Y200988D01*
X267101Y196412D01*
X265697Y193023D01*
X265690Y192985D01*
X265673Y192951D01*
X265668Y192872D01*
X265659Y192828D01*
X265660Y192822D01*
X265614Y192766D01*
X265596Y192732D01*
X265538Y192640D01*
X265350Y192185D01*
X264138Y190974D01*
X264127Y190956D01*
X264106Y190939D01*
X260294Y186318D01*
X260266Y186264D01*
X260229Y186216D01*
X260219Y186177D01*
X260201Y186142D01*
X260195Y186082D01*
X260181Y186023D01*
X260187Y185984D01*
X260183Y185944D01*
X260202Y185886D01*
X260211Y185826D01*
X260234Y185787D01*
X260244Y185755D01*
X260268Y185727D01*
X260294Y185682D01*
X263154Y182216D01*
X264106Y181062D01*
X264123Y181048D01*
X264138Y181026D01*
X265350Y179815D01*
X265538Y179360D01*
X265560Y179328D01*
X265614Y179233D01*
X265665Y179172D01*
X265660Y179139D01*
X265677Y179062D01*
X265682Y179018D01*
X265691Y179001D01*
X265697Y178977D01*
X267101Y175588D01*
X267101Y171012D01*
X265350Y166785D01*
X262115Y163550D01*
X257888Y161799D01*
X253312Y161799D01*
G37*
%LPD*%
G36*
X248492Y307003D02*
X248492Y307003D01*
X248504Y307001D01*
X248589Y307023D01*
X248674Y307040D01*
X248685Y307048D01*
X248697Y307051D01*
X248833Y307147D01*
X251736Y310051D01*
X274764Y310051D01*
X277667Y307147D01*
X277678Y307140D01*
X277685Y307130D01*
X277760Y307086D01*
X277833Y307037D01*
X277846Y307035D01*
X277856Y307028D01*
X278020Y307001D01*
X280200Y307001D01*
X280208Y307002D01*
X280217Y307001D01*
X280305Y307022D01*
X280395Y307040D01*
X280402Y307045D01*
X280410Y307047D01*
X280483Y307101D01*
X280559Y307153D01*
X280563Y307160D01*
X280570Y307165D01*
X280617Y307243D01*
X280666Y307320D01*
X280667Y307329D01*
X280672Y307336D01*
X280699Y307500D01*
X280699Y309989D01*
X283511Y312801D01*
X287611Y312801D01*
X287620Y312802D01*
X287628Y312801D01*
X287716Y312822D01*
X287806Y312840D01*
X287813Y312845D01*
X287821Y312847D01*
X287895Y312901D01*
X287970Y312953D01*
X287975Y312960D01*
X287981Y312965D01*
X288028Y313043D01*
X288077Y313120D01*
X288079Y313129D01*
X288083Y313136D01*
X288111Y313300D01*
X288111Y313577D01*
X290923Y316389D01*
X294900Y316389D01*
X295397Y315892D01*
X295404Y315888D01*
X295409Y315881D01*
X295487Y315833D01*
X295563Y315782D01*
X295571Y315781D01*
X295578Y315777D01*
X295668Y315763D01*
X295758Y315746D01*
X295766Y315748D01*
X295775Y315747D01*
X295863Y315769D01*
X295952Y315789D01*
X295959Y315794D01*
X295967Y315796D01*
X296103Y315892D01*
X298511Y318301D01*
X302489Y318301D01*
X305301Y315489D01*
X305301Y311511D01*
X303459Y309670D01*
X303452Y309659D01*
X303442Y309652D01*
X303397Y309577D01*
X303349Y309504D01*
X303347Y309492D01*
X303340Y309481D01*
X303313Y309317D01*
X303313Y307500D01*
X303314Y307492D01*
X303313Y307483D01*
X303334Y307395D01*
X303352Y307305D01*
X303357Y307298D01*
X303359Y307290D01*
X303413Y307217D01*
X303465Y307141D01*
X303472Y307137D01*
X303477Y307130D01*
X303555Y307083D01*
X303632Y307034D01*
X303641Y307033D01*
X303648Y307028D01*
X303812Y307001D01*
X314950Y307001D01*
X314958Y307002D01*
X314967Y307001D01*
X315055Y307022D01*
X315145Y307040D01*
X315152Y307045D01*
X315160Y307047D01*
X315233Y307101D01*
X315309Y307153D01*
X315313Y307160D01*
X315320Y307165D01*
X315367Y307243D01*
X315416Y307320D01*
X315417Y307329D01*
X315422Y307336D01*
X315449Y307500D01*
X315449Y309592D01*
X318353Y312496D01*
X318360Y312506D01*
X318370Y312514D01*
X318414Y312589D01*
X318463Y312662D01*
X318465Y312674D01*
X318472Y312685D01*
X318499Y312849D01*
X318499Y316450D01*
X318498Y316458D01*
X318499Y316467D01*
X318478Y316555D01*
X318460Y316645D01*
X318455Y316652D01*
X318453Y316660D01*
X318399Y316733D01*
X318347Y316809D01*
X318340Y316813D01*
X318335Y316820D01*
X318257Y316867D01*
X318180Y316916D01*
X318171Y316917D01*
X318164Y316922D01*
X318000Y316949D01*
X314408Y316949D01*
X311449Y319908D01*
X311449Y321519D01*
X311441Y321559D01*
X311443Y321599D01*
X311419Y321671D01*
X311410Y321714D01*
X311398Y321732D01*
X311389Y321757D01*
X311240Y322034D01*
X311428Y322667D01*
X311432Y322709D01*
X311449Y322810D01*
X311449Y324092D01*
X311936Y324578D01*
X311958Y324612D01*
X311988Y324639D01*
X312021Y324707D01*
X312045Y324744D01*
X312049Y324765D01*
X312061Y324789D01*
X312139Y325050D01*
X312139Y325051D01*
X312752Y327107D01*
X312758Y327168D01*
X312773Y327228D01*
X312767Y327273D01*
X312770Y327305D01*
X312759Y327340D01*
X312752Y327393D01*
X312677Y327645D01*
X312889Y328037D01*
X312901Y328076D01*
X312922Y328111D01*
X312934Y328185D01*
X312947Y328228D01*
X312945Y328248D01*
X312949Y328275D01*
X312949Y342950D01*
X312948Y342957D01*
X312949Y342963D01*
X312949Y342965D01*
X312949Y342967D01*
X312928Y343055D01*
X312910Y343145D01*
X312905Y343152D01*
X312903Y343160D01*
X312849Y343233D01*
X312797Y343309D01*
X312790Y343313D01*
X312785Y343320D01*
X312707Y343367D01*
X312630Y343416D01*
X312621Y343417D01*
X312614Y343422D01*
X312450Y343449D01*
X311908Y343449D01*
X308949Y346408D01*
X308949Y350592D01*
X311254Y352897D01*
X311259Y352904D01*
X311266Y352909D01*
X311313Y352986D01*
X311364Y353063D01*
X311365Y353071D01*
X311370Y353078D01*
X311384Y353168D01*
X311400Y353258D01*
X311399Y353266D01*
X311400Y353275D01*
X311377Y353363D01*
X311358Y353452D01*
X311353Y353459D01*
X311351Y353467D01*
X311254Y353603D01*
X309949Y354908D01*
X309949Y359092D01*
X312908Y362051D01*
X314394Y362051D01*
X314436Y362059D01*
X314502Y362062D01*
X315317Y362243D01*
X315371Y362266D01*
X315427Y362281D01*
X315467Y362309D01*
X315499Y362323D01*
X315523Y362349D01*
X315563Y362377D01*
X316236Y363051D01*
X318000Y363051D01*
X318008Y363052D01*
X318017Y363051D01*
X318105Y363072D01*
X318195Y363090D01*
X318202Y363095D01*
X318210Y363097D01*
X318283Y363151D01*
X318359Y363203D01*
X318363Y363210D01*
X318370Y363215D01*
X318417Y363293D01*
X318466Y363370D01*
X318467Y363379D01*
X318472Y363386D01*
X318499Y363550D01*
X318499Y366400D01*
X318498Y366408D01*
X318499Y366417D01*
X318478Y366505D01*
X318460Y366595D01*
X318455Y366602D01*
X318453Y366610D01*
X318399Y366683D01*
X318347Y366759D01*
X318340Y366763D01*
X318335Y366770D01*
X318257Y366817D01*
X318180Y366866D01*
X318171Y366867D01*
X318164Y366872D01*
X318000Y366899D01*
X317616Y366899D01*
X317524Y366881D01*
X317432Y366864D01*
X317426Y366861D01*
X317421Y366860D01*
X317394Y366842D01*
X317289Y366778D01*
X317198Y366699D01*
X317170Y366682D01*
X314757Y364612D01*
X314747Y364599D01*
X314729Y364586D01*
X313400Y363257D01*
X309216Y363257D01*
X306257Y366216D01*
X306257Y370400D01*
X309216Y373359D01*
X310138Y373359D01*
X310229Y373377D01*
X310322Y373394D01*
X310327Y373397D01*
X310333Y373398D01*
X310359Y373416D01*
X310395Y373438D01*
X311473Y373360D01*
X311490Y373362D01*
X311510Y373359D01*
X313400Y373359D01*
X313418Y373340D01*
X313497Y373288D01*
X313573Y373235D01*
X313580Y373233D01*
X313584Y373230D01*
X313615Y373225D01*
X313735Y373195D01*
X315057Y373099D01*
X315069Y373100D01*
X315080Y373098D01*
X315099Y373101D01*
X316392Y373002D01*
X316409Y373004D01*
X316430Y373001D01*
X317536Y373001D01*
X317548Y373003D01*
X317561Y373001D01*
X317645Y373023D01*
X317730Y373040D01*
X317741Y373048D01*
X317753Y373051D01*
X318000Y373051D01*
X318008Y373052D01*
X318017Y373051D01*
X318105Y373072D01*
X318195Y373090D01*
X318202Y373095D01*
X318210Y373097D01*
X318283Y373151D01*
X318359Y373203D01*
X318363Y373210D01*
X318370Y373215D01*
X318417Y373293D01*
X318466Y373370D01*
X318467Y373379D01*
X318472Y373386D01*
X318499Y373550D01*
X318499Y377500D01*
X318498Y377508D01*
X318499Y377517D01*
X318478Y377605D01*
X318460Y377695D01*
X318455Y377702D01*
X318453Y377710D01*
X318399Y377783D01*
X318347Y377859D01*
X318340Y377863D01*
X318335Y377870D01*
X318257Y377917D01*
X318180Y377966D01*
X318171Y377967D01*
X318164Y377972D01*
X318000Y377999D01*
X248000Y377999D01*
X247992Y377998D01*
X247983Y377999D01*
X247895Y377978D01*
X247805Y377960D01*
X247798Y377955D01*
X247790Y377953D01*
X247717Y377899D01*
X247641Y377847D01*
X247637Y377840D01*
X247630Y377835D01*
X247583Y377757D01*
X247534Y377680D01*
X247533Y377671D01*
X247528Y377664D01*
X247501Y377500D01*
X247501Y326895D01*
X247508Y326861D01*
X247506Y326826D01*
X247527Y326764D01*
X247540Y326700D01*
X247560Y326672D01*
X247572Y326639D01*
X247616Y326590D01*
X247653Y326536D01*
X247682Y326518D01*
X247706Y326492D01*
X247765Y326465D01*
X247820Y326429D01*
X247855Y326424D01*
X247887Y326409D01*
X247952Y326407D01*
X248017Y326396D01*
X248051Y326404D01*
X248086Y326403D01*
X248147Y326427D01*
X248210Y326442D01*
X248238Y326463D01*
X248271Y326476D01*
X248334Y326534D01*
X248370Y326560D01*
X248378Y326574D01*
X248394Y326588D01*
X248911Y327251D01*
X248965Y327258D01*
X249043Y327284D01*
X249122Y327304D01*
X249138Y327316D01*
X249154Y327321D01*
X249188Y327351D01*
X249257Y327400D01*
X249908Y328051D01*
X254092Y328051D01*
X257051Y325092D01*
X257051Y320908D01*
X255125Y318982D01*
X255106Y318953D01*
X255034Y318858D01*
X254915Y318628D01*
X254819Y318597D01*
X254788Y318580D01*
X254753Y318571D01*
X254685Y318522D01*
X254645Y318500D01*
X254635Y318487D01*
X254617Y318475D01*
X254092Y317949D01*
X252863Y317949D01*
X252830Y317942D01*
X252712Y317926D01*
X251601Y317572D01*
X251570Y317554D01*
X251536Y317546D01*
X251467Y317497D01*
X251428Y317475D01*
X251417Y317462D01*
X251400Y317449D01*
X250450Y316499D01*
X248314Y316499D01*
X248280Y316492D01*
X248162Y316476D01*
X247848Y316376D01*
X247821Y316360D01*
X247790Y316353D01*
X247735Y316312D01*
X247675Y316279D01*
X247655Y316254D01*
X247630Y316235D01*
X247595Y316176D01*
X247553Y316122D01*
X247545Y316091D01*
X247528Y316064D01*
X247513Y315972D01*
X247502Y315930D01*
X247504Y315916D01*
X247501Y315900D01*
X247501Y307500D01*
X247502Y307492D01*
X247501Y307483D01*
X247522Y307395D01*
X247540Y307305D01*
X247545Y307298D01*
X247547Y307290D01*
X247601Y307217D01*
X247653Y307141D01*
X247660Y307137D01*
X247665Y307130D01*
X247743Y307083D01*
X247820Y307034D01*
X247829Y307033D01*
X247836Y307028D01*
X248000Y307001D01*
X248480Y307001D01*
X248492Y307003D01*
G37*
%LPC*%
G36*
X541326Y613499D02*
X541326Y613499D01*
X532297Y615919D01*
X524202Y620592D01*
X517592Y627202D01*
X512919Y635297D01*
X510499Y644326D01*
X510499Y653674D01*
X512919Y662703D01*
X517592Y670798D01*
X524202Y677408D01*
X532297Y682081D01*
X541326Y684501D01*
X550674Y684501D01*
X559703Y682081D01*
X567798Y677408D01*
X574408Y670798D01*
X579081Y662703D01*
X581501Y653674D01*
X581501Y644326D01*
X579081Y635297D01*
X574408Y627202D01*
X567798Y620592D01*
X559703Y615919D01*
X550674Y613499D01*
X541326Y613499D01*
G37*
%LPD*%
%LPC*%
G36*
X41326Y613499D02*
X41326Y613499D01*
X32297Y615919D01*
X24202Y620592D01*
X17592Y627202D01*
X12919Y635297D01*
X10499Y644326D01*
X10499Y653674D01*
X12919Y662703D01*
X17592Y670798D01*
X24202Y677408D01*
X32297Y682081D01*
X41326Y684501D01*
X50674Y684501D01*
X59703Y682081D01*
X67798Y677408D01*
X74408Y670798D01*
X79081Y662703D01*
X81501Y653674D01*
X81501Y644326D01*
X79081Y635297D01*
X74408Y627202D01*
X67798Y620592D01*
X59703Y615919D01*
X50674Y613499D01*
X41326Y613499D01*
G37*
%LPD*%
%LPC*%
G36*
X41326Y10499D02*
X41326Y10499D01*
X32297Y12919D01*
X24202Y17592D01*
X17592Y24202D01*
X12919Y32297D01*
X10499Y41326D01*
X10499Y50674D01*
X12919Y59703D01*
X17592Y67798D01*
X24202Y74408D01*
X32297Y79081D01*
X41326Y81501D01*
X50674Y81501D01*
X59703Y79081D01*
X67798Y74408D01*
X74408Y67798D01*
X79081Y59703D01*
X81501Y50674D01*
X81501Y41326D01*
X79081Y32297D01*
X74408Y24202D01*
X67798Y17592D01*
X59703Y12919D01*
X50674Y10499D01*
X41326Y10499D01*
G37*
%LPD*%
%LPC*%
G36*
X541326Y10499D02*
X541326Y10499D01*
X532297Y12919D01*
X524202Y17592D01*
X517592Y24202D01*
X512919Y32297D01*
X510499Y41326D01*
X510499Y50674D01*
X512919Y59703D01*
X517592Y67798D01*
X524202Y74408D01*
X532297Y79081D01*
X541326Y81501D01*
X550674Y81501D01*
X559703Y79081D01*
X567798Y74408D01*
X574408Y67798D01*
X579081Y59703D01*
X581501Y50674D01*
X581501Y41326D01*
X579081Y32297D01*
X574408Y24202D01*
X567798Y17592D01*
X559703Y12919D01*
X550674Y10499D01*
X541326Y10499D01*
G37*
%LPD*%
%LPC*%
G36*
X426356Y69344D02*
X426356Y69344D01*
X418889Y72940D01*
X413721Y79420D01*
X411877Y87500D01*
X413721Y95580D01*
X418889Y102060D01*
X426356Y105656D01*
X434644Y105656D01*
X442111Y102060D01*
X446110Y97046D01*
X446159Y97005D01*
X446202Y96957D01*
X446234Y96942D01*
X446262Y96918D01*
X446324Y96900D01*
X446382Y96872D01*
X446418Y96871D01*
X446452Y96860D01*
X446516Y96867D01*
X446580Y96865D01*
X446614Y96877D01*
X446650Y96881D01*
X446706Y96912D01*
X446766Y96935D01*
X446797Y96963D01*
X446824Y96977D01*
X446848Y97008D01*
X446890Y97046D01*
X450889Y102060D01*
X458356Y105656D01*
X466644Y105656D01*
X474111Y102060D01*
X478110Y97046D01*
X478159Y97005D01*
X478202Y96957D01*
X478234Y96942D01*
X478262Y96918D01*
X478324Y96900D01*
X478382Y96872D01*
X478418Y96871D01*
X478452Y96860D01*
X478516Y96867D01*
X478580Y96865D01*
X478614Y96877D01*
X478650Y96881D01*
X478706Y96912D01*
X478766Y96935D01*
X478797Y96963D01*
X478824Y96977D01*
X478848Y97008D01*
X478890Y97046D01*
X482889Y102060D01*
X490356Y105656D01*
X498644Y105656D01*
X506111Y102060D01*
X511279Y95580D01*
X513123Y87500D01*
X511279Y79420D01*
X506111Y72940D01*
X498644Y69344D01*
X490356Y69344D01*
X482889Y72940D01*
X478890Y77954D01*
X478860Y77980D01*
X478838Y78009D01*
X478818Y78021D01*
X478798Y78043D01*
X478766Y78058D01*
X478738Y78082D01*
X478692Y78096D01*
X478667Y78111D01*
X478648Y78114D01*
X478618Y78128D01*
X478582Y78129D01*
X478548Y78140D01*
X478515Y78136D01*
X478503Y78138D01*
X478497Y78138D01*
X478473Y78133D01*
X478420Y78135D01*
X478386Y78123D01*
X478350Y78119D01*
X478320Y78102D01*
X478302Y78099D01*
X478277Y78081D01*
X478234Y78065D01*
X478203Y78037D01*
X478176Y78023D01*
X478158Y78000D01*
X478138Y77986D01*
X478128Y77971D01*
X478110Y77954D01*
X474111Y72940D01*
X466644Y69344D01*
X458356Y69344D01*
X450889Y72940D01*
X446890Y77954D01*
X446860Y77980D01*
X446838Y78009D01*
X446818Y78021D01*
X446798Y78043D01*
X446766Y78058D01*
X446738Y78082D01*
X446692Y78096D01*
X446667Y78111D01*
X446648Y78114D01*
X446618Y78128D01*
X446582Y78129D01*
X446548Y78140D01*
X446515Y78136D01*
X446503Y78138D01*
X446497Y78138D01*
X446473Y78133D01*
X446420Y78135D01*
X446386Y78123D01*
X446350Y78119D01*
X446320Y78102D01*
X446302Y78099D01*
X446277Y78081D01*
X446234Y78065D01*
X446203Y78037D01*
X446176Y78023D01*
X446158Y78000D01*
X446138Y77986D01*
X446128Y77971D01*
X446110Y77954D01*
X442111Y72940D01*
X434644Y69344D01*
X426356Y69344D01*
G37*
%LPD*%
%LPC*%
G36*
X227912Y161799D02*
X227912Y161799D01*
X223685Y163550D01*
X220450Y166785D01*
X218699Y171012D01*
X218699Y175588D01*
X219340Y177135D01*
X219353Y177200D01*
X219374Y177263D01*
X219373Y177302D01*
X219378Y177330D01*
X219370Y177370D01*
X219367Y177429D01*
X219326Y177625D01*
X219318Y177663D01*
X219956Y178644D01*
X219970Y178679D01*
X219999Y178725D01*
X220450Y179815D01*
X221180Y180545D01*
X221203Y180579D01*
X221245Y180625D01*
X224566Y185728D01*
X224568Y185732D01*
X224571Y185735D01*
X224588Y185781D01*
X224598Y185797D01*
X224601Y185817D01*
X224604Y185824D01*
X224639Y185913D01*
X224639Y185917D01*
X224641Y185921D01*
X224637Y186017D01*
X224634Y186111D01*
X224633Y186115D01*
X224632Y186120D01*
X224566Y186272D01*
X221945Y190299D01*
X221931Y190314D01*
X221922Y190333D01*
X221824Y190423D01*
X221806Y190441D01*
X221803Y190442D01*
X221799Y190445D01*
X217692Y193118D01*
X217636Y193141D01*
X217584Y193172D01*
X217538Y193179D01*
X217507Y193192D01*
X217470Y193191D01*
X217420Y193199D01*
X215522Y193199D01*
X177999Y230722D01*
X177999Y243500D01*
X177998Y243508D01*
X177999Y243517D01*
X177978Y243605D01*
X177960Y243695D01*
X177955Y243702D01*
X177953Y243710D01*
X177899Y243783D01*
X177847Y243859D01*
X177840Y243863D01*
X177835Y243870D01*
X177757Y243917D01*
X177680Y243966D01*
X177671Y243967D01*
X177664Y243972D01*
X177500Y243999D01*
X176828Y243999D01*
X173925Y245202D01*
X171702Y247425D01*
X170499Y250328D01*
X170499Y257672D01*
X171702Y260575D01*
X173925Y262798D01*
X176828Y264001D01*
X190172Y264001D01*
X193075Y262798D01*
X195298Y260575D01*
X196501Y257672D01*
X196501Y250328D01*
X195298Y247425D01*
X193075Y245202D01*
X190172Y243999D01*
X189500Y243999D01*
X189492Y243998D01*
X189483Y243999D01*
X189395Y243978D01*
X189305Y243960D01*
X189298Y243955D01*
X189290Y243953D01*
X189217Y243899D01*
X189141Y243847D01*
X189137Y243840D01*
X189130Y243835D01*
X189083Y243757D01*
X189034Y243680D01*
X189033Y243671D01*
X189028Y243664D01*
X189001Y243500D01*
X189001Y235485D01*
X189003Y235473D01*
X189001Y235461D01*
X189023Y235376D01*
X189040Y235290D01*
X189047Y235280D01*
X189051Y235268D01*
X189147Y235132D01*
X218802Y205477D01*
X218850Y205446D01*
X218890Y205407D01*
X218932Y205391D01*
X218968Y205367D01*
X219024Y205357D01*
X219077Y205337D01*
X219121Y205339D01*
X219164Y205331D01*
X219219Y205343D01*
X219275Y205345D01*
X219322Y205366D01*
X219358Y205373D01*
X219385Y205393D01*
X219428Y205411D01*
X222875Y207654D01*
X222904Y207683D01*
X222955Y207720D01*
X223685Y208450D01*
X224775Y208901D01*
X224806Y208922D01*
X224856Y208944D01*
X225836Y209582D01*
X226070Y209533D01*
X226137Y209532D01*
X226203Y209523D01*
X226240Y209531D01*
X226269Y209531D01*
X226306Y209546D01*
X226365Y209560D01*
X227912Y210201D01*
X232488Y210201D01*
X236715Y208450D01*
X239950Y205215D01*
X241701Y200988D01*
X241701Y196412D01*
X241060Y194865D01*
X241047Y194800D01*
X241026Y194737D01*
X241027Y194698D01*
X241022Y194670D01*
X241030Y194630D01*
X241033Y194570D01*
X241082Y194336D01*
X240444Y193356D01*
X240430Y193321D01*
X240401Y193275D01*
X239950Y192185D01*
X239220Y191455D01*
X239197Y191421D01*
X239154Y191375D01*
X235834Y186272D01*
X235832Y186268D01*
X235829Y186265D01*
X235796Y186176D01*
X235761Y186087D01*
X235761Y186083D01*
X235759Y186079D01*
X235763Y185983D01*
X235766Y185889D01*
X235767Y185885D01*
X235768Y185880D01*
X235812Y185778D01*
X235815Y185766D01*
X235820Y185759D01*
X235834Y185728D01*
X238484Y181656D01*
X239154Y180625D01*
X239183Y180596D01*
X239220Y180545D01*
X239950Y179815D01*
X240401Y178725D01*
X240422Y178694D01*
X240444Y178644D01*
X241082Y177664D01*
X241033Y177430D01*
X241032Y177363D01*
X241023Y177297D01*
X241031Y177260D01*
X241031Y177231D01*
X241046Y177194D01*
X241060Y177135D01*
X241701Y175588D01*
X241701Y171012D01*
X239950Y166785D01*
X236715Y163550D01*
X232488Y161799D01*
X227912Y161799D01*
G37*
%LPD*%
%LPC*%
G36*
X202317Y523249D02*
X202317Y523249D01*
X199992Y524212D01*
X198212Y525992D01*
X197798Y526991D01*
X197793Y527000D01*
X197790Y527010D01*
X197737Y527082D01*
X197687Y527156D01*
X197678Y527162D01*
X197672Y527170D01*
X197596Y527215D01*
X197521Y527264D01*
X197510Y527266D01*
X197501Y527272D01*
X197337Y527299D01*
X194500Y527299D01*
X194492Y527298D01*
X194483Y527299D01*
X194395Y527278D01*
X194305Y527260D01*
X194298Y527255D01*
X194290Y527253D01*
X194217Y527199D01*
X194141Y527147D01*
X194137Y527140D01*
X194130Y527135D01*
X194083Y527057D01*
X194034Y526980D01*
X194033Y526971D01*
X194028Y526964D01*
X194002Y526808D01*
X192243Y525049D01*
X171757Y525049D01*
X169999Y526807D01*
X169999Y535793D01*
X171757Y537551D01*
X192243Y537551D01*
X194002Y535791D01*
X194001Y535783D01*
X194022Y535695D01*
X194040Y535605D01*
X194045Y535598D01*
X194047Y535590D01*
X194101Y535517D01*
X194153Y535441D01*
X194160Y535437D01*
X194165Y535430D01*
X194243Y535383D01*
X194320Y535334D01*
X194329Y535333D01*
X194336Y535328D01*
X194500Y535301D01*
X197586Y535301D01*
X197596Y535303D01*
X197606Y535301D01*
X197693Y535322D01*
X197781Y535340D01*
X197789Y535346D01*
X197799Y535349D01*
X197871Y535402D01*
X197944Y535453D01*
X197950Y535462D01*
X197959Y535468D01*
X198047Y535609D01*
X198212Y536008D01*
X199992Y537788D01*
X201805Y538539D01*
X201808Y538541D01*
X201813Y538542D01*
X201891Y538597D01*
X201970Y538650D01*
X201972Y538653D01*
X201976Y538656D01*
X202026Y538736D01*
X202078Y538817D01*
X202079Y538821D01*
X202081Y538824D01*
X202096Y538918D01*
X202113Y539012D01*
X202112Y539017D01*
X202113Y539021D01*
X202090Y539112D01*
X202069Y539206D01*
X202066Y539210D01*
X202065Y539214D01*
X202008Y539290D01*
X201952Y539367D01*
X201948Y539369D01*
X201946Y539373D01*
X201805Y539461D01*
X199992Y540212D01*
X198212Y541992D01*
X197249Y544317D01*
X197249Y549683D01*
X198212Y552008D01*
X199992Y553788D01*
X202317Y554751D01*
X207683Y554751D01*
X210008Y553788D01*
X211340Y552456D01*
X211348Y552450D01*
X211355Y552442D01*
X211431Y552396D01*
X211505Y552346D01*
X211516Y552344D01*
X211525Y552339D01*
X211613Y552326D01*
X211701Y552310D01*
X211711Y552312D01*
X211722Y552311D01*
X211884Y552348D01*
X212856Y552751D01*
X215144Y552751D01*
X217258Y551875D01*
X218875Y550258D01*
X219751Y548144D01*
X219751Y545856D01*
X218875Y543742D01*
X217258Y542125D01*
X215144Y541249D01*
X212856Y541249D01*
X211884Y541652D01*
X211873Y541654D01*
X211865Y541660D01*
X211776Y541673D01*
X211689Y541690D01*
X211678Y541688D01*
X211668Y541689D01*
X211582Y541667D01*
X211494Y541649D01*
X211485Y541643D01*
X211475Y541640D01*
X211340Y541544D01*
X210008Y540212D01*
X208195Y539461D01*
X208192Y539459D01*
X208187Y539458D01*
X208109Y539403D01*
X208030Y539350D01*
X208028Y539347D01*
X208024Y539344D01*
X207974Y539263D01*
X207922Y539183D01*
X207921Y539179D01*
X207919Y539176D01*
X207904Y539082D01*
X207887Y538988D01*
X207888Y538984D01*
X207887Y538979D01*
X207910Y538887D01*
X207931Y538794D01*
X207934Y538790D01*
X207935Y538786D01*
X207992Y538710D01*
X208048Y538633D01*
X208052Y538631D01*
X208054Y538627D01*
X208195Y538539D01*
X210008Y537788D01*
X211788Y536008D01*
X212751Y533683D01*
X212751Y528317D01*
X211788Y525992D01*
X210008Y524212D01*
X207683Y523249D01*
X202317Y523249D01*
G37*
%LPD*%
%LPC*%
G36*
X108757Y525049D02*
X108757Y525049D01*
X106999Y526807D01*
X106999Y535793D01*
X108757Y537551D01*
X129243Y537551D01*
X130338Y536456D01*
X130347Y536450D01*
X130353Y536441D01*
X130429Y536395D01*
X130504Y536346D01*
X130514Y536344D01*
X130523Y536338D01*
X130611Y536326D01*
X130699Y536309D01*
X130710Y536312D01*
X130720Y536310D01*
X130882Y536347D01*
X131856Y536751D01*
X134144Y536751D01*
X136258Y535875D01*
X137875Y534258D01*
X138751Y532144D01*
X138751Y529856D01*
X137875Y527742D01*
X136258Y526125D01*
X134144Y525249D01*
X131856Y525249D01*
X130458Y525828D01*
X130448Y525830D01*
X130439Y525836D01*
X130350Y525849D01*
X130263Y525866D01*
X130253Y525864D01*
X130242Y525866D01*
X130156Y525844D01*
X130068Y525825D01*
X130060Y525819D01*
X130049Y525817D01*
X129914Y525720D01*
X129243Y525049D01*
X108757Y525049D01*
G37*
%LPD*%
%LPC*%
G36*
X117856Y543249D02*
X117856Y543249D01*
X115742Y544125D01*
X114125Y545742D01*
X113249Y547856D01*
X113249Y549950D01*
X113248Y549958D01*
X113249Y549967D01*
X113228Y550055D01*
X113210Y550145D01*
X113205Y550152D01*
X113203Y550160D01*
X113149Y550233D01*
X113097Y550309D01*
X113090Y550313D01*
X113085Y550320D01*
X113007Y550367D01*
X112930Y550416D01*
X112921Y550417D01*
X112914Y550422D01*
X112750Y550449D01*
X108757Y550449D01*
X106999Y552207D01*
X106999Y561193D01*
X108757Y562951D01*
X129243Y562951D01*
X131001Y561193D01*
X131001Y552207D01*
X129243Y550449D01*
X125250Y550449D01*
X125242Y550448D01*
X125233Y550449D01*
X125145Y550428D01*
X125055Y550410D01*
X125048Y550405D01*
X125040Y550403D01*
X124967Y550349D01*
X124891Y550297D01*
X124887Y550290D01*
X124880Y550285D01*
X124833Y550207D01*
X124784Y550130D01*
X124783Y550121D01*
X124778Y550114D01*
X124751Y549950D01*
X124751Y547856D01*
X123875Y545742D01*
X122258Y544125D01*
X120144Y543249D01*
X117856Y543249D01*
G37*
%LPD*%
%LPC*%
G36*
X180856Y543749D02*
X180856Y543749D01*
X178742Y544625D01*
X177125Y546242D01*
X176249Y548356D01*
X176249Y549950D01*
X176248Y549958D01*
X176249Y549967D01*
X176228Y550055D01*
X176210Y550145D01*
X176205Y550152D01*
X176203Y550160D01*
X176149Y550233D01*
X176097Y550309D01*
X176090Y550313D01*
X176085Y550320D01*
X176007Y550367D01*
X175930Y550416D01*
X175921Y550417D01*
X175914Y550422D01*
X175750Y550449D01*
X171757Y550449D01*
X169999Y552207D01*
X169999Y561193D01*
X171757Y562951D01*
X192243Y562951D01*
X194001Y561193D01*
X194001Y552207D01*
X192243Y550449D01*
X188250Y550449D01*
X188242Y550448D01*
X188233Y550449D01*
X188145Y550428D01*
X188055Y550410D01*
X188048Y550405D01*
X188040Y550403D01*
X187967Y550349D01*
X187891Y550297D01*
X187887Y550290D01*
X187880Y550285D01*
X187833Y550207D01*
X187784Y550130D01*
X187783Y550121D01*
X187778Y550114D01*
X187751Y549950D01*
X187751Y548356D01*
X186875Y546242D01*
X185258Y544625D01*
X183144Y543749D01*
X180856Y543749D01*
G37*
%LPD*%
%LPC*%
G36*
X281999Y174299D02*
X281999Y174299D01*
X281999Y183773D01*
X283459Y183542D01*
X285031Y183031D01*
X286504Y182281D01*
X287841Y181310D01*
X289010Y180141D01*
X289981Y178804D01*
X290731Y177331D01*
X291242Y175759D01*
X291473Y174299D01*
X281999Y174299D01*
G37*
%LPD*%
%LPC*%
G36*
X270527Y199699D02*
X270527Y199699D01*
X270758Y201159D01*
X271269Y202731D01*
X272019Y204204D01*
X272990Y205541D01*
X274159Y206710D01*
X275496Y207681D01*
X276969Y208431D01*
X278541Y208942D01*
X280001Y209173D01*
X280001Y199699D01*
X270527Y199699D01*
G37*
%LPD*%
%LPC*%
G36*
X270527Y174299D02*
X270527Y174299D01*
X270758Y175759D01*
X271269Y177331D01*
X272019Y178804D01*
X272990Y180141D01*
X274159Y181310D01*
X275496Y182281D01*
X276969Y183031D01*
X278541Y183542D01*
X280001Y183773D01*
X280001Y174299D01*
X270527Y174299D01*
G37*
%LPD*%
%LPC*%
G36*
X281999Y172301D02*
X281999Y172301D01*
X291473Y172301D01*
X291242Y170841D01*
X290731Y169269D01*
X289981Y167796D01*
X289010Y166459D01*
X287841Y165290D01*
X286504Y164319D01*
X285031Y163569D01*
X283459Y163058D01*
X281999Y162827D01*
X281999Y172301D01*
G37*
%LPD*%
%LPC*%
G36*
X278541Y188458D02*
X278541Y188458D01*
X276969Y188969D01*
X275496Y189719D01*
X274159Y190690D01*
X272990Y191859D01*
X272019Y193196D01*
X271269Y194669D01*
X270758Y196241D01*
X270527Y197701D01*
X280001Y197701D01*
X280001Y188227D01*
X278541Y188458D01*
G37*
%LPD*%
%LPC*%
G36*
X278541Y163058D02*
X278541Y163058D01*
X276969Y163569D01*
X275496Y164319D01*
X274159Y165290D01*
X272990Y166459D01*
X272019Y167796D01*
X271269Y169269D01*
X270758Y170841D01*
X270527Y172301D01*
X280001Y172301D01*
X280001Y162827D01*
X278541Y163058D01*
G37*
%LPD*%
%LPC*%
G36*
X332799Y254499D02*
X332799Y254499D01*
X332799Y263467D01*
X334142Y263255D01*
X335639Y262768D01*
X337042Y262053D01*
X338315Y261128D01*
X339428Y260015D01*
X340353Y258742D01*
X341068Y257339D01*
X341555Y255842D01*
X341767Y254499D01*
X332799Y254499D01*
G37*
%LPD*%
%LPC*%
G36*
X332799Y252501D02*
X332799Y252501D01*
X341767Y252501D01*
X341555Y251158D01*
X341068Y249661D01*
X340353Y248258D01*
X339428Y246985D01*
X338315Y245872D01*
X337042Y244947D01*
X335639Y244232D01*
X334142Y243745D01*
X332799Y243533D01*
X332799Y252501D01*
G37*
%LPD*%
%LPC*%
G36*
X329458Y243745D02*
X329458Y243745D01*
X327961Y244232D01*
X326558Y244947D01*
X325285Y245872D01*
X324172Y246985D01*
X323247Y248258D01*
X322532Y249661D01*
X322045Y251158D01*
X321833Y252501D01*
X330801Y252501D01*
X330801Y243533D01*
X329458Y243745D01*
G37*
%LPD*%
%LPC*%
G36*
X356999Y497999D02*
X356999Y497999D01*
X356999Y503751D01*
X357950Y503751D01*
X358978Y503546D01*
X359948Y503145D01*
X360820Y502562D01*
X361562Y501820D01*
X362145Y500948D01*
X362546Y499978D01*
X362751Y498950D01*
X362751Y497999D01*
X356999Y497999D01*
G37*
%LPD*%
%LPC*%
G36*
X349249Y497999D02*
X349249Y497999D01*
X349249Y498950D01*
X349454Y499978D01*
X349855Y500948D01*
X350438Y501820D01*
X351180Y502562D01*
X352052Y503145D01*
X353022Y503546D01*
X354050Y503751D01*
X355001Y503751D01*
X355001Y497999D01*
X349249Y497999D01*
G37*
%LPD*%
%LPC*%
G36*
X356999Y490249D02*
X356999Y490249D01*
X356999Y496001D01*
X362751Y496001D01*
X362751Y495050D01*
X362546Y494022D01*
X362145Y493052D01*
X361562Y492180D01*
X360820Y491438D01*
X359948Y490855D01*
X358978Y490454D01*
X357950Y490249D01*
X356999Y490249D01*
G37*
%LPD*%
%LPC*%
G36*
X354050Y490249D02*
X354050Y490249D01*
X353022Y490454D01*
X352052Y490855D01*
X351180Y491438D01*
X350438Y492180D01*
X349855Y493052D01*
X349454Y494022D01*
X349249Y495050D01*
X349249Y496001D01*
X355001Y496001D01*
X355001Y490249D01*
X354050Y490249D01*
G37*
%LPD*%
%LPC*%
G36*
X331799Y253499D02*
X331799Y253499D01*
X331799Y253501D01*
X331801Y253501D01*
X331801Y253499D01*
X331799Y253499D01*
G37*
%LPD*%
%LPC*%
G36*
X280999Y173299D02*
X280999Y173299D01*
X280999Y173301D01*
X281001Y173301D01*
X281001Y173299D01*
X280999Y173299D01*
G37*
%LPD*%
%LPC*%
G36*
X355999Y496999D02*
X355999Y496999D01*
X355999Y497001D01*
X356001Y497001D01*
X356001Y496999D01*
X355999Y496999D01*
G37*
%LPD*%
D10*
X343075Y313575D02*
X343075Y316425D01*
X345925Y316425D01*
X345925Y313575D01*
X343075Y313575D01*
X343075Y300425D02*
X343075Y297575D01*
X343075Y300425D02*
X345925Y300425D01*
X345925Y297575D01*
X343075Y297575D01*
X422075Y367575D02*
X422075Y370425D01*
X424925Y370425D01*
X424925Y367575D01*
X422075Y367575D01*
X422075Y354425D02*
X422075Y351575D01*
X422075Y354425D02*
X424925Y354425D01*
X424925Y351575D01*
X422075Y351575D01*
X422075Y338925D02*
X422075Y336075D01*
X422075Y338925D02*
X424925Y338925D01*
X424925Y336075D01*
X422075Y336075D01*
X422075Y322925D02*
X422075Y320075D01*
X422075Y322925D02*
X424925Y322925D01*
X424925Y320075D01*
X422075Y320075D01*
X422075Y307425D02*
X422075Y304575D01*
X422075Y307425D02*
X424925Y307425D01*
X424925Y304575D01*
X422075Y304575D01*
X422075Y291425D02*
X422075Y288575D01*
X422075Y291425D02*
X424925Y291425D01*
X424925Y288575D01*
X422075Y288575D01*
X424925Y383075D02*
X424925Y385925D01*
X424925Y383075D02*
X422075Y383075D01*
X422075Y385925D01*
X424925Y385925D01*
X424925Y399075D02*
X424925Y401925D01*
X424925Y399075D02*
X422075Y399075D01*
X422075Y401925D01*
X424925Y401925D01*
X310075Y482075D02*
X310075Y484925D01*
X312925Y484925D01*
X312925Y482075D01*
X310075Y482075D01*
X310075Y468925D02*
X310075Y466075D01*
X310075Y468925D02*
X312925Y468925D01*
X312925Y466075D01*
X310075Y466075D01*
X338575Y495575D02*
X341425Y495575D01*
X338575Y495575D02*
X338575Y498425D01*
X341425Y498425D01*
X341425Y495575D01*
X354575Y495575D02*
X357425Y495575D01*
X354575Y495575D02*
X354575Y498425D01*
X357425Y498425D01*
X357425Y495575D01*
X370075Y435925D02*
X370075Y433075D01*
X370075Y435925D02*
X372925Y435925D01*
X372925Y433075D01*
X370075Y433075D01*
X370075Y419925D02*
X370075Y417075D01*
X370075Y419925D02*
X372925Y419925D01*
X372925Y417075D01*
X370075Y417075D01*
X280575Y452075D02*
X280575Y454925D01*
X283425Y454925D01*
X283425Y452075D01*
X280575Y452075D01*
X280575Y438925D02*
X280575Y436075D01*
X280575Y438925D02*
X283425Y438925D01*
X283425Y436075D01*
X280575Y436075D01*
D11*
X173200Y444300D02*
X173200Y446700D01*
X173200Y444300D02*
X169800Y444300D01*
X169800Y446700D01*
X173200Y446700D01*
X193200Y453800D02*
X193200Y456200D01*
X193200Y453800D02*
X189800Y453800D01*
X189800Y456200D01*
X193200Y456200D01*
X193200Y437200D02*
X193200Y434800D01*
X189800Y434800D01*
X189800Y437200D01*
X193200Y437200D01*
D12*
X389400Y460900D02*
X389400Y465100D01*
X399600Y465100D01*
X399600Y460900D01*
X389400Y460900D01*
X389400Y504900D02*
X389400Y509100D01*
X399600Y509100D01*
X399600Y504900D01*
X389400Y504900D01*
D11*
X452800Y426700D02*
X452800Y424300D01*
X452800Y426700D02*
X456200Y426700D01*
X456200Y424300D01*
X452800Y424300D01*
X432800Y417200D02*
X432800Y414800D01*
X432800Y417200D02*
X436200Y417200D01*
X436200Y414800D01*
X432800Y414800D01*
X432800Y433800D02*
X432800Y436200D01*
X436200Y436200D01*
X436200Y433800D01*
X432800Y433800D01*
X452800Y459300D02*
X452800Y461700D01*
X456200Y461700D01*
X456200Y459300D01*
X452800Y459300D01*
X432800Y452200D02*
X432800Y449800D01*
X432800Y452200D02*
X436200Y452200D01*
X436200Y449800D01*
X432800Y449800D01*
X432800Y468800D02*
X432800Y471200D01*
X436200Y471200D01*
X436200Y468800D01*
X432800Y468800D01*
X452800Y494300D02*
X452800Y496700D01*
X456200Y496700D01*
X456200Y494300D01*
X452800Y494300D01*
X432800Y487200D02*
X432800Y484800D01*
X432800Y487200D02*
X436200Y487200D01*
X436200Y484800D01*
X432800Y484800D01*
X432800Y503800D02*
X432800Y506200D01*
X436200Y506200D01*
X436200Y503800D01*
X432800Y503800D01*
D10*
X440425Y385925D02*
X440425Y383075D01*
X437575Y383075D01*
X437575Y385925D01*
X440425Y385925D01*
X440425Y399075D02*
X440425Y401925D01*
X440425Y399075D02*
X437575Y399075D01*
X437575Y401925D01*
X440425Y401925D01*
X357425Y409925D02*
X354575Y409925D01*
X357425Y409925D02*
X357425Y407075D01*
X354575Y407075D01*
X354575Y409925D01*
X341425Y409925D02*
X338575Y409925D01*
X341425Y409925D02*
X341425Y407075D01*
X338575Y407075D01*
X338575Y409925D01*
X393425Y417575D02*
X393425Y420425D01*
X393425Y417575D02*
X390575Y417575D01*
X390575Y420425D01*
X393425Y420425D01*
X393425Y433575D02*
X393425Y436425D01*
X393425Y433575D02*
X390575Y433575D01*
X390575Y436425D01*
X393425Y436425D01*
X310075Y445575D02*
X310075Y448425D01*
X312925Y448425D01*
X312925Y445575D01*
X310075Y445575D01*
X310075Y432425D02*
X310075Y429575D01*
X310075Y432425D02*
X312925Y432425D01*
X312925Y429575D01*
X310075Y429575D01*
X420925Y418925D02*
X420925Y416075D01*
X418075Y416075D01*
X418075Y418925D01*
X420925Y418925D01*
X420925Y432075D02*
X420925Y434925D01*
X420925Y432075D02*
X418075Y432075D01*
X418075Y434925D01*
X420925Y434925D01*
X420925Y451075D02*
X420925Y453925D01*
X420925Y451075D02*
X418075Y451075D01*
X418075Y453925D01*
X420925Y453925D01*
X420925Y467075D02*
X420925Y469925D01*
X420925Y467075D02*
X418075Y467075D01*
X418075Y469925D01*
X420925Y469925D01*
X420925Y486075D02*
X420925Y488925D01*
X420925Y486075D02*
X418075Y486075D01*
X418075Y488925D01*
X420925Y488925D01*
X420925Y502075D02*
X420925Y504925D01*
X420925Y502075D02*
X418075Y502075D01*
X418075Y504925D01*
X420925Y504925D01*
X174925Y472075D02*
X172075Y472075D01*
X172075Y474925D01*
X174925Y474925D01*
X174925Y472075D01*
X188075Y472075D02*
X190925Y472075D01*
X188075Y472075D02*
X188075Y474925D01*
X190925Y474925D01*
X190925Y472075D01*
X455925Y354425D02*
X455925Y351575D01*
X453075Y351575D01*
X453075Y354425D01*
X455925Y354425D01*
X455925Y367575D02*
X455925Y370425D01*
X455925Y367575D02*
X453075Y367575D01*
X453075Y370425D01*
X455925Y370425D01*
X437575Y370425D02*
X437575Y367575D01*
X437575Y370425D02*
X440425Y370425D01*
X440425Y367575D01*
X437575Y367575D01*
X437575Y354425D02*
X437575Y351575D01*
X437575Y354425D02*
X440425Y354425D01*
X440425Y351575D01*
X437575Y351575D01*
X455925Y322925D02*
X455925Y320075D01*
X453075Y320075D01*
X453075Y322925D01*
X455925Y322925D01*
X455925Y336075D02*
X455925Y338925D01*
X455925Y336075D02*
X453075Y336075D01*
X453075Y338925D01*
X455925Y338925D01*
X437575Y338925D02*
X437575Y336075D01*
X437575Y338925D02*
X440425Y338925D01*
X440425Y336075D01*
X437575Y336075D01*
X437575Y322925D02*
X437575Y320075D01*
X437575Y322925D02*
X440425Y322925D01*
X440425Y320075D01*
X437575Y320075D01*
X455925Y291425D02*
X455925Y288575D01*
X453075Y288575D01*
X453075Y291425D01*
X455925Y291425D01*
X455925Y304575D02*
X455925Y307425D01*
X455925Y304575D02*
X453075Y304575D01*
X453075Y307425D01*
X455925Y307425D01*
X437575Y307425D02*
X437575Y304575D01*
X437575Y307425D02*
X440425Y307425D01*
X440425Y304575D01*
X437575Y304575D01*
X437575Y291425D02*
X437575Y288575D01*
X437575Y291425D02*
X440425Y291425D01*
X440425Y288575D01*
X437575Y288575D01*
X453075Y399075D02*
X453075Y401925D01*
X455925Y401925D01*
X455925Y399075D01*
X453075Y399075D01*
X453075Y385925D02*
X453075Y383075D01*
X453075Y385925D02*
X455925Y385925D01*
X455925Y383075D01*
X453075Y383075D01*
D13*
X269150Y427350D02*
X257850Y427350D01*
X269150Y427350D02*
X269150Y425550D01*
X257850Y425550D01*
X257850Y427350D01*
X215150Y427350D02*
X203850Y427350D01*
X215150Y427350D02*
X215150Y425550D01*
X203850Y425550D01*
X203850Y427350D01*
X257850Y440050D02*
X269150Y440050D01*
X269150Y438250D01*
X257850Y438250D01*
X257850Y440050D01*
X257850Y452750D02*
X269150Y452750D01*
X269150Y450950D01*
X257850Y450950D01*
X257850Y452750D01*
X215150Y440050D02*
X203850Y440050D01*
X215150Y440050D02*
X215150Y438250D01*
X203850Y438250D01*
X203850Y440050D01*
X203850Y452750D02*
X215150Y452750D01*
X215150Y450950D01*
X203850Y450950D01*
X203850Y452750D01*
X257850Y465450D02*
X269150Y465450D01*
X269150Y463650D01*
X257850Y463650D01*
X257850Y465450D01*
X215150Y465450D02*
X203850Y465450D01*
X215150Y465450D02*
X215150Y463650D01*
X203850Y463650D01*
X203850Y465450D01*
X324100Y479600D02*
X330900Y479600D01*
X324100Y479600D02*
X324100Y481400D01*
X330900Y481400D01*
X330900Y479600D01*
X330900Y470100D02*
X324100Y470100D01*
X324100Y471900D01*
X330900Y471900D01*
X330900Y470100D01*
X330900Y460600D02*
X324100Y460600D01*
X324100Y462400D01*
X330900Y462400D01*
X330900Y460600D01*
X352100Y460600D02*
X358900Y460600D01*
X352100Y460600D02*
X352100Y462400D01*
X358900Y462400D01*
X358900Y460600D01*
X358900Y470100D02*
X352100Y470100D01*
X352100Y471900D01*
X358900Y471900D01*
X358900Y470100D01*
X358900Y479600D02*
X352100Y479600D01*
X352100Y481400D01*
X358900Y481400D01*
X358900Y479600D01*
X330900Y443100D02*
X324100Y443100D01*
X324100Y444900D01*
X330900Y444900D01*
X330900Y443100D01*
X330900Y433600D02*
X324100Y433600D01*
X324100Y435400D01*
X330900Y435400D01*
X330900Y433600D01*
X330900Y424100D02*
X324100Y424100D01*
X324100Y425900D01*
X330900Y425900D01*
X330900Y424100D01*
X352100Y424100D02*
X358900Y424100D01*
X352100Y424100D02*
X352100Y425900D01*
X358900Y425900D01*
X358900Y424100D01*
X358900Y433600D02*
X352100Y433600D01*
X352100Y435400D01*
X358900Y435400D01*
X358900Y433600D01*
X358900Y443100D02*
X352100Y443100D01*
X352100Y444900D01*
X358900Y444900D01*
X358900Y443100D01*
D10*
X267925Y481925D02*
X265075Y481925D01*
X267925Y481925D02*
X267925Y479075D01*
X265075Y479075D01*
X265075Y481925D01*
X251925Y481925D02*
X249075Y481925D01*
X251925Y481925D02*
X251925Y479075D01*
X249075Y479075D01*
X249075Y481925D01*
X236425Y481925D02*
X233575Y481925D01*
X236425Y481925D02*
X236425Y479075D01*
X233575Y479075D01*
X233575Y481925D01*
X220425Y481925D02*
X217575Y481925D01*
X220425Y481925D02*
X220425Y479075D01*
X217575Y479075D01*
X217575Y481925D01*
X221075Y411925D02*
X223925Y411925D01*
X223925Y409075D01*
X221075Y409075D01*
X221075Y411925D01*
X207925Y411925D02*
X205075Y411925D01*
X207925Y411925D02*
X207925Y409075D01*
X205075Y409075D01*
X205075Y411925D01*
X190925Y490425D02*
X188075Y490425D01*
X190925Y490425D02*
X190925Y487575D01*
X188075Y487575D01*
X188075Y490425D01*
X174925Y490425D02*
X172075Y490425D01*
X174925Y490425D02*
X174925Y487575D01*
X172075Y487575D01*
X172075Y490425D01*
X370075Y479925D02*
X370075Y477075D01*
X370075Y479925D02*
X372925Y479925D01*
X372925Y477075D01*
X370075Y477075D01*
X370075Y463925D02*
X370075Y461075D01*
X370075Y463925D02*
X372925Y463925D01*
X372925Y461075D01*
X370075Y461075D01*
D14*
X332985Y315435D02*
X323015Y315435D01*
X332985Y315435D02*
X332985Y314565D01*
X323015Y314565D01*
X323015Y315435D01*
X323015Y320435D02*
X332985Y320435D01*
X332985Y319565D01*
X323015Y319565D01*
X323015Y320435D01*
X323015Y325435D02*
X332985Y325435D01*
X332985Y324565D01*
X323015Y324565D01*
X323015Y325435D01*
X323015Y330435D02*
X332985Y330435D01*
X332985Y329565D01*
X323015Y329565D01*
X323015Y330435D01*
X323015Y335435D02*
X332985Y335435D01*
X332985Y334565D01*
X323015Y334565D01*
X323015Y335435D01*
X323015Y340435D02*
X332985Y340435D01*
X332985Y339565D01*
X323015Y339565D01*
X323015Y340435D01*
X323015Y345435D02*
X332985Y345435D01*
X332985Y344565D01*
X323015Y344565D01*
X323015Y345435D01*
X323015Y350435D02*
X332985Y350435D01*
X332985Y349565D01*
X323015Y349565D01*
X323015Y350435D01*
X323015Y355435D02*
X332985Y355435D01*
X332985Y354565D01*
X323015Y354565D01*
X323015Y355435D01*
X323015Y360435D02*
X332985Y360435D01*
X332985Y359565D01*
X323015Y359565D01*
X323015Y360435D01*
X323015Y365435D02*
X332985Y365435D01*
X332985Y364565D01*
X323015Y364565D01*
X323015Y365435D01*
X323015Y370435D02*
X332985Y370435D01*
X332985Y369565D01*
X323015Y369565D01*
X323015Y370435D01*
X310065Y382515D02*
X310065Y392485D01*
X310935Y392485D01*
X310935Y382515D01*
X310065Y382515D01*
X310065Y384443D02*
X310935Y384443D01*
X310935Y386371D02*
X310065Y386371D01*
X310065Y388299D02*
X310935Y388299D01*
X310935Y390227D02*
X310065Y390227D01*
X310065Y392155D02*
X310935Y392155D01*
X305065Y392485D02*
X305065Y382515D01*
X305065Y392485D02*
X305935Y392485D01*
X305935Y382515D01*
X305065Y382515D01*
X305065Y384443D02*
X305935Y384443D01*
X305935Y386371D02*
X305065Y386371D01*
X305065Y388299D02*
X305935Y388299D01*
X305935Y390227D02*
X305065Y390227D01*
X305065Y392155D02*
X305935Y392155D01*
X300065Y392485D02*
X300065Y382515D01*
X300065Y392485D02*
X300935Y392485D01*
X300935Y382515D01*
X300065Y382515D01*
X300065Y384443D02*
X300935Y384443D01*
X300935Y386371D02*
X300065Y386371D01*
X300065Y388299D02*
X300935Y388299D01*
X300935Y390227D02*
X300065Y390227D01*
X300065Y392155D02*
X300935Y392155D01*
X295065Y392485D02*
X295065Y382515D01*
X295065Y392485D02*
X295935Y392485D01*
X295935Y382515D01*
X295065Y382515D01*
X295065Y384443D02*
X295935Y384443D01*
X295935Y386371D02*
X295065Y386371D01*
X295065Y388299D02*
X295935Y388299D01*
X295935Y390227D02*
X295065Y390227D01*
X295065Y392155D02*
X295935Y392155D01*
X290065Y392485D02*
X290065Y382515D01*
X290065Y392485D02*
X290935Y392485D01*
X290935Y382515D01*
X290065Y382515D01*
X290065Y384443D02*
X290935Y384443D01*
X290935Y386371D02*
X290065Y386371D01*
X290065Y388299D02*
X290935Y388299D01*
X290935Y390227D02*
X290065Y390227D01*
X290065Y392155D02*
X290935Y392155D01*
X285065Y392485D02*
X285065Y382515D01*
X285065Y392485D02*
X285935Y392485D01*
X285935Y382515D01*
X285065Y382515D01*
X285065Y384443D02*
X285935Y384443D01*
X285935Y386371D02*
X285065Y386371D01*
X285065Y388299D02*
X285935Y388299D01*
X285935Y390227D02*
X285065Y390227D01*
X285065Y392155D02*
X285935Y392155D01*
X280065Y392485D02*
X280065Y382515D01*
X280065Y392485D02*
X280935Y392485D01*
X280935Y382515D01*
X280065Y382515D01*
X280065Y384443D02*
X280935Y384443D01*
X280935Y386371D02*
X280065Y386371D01*
X280065Y388299D02*
X280935Y388299D01*
X280935Y390227D02*
X280065Y390227D01*
X280065Y392155D02*
X280935Y392155D01*
X275065Y392485D02*
X275065Y382515D01*
X275065Y392485D02*
X275935Y392485D01*
X275935Y382515D01*
X275065Y382515D01*
X275065Y384443D02*
X275935Y384443D01*
X275935Y386371D02*
X275065Y386371D01*
X275065Y388299D02*
X275935Y388299D01*
X275935Y390227D02*
X275065Y390227D01*
X275065Y392155D02*
X275935Y392155D01*
X270065Y392485D02*
X270065Y382515D01*
X270065Y392485D02*
X270935Y392485D01*
X270935Y382515D01*
X270065Y382515D01*
X270065Y384443D02*
X270935Y384443D01*
X270935Y386371D02*
X270065Y386371D01*
X270065Y388299D02*
X270935Y388299D01*
X270935Y390227D02*
X270065Y390227D01*
X270065Y392155D02*
X270935Y392155D01*
X265065Y392485D02*
X265065Y382515D01*
X265065Y392485D02*
X265935Y392485D01*
X265935Y382515D01*
X265065Y382515D01*
X265065Y384443D02*
X265935Y384443D01*
X265935Y386371D02*
X265065Y386371D01*
X265065Y388299D02*
X265935Y388299D01*
X265935Y390227D02*
X265065Y390227D01*
X265065Y392155D02*
X265935Y392155D01*
X260065Y392485D02*
X260065Y382515D01*
X260065Y392485D02*
X260935Y392485D01*
X260935Y382515D01*
X260065Y382515D01*
X260065Y384443D02*
X260935Y384443D01*
X260935Y386371D02*
X260065Y386371D01*
X260065Y388299D02*
X260935Y388299D01*
X260935Y390227D02*
X260065Y390227D01*
X260065Y392155D02*
X260935Y392155D01*
X255065Y392485D02*
X255065Y382515D01*
X255065Y392485D02*
X255935Y392485D01*
X255935Y382515D01*
X255065Y382515D01*
X255065Y384443D02*
X255935Y384443D01*
X255935Y386371D02*
X255065Y386371D01*
X255065Y388299D02*
X255935Y388299D01*
X255935Y390227D02*
X255065Y390227D01*
X255065Y392155D02*
X255935Y392155D01*
X242985Y370435D02*
X233015Y370435D01*
X242985Y370435D02*
X242985Y369565D01*
X233015Y369565D01*
X233015Y370435D01*
X233015Y365435D02*
X242985Y365435D01*
X242985Y364565D01*
X233015Y364565D01*
X233015Y365435D01*
X233015Y360435D02*
X242985Y360435D01*
X242985Y359565D01*
X233015Y359565D01*
X233015Y360435D01*
X233015Y355435D02*
X242985Y355435D01*
X242985Y354565D01*
X233015Y354565D01*
X233015Y355435D01*
X233015Y350435D02*
X242985Y350435D01*
X242985Y349565D01*
X233015Y349565D01*
X233015Y350435D01*
X233015Y345435D02*
X242985Y345435D01*
X242985Y344565D01*
X233015Y344565D01*
X233015Y345435D01*
X233015Y340435D02*
X242985Y340435D01*
X242985Y339565D01*
X233015Y339565D01*
X233015Y340435D01*
X233015Y335435D02*
X242985Y335435D01*
X242985Y334565D01*
X233015Y334565D01*
X233015Y335435D01*
X233015Y330435D02*
X242985Y330435D01*
X242985Y329565D01*
X233015Y329565D01*
X233015Y330435D01*
X233015Y325435D02*
X242985Y325435D01*
X242985Y324565D01*
X233015Y324565D01*
X233015Y325435D01*
X233015Y320435D02*
X242985Y320435D01*
X242985Y319565D01*
X233015Y319565D01*
X233015Y320435D01*
X233015Y315435D02*
X242985Y315435D01*
X242985Y314565D01*
X233015Y314565D01*
X233015Y315435D01*
X255065Y302485D02*
X255065Y292515D01*
X255065Y302485D02*
X255935Y302485D01*
X255935Y292515D01*
X255065Y292515D01*
X255065Y294443D02*
X255935Y294443D01*
X255935Y296371D02*
X255065Y296371D01*
X255065Y298299D02*
X255935Y298299D01*
X255935Y300227D02*
X255065Y300227D01*
X255065Y302155D02*
X255935Y302155D01*
X260065Y302485D02*
X260065Y292515D01*
X260065Y302485D02*
X260935Y302485D01*
X260935Y292515D01*
X260065Y292515D01*
X260065Y294443D02*
X260935Y294443D01*
X260935Y296371D02*
X260065Y296371D01*
X260065Y298299D02*
X260935Y298299D01*
X260935Y300227D02*
X260065Y300227D01*
X260065Y302155D02*
X260935Y302155D01*
X265065Y302485D02*
X265065Y292515D01*
X265065Y302485D02*
X265935Y302485D01*
X265935Y292515D01*
X265065Y292515D01*
X265065Y294443D02*
X265935Y294443D01*
X265935Y296371D02*
X265065Y296371D01*
X265065Y298299D02*
X265935Y298299D01*
X265935Y300227D02*
X265065Y300227D01*
X265065Y302155D02*
X265935Y302155D01*
X270065Y302485D02*
X270065Y292515D01*
X270065Y302485D02*
X270935Y302485D01*
X270935Y292515D01*
X270065Y292515D01*
X270065Y294443D02*
X270935Y294443D01*
X270935Y296371D02*
X270065Y296371D01*
X270065Y298299D02*
X270935Y298299D01*
X270935Y300227D02*
X270065Y300227D01*
X270065Y302155D02*
X270935Y302155D01*
X275065Y302485D02*
X275065Y292515D01*
X275065Y302485D02*
X275935Y302485D01*
X275935Y292515D01*
X275065Y292515D01*
X275065Y294443D02*
X275935Y294443D01*
X275935Y296371D02*
X275065Y296371D01*
X275065Y298299D02*
X275935Y298299D01*
X275935Y300227D02*
X275065Y300227D01*
X275065Y302155D02*
X275935Y302155D01*
X280065Y302485D02*
X280065Y292515D01*
X280065Y302485D02*
X280935Y302485D01*
X280935Y292515D01*
X280065Y292515D01*
X280065Y294443D02*
X280935Y294443D01*
X280935Y296371D02*
X280065Y296371D01*
X280065Y298299D02*
X280935Y298299D01*
X280935Y300227D02*
X280065Y300227D01*
X280065Y302155D02*
X280935Y302155D01*
X285065Y302485D02*
X285065Y292515D01*
X285065Y302485D02*
X285935Y302485D01*
X285935Y292515D01*
X285065Y292515D01*
X285065Y294443D02*
X285935Y294443D01*
X285935Y296371D02*
X285065Y296371D01*
X285065Y298299D02*
X285935Y298299D01*
X285935Y300227D02*
X285065Y300227D01*
X285065Y302155D02*
X285935Y302155D01*
X290065Y302485D02*
X290065Y292515D01*
X290065Y302485D02*
X290935Y302485D01*
X290935Y292515D01*
X290065Y292515D01*
X290065Y294443D02*
X290935Y294443D01*
X290935Y296371D02*
X290065Y296371D01*
X290065Y298299D02*
X290935Y298299D01*
X290935Y300227D02*
X290065Y300227D01*
X290065Y302155D02*
X290935Y302155D01*
X295065Y302485D02*
X295065Y292515D01*
X295065Y302485D02*
X295935Y302485D01*
X295935Y292515D01*
X295065Y292515D01*
X295065Y294443D02*
X295935Y294443D01*
X295935Y296371D02*
X295065Y296371D01*
X295065Y298299D02*
X295935Y298299D01*
X295935Y300227D02*
X295065Y300227D01*
X295065Y302155D02*
X295935Y302155D01*
X300065Y302485D02*
X300065Y292515D01*
X300065Y302485D02*
X300935Y302485D01*
X300935Y292515D01*
X300065Y292515D01*
X300065Y294443D02*
X300935Y294443D01*
X300935Y296371D02*
X300065Y296371D01*
X300065Y298299D02*
X300935Y298299D01*
X300935Y300227D02*
X300065Y300227D01*
X300065Y302155D02*
X300935Y302155D01*
X305065Y302485D02*
X305065Y292515D01*
X305065Y302485D02*
X305935Y302485D01*
X305935Y292515D01*
X305065Y292515D01*
X305065Y294443D02*
X305935Y294443D01*
X305935Y296371D02*
X305065Y296371D01*
X305065Y298299D02*
X305935Y298299D01*
X305935Y300227D02*
X305065Y300227D01*
X305065Y302155D02*
X305935Y302155D01*
X310065Y302485D02*
X310065Y292515D01*
X310065Y302485D02*
X310935Y302485D01*
X310935Y292515D01*
X310065Y292515D01*
X310065Y294443D02*
X310935Y294443D01*
X310935Y296371D02*
X310065Y296371D01*
X310065Y298299D02*
X310935Y298299D01*
X310935Y300227D02*
X310065Y300227D01*
X310065Y302155D02*
X310935Y302155D01*
D10*
X250925Y406575D02*
X248075Y406575D01*
X248075Y409425D01*
X250925Y409425D01*
X250925Y406575D01*
X264075Y406575D02*
X266925Y406575D01*
X264075Y406575D02*
X264075Y409425D01*
X266925Y409425D01*
X266925Y406575D01*
X220075Y316425D02*
X220075Y313575D01*
X220075Y316425D02*
X222925Y316425D01*
X222925Y313575D01*
X220075Y313575D01*
X220075Y300425D02*
X220075Y297575D01*
X220075Y300425D02*
X222925Y300425D01*
X222925Y297575D01*
X220075Y297575D01*
X320575Y282425D02*
X323425Y282425D01*
X323425Y279575D01*
X320575Y279575D01*
X320575Y282425D01*
X307425Y282425D02*
X304575Y282425D01*
X307425Y282425D02*
X307425Y279575D01*
X304575Y279575D01*
X304575Y282425D01*
X221425Y386425D02*
X218575Y386425D01*
X221425Y386425D02*
X221425Y383575D01*
X218575Y383575D01*
X218575Y386425D01*
X205425Y386425D02*
X202575Y386425D01*
X205425Y386425D02*
X205425Y383575D01*
X202575Y383575D01*
X202575Y386425D01*
X344075Y356575D02*
X346925Y356575D01*
X344075Y356575D02*
X344075Y359425D01*
X346925Y359425D01*
X346925Y356575D01*
X360075Y356575D02*
X362925Y356575D01*
X360075Y356575D02*
X360075Y359425D01*
X362925Y359425D01*
X362925Y356575D01*
X346925Y372575D02*
X344075Y372575D01*
X344075Y375425D01*
X346925Y375425D01*
X346925Y372575D01*
X360075Y372575D02*
X362925Y372575D01*
X360075Y372575D02*
X360075Y375425D01*
X362925Y375425D01*
X362925Y372575D01*
X343425Y277575D02*
X340575Y277575D01*
X340575Y280425D01*
X343425Y280425D01*
X343425Y277575D01*
X356575Y277575D02*
X359425Y277575D01*
X356575Y277575D02*
X356575Y280425D01*
X359425Y280425D01*
X359425Y277575D01*
X291425Y281925D02*
X288575Y281925D01*
X291425Y281925D02*
X291425Y279075D01*
X288575Y279075D01*
X288575Y281925D01*
X275425Y281925D02*
X272575Y281925D01*
X275425Y281925D02*
X275425Y279075D01*
X272575Y279075D01*
X272575Y281925D01*
X376075Y338575D02*
X378925Y338575D01*
X376075Y338575D02*
X376075Y341425D01*
X378925Y341425D01*
X378925Y338575D01*
X392075Y338575D02*
X394925Y338575D01*
X392075Y338575D02*
X392075Y341425D01*
X394925Y341425D01*
X394925Y338575D01*
X360075Y316425D02*
X360075Y313575D01*
X360075Y316425D02*
X362925Y316425D01*
X362925Y313575D01*
X360075Y313575D01*
X360075Y300425D02*
X360075Y297575D01*
X360075Y300425D02*
X362925Y300425D01*
X362925Y297575D01*
X360075Y297575D01*
X345925Y338575D02*
X343075Y338575D01*
X343075Y341425D01*
X345925Y341425D01*
X345925Y338575D01*
X359075Y338575D02*
X361925Y338575D01*
X359075Y338575D02*
X359075Y341425D01*
X361925Y341425D01*
X361925Y338575D01*
D15*
X374900Y327100D02*
X374900Y317900D01*
X374900Y327100D02*
X382100Y327100D01*
X382100Y317900D01*
X374900Y317900D01*
X374900Y322460D02*
X382100Y322460D01*
X382100Y327020D02*
X374900Y327020D01*
X374900Y305100D02*
X374900Y295900D01*
X374900Y305100D02*
X382100Y305100D01*
X382100Y295900D01*
X374900Y295900D01*
X374900Y300460D02*
X382100Y300460D01*
X382100Y305020D02*
X374900Y305020D01*
X390900Y305100D02*
X390900Y295900D01*
X390900Y305100D02*
X398100Y305100D01*
X398100Y295900D01*
X390900Y295900D01*
X390900Y300460D02*
X398100Y300460D01*
X398100Y305020D02*
X390900Y305020D01*
X390900Y317900D02*
X390900Y327100D01*
X398100Y327100D01*
X398100Y317900D01*
X390900Y317900D01*
X390900Y322460D02*
X398100Y322460D01*
X398100Y327020D02*
X390900Y327020D01*
D16*
X245000Y515500D03*
X256000Y515500D03*
X256000Y500500D03*
X245000Y500500D03*
D10*
X270075Y498575D02*
X272925Y498575D01*
X270075Y498575D02*
X270075Y501425D01*
X272925Y501425D01*
X272925Y498575D01*
X286075Y498575D02*
X288925Y498575D01*
X286075Y498575D02*
X286075Y501425D01*
X288925Y501425D01*
X288925Y498575D01*
X272925Y514075D02*
X270075Y514075D01*
X270075Y516925D01*
X272925Y516925D01*
X272925Y514075D01*
X286075Y514075D02*
X288925Y514075D01*
X286075Y514075D02*
X286075Y516925D01*
X288925Y516925D01*
X288925Y514075D01*
X272925Y529575D02*
X270075Y529575D01*
X270075Y532425D01*
X272925Y532425D01*
X272925Y529575D01*
X286075Y529575D02*
X288925Y529575D01*
X286075Y529575D02*
X286075Y532425D01*
X288925Y532425D01*
X288925Y529575D01*
D17*
X180950Y502050D02*
X180050Y502050D01*
X180050Y503950D01*
X180950Y503950D01*
X180950Y502050D01*
X189050Y502050D02*
X189950Y502050D01*
X189050Y502050D02*
X189050Y503950D01*
X189950Y503950D01*
X189950Y502050D01*
D10*
X147925Y299425D02*
X145075Y299425D01*
X147925Y299425D02*
X147925Y296575D01*
X145075Y296575D01*
X145075Y299425D01*
X131925Y299425D02*
X129075Y299425D01*
X131925Y299425D02*
X131925Y296575D01*
X129075Y296575D01*
X129075Y299425D01*
D17*
X137050Y310550D02*
X137950Y310550D01*
X137050Y310550D02*
X137050Y312450D01*
X137950Y312450D01*
X137950Y310550D01*
X146050Y310550D02*
X146950Y310550D01*
X146050Y310550D02*
X146050Y312450D01*
X146950Y312450D01*
X146950Y310550D01*
D18*
X230200Y253500D03*
D19*
X255600Y253500D03*
X281000Y253500D03*
X306400Y253500D03*
X331800Y253500D03*
D13*
X174300Y337600D02*
X174300Y344400D01*
X174300Y337600D02*
X172500Y337600D01*
X172500Y344400D01*
X174300Y344400D01*
X174300Y341590D02*
X172500Y341590D01*
X183800Y344400D02*
X183800Y337600D01*
X182000Y337600D01*
X182000Y344400D01*
X183800Y344400D01*
X183800Y341590D02*
X182000Y341590D01*
X193300Y344400D02*
X193300Y337600D01*
X191500Y337600D01*
X191500Y344400D01*
X193300Y344400D01*
X193300Y341590D02*
X191500Y341590D01*
X193300Y365600D02*
X193300Y372400D01*
X193300Y365600D02*
X191500Y365600D01*
X191500Y372400D01*
X193300Y372400D01*
X193300Y369590D02*
X191500Y369590D01*
X174300Y372400D02*
X174300Y365600D01*
X172500Y365600D01*
X172500Y372400D01*
X174300Y372400D01*
X174300Y369590D02*
X172500Y369590D01*
D10*
X207575Y357925D02*
X207575Y355075D01*
X207575Y357925D02*
X210425Y357925D01*
X210425Y355075D01*
X207575Y355075D01*
X207575Y341925D02*
X207575Y339075D01*
X207575Y341925D02*
X210425Y341925D01*
X210425Y339075D01*
X207575Y339075D01*
X173925Y323575D02*
X171075Y323575D01*
X171075Y326425D01*
X173925Y326425D01*
X173925Y323575D01*
X187075Y323575D02*
X189925Y323575D01*
X187075Y323575D02*
X187075Y326425D01*
X189925Y326425D01*
X189925Y323575D01*
X173925Y383575D02*
X171075Y383575D01*
X171075Y386425D01*
X173925Y386425D01*
X173925Y383575D01*
X187075Y383575D02*
X189925Y383575D01*
X187075Y383575D02*
X187075Y386425D01*
X189925Y386425D01*
X189925Y383575D01*
D20*
X143500Y473000D03*
D21*
X143500Y453000D03*
X143500Y433000D03*
X123500Y473000D03*
X123500Y453000D03*
X123500Y433000D03*
D20*
X143500Y382500D03*
D21*
X143500Y362500D03*
X143500Y342500D03*
X123500Y382500D03*
X123500Y362500D03*
X123500Y342500D03*
D20*
X502500Y402500D03*
D21*
X502500Y382500D03*
X502500Y362500D03*
X482500Y402500D03*
X482500Y382500D03*
X482500Y362500D03*
X502500Y342500D03*
X482500Y342500D03*
D22*
X331800Y198700D03*
D23*
X306400Y198700D03*
X281000Y198700D03*
X255600Y198700D03*
X230200Y198700D03*
X331800Y173300D03*
X306400Y173300D03*
X281000Y173300D03*
X255600Y173300D03*
X230200Y173300D03*
D12*
X178400Y251900D02*
X178400Y256100D01*
X188600Y256100D01*
X188600Y251900D01*
X178400Y251900D01*
X178400Y295900D02*
X178400Y300100D01*
X188600Y300100D01*
X188600Y295900D01*
X178400Y295900D01*
D24*
X182000Y531300D03*
X182000Y556700D03*
X119000Y556700D03*
X119000Y531300D03*
D10*
X203575Y545575D02*
X203575Y548425D01*
X206425Y548425D01*
X206425Y545575D01*
X203575Y545575D01*
X203575Y532425D02*
X203575Y529575D01*
X203575Y532425D02*
X206425Y532425D01*
X206425Y529575D01*
X203575Y529575D01*
D25*
X430500Y87500D03*
X462500Y87500D03*
X494500Y87500D03*
D26*
X336000Y350000D02*
X328000Y350000D01*
D27*
X352500Y348500D03*
X369500Y348500D03*
X385000Y348500D03*
D26*
X347250Y348500D02*
X337500Y348500D01*
X347250Y348500D02*
X352500Y348500D01*
X337500Y348500D02*
X336000Y350000D01*
X352500Y348500D02*
X357750Y348500D01*
X364250Y348500D01*
X369500Y348500D01*
X374750Y348500D01*
X379750Y348500D01*
X385000Y348500D01*
X390250Y348500D01*
D27*
X402000Y348500D03*
D26*
X393500Y348500D02*
X390250Y348500D01*
X393500Y348500D02*
X396750Y348500D01*
X402000Y348500D01*
X404000Y346500D01*
X404000Y343646D01*
D27*
X404000Y334000D03*
D26*
X404000Y339250D02*
X404000Y343646D01*
X404000Y339250D02*
X404000Y334000D01*
X404000Y328750D01*
D27*
X404000Y311500D03*
D26*
X404000Y316750D02*
X404000Y328750D01*
X404000Y316750D02*
X404000Y311500D01*
X405000Y310500D02*
X405000Y306346D01*
X405000Y294654D01*
X405000Y290500D01*
X404000Y289500D01*
X405000Y310500D02*
X404000Y311500D01*
D27*
X404000Y289500D03*
D26*
X398750Y289500D01*
X392228Y289500D01*
X390728Y289500D01*
X387000Y289500D01*
X386978Y289478D01*
D27*
X386978Y289478D03*
D26*
X381728Y289478D01*
X374750Y289478D01*
X369522Y289478D01*
X369500Y289500D01*
D27*
X369500Y289500D03*
D26*
X364250Y289500D01*
D27*
X353000Y289500D03*
D26*
X361500Y289500D02*
X364250Y289500D01*
X361500Y289500D02*
X358250Y289500D01*
X353000Y289500D01*
D28*
X353000Y294750D01*
D26*
X377000Y299000D02*
X378500Y300500D01*
X377000Y299000D02*
X361500Y299000D01*
X361500Y289500D01*
X394500Y322500D02*
X394500Y339000D01*
X393500Y340000D01*
X393500Y348500D01*
X371000Y373500D02*
X370500Y374000D01*
X365774Y374000D01*
D27*
X371000Y373500D03*
D26*
X365774Y374000D02*
X361500Y374000D01*
X344500Y299000D02*
X344000Y298500D01*
X339750Y298500D01*
D27*
X334500Y298500D03*
D26*
X339750Y298500D01*
X274000Y280500D02*
X274000Y275750D01*
D27*
X274000Y270500D03*
D26*
X274000Y275750D01*
X226250Y299000D02*
X221500Y299000D01*
D27*
X231500Y299000D03*
D26*
X226250Y299000D01*
X175250Y445500D02*
X171500Y445500D01*
D27*
X180500Y445500D03*
D26*
X175250Y445500D01*
X179750Y503000D02*
X180500Y503000D01*
D27*
X174500Y503000D03*
D26*
X179750Y503000D01*
X188500Y389750D02*
X188500Y385000D01*
D27*
X188500Y395000D03*
D26*
X188500Y389750D01*
X137500Y311500D02*
X136750Y311500D01*
D27*
X131500Y311500D03*
D26*
X136750Y311500D01*
X188500Y325000D02*
X188500Y327500D01*
X182900Y333100D02*
X182900Y341000D01*
X182900Y333100D02*
X188500Y327500D01*
X188500Y325000D02*
X188500Y321250D01*
D27*
X188500Y316000D03*
D26*
X188500Y321250D01*
X202130Y410500D02*
X206500Y410500D01*
X202130Y410500D02*
X197000Y410500D01*
X196882Y410382D01*
D27*
X196882Y410382D03*
D26*
X263500Y439150D02*
X280350Y439150D01*
X282000Y437500D01*
X282000Y433250D01*
D27*
X282000Y428000D03*
D26*
X282000Y433250D01*
X219000Y480500D02*
X219000Y484750D01*
D27*
X219000Y490000D03*
D26*
X219000Y484750D01*
D29*
X238000Y320000D02*
X247692Y320000D01*
X249000Y320000D01*
X252000Y323000D01*
D27*
X252000Y323000D03*
D29*
X260500Y387500D02*
X260500Y403000D01*
D26*
X265500Y408000D01*
X265500Y412250D01*
D27*
X265500Y417500D03*
D26*
X265500Y412250D01*
X311500Y471000D02*
X327500Y471000D01*
X311500Y471000D02*
X311500Y467500D01*
X311500Y463250D01*
D27*
X311500Y458000D03*
D26*
X311500Y463250D01*
X356000Y497000D02*
X356000Y501250D01*
D27*
X356000Y506500D03*
D26*
X356000Y501250D01*
X371500Y462500D02*
X371500Y458250D01*
D27*
X371500Y453000D03*
D26*
X371500Y458250D01*
X327500Y434500D02*
X311500Y434500D01*
X311500Y431000D01*
X371500Y418500D02*
X371500Y414250D01*
D27*
X371500Y409000D03*
D26*
X371500Y414250D01*
X423500Y353000D02*
X439000Y353000D01*
X431000Y353000D02*
X423500Y353000D01*
X431000Y353000D02*
X431000Y350750D01*
D27*
X431000Y345500D03*
D26*
X431000Y350750D01*
X431500Y321500D02*
X439000Y321500D01*
X431500Y319250D02*
X431500Y314000D01*
D27*
X431500Y314000D03*
X431500Y282000D03*
D26*
X431500Y319250D02*
X431500Y321500D01*
X439000Y400500D02*
X423500Y400500D01*
X358000Y279000D02*
X358000Y274250D01*
D27*
X358000Y269000D03*
D26*
X358000Y274250D01*
X423500Y400500D02*
X423000Y401000D01*
X419250Y401000D01*
D27*
X414000Y401000D03*
D26*
X419250Y401000D01*
X305500Y297500D02*
X305500Y281500D01*
X306000Y281000D01*
X306000Y276750D01*
D27*
X306000Y271500D03*
D26*
X306000Y276750D01*
X204000Y380250D02*
X204000Y385000D01*
D27*
X204000Y375000D03*
D26*
X204000Y380250D01*
X361500Y374000D02*
X361500Y358000D01*
X311500Y426800D02*
X311500Y431000D01*
D27*
X311500Y421550D03*
D26*
X311500Y426800D01*
D29*
X319031Y350000D02*
X328000Y350000D01*
X319031Y350000D02*
X318036Y350000D01*
X315500Y350000D01*
D26*
X314000Y348500D01*
D27*
X314000Y348500D03*
D26*
X423500Y321500D02*
X431500Y321500D01*
X431500Y290000D02*
X423500Y290000D01*
X431500Y290000D02*
X439000Y290000D01*
X431500Y287250D02*
X431500Y282000D01*
X431500Y287250D02*
X431500Y290000D01*
X352071Y347063D02*
X347250Y348500D01*
X352071Y347063D02*
X352500Y348500D01*
X352071Y349937D02*
X347250Y348500D01*
X352071Y349937D02*
X352500Y348500D01*
X352929Y349937D02*
X357750Y348500D01*
X352929Y349937D02*
X352500Y348500D01*
X352929Y347063D02*
X357750Y348500D01*
X352929Y347063D02*
X352500Y348500D01*
X352071Y347063D02*
X347250Y348500D01*
X352071Y349937D01*
X352071Y347063D02*
X347250Y348500D01*
X352071Y347063D02*
X352500Y348500D01*
X352071Y349937D02*
X347250Y348500D01*
X352071Y349937D02*
X352500Y348500D01*
X352929Y349937D02*
X357750Y348500D01*
X352929Y347063D01*
X352929Y349937D02*
X357750Y348500D01*
X352929Y349937D02*
X352500Y348500D01*
X352929Y347063D02*
X357750Y348500D01*
X352929Y347063D02*
X352500Y348500D01*
X364250Y348500D02*
X369071Y347063D01*
X369500Y348500D01*
X369071Y349937D02*
X364250Y348500D01*
X369071Y349937D02*
X369500Y348500D01*
X369929Y349937D02*
X374750Y348500D01*
X369929Y349937D02*
X369500Y348500D01*
X369929Y347063D02*
X374750Y348500D01*
X369929Y347063D02*
X369500Y348500D01*
X369071Y347063D02*
X364250Y348500D01*
X369071Y349937D01*
X369071Y347063D02*
X364250Y348500D01*
X369071Y347063D02*
X369500Y348500D01*
X369071Y349937D02*
X364250Y348500D01*
X369071Y349937D02*
X369500Y348500D01*
X369929Y349937D02*
X374750Y348500D01*
X369929Y347063D01*
X369929Y349937D02*
X374750Y348500D01*
X369929Y349937D02*
X369500Y348500D01*
X369929Y347063D02*
X374750Y348500D01*
X369929Y347063D02*
X369500Y348500D01*
X379750Y348500D02*
X384571Y347063D01*
X385000Y348500D01*
X384571Y349937D02*
X379750Y348500D01*
X384571Y349937D02*
X385000Y348500D01*
X385429Y349937D02*
X390250Y348500D01*
X385429Y349937D02*
X385000Y348500D01*
X385429Y347063D02*
X390250Y348500D01*
X385429Y347063D02*
X385000Y348500D01*
X384571Y347063D02*
X379750Y348500D01*
X384571Y349937D01*
X384571Y347063D02*
X379750Y348500D01*
X384571Y347063D02*
X385000Y348500D01*
X384571Y349937D02*
X379750Y348500D01*
X384571Y349937D02*
X385000Y348500D01*
X385429Y349937D02*
X390250Y348500D01*
X385429Y347063D01*
X385429Y349937D02*
X390250Y348500D01*
X385429Y349937D02*
X385000Y348500D01*
X385429Y347063D02*
X390250Y348500D01*
X385429Y347063D02*
X385000Y348500D01*
X396750Y348500D02*
X401571Y347063D01*
X402000Y348500D01*
X401571Y349937D02*
X396750Y348500D01*
X401571Y349937D02*
X402000Y348500D01*
X401571Y347063D02*
X396750Y348500D01*
X401571Y349937D01*
X401571Y347063D02*
X396750Y348500D01*
X401571Y347063D02*
X402000Y348500D01*
X401571Y349937D02*
X396750Y348500D01*
X401571Y349937D02*
X402000Y348500D01*
X403492Y348651D02*
X404000Y343646D01*
X403492Y348651D02*
X402000Y348500D01*
X400834Y347556D02*
X404000Y343646D01*
X400834Y347556D02*
X402000Y348500D01*
X404000Y339250D02*
X402563Y334429D01*
X404000Y334000D01*
X405437Y334429D02*
X404000Y339250D01*
X405437Y334429D02*
X404000Y334000D01*
X405437Y333571D02*
X404000Y328750D01*
X405437Y333571D02*
X404000Y334000D01*
X402563Y333571D02*
X404000Y328750D01*
X402563Y333571D02*
X404000Y334000D01*
X402563Y334429D02*
X404000Y339250D01*
X405437Y334429D01*
X402563Y334429D02*
X404000Y339250D01*
X402563Y334429D02*
X404000Y334000D01*
X405437Y334429D02*
X404000Y339250D01*
X405437Y334429D02*
X404000Y334000D01*
X405437Y333571D02*
X404000Y328750D01*
X402563Y333571D01*
X405437Y333571D02*
X404000Y328750D01*
X405437Y333571D02*
X404000Y334000D01*
X402563Y333571D02*
X404000Y328750D01*
X402563Y333571D02*
X404000Y334000D01*
X404000Y316750D02*
X402563Y311929D01*
X404000Y311500D01*
X405437Y311929D02*
X404000Y316750D01*
X405437Y311929D02*
X404000Y311500D01*
X402563Y311929D02*
X404000Y316750D01*
X405437Y311929D01*
X402563Y311929D02*
X404000Y316750D01*
X402563Y311929D02*
X404000Y311500D01*
X405437Y311929D02*
X404000Y316750D01*
X405437Y311929D02*
X404000Y311500D01*
X405493Y311353D02*
X405000Y306346D01*
X405493Y311353D02*
X404000Y311500D01*
X402670Y310805D02*
X405000Y306346D01*
X402670Y310805D02*
X404000Y311500D01*
X398750Y289500D02*
X403571Y288063D01*
X404000Y289500D01*
X403571Y290937D02*
X398750Y289500D01*
X403571Y290937D02*
X404000Y289500D01*
X402670Y290195D02*
X405000Y294654D01*
X402670Y290195D02*
X404000Y289500D01*
X405493Y289647D02*
X405000Y294654D01*
X405493Y289647D02*
X404000Y289500D01*
X403571Y288063D02*
X398750Y289500D01*
X403571Y290937D01*
X403571Y288063D02*
X398750Y289500D01*
X403571Y288063D02*
X404000Y289500D01*
X403571Y290937D02*
X398750Y289500D01*
X403571Y290937D02*
X404000Y289500D01*
X386549Y288040D02*
X381728Y289478D01*
X386549Y288040D02*
X386978Y289478D01*
X386549Y290915D02*
X381728Y289478D01*
X386549Y290915D02*
X386978Y289478D01*
X387281Y290512D02*
X390728Y289500D01*
X387281Y290512D02*
X386978Y289478D01*
X387412Y288042D02*
X392228Y289500D01*
X387412Y288042D02*
X386978Y289478D01*
X386549Y288040D02*
X381728Y289478D01*
X386549Y290915D01*
X386549Y288040D02*
X381728Y289478D01*
X386549Y288040D02*
X386978Y289478D01*
X386549Y290915D02*
X381728Y289478D01*
X386549Y290915D02*
X386978Y289478D01*
X369071Y288063D02*
X364250Y289500D01*
X369071Y288063D02*
X369500Y289500D01*
X369071Y290937D02*
X364250Y289500D01*
X369071Y290937D02*
X369500Y289500D01*
X369935Y290936D02*
X374750Y289478D01*
X369935Y290936D02*
X369500Y289500D01*
X369922Y288061D02*
X374750Y289478D01*
X369922Y288061D02*
X369500Y289500D01*
X369071Y288063D02*
X364250Y289500D01*
X369071Y290937D01*
X369071Y288063D02*
X364250Y289500D01*
X369071Y288063D02*
X369500Y289500D01*
X369071Y290937D02*
X364250Y289500D01*
X369071Y290937D02*
X369500Y289500D01*
X358250Y289500D02*
X353429Y290937D01*
X353000Y289500D01*
X353429Y288063D02*
X358250Y289500D01*
X353429Y288063D02*
X353000Y289500D01*
D28*
X351151Y290262D02*
X353000Y294750D01*
X351151Y290262D02*
X351151Y290262D01*
X354849Y290262D02*
X353000Y294750D01*
X354849Y290262D02*
X354849Y290262D01*
D26*
X353429Y290937D02*
X358250Y289500D01*
X353429Y288063D01*
X353429Y290937D02*
X358250Y289500D01*
X353429Y290937D02*
X353000Y289500D01*
X353429Y288063D02*
X358250Y289500D01*
X353429Y288063D02*
X353000Y289500D01*
D28*
X351151Y290262D02*
X353000Y294750D01*
X351151Y290262D02*
X353000Y289500D01*
X354849Y290262D02*
X353000Y294750D01*
X354849Y290262D02*
X353000Y289500D01*
X351151Y290262D02*
X353000Y294750D01*
X351151Y290262D02*
X353000Y289500D01*
X354849Y290262D02*
X353000Y294750D01*
X354849Y290262D02*
X353000Y289500D01*
D26*
X370436Y372110D02*
X365774Y374000D01*
X370436Y372110D02*
X371000Y373500D01*
X370710Y374972D02*
X365774Y374000D01*
X370710Y374972D02*
X371000Y373500D01*
X339750Y298500D02*
X334929Y299937D01*
X334500Y298500D01*
X334929Y297063D02*
X339750Y298500D01*
X334929Y297063D02*
X334500Y298500D01*
X334929Y299937D02*
X339750Y298500D01*
X334929Y297063D01*
X334929Y299937D02*
X339750Y298500D01*
X334929Y299937D02*
X334500Y298500D01*
X334929Y297063D02*
X339750Y298500D01*
X334929Y297063D02*
X334500Y298500D01*
X274000Y275750D02*
X272563Y270929D01*
X274000Y270500D01*
X275437Y270929D02*
X274000Y275750D01*
X275437Y270929D02*
X274000Y270500D01*
X272563Y270929D02*
X274000Y275750D01*
X275437Y270929D01*
X272563Y270929D02*
X274000Y275750D01*
X272563Y270929D02*
X274000Y270500D01*
X275437Y270929D02*
X274000Y275750D01*
X275437Y270929D02*
X274000Y270500D01*
X231071Y297563D02*
X226250Y299000D01*
X231071Y297563D02*
X231500Y299000D01*
X231071Y300437D02*
X226250Y299000D01*
X231071Y300437D02*
X231500Y299000D01*
X231071Y297563D02*
X226250Y299000D01*
X231071Y300437D01*
X231071Y297563D02*
X226250Y299000D01*
X231071Y297563D02*
X231500Y299000D01*
X231071Y300437D02*
X226250Y299000D01*
X231071Y300437D02*
X231500Y299000D01*
X180071Y444063D02*
X175250Y445500D01*
X180071Y444063D02*
X180500Y445500D01*
X180071Y446937D02*
X175250Y445500D01*
X180071Y446937D02*
X180500Y445500D01*
X180071Y444063D02*
X175250Y445500D01*
X180071Y446937D01*
X180071Y444063D02*
X175250Y445500D01*
X180071Y444063D02*
X180500Y445500D01*
X180071Y446937D02*
X175250Y445500D01*
X180071Y446937D02*
X180500Y445500D01*
X179750Y503000D02*
X174929Y504437D01*
X174500Y503000D01*
X174929Y501563D02*
X179750Y503000D01*
X174929Y501563D02*
X174500Y503000D01*
X174929Y504437D02*
X179750Y503000D01*
X174929Y501563D01*
X174929Y504437D02*
X179750Y503000D01*
X174929Y504437D02*
X174500Y503000D01*
X174929Y501563D02*
X179750Y503000D01*
X174929Y501563D02*
X174500Y503000D01*
X189937Y394571D02*
X188500Y389750D01*
X189937Y394571D02*
X188500Y395000D01*
X187063Y394571D02*
X188500Y389750D01*
X187063Y394571D02*
X188500Y395000D01*
X189937Y394571D02*
X188500Y389750D01*
X187063Y394571D01*
X189937Y394571D02*
X188500Y389750D01*
X189937Y394571D02*
X188500Y395000D01*
X187063Y394571D02*
X188500Y389750D01*
X187063Y394571D02*
X188500Y395000D01*
X136750Y311500D02*
X131929Y312937D01*
X131500Y311500D01*
X131929Y310063D02*
X136750Y311500D01*
X131929Y310063D02*
X131500Y311500D01*
X131929Y312937D02*
X136750Y311500D01*
X131929Y310063D01*
X131929Y312937D02*
X136750Y311500D01*
X131929Y312937D02*
X131500Y311500D01*
X131929Y310063D02*
X136750Y311500D01*
X131929Y310063D02*
X131500Y311500D01*
X187063Y316429D02*
X188500Y321250D01*
X187063Y316429D02*
X188500Y316000D01*
X189937Y316429D02*
X188500Y321250D01*
X189937Y316429D02*
X188500Y316000D01*
X187063Y316429D02*
X188500Y321250D01*
X189937Y316429D01*
X187063Y316429D02*
X188500Y321250D01*
X187063Y316429D02*
X188500Y316000D01*
X189937Y316429D02*
X188500Y321250D01*
X189937Y316429D02*
X188500Y316000D01*
X202130Y410500D02*
X197278Y411828D01*
X196882Y410382D01*
X197342Y408954D02*
X202130Y410500D01*
X197342Y408954D02*
X196882Y410382D01*
X280563Y428429D02*
X282000Y433250D01*
X280563Y428429D02*
X282000Y428000D01*
X283437Y428429D02*
X282000Y433250D01*
X283437Y428429D02*
X282000Y428000D01*
X280563Y428429D02*
X282000Y433250D01*
X283437Y428429D01*
X280563Y428429D02*
X282000Y433250D01*
X280563Y428429D02*
X282000Y428000D01*
X283437Y428429D02*
X282000Y433250D01*
X283437Y428429D02*
X282000Y428000D01*
X219000Y484750D02*
X220437Y489571D01*
X219000Y490000D01*
X217563Y489571D02*
X219000Y484750D01*
X217563Y489571D02*
X219000Y490000D01*
X220437Y489571D02*
X219000Y484750D01*
X217563Y489571D01*
X220437Y489571D02*
X219000Y484750D01*
X220437Y489571D02*
X219000Y490000D01*
X217563Y489571D02*
X219000Y484750D01*
X217563Y489571D02*
X219000Y490000D01*
D29*
X252471Y321523D02*
X247692Y320000D01*
X252471Y321523D02*
X252000Y323000D01*
X250778Y323954D02*
X247692Y320000D01*
X250778Y323954D02*
X252000Y323000D01*
D26*
X265500Y412250D02*
X266937Y417071D01*
X265500Y417500D01*
X264063Y417071D02*
X265500Y412250D01*
X264063Y417071D02*
X265500Y417500D01*
X266937Y417071D02*
X265500Y412250D01*
X264063Y417071D01*
X266937Y417071D02*
X265500Y412250D01*
X266937Y417071D02*
X265500Y417500D01*
X264063Y417071D02*
X265500Y412250D01*
X264063Y417071D02*
X265500Y417500D01*
X310063Y458429D02*
X311500Y463250D01*
X310063Y458429D02*
X311500Y458000D01*
X312937Y458429D02*
X311500Y463250D01*
X312937Y458429D02*
X311500Y458000D01*
X310063Y458429D02*
X311500Y463250D01*
X312937Y458429D01*
X310063Y458429D02*
X311500Y463250D01*
X310063Y458429D02*
X311500Y458000D01*
X312937Y458429D02*
X311500Y463250D01*
X312937Y458429D02*
X311500Y458000D01*
X356000Y501250D02*
X357437Y506071D01*
X356000Y506500D01*
X354563Y506071D02*
X356000Y501250D01*
X354563Y506071D02*
X356000Y506500D01*
X357437Y506071D02*
X356000Y501250D01*
X354563Y506071D01*
X357437Y506071D02*
X356000Y501250D01*
X357437Y506071D02*
X356000Y506500D01*
X354563Y506071D02*
X356000Y501250D01*
X354563Y506071D02*
X356000Y506500D01*
X371500Y458250D02*
X370063Y453429D01*
X371500Y453000D01*
X372937Y453429D02*
X371500Y458250D01*
X372937Y453429D02*
X371500Y453000D01*
X370063Y453429D02*
X371500Y458250D01*
X372937Y453429D01*
X370063Y453429D02*
X371500Y458250D01*
X370063Y453429D02*
X371500Y453000D01*
X372937Y453429D02*
X371500Y458250D01*
X372937Y453429D02*
X371500Y453000D01*
X371500Y414250D02*
X370063Y409429D01*
X371500Y409000D01*
X372937Y409429D02*
X371500Y414250D01*
X372937Y409429D02*
X371500Y409000D01*
X370063Y409429D02*
X371500Y414250D01*
X372937Y409429D01*
X370063Y409429D02*
X371500Y414250D01*
X370063Y409429D02*
X371500Y409000D01*
X372937Y409429D02*
X371500Y414250D01*
X372937Y409429D02*
X371500Y409000D01*
X431000Y350750D02*
X429563Y345929D01*
X431000Y345500D01*
X432437Y345929D02*
X431000Y350750D01*
X432437Y345929D02*
X431000Y345500D01*
X429563Y345929D02*
X431000Y350750D01*
X432437Y345929D01*
X429563Y345929D02*
X431000Y350750D01*
X429563Y345929D02*
X431000Y345500D01*
X432437Y345929D02*
X431000Y350750D01*
X432437Y345929D02*
X431000Y345500D01*
X431500Y319250D02*
X430063Y314429D01*
X431500Y314000D01*
X432937Y314429D02*
X431500Y319250D01*
X432937Y314429D02*
X431500Y314000D01*
X430063Y314429D02*
X431500Y319250D01*
X432937Y314429D01*
X430063Y314429D02*
X431500Y319250D01*
X430063Y314429D02*
X431500Y314000D01*
X432937Y314429D02*
X431500Y319250D01*
X432937Y314429D02*
X431500Y314000D01*
X431500Y287250D02*
X430063Y282429D01*
X431500Y282000D01*
X432937Y282429D02*
X431500Y287250D01*
X432937Y282429D02*
X431500Y282000D01*
X430063Y282429D02*
X431500Y287250D01*
X432937Y282429D01*
X430063Y282429D02*
X431500Y287250D01*
X430063Y282429D02*
X431500Y282000D01*
X432937Y282429D02*
X431500Y287250D01*
X432937Y282429D02*
X431500Y282000D01*
X358000Y274250D02*
X356563Y269429D01*
X358000Y269000D01*
X359437Y269429D02*
X358000Y274250D01*
X359437Y269429D02*
X358000Y269000D01*
X356563Y269429D02*
X358000Y274250D01*
X359437Y269429D01*
X356563Y269429D02*
X358000Y274250D01*
X356563Y269429D02*
X358000Y269000D01*
X359437Y269429D02*
X358000Y274250D01*
X359437Y269429D02*
X358000Y269000D01*
X414429Y402437D02*
X419250Y401000D01*
X414429Y402437D02*
X414000Y401000D01*
X414429Y399563D02*
X419250Y401000D01*
X414429Y399563D02*
X414000Y401000D01*
X414429Y402437D02*
X419250Y401000D01*
X414429Y399563D01*
X414429Y402437D02*
X419250Y401000D01*
X414429Y402437D02*
X414000Y401000D01*
X414429Y399563D02*
X419250Y401000D01*
X414429Y399563D02*
X414000Y401000D01*
X306000Y276750D02*
X304563Y271929D01*
X306000Y271500D01*
X307437Y271929D02*
X306000Y276750D01*
X307437Y271929D02*
X306000Y271500D01*
X304563Y271929D02*
X306000Y276750D01*
X307437Y271929D01*
X304563Y271929D02*
X306000Y276750D01*
X304563Y271929D02*
X306000Y271500D01*
X307437Y271929D02*
X306000Y276750D01*
X307437Y271929D02*
X306000Y271500D01*
X202563Y375429D02*
X204000Y380250D01*
X202563Y375429D02*
X204000Y375000D01*
X205437Y375429D02*
X204000Y380250D01*
X205437Y375429D02*
X204000Y375000D01*
X202563Y375429D02*
X204000Y380250D01*
X205437Y375429D01*
X202563Y375429D02*
X204000Y380250D01*
X202563Y375429D02*
X204000Y375000D01*
X205437Y375429D02*
X204000Y380250D01*
X205437Y375429D02*
X204000Y375000D01*
X310063Y421979D02*
X311500Y426800D01*
X310063Y421979D02*
X311500Y421550D01*
X312937Y421979D02*
X311500Y426800D01*
X312937Y421979D02*
X311500Y421550D01*
X310063Y421979D02*
X311500Y426800D01*
X312937Y421979D01*
X310063Y421979D02*
X311500Y426800D01*
X310063Y421979D02*
X311500Y421550D01*
X312937Y421979D02*
X311500Y426800D01*
X312937Y421979D02*
X311500Y421550D01*
D29*
X314015Y350050D02*
X319031Y350000D01*
X314015Y350050D02*
X314000Y348500D01*
X314554Y347671D02*
X318036Y350000D01*
X314554Y347671D02*
X314000Y348500D01*
D28*
X263500Y426450D02*
X246450Y426450D01*
X240500Y420500D01*
X248500Y387550D02*
X248500Y386550D01*
X248500Y387550D02*
X245322Y390729D01*
D27*
X248500Y386550D03*
D28*
X245322Y390729D02*
X240500Y395550D01*
X240500Y420500D01*
X245322Y390729D02*
X246567Y386037D01*
X248500Y386550D01*
X249510Y388276D02*
X245322Y390729D01*
X249510Y388276D02*
X248500Y386550D01*
D30*
X300500Y313500D02*
X300500Y297500D01*
D31*
X300500Y313500D03*
D26*
X250500Y480500D02*
X235000Y480500D01*
D27*
X234950Y391813D03*
D28*
X235000Y391863D01*
X235000Y397063D01*
X235000Y480500D01*
X235000Y397063D02*
X233108Y392593D01*
X234950Y391813D01*
X236806Y392557D02*
X235000Y397063D01*
X236806Y392557D02*
X234950Y391813D01*
D31*
X292911Y311589D03*
D32*
X295500Y309000D01*
X295500Y297500D01*
D26*
X189500Y489000D02*
X189500Y503000D01*
D28*
X189500Y489000D02*
X190000Y488500D01*
X215000Y471500D02*
X224000Y471500D01*
X230500Y465000D01*
X198000Y488500D02*
X190000Y488500D01*
X198000Y488500D02*
X215000Y471500D01*
X230500Y465000D02*
X230500Y405516D01*
X230500Y402050D01*
X238000Y373223D02*
X238000Y370000D01*
X238000Y373223D02*
X238000Y377956D01*
X237506Y378450D01*
D27*
X237506Y378450D03*
X228950Y400500D03*
D28*
X230500Y402050D01*
X239419Y377865D02*
X238000Y373223D01*
X239419Y377865D02*
X237506Y378450D01*
X235737Y377517D02*
X238000Y373223D01*
X235737Y377517D02*
X237506Y378450D01*
X227408Y401774D02*
X230500Y405516D01*
X227408Y401774D02*
X228950Y400500D01*
X230942Y400682D02*
X230500Y405516D01*
X230942Y400682D02*
X228950Y400500D01*
D26*
X439000Y384500D02*
X454500Y384500D01*
X439000Y384500D02*
X423500Y384500D01*
D28*
X421350Y382350D01*
X322150Y382350D01*
X317000Y387500D01*
X310500Y387500D01*
D26*
X439000Y369000D02*
X454500Y369000D01*
X439000Y369000D02*
X423500Y369000D01*
D28*
X313000Y370000D02*
X311308Y368308D01*
D27*
X311308Y368308D03*
D28*
X319056Y370000D02*
X328000Y370000D01*
X319056Y370000D02*
X319006Y369950D01*
X316294Y369950D01*
X313994Y369950D01*
X313944Y370000D01*
X313000Y370000D01*
D27*
X384000Y376300D03*
D26*
X411300Y369000D02*
X423500Y369000D01*
X411300Y369000D02*
X404000Y376300D01*
X389250Y376300D01*
X384000Y376300D01*
D28*
X316294Y369950D02*
X311453Y370303D01*
X311308Y368308D01*
X312610Y366790D02*
X316294Y369950D01*
X312610Y366790D02*
X311308Y368308D01*
D26*
X384429Y377737D02*
X389250Y376300D01*
X384429Y377737D02*
X384000Y376300D01*
X384429Y374863D02*
X389250Y376300D01*
X384429Y374863D02*
X384000Y376300D01*
X384429Y377737D02*
X389250Y376300D01*
X384429Y374863D01*
X384429Y377737D02*
X389250Y376300D01*
X384429Y377737D02*
X384000Y376300D01*
X384429Y374863D02*
X389250Y376300D01*
X384429Y374863D02*
X384000Y376300D01*
X439000Y337500D02*
X454500Y337500D01*
D28*
X333360Y365000D02*
X328000Y365000D01*
X333360Y365000D02*
X337806Y365000D01*
X338556Y365750D01*
D27*
X338556Y365750D03*
X369000Y365500D03*
D28*
X398000Y369000D02*
X415317Y351683D01*
X415317Y338683D01*
X423500Y337500D02*
X439000Y337500D01*
X416500Y337500D02*
X415317Y338683D01*
X374250Y365500D02*
X369000Y365500D01*
X374250Y365500D02*
X374500Y365500D01*
X378000Y369000D02*
X398000Y369000D01*
X378000Y369000D02*
X374500Y365500D01*
D26*
X416500Y337500D02*
X423500Y337500D01*
D28*
X338066Y363811D02*
X333360Y365000D01*
X338066Y363811D02*
X338556Y365750D01*
X337538Y367471D02*
X333360Y365000D01*
X337538Y367471D02*
X338556Y365750D01*
X369762Y367349D02*
X374250Y365500D01*
X369762Y367349D02*
X369762Y367349D01*
X369762Y363651D02*
X374250Y365500D01*
X369762Y363651D02*
X369762Y363651D01*
X369762Y367349D02*
X374250Y365500D01*
X369762Y367349D02*
X369000Y365500D01*
X369762Y363651D02*
X374250Y365500D01*
X369762Y363651D02*
X369000Y365500D01*
X369762Y367349D02*
X374250Y365500D01*
X369762Y367349D02*
X369000Y365500D01*
X369762Y363651D02*
X374250Y365500D01*
X369762Y363651D02*
X369000Y365500D01*
D26*
X439000Y306000D02*
X454500Y306000D01*
D28*
X328000Y360000D02*
X319308Y360000D01*
X317500Y360000D01*
X315000Y357500D01*
X315000Y357000D01*
D27*
X315000Y357000D03*
X382050Y357950D03*
D28*
X423500Y306000D02*
X439000Y306000D01*
X417500Y306000D02*
X411000Y312500D01*
X411000Y349556D01*
X402606Y357950D01*
X387300Y357950D01*
X382050Y357950D01*
D26*
X417500Y306000D02*
X423500Y306000D01*
D28*
X319308Y360000D02*
X314569Y358953D01*
X315000Y357000D01*
X316682Y355918D02*
X319308Y360000D01*
X316682Y355918D02*
X315000Y357000D01*
X382812Y359799D02*
X387300Y357950D01*
X382812Y359799D02*
X382812Y359799D01*
X382812Y356101D02*
X387300Y357950D01*
X382812Y356101D02*
X382812Y356101D01*
X382812Y359799D02*
X387300Y357950D01*
X382812Y359799D02*
X382050Y357950D01*
X382812Y356101D02*
X387300Y357950D01*
X382812Y356101D02*
X382050Y357950D01*
X382812Y359799D02*
X387300Y357950D01*
X382812Y359799D02*
X382050Y357950D01*
X382812Y356101D02*
X387300Y357950D01*
X382812Y356101D02*
X382050Y357950D01*
D26*
X149157Y447343D02*
X143500Y453000D01*
X149157Y447343D02*
X156500Y440000D01*
X160500Y436000D01*
X191500Y436000D01*
X156500Y440000D02*
X156500Y375500D01*
X149157Y368157D01*
X143500Y362500D01*
X191500Y436000D02*
X197500Y436000D01*
X200650Y439150D02*
X209500Y439150D01*
X200650Y439150D02*
X197500Y436000D01*
X149157Y458657D02*
X143500Y453000D01*
X148998Y453150D02*
X149157Y447343D01*
X148998Y453150D02*
X143500Y453000D01*
X143350Y447502D02*
X149157Y447343D01*
X143350Y447502D02*
X143500Y453000D01*
X143350Y458498D02*
X149157Y458657D01*
X143350Y458498D02*
X143500Y453000D01*
X149143Y458143D02*
X149157Y458657D01*
X149143Y458143D02*
X148998Y452850D01*
X143500Y453000D01*
X143350Y367998D02*
X149157Y368157D01*
X143350Y367998D02*
X143500Y362500D01*
X148998Y362350D02*
X149157Y368157D01*
X148998Y362350D02*
X143500Y362500D01*
X154000Y463000D02*
X179000Y463000D01*
X154000Y463000D02*
X149143Y458143D01*
X179000Y463000D02*
X189500Y473500D01*
X191500Y455000D02*
X161500Y455000D01*
X161212Y454712D01*
D27*
X157500Y451000D03*
D26*
X161212Y454712D01*
X149157Y348157D02*
X143500Y342500D01*
X149157Y348157D02*
X161550Y360550D01*
X161550Y427500D02*
X163050Y429000D01*
D27*
X163050Y429000D03*
D26*
X161550Y423969D02*
X161550Y360550D01*
X161550Y423969D02*
X161550Y427500D01*
X191500Y455000D02*
X197500Y455000D01*
X200650Y451850D02*
X209500Y451850D01*
X200650Y451850D02*
X197500Y455000D01*
X161212Y454712D02*
X156787Y452319D01*
X157500Y451000D01*
X158819Y450287D02*
X161212Y454712D01*
X158819Y450287D02*
X157500Y451000D01*
X164305Y428179D02*
X161550Y423969D01*
X164305Y428179D02*
X163050Y429000D01*
X161550Y429000D02*
X161550Y423969D01*
X161550Y429000D02*
X163050Y429000D01*
X149157Y348157D02*
X143350Y347998D01*
X143500Y342500D01*
X148998Y342350D02*
X149157Y348157D01*
X148998Y342350D02*
X143500Y342500D01*
D31*
X119000Y549000D03*
D28*
X119000Y556700D01*
D26*
X475500Y382500D02*
X482500Y382500D01*
X467000Y374000D02*
X467000Y358000D01*
X462000Y353000D01*
X454500Y353000D01*
X474556Y381556D02*
X475500Y382500D01*
X474556Y381556D02*
X467000Y374000D01*
X474556Y381556D02*
X479216Y378088D01*
X482500Y382500D01*
X478274Y386020D02*
X474556Y381556D01*
X478274Y386020D02*
X482500Y382500D01*
X482500Y362500D02*
X476843Y356843D01*
X470000Y350000D01*
X463000Y321500D02*
X454500Y321500D01*
X470000Y328500D02*
X470000Y350000D01*
X470000Y328500D02*
X463000Y321500D01*
X476843Y356843D02*
X482650Y357002D01*
X482500Y362500D01*
X477002Y362650D02*
X476843Y356843D01*
X477002Y362650D02*
X482500Y362500D01*
X482500Y342500D02*
X482500Y334500D01*
X482500Y308500D01*
X464000Y290000D01*
X454500Y290000D01*
X482500Y334500D02*
X486494Y338719D01*
X482500Y342500D01*
X478506Y338719D02*
X482500Y334500D01*
X478506Y338719D02*
X482500Y342500D01*
X434500Y486000D02*
X433000Y487500D01*
X419500Y487500D01*
X421000Y451000D02*
X434500Y451000D01*
X421000Y451000D02*
X419500Y452500D01*
X421000Y416000D02*
X434500Y416000D01*
X421000Y416000D02*
X419500Y417500D01*
X394500Y507000D02*
X394500Y516500D01*
X396000Y518000D01*
X442500Y518000D02*
X445000Y515500D01*
X445000Y486000D01*
X445000Y450000D01*
X445000Y416500D01*
X444500Y416000D01*
X434500Y416000D01*
X442500Y518000D02*
X396000Y518000D01*
X434500Y486000D02*
X445000Y486000D01*
X444000Y451000D02*
X445000Y450000D01*
X444000Y451000D02*
X434500Y451000D01*
X445000Y416500D02*
X454500Y407000D01*
X454500Y400500D01*
X355500Y471000D02*
X345000Y471000D01*
X340000Y476000D02*
X340000Y497000D01*
X340000Y476000D02*
X345000Y471000D01*
X336500Y425000D02*
X340000Y421500D01*
X336500Y425000D02*
X327500Y425000D01*
X340000Y421500D02*
X340000Y408500D01*
X327500Y444000D02*
X311500Y444000D01*
X311500Y447000D01*
D28*
X311000Y446500D02*
X303600Y446500D01*
X311000Y446500D02*
X311500Y447000D01*
X303600Y446500D02*
X303600Y416872D01*
X285114Y398386D01*
X282948Y396221D01*
X280500Y393772D02*
X280500Y387500D01*
X280500Y393772D02*
X282948Y396221D01*
D26*
X454500Y425500D02*
X507500Y425500D01*
X517000Y416000D02*
X517000Y386500D01*
X513000Y382500D01*
X510500Y382500D01*
X502500Y382500D01*
X517000Y416000D02*
X507500Y425500D01*
X506281Y386494D02*
X510500Y382500D01*
X506281Y386494D02*
X502500Y382500D01*
X506281Y378506D02*
X510500Y382500D01*
X506281Y378506D02*
X502500Y382500D01*
X482000Y460500D02*
X454500Y460500D01*
X523500Y419000D02*
X523500Y376000D01*
X510485Y362985D01*
X510000Y362500D01*
X502500Y362500D01*
X523500Y419000D02*
X482000Y460500D01*
X506032Y366716D02*
X510485Y362985D01*
X506032Y366716D02*
X502500Y362500D01*
X506517Y358743D02*
X510485Y362985D01*
X506517Y358743D02*
X502500Y362500D01*
X462500Y495500D02*
X454500Y495500D01*
X529500Y428500D02*
X529500Y361500D01*
X510500Y342500D01*
X502500Y342500D01*
X529500Y428500D02*
X462500Y495500D01*
X506281Y346494D02*
X510500Y342500D01*
X506281Y346494D02*
X502500Y342500D01*
X506281Y338506D02*
X510500Y342500D01*
X506281Y338506D02*
X502500Y342500D01*
X355500Y461500D02*
X347000Y461500D01*
X344000Y447500D02*
X347500Y444000D01*
X355500Y444000D01*
X344000Y458500D02*
X347000Y461500D01*
X344000Y458500D02*
X344000Y447500D01*
X355500Y444000D02*
X376000Y444000D01*
X385000Y435000D02*
X392000Y435000D01*
X385000Y435000D02*
X376000Y444000D01*
D28*
X291000Y388000D02*
X290500Y387500D01*
X291000Y388000D02*
X291000Y397683D01*
X305817Y412500D01*
D27*
X333450Y416950D03*
X343132Y437632D03*
D28*
X343132Y439632D01*
X345707Y442207D01*
X347500Y444000D01*
X333450Y416950D02*
X329738Y413238D01*
X329000Y412500D01*
X305817Y412500D01*
X329738Y413238D02*
X334219Y415104D01*
X333450Y416950D01*
X331604Y417719D02*
X329738Y413238D01*
X331604Y417719D02*
X333450Y416950D01*
X341894Y439203D02*
X345707Y442207D01*
X341894Y439203D02*
X343132Y437632D01*
X345117Y437389D02*
X345707Y442207D01*
X345117Y437389D02*
X343132Y437632D01*
D26*
X419500Y433500D02*
X433000Y433500D01*
X434500Y435000D01*
D28*
X419500Y433500D02*
X412500Y433500D01*
X409550Y430550D01*
X409550Y410822D01*
X312872Y398400D02*
X308900Y398400D01*
X324872Y386400D02*
X385128Y386400D01*
X324872Y386400D02*
X312872Y398400D01*
X385128Y386400D02*
X409550Y410822D01*
X305500Y395000D02*
X305500Y387500D01*
X305500Y395000D02*
X308900Y398400D01*
D26*
X419500Y468500D02*
X433000Y468500D01*
X434500Y470000D01*
D28*
X419500Y468500D02*
X413000Y468500D01*
X411600Y467100D01*
X411600Y442372D01*
X404500Y435272D01*
X404500Y412500D01*
X382450Y390450D01*
X326822Y390450D01*
X314822Y402450D02*
X307222Y402450D01*
X314822Y402450D02*
X326822Y390450D01*
X307222Y402450D02*
X300500Y395728D01*
X300500Y387500D01*
D26*
X419500Y503500D02*
X433000Y503500D01*
X434500Y505000D01*
D28*
X419500Y503500D02*
X413000Y503500D01*
X404000Y494500D02*
X404000Y471943D01*
X407550Y468393D01*
X407550Y445550D01*
X404000Y494500D02*
X413000Y503500D01*
X407550Y445550D02*
X399800Y437800D01*
X399800Y414434D01*
X328500Y394500D02*
X316500Y406500D01*
X379866Y394500D02*
X399800Y414434D01*
X379866Y394500D02*
X328500Y394500D01*
X305545Y406500D02*
X295500Y396455D01*
X295500Y387500D01*
X305545Y406500D02*
X316500Y406500D01*
D26*
X327500Y461500D02*
X336500Y461500D01*
X336500Y447290D01*
X336550Y447240D01*
X336550Y434950D01*
X346500Y425000D02*
X355500Y425000D01*
X346500Y425000D02*
X336550Y434950D01*
D33*
X123500Y382500D02*
X117843Y388157D01*
X111000Y395000D01*
X111000Y460500D02*
X117843Y467343D01*
X123500Y473000D01*
X111000Y460500D02*
X111000Y395000D01*
X123500Y382500D02*
X117843Y376843D01*
X99000Y358000D01*
X99000Y307500D02*
X122000Y284500D01*
X154500Y284500D01*
X166500Y296500D02*
X166500Y299500D01*
X166500Y312000D01*
X172500Y318000D01*
X172500Y325000D01*
X99000Y307500D02*
X99000Y358000D01*
X166500Y296500D02*
X154500Y284500D01*
X168000Y298000D02*
X183500Y298000D01*
X168000Y298000D02*
X166500Y299500D01*
D26*
X173400Y325900D02*
X173400Y341000D01*
X173400Y325900D02*
X172500Y325000D01*
X179000Y356500D02*
X209000Y356500D01*
X173400Y350900D02*
X173400Y341000D01*
X173400Y350900D02*
X179000Y356500D01*
X263500Y451850D02*
X280350Y451850D01*
X282000Y453500D01*
D33*
X111000Y460500D02*
X108000Y460500D01*
X100500Y468000D01*
X100500Y489500D01*
X235500Y500500D02*
X245000Y500500D01*
X122500Y511500D02*
X100500Y489500D01*
X122500Y511500D02*
X224500Y511500D01*
X227250Y508750D01*
X235500Y500500D01*
X235000Y500000D01*
X235000Y490500D01*
D26*
X236500Y489000D01*
X275000Y489000D02*
X282000Y482000D01*
X282000Y453500D01*
X275000Y489000D02*
X236500Y489000D01*
D33*
X227250Y508750D02*
X227250Y526250D01*
X243500Y542500D01*
X303000Y542500D01*
X311500Y534000D01*
X311500Y483500D01*
D26*
X312000Y480500D02*
X327500Y480500D01*
X312000Y480500D02*
X311500Y481000D01*
X311500Y483500D01*
D33*
X124341Y468579D02*
X117843Y467343D01*
X124341Y468579D02*
X123500Y473000D01*
X119079Y473841D02*
X117843Y467343D01*
X119079Y473841D02*
X123500Y473000D01*
X117843Y388157D02*
X119079Y381659D01*
X123500Y382500D01*
X124341Y386921D02*
X117843Y388157D01*
X124341Y386921D02*
X123500Y382500D01*
X124341Y378079D02*
X117843Y376843D01*
X124341Y378079D02*
X123500Y382500D01*
X119079Y383341D02*
X117843Y376843D01*
X119079Y383341D02*
X123500Y382500D01*
D26*
X238000Y315000D02*
X251500Y315000D01*
X310500Y308500D02*
X310500Y298773D01*
X316500Y315000D02*
X328000Y315000D01*
X344500Y315000D01*
X238000Y315000D02*
X221500Y315000D01*
X249500Y400500D02*
X249500Y408000D01*
X249500Y400500D02*
X255500Y394500D01*
X345500Y358000D02*
X345500Y355000D01*
D29*
X328000Y355000D01*
D26*
X345500Y358000D02*
X345500Y374000D01*
X345500Y375500D01*
X173400Y369000D02*
X173400Y384100D01*
X172500Y385000D01*
X172500Y403000D01*
X175000Y405500D01*
X189000Y405500D01*
X197000Y397500D02*
X216500Y397500D01*
X220000Y394000D01*
X220000Y385000D01*
X197000Y397500D02*
X189000Y405500D01*
X220000Y385000D02*
X240500Y385000D01*
X355500Y434500D02*
X371500Y434500D01*
X372500Y433500D01*
X378500Y433500D01*
X382000Y430000D01*
X382000Y418000D01*
X382000Y409000D01*
X383000Y419000D02*
X392000Y419000D01*
X383000Y419000D02*
X382000Y418000D01*
X356000Y408500D02*
X356000Y400500D01*
X356300Y400200D01*
D27*
X332000Y400550D03*
D26*
X337238Y400200D02*
X356300Y400200D01*
X337238Y400200D02*
X332350Y400200D01*
X332000Y400550D01*
D27*
X316500Y379000D03*
D26*
X373200Y400200D02*
X382000Y409000D01*
X373200Y400200D02*
X356300Y400200D01*
X312500Y375000D02*
X312500Y374858D01*
X312788Y375288D02*
X313000Y375500D01*
X312788Y375288D02*
X312500Y375000D01*
X320413Y375500D02*
X345500Y375500D01*
X320413Y375500D02*
X316500Y375500D01*
X313000Y375500D01*
X316500Y375500D02*
X316500Y379000D01*
X220000Y385000D02*
X218000Y383000D01*
X218000Y334000D01*
X206500Y322500D01*
X206500Y290000D01*
X230200Y266300D02*
X230200Y253500D01*
X230200Y266300D02*
X206500Y290000D01*
X230200Y253500D02*
X230200Y230800D01*
X255600Y205400D02*
X255600Y198700D01*
X251930Y209070D02*
X230200Y230800D01*
X251930Y209070D02*
X255600Y205400D01*
X255600Y198700D02*
X255600Y187700D01*
X255600Y184300D01*
X255600Y173300D01*
D29*
X310500Y297500D02*
X317000Y297500D01*
D26*
X322000Y292500D01*
X322000Y281000D01*
D29*
X310500Y297500D02*
X310500Y298773D01*
D26*
X255500Y387500D02*
X255500Y394500D01*
X332523Y401956D02*
X337238Y400200D01*
X332523Y401956D02*
X332000Y400550D01*
X332332Y399087D02*
X337238Y400200D01*
X332332Y399087D02*
X332000Y400550D01*
X317213Y377681D02*
X312788Y375288D01*
X317213Y377681D02*
X316500Y379000D01*
X315181Y379713D02*
X312788Y375288D01*
X315181Y379713D02*
X316500Y379000D01*
X317778Y379786D02*
X320413Y375500D01*
X317778Y379786D02*
X316500Y379000D01*
X315861Y377643D02*
X320413Y375500D01*
X315861Y377643D02*
X316500Y379000D01*
X251930Y209070D02*
X249024Y201098D01*
X255600Y198700D01*
X259204Y204701D02*
X251930Y209070D01*
X259204Y204701D02*
X255600Y198700D01*
X261000Y194245D02*
X255600Y187700D01*
X261000Y194245D02*
X255600Y198700D01*
X250200Y194245D02*
X255600Y187700D01*
X250200Y194245D02*
X255600Y198700D01*
X255600Y184300D02*
X250200Y177755D01*
X255600Y173300D01*
X261000Y177755D02*
X255600Y184300D01*
X261000Y177755D02*
X255600Y173300D01*
X249500Y408000D02*
X249500Y416500D01*
D31*
X249500Y416500D03*
X214000Y547000D03*
D26*
X205000Y547000D01*
D34*
X240500Y385000D02*
X240664Y385000D01*
X256500Y369164D02*
X256500Y365500D01*
X255476Y366524D01*
X251332Y374332D02*
X240664Y385000D01*
X251332Y374332D02*
X256500Y369164D01*
X251332Y374332D02*
X255500Y378500D01*
D26*
X255500Y387500D01*
X355500Y480500D02*
X369500Y480500D01*
X371500Y478500D01*
X392500Y478500D01*
X394500Y476500D02*
X394500Y463000D01*
X394500Y476500D02*
X392500Y478500D01*
X273050Y464550D02*
X263500Y464550D01*
X276000Y467500D02*
X276000Y477500D01*
X273000Y480500D01*
X266500Y480500D01*
X276000Y467500D02*
X273050Y464550D01*
X219550Y426450D02*
X209500Y426450D01*
X219550Y426450D02*
X222500Y423500D01*
X222500Y410500D01*
D32*
X222500Y403110D01*
X221150Y401760D01*
D31*
X221150Y401760D03*
X285500Y308000D03*
D32*
X285500Y297500D01*
D26*
X290500Y281000D02*
X290000Y280500D01*
X290500Y281000D02*
X290500Y297500D01*
D29*
X328000Y340000D02*
X344500Y340000D01*
D26*
X377500Y340000D02*
X377500Y323500D01*
X378500Y322500D01*
X377500Y340000D02*
X360500Y340000D01*
X336000Y335000D02*
X328000Y335000D01*
X340500Y330500D02*
X356000Y330500D01*
X361500Y325000D01*
X361500Y315000D01*
X340500Y330500D02*
X336000Y335000D01*
X361500Y315000D02*
X364550Y311950D01*
X392550Y311950D02*
X394500Y310000D01*
X392550Y311950D02*
X364550Y311950D01*
X394500Y310000D02*
X394500Y300500D01*
X271500Y500000D02*
X256500Y500000D01*
X256000Y500500D01*
X256000Y515500D02*
X271500Y515500D01*
X271500Y531000D02*
X249500Y531000D01*
X245000Y526500D02*
X245000Y515500D01*
X245000Y526500D02*
X249500Y531000D01*
D28*
X287500Y500000D02*
X287500Y482935D01*
X289800Y480635D01*
X289800Y420365D01*
X267467Y398033D01*
X266217Y396783D01*
X265500Y396065D02*
X265500Y387500D01*
X265500Y396065D02*
X266217Y396783D01*
X287500Y515500D02*
X295500Y515500D01*
X295500Y482500D01*
X293850Y480850D01*
X293850Y418622D01*
X270500Y395272D02*
X270500Y387500D01*
X270500Y395272D02*
X293850Y418622D01*
X293500Y531000D02*
X287500Y531000D01*
X299550Y524950D02*
X299550Y418550D01*
X299550Y524950D02*
X293500Y531000D01*
X299550Y418550D02*
X275500Y394500D01*
X275500Y387500D01*
D27*
X108500Y471500D03*
D26*
X108500Y476750D01*
X108500Y484500D01*
X115500Y491500D01*
X171000Y491500D01*
X173500Y489000D01*
X108500Y476750D02*
X107063Y471929D01*
X108500Y471500D01*
X109937Y471929D02*
X108500Y476750D01*
X109937Y471929D02*
X108500Y471500D01*
X107063Y471929D02*
X108500Y476750D01*
X109937Y471929D01*
X107063Y471929D02*
X108500Y476750D01*
X107063Y471929D02*
X108500Y471500D01*
X109937Y471929D02*
X108500Y476750D01*
X109937Y471929D02*
X108500Y471500D01*
X115500Y362500D02*
X123500Y362500D01*
X115500Y362500D02*
X107500Y354500D01*
X107500Y313000D01*
X122500Y298000D01*
X130500Y298000D01*
X119719Y358506D02*
X115500Y362500D01*
X119719Y358506D02*
X123500Y362500D01*
X119719Y366494D02*
X115500Y362500D01*
X119719Y366494D02*
X123500Y362500D01*
X146500Y311500D02*
X146500Y298000D01*
D28*
X151274Y298000D01*
X156000Y298000D01*
X156500Y297500D01*
D27*
X156500Y297500D03*
X164839Y284161D03*
D28*
X170089Y284161D01*
X198397Y284161D01*
X203076Y284161D01*
X203618Y283618D01*
D27*
X203618Y283618D03*
X225382Y288882D03*
D28*
X230632Y288882D01*
X234882Y288882D01*
X253000Y307000D01*
X273500Y307000D01*
X275500Y305000D01*
X275500Y297500D01*
X155565Y295732D02*
X151274Y298000D01*
X155565Y295732D02*
X156500Y297500D01*
X155918Y299413D02*
X151274Y298000D01*
X155918Y299413D02*
X156500Y297500D01*
X165601Y286011D02*
X170089Y284161D01*
X165601Y286011D02*
X165601Y286011D01*
X165601Y282312D02*
X170089Y284161D01*
X165601Y282312D02*
X165601Y282312D01*
X165601Y286011D02*
X170089Y284161D01*
X165601Y286011D02*
X164839Y284161D01*
X165601Y282312D02*
X170089Y284161D01*
X165601Y282312D02*
X164839Y284161D01*
X165601Y286011D02*
X170089Y284161D01*
X165601Y286011D02*
X164839Y284161D01*
X165601Y282312D02*
X170089Y284161D01*
X165601Y282312D02*
X164839Y284161D01*
X198397Y284161D02*
X202669Y281858D01*
X203618Y283618D01*
X203052Y285537D02*
X198397Y284161D01*
X203052Y285537D02*
X203618Y283618D01*
X226143Y290731D02*
X230632Y288882D01*
X226143Y290731D02*
X226143Y290731D01*
X226143Y287032D02*
X230632Y288882D01*
X226143Y287032D02*
X226143Y287032D01*
X226143Y290731D02*
X230632Y288882D01*
X226143Y290731D02*
X225382Y288882D01*
X226143Y287032D02*
X230632Y288882D01*
X226143Y287032D02*
X225382Y288882D01*
X226143Y290731D02*
X230632Y288882D01*
X226143Y290731D02*
X225382Y288882D01*
X226143Y287032D02*
X230632Y288882D01*
X226143Y287032D02*
X225382Y288882D01*
D26*
X217000Y325000D02*
X238000Y325000D01*
X217000Y325000D02*
X212000Y320000D01*
X251500Y253500D02*
X255600Y253500D01*
X251500Y253500D02*
X246783Y258217D01*
X212000Y293000D01*
X212000Y320000D01*
X255600Y253500D02*
X262671Y246429D01*
X293850Y215250D01*
X293850Y185850D02*
X298622Y181078D01*
X306400Y173300D01*
X293850Y185850D02*
X293850Y215250D01*
X249544Y251138D02*
X246783Y258217D01*
X249544Y251138D02*
X255600Y253500D01*
X254205Y259849D02*
X246783Y258217D01*
X254205Y259849D02*
X255600Y253500D01*
X262080Y254005D02*
X262671Y246429D01*
X262080Y254005D02*
X255600Y253500D01*
X255095Y247020D02*
X262671Y246429D01*
X255095Y247020D02*
X255600Y253500D01*
X298622Y181078D02*
X299432Y172632D01*
X306400Y173300D01*
X307068Y180268D02*
X298622Y181078D01*
X307068Y180268D02*
X306400Y173300D01*
X255500Y276000D02*
X255500Y297500D01*
X278000Y253500D02*
X281000Y253500D01*
X272590Y258910D02*
X255500Y276000D01*
X272590Y258910D02*
X278000Y253500D01*
X281000Y253500D02*
X288071Y246429D01*
X319000Y215500D01*
X319000Y184500D01*
X323263Y180237D01*
X330200Y173300D01*
X331800Y173300D01*
X274774Y251632D02*
X272590Y258910D01*
X274774Y251632D02*
X281000Y253500D01*
X280119Y259940D02*
X272590Y258910D01*
X280119Y259940D02*
X281000Y253500D01*
X287480Y254005D02*
X288071Y246429D01*
X287480Y254005D02*
X281000Y253500D01*
X280495Y247020D02*
X288071Y246429D01*
X280495Y247020D02*
X281000Y253500D01*
X323263Y180237D02*
X324938Y171919D01*
X331800Y173300D01*
X331748Y180300D02*
X323263Y180237D01*
X331748Y180300D02*
X331800Y173300D01*
D29*
X328000Y345000D02*
X320000Y345000D01*
D26*
X316500Y341500D02*
X316500Y327250D01*
D27*
X316500Y322000D03*
D26*
X316500Y327250D01*
D27*
X320500Y307500D03*
D26*
X316500Y341500D02*
X320000Y345000D01*
X342000Y286500D02*
X342000Y279000D01*
X342000Y286500D02*
X339000Y289500D01*
X326450Y296287D02*
X326450Y301550D01*
X324212Y303788D01*
X320500Y307500D01*
X333237Y289500D02*
X339000Y289500D01*
X333237Y289500D02*
X326450Y296287D01*
X308932Y253500D02*
X306400Y253500D01*
X334432Y279000D02*
X342000Y279000D01*
X334432Y279000D02*
X314623Y259191D01*
X308932Y253500D01*
X306400Y253500D02*
X313471Y246429D01*
X331800Y228100D01*
X331800Y198700D01*
X315063Y322429D02*
X316500Y327250D01*
X315063Y322429D02*
X316500Y322000D01*
X317937Y322429D02*
X316500Y327250D01*
X317937Y322429D02*
X316500Y322000D01*
X315063Y322429D02*
X316500Y327250D01*
X317937Y322429D01*
X315063Y322429D02*
X316500Y327250D01*
X315063Y322429D02*
X316500Y322000D01*
X317937Y322429D02*
X316500Y327250D01*
X317937Y322429D02*
X316500Y322000D01*
X321819Y308213D02*
X324212Y303788D01*
X321819Y308213D02*
X320500Y307500D01*
X319787Y306181D02*
X324212Y303788D01*
X319787Y306181D02*
X320500Y307500D01*
X314623Y259191D02*
X307063Y259966D01*
X306400Y253500D01*
X312685Y251843D02*
X314623Y259191D01*
X312685Y251843D02*
X306400Y253500D01*
X312880Y254005D02*
X313471Y246429D01*
X312880Y254005D02*
X306400Y253500D01*
X305895Y247020D02*
X313471Y246429D01*
X305895Y247020D02*
X306400Y253500D01*
X192900Y340500D02*
X192400Y341000D01*
X192900Y340500D02*
X209000Y340500D01*
D35*
X46000Y46000D03*
X546000Y46000D03*
X546000Y649000D03*
X46000Y649000D03*
D33*
X230200Y184300D02*
X230200Y173300D01*
X230200Y184300D02*
X230200Y187700D01*
X230200Y198700D01*
X219200Y198700D01*
X217800Y198700D01*
X183500Y233000D01*
X183500Y254000D01*
X235229Y195427D02*
X230200Y187700D01*
X235229Y195427D02*
X230200Y198700D01*
X225171Y195427D02*
X230200Y187700D01*
X225171Y195427D02*
X230200Y198700D01*
X226927Y193671D02*
X219200Y198700D01*
X226927Y193671D02*
X230200Y198700D01*
X226927Y203729D02*
X219200Y198700D01*
X226927Y203729D02*
X230200Y198700D01*
X230200Y184300D02*
X225171Y176573D01*
X230200Y173300D01*
X235229Y176573D02*
X230200Y184300D01*
X235229Y176573D02*
X230200Y173300D01*
D28*
X204700Y531300D02*
X182000Y531300D01*
X204700Y531300D02*
X205000Y531000D01*
X224356Y365000D02*
X238000Y365000D01*
X224356Y365000D02*
X224300Y364944D01*
D31*
X224300Y364944D03*
X182000Y549500D03*
D28*
X182000Y556700D01*
X166500Y480500D02*
X173500Y473500D01*
D31*
X166500Y480500D03*
X133000Y531000D03*
D28*
X119300Y531000D01*
X119000Y531300D01*
M02*
