M48
;GenerationSoftware,Autodesk,EAGLE,9.5.1*%
;CreationDate,2020-01-27T21:23:12Z*%
FMAT,2
ICI,OFF
METRIC,TZ,000.000
T6C0.300
T5C0.350
T4C0.800
T3C1.000
T2C1.100
T1C3.200
%
G90
M71
T1
X54600Y4600
X54600Y64900
X4600Y4600
X4600Y64900
T2
X23020Y17330
X33180Y19870
X30640Y19870
X28100Y19870
X25560Y19870
X23020Y19870
X33180Y17330
X30640Y17330
X28100Y17330
X25560Y17330
T3
X23020Y25350
X25560Y25350
X28100Y25350
X30640Y25350
X33180Y25350
T4
X12350Y38250
X12350Y36250
X12350Y34250
X50250Y40250
X50250Y38250
X50250Y36250
X48250Y40250
X48250Y36250
X50250Y34250
X48250Y34250
X12350Y47300
X14350Y47300
X14350Y45300
X14350Y43300
X12350Y45300
X12350Y43300
X14350Y38250
X14350Y36250
X14350Y34250
X48250Y38250
T5
X31150Y42155
X31400Y34850
X24850Y38655
X23495Y39181
X23751Y37845
X31131Y36831
X38400Y37630
X33856Y36575
X36900Y36550
X31500Y35700
X38205Y35795
X15750Y45100
X16305Y42900
X33345Y41695
X34313Y43763
X33200Y40055
X23150Y29900
X10850Y47150
X15650Y29750
X16484Y28416
X20362Y28362
X22538Y28888
X31650Y32200
X32050Y30750
X31650Y37900
X35250Y34850
X36950Y34850
X38500Y34850
X40200Y34850
X40400Y33400
X40400Y31150
X40400Y28950
X38698Y28948
X36950Y28950
X35300Y28950
X37100Y37350
X33450Y29850
X27400Y27050
X18050Y44550
X17450Y50300
X18850Y39500
X13150Y31150
X18850Y31600
X19688Y41038
X28200Y42800
X21900Y49000
X22895Y40050
X25200Y32300
X26550Y41750
X31150Y45800
X35600Y50650
X37150Y45300
X37150Y40900
X43100Y34550
X43150Y31400
X43150Y28200
X35800Y26900
X41400Y40100
X30600Y27150
X20400Y37500
T6
X22115Y40176
X11900Y54900
X28550Y30800
X29291Y31159
X30050Y31350
X22430Y36494
X18200Y54950
X16650Y48050
X13300Y53100
X24950Y41650
X21400Y54700
M30
