%TF.GenerationSoftware,Altium Limited,Altium Designer,23.5.1 (21)*%
G04 Layer_Physical_Order=1*
G04 Layer_Color=255*
%FSLAX45Y45*%
%MOMM*%
%TF.SameCoordinates,4F0F0AB4-5C0D-4210-9CCF-4C3744BDD4F0*%
%TF.FilePolarity,Positive*%
%TF.FileFunction,Copper,L1,Top,Signal*%
%TF.Part,Single*%
G01*
G75*
%TA.AperFunction,SMDPad,CuDef*%
%ADD10R,2.20000X1.05000*%
%ADD11R,1.05000X1.00000*%
%ADD12R,0.95000X0.45000*%
%TA.AperFunction,Conductor*%
%ADD13C,0.25400*%
%TA.AperFunction,ComponentPad*%
%ADD14C,7.00000*%
%ADD15C,1.00000*%
%TA.AperFunction,TestPad*%
%ADD16C,1.00000*%
%TA.AperFunction,ViaPad*%
%ADD17C,1.27000*%
D10*
X15400000Y3000000D02*
D03*
Y3295000D02*
D03*
D11*
X15247501Y3147500D02*
D03*
D12*
X16532100Y3369600D02*
D03*
Y3289600D02*
D03*
Y3209600D02*
D03*
Y3129600D02*
D03*
X16707100Y3369600D02*
D03*
Y3289600D02*
D03*
Y3209600D02*
D03*
Y3129600D02*
D03*
X15998700Y3369600D02*
D03*
Y3289600D02*
D03*
Y3209600D02*
D03*
Y3129600D02*
D03*
X16173700Y3369600D02*
D03*
Y3289600D02*
D03*
Y3209600D02*
D03*
Y3129600D02*
D03*
D13*
X16530000Y3127500D02*
X16532100Y3129600D01*
X16530000Y2940000D02*
Y3127500D01*
X16170000Y3125900D02*
X16173700Y3129600D01*
X16170000Y2930000D02*
Y3125900D01*
X15998700Y3129600D02*
X16000000Y3128300D01*
X16707100Y3129600D02*
X16732100D01*
X16861700Y3000000D01*
X17000000D01*
X16707100Y3369600D02*
X16949413D01*
X16979813Y3400000D01*
X17000000D01*
X15400000Y3295000D02*
X15405000Y3300000D01*
X15700000D01*
X15790401Y3209600D02*
X15998700D01*
X15700000Y3300000D02*
X15790401Y3209600D01*
X15829601Y3129600D02*
X15998700D01*
X15700000Y3000000D02*
X15829601Y3129600D01*
X15400000Y3000000D02*
X15700000D01*
X16173700Y3209600D02*
X16532100D01*
X16173700Y3289600D02*
X16532100D01*
X16173700Y3369600D02*
X16532100D01*
X15152499Y3147500D02*
X15247501D01*
X15100000Y3200000D02*
X15152499Y3147500D01*
X15100000Y3200000D02*
Y3300000D01*
X15200000Y3400000D01*
X15800000D01*
X15910400Y3289600D02*
X15998700D01*
X15800000Y3400000D02*
X15910400Y3289600D01*
D14*
X14985616Y4014385D02*
D03*
D15*
Y3751885D02*
D03*
X14800000Y3828769D02*
D03*
X14723116Y4014385D02*
D03*
X15171231Y3828769D02*
D03*
X15248116Y4014385D02*
D03*
X15171231Y4200000D02*
D03*
X14985616Y4276885D02*
D03*
X14800000Y4200000D02*
D03*
D16*
X17000000Y3400000D02*
D03*
Y3000000D02*
D03*
D17*
X16530000Y2940000D02*
D03*
X16170000Y2930000D02*
D03*
%TF.MD5,b706ac2aaeab126b7c4a38ca725ae9c6*%
M02*
