%TF.GenerationSoftware,Altium Limited,Altium Designer,23.5.1 (21)*%
G04 Layer_Color=65535*
%FSLAX45Y45*%
%MOMM*%
%TF.SameCoordinates,4F0F0AB4-5C0D-4210-9CCF-4C3744BDD4F0*%
%TF.FilePolarity,Positive*%
%TF.FileFunction,Legend,Top*%
%TF.Part,Single*%
G01*
G75*
%TA.AperFunction,NonConductor*%
%ADD19C,0.10000*%
%ADD20C,0.20000*%
%ADD21C,0.25400*%
D19*
X16474600Y3429600D02*
G03*
X16474600Y3429600I-5000J0D01*
G01*
X15941200D02*
G03*
X15941200Y3429600I-5000J0D01*
G01*
D20*
X15209500Y3325300D02*
X15234900D01*
X15565100Y2969700D02*
X15590500D01*
X15209500D02*
Y3033200D01*
Y3261800D02*
Y3325300D01*
X15565100D02*
X15590500D01*
Y3045900D02*
Y3325300D01*
Y2969700D02*
Y3045900D01*
X15209500Y2969700D02*
X15234900D01*
D21*
X14635480Y4465320D02*
Y4617671D01*
X14686263Y4566887D01*
X14737047Y4617671D01*
Y4465320D01*
X14787831D02*
Y4617671D01*
X14864006D01*
X14889398Y4592279D01*
Y4541495D01*
X14864006Y4516103D01*
X14787831D01*
X14940181Y4465320D02*
X14990965D01*
X14965573D01*
Y4617671D01*
X14940181Y4592279D01*
X15285687Y3619451D02*
X15234903D01*
X15260295D01*
Y3492492D01*
X15234903Y3467100D01*
X15209512D01*
X15184120Y3492492D01*
X15336472Y3467100D02*
X15387254D01*
X15361864D01*
Y3619451D01*
X15336472Y3594059D01*
X16959579Y3695651D02*
X17061147D01*
X17010362D01*
Y3543300D01*
X17111931D02*
Y3695651D01*
X17188106D01*
X17213498Y3670259D01*
Y3619475D01*
X17188106Y3594083D01*
X17111931D01*
X17264281Y3543300D02*
X17315065D01*
X17289673D01*
Y3695651D01*
X17264281Y3670259D01*
X16959579Y3294331D02*
X17061147D01*
X17010362D01*
Y3141980D01*
X17111931D02*
Y3294331D01*
X17188106D01*
X17213498Y3268939D01*
Y3218155D01*
X17188106Y3192763D01*
X17111931D01*
X17365849Y3141980D02*
X17264281D01*
X17365849Y3243547D01*
Y3268939D01*
X17340457Y3294331D01*
X17289673D01*
X17264281Y3268939D01*
X16456660Y3522980D02*
Y3675331D01*
X16532835D01*
X16558228Y3649939D01*
Y3599155D01*
X16532835Y3573763D01*
X16456660D01*
X16507443D02*
X16558228Y3522980D01*
X16609010D02*
Y3675331D01*
X16710577Y3522980D01*
Y3675331D01*
X16862929Y3522980D02*
X16761362D01*
X16862929Y3624547D01*
Y3649939D01*
X16837537Y3675331D01*
X16786752D01*
X16761362Y3649939D01*
X15923260Y3522980D02*
Y3675331D01*
X15999435D01*
X16024828Y3649939D01*
Y3599155D01*
X15999435Y3573763D01*
X15923260D01*
X15974043D02*
X16024828Y3522980D01*
X16075610D02*
Y3675331D01*
X16177177Y3522980D01*
Y3675331D01*
X16227962Y3522980D02*
X16278745D01*
X16253352D01*
Y3675331D01*
X16227962Y3649939D01*
%TF.MD5,581c7534cf030c25351f74536bf14f77*%
M02*
