%TF.GenerationSoftware,Altium Limited,Altium Designer,23.5.1 (21)*%
G04 Layer_Color=255*
%FSLAX45Y45*%
%MOMM*%
%TF.SameCoordinates,4F0F0AB4-5C0D-4210-9CCF-4C3744BDD4F0*%
%TF.FilePolarity,Positive*%
%TF.FileFunction,Pads,Top*%
%TF.Part,Single*%
G01*
G75*
%TA.AperFunction,SMDPad,CuDef*%
%ADD10R,2.20000X1.05000*%
%ADD11R,1.05000X1.00000*%
%ADD12R,0.95000X0.45000*%
%TA.AperFunction,ComponentPad*%
%ADD14C,7.00000*%
%ADD15C,1.00000*%
%TA.AperFunction,TestPad*%
%ADD16C,1.00000*%
D10*
X15400000Y3000000D02*
D03*
Y3295000D02*
D03*
D11*
X15247501Y3147500D02*
D03*
D12*
X16532100Y3369600D02*
D03*
Y3289600D02*
D03*
Y3209600D02*
D03*
Y3129600D02*
D03*
X16707100Y3369600D02*
D03*
Y3289600D02*
D03*
Y3209600D02*
D03*
Y3129600D02*
D03*
X15998700Y3369600D02*
D03*
Y3289600D02*
D03*
Y3209600D02*
D03*
Y3129600D02*
D03*
X16173700Y3369600D02*
D03*
Y3289600D02*
D03*
Y3209600D02*
D03*
Y3129600D02*
D03*
D14*
X14985616Y4014385D02*
D03*
D15*
Y3751885D02*
D03*
X14800000Y3828769D02*
D03*
X14723116Y4014385D02*
D03*
X15171231Y3828769D02*
D03*
X15248116Y4014385D02*
D03*
X15171231Y4200000D02*
D03*
X14985616Y4276885D02*
D03*
X14800000Y4200000D02*
D03*
D16*
X17000000Y3400000D02*
D03*
Y3000000D02*
D03*
%TF.MD5,0703971153bf16e6ea975189dda2fdf5*%
M02*
