%TF.GenerationSoftware,Altium Limited,Altium Designer,23.5.1 (21)*%
G04 Layer_Color=128*
%FSLAX45Y45*%
%MOMM*%
%TF.SameCoordinates,4F0F0AB4-5C0D-4210-9CCF-4C3744BDD4F0*%
%TF.FilePolarity,Positive*%
%TF.FileFunction,Drillmap*%
%TF.Part,Single*%
G01*
G75*
%TA.AperFunction,NonConductor*%
%ADD37C,0.12700*%
D37*
X14810616Y4014385D02*
X15160616D01*
X14985616Y3839385D02*
Y4189385D01*
X14960616Y3751885D02*
X15010616D01*
X14985616Y3726885D02*
Y3776885D01*
X14775000Y3828769D02*
X14825000D01*
X14800000Y3803769D02*
Y3853769D01*
X14698116Y4014385D02*
X14748116D01*
X14723116Y3989385D02*
Y4039385D01*
X15146231Y3828769D02*
X15196231D01*
X15171231Y3803769D02*
Y3853769D01*
X15223116Y4014385D02*
X15273116D01*
X15248116Y3989385D02*
Y4039385D01*
X15146231Y4200000D02*
X15196231D01*
X15171231Y4175000D02*
Y4225000D01*
X14960616Y4276885D02*
X15010616D01*
X14985616Y4251885D02*
Y4301884D01*
X14775000Y4200000D02*
X14825000D01*
X14800000Y4175000D02*
Y4225000D01*
X16987500Y3400000D02*
X17012500D01*
X17000000Y3387500D02*
Y3412500D01*
X16987500Y3000000D02*
X17012500D01*
X17000000Y2987500D02*
Y3012500D01*
X16494440Y2940000D02*
X16565559D01*
X16530000Y2904440D02*
Y2975560D01*
X16134441Y2930000D02*
X16205560D01*
X16170000Y2894440D02*
Y2965560D01*
%TF.MD5,d0ac6c0cc3a2d98c254bb11f4d357c7f*%
M02*
