%TF.GenerationSoftware,KiCad,Pcbnew,7.0.5+dfsg-2*%
%TF.CreationDate,2023-06-29T11:14:00+01:00*%
%TF.ProjectId,test_gerbers,74657374-5f67-4657-9262-6572732e6b69,rev?*%
%TF.SameCoordinates,Original*%
%TF.FileFunction,Copper,L2,Bot*%
%TF.FilePolarity,Positive*%
%FSLAX46Y46*%
G04 Gerber Fmt 4.6, Leading zero omitted, Abs format (unit mm)*
G04 Created by KiCad (PCBNEW 7.0.5+dfsg-2) date 2023-06-29 11:14:00*
%MOMM*%
%LPD*%
G01*
G04 APERTURE LIST*
%TA.AperFunction,ViaPad*%
%ADD10C,0.800000*%
%TD*%
G04 APERTURE END LIST*
D10*
%TO.N,*%
X124000000Y-73000000D03*
%TD*%
%TA.AperFunction,NonConductor*%
G36*
X142943039Y-54019685D02*
G01*
X142988794Y-54072489D01*
X143000000Y-54124000D01*
X143000000Y-92876000D01*
X142980315Y-92943039D01*
X142927511Y-92988794D01*
X142876000Y-93000000D01*
X103124000Y-93000000D01*
X103056961Y-92980315D01*
X103011206Y-92927511D01*
X103000000Y-92876000D01*
X103000000Y-73000000D01*
X122994659Y-73000000D01*
X123013975Y-73196129D01*
X123071188Y-73384733D01*
X123164086Y-73558532D01*
X123164090Y-73558539D01*
X123289116Y-73710883D01*
X123441460Y-73835909D01*
X123441467Y-73835913D01*
X123615266Y-73928811D01*
X123615269Y-73928811D01*
X123615273Y-73928814D01*
X123803868Y-73986024D01*
X124000000Y-74005341D01*
X124196132Y-73986024D01*
X124384727Y-73928814D01*
X124558538Y-73835910D01*
X124710883Y-73710883D01*
X124835910Y-73558538D01*
X124928814Y-73384727D01*
X124986024Y-73196132D01*
X125005341Y-73000000D01*
X124986024Y-72803868D01*
X124928814Y-72615273D01*
X124928811Y-72615269D01*
X124928811Y-72615266D01*
X124835913Y-72441467D01*
X124835909Y-72441460D01*
X124710883Y-72289116D01*
X124558539Y-72164090D01*
X124558532Y-72164086D01*
X124384733Y-72071188D01*
X124384727Y-72071186D01*
X124196132Y-72013976D01*
X124196129Y-72013975D01*
X124000000Y-71994659D01*
X123803870Y-72013975D01*
X123615266Y-72071188D01*
X123441467Y-72164086D01*
X123441460Y-72164090D01*
X123289116Y-72289116D01*
X123164090Y-72441460D01*
X123164086Y-72441467D01*
X123071188Y-72615266D01*
X123013975Y-72803870D01*
X122994659Y-73000000D01*
X103000000Y-73000000D01*
X103000000Y-61000000D01*
X102999999Y-60999999D01*
X102087681Y-60087680D01*
X102054196Y-60026357D01*
X102059180Y-59956665D01*
X102087679Y-59912320D01*
X103000000Y-59000000D01*
X102999999Y-58999999D01*
X103000000Y-58999999D01*
X102087681Y-58087680D01*
X102054196Y-58026357D01*
X102059180Y-57956665D01*
X102087679Y-57912320D01*
X103000000Y-57000000D01*
X102087680Y-56087680D01*
X102054195Y-56026357D01*
X102059179Y-55956665D01*
X102087676Y-55912323D01*
X103000000Y-55000000D01*
X102999999Y-54999999D01*
X103000000Y-54999999D01*
X102211681Y-54211681D01*
X102178196Y-54150358D01*
X102183180Y-54080666D01*
X102225052Y-54024733D01*
X102290516Y-54000316D01*
X102299362Y-54000000D01*
X142876000Y-54000000D01*
X142943039Y-54019685D01*
G37*
%TD.AperFunction*%
M02*
