<svg xmlns="http://www.w3.org/2000/svg" xmlns:xlink="http://www.w3.org/1999/xlink" width="42.599999999999994" height="37.55" viewBox="-0.05 -0.05 42.599999999999994 37.55" preserveAspectRatio="xMidYMid meet" ><g transform="matrix(1,0,0,-1,0,37.45)"><g><path fill-rule="evenodd" fill="#ffffffff" stroke="#00000000" stroke-width="0.0" opacity="0.6" d="M -0.019134171618254488,-0.04619397662556434 L -0.02499999999999999,-0.04330127018922194 L -0.030438071450436033,-0.03966766701456176 L -0.035355339059327376,-0.03535533905932738 L -0.03966766701456176,-0.030438071450436047 L -0.04330127018922194,-0.024999999999999998 L -0.04619397662556434,-0.019134171618254495 L -0.04829629131445341,-0.01294095225512605 L -0.04957224306869052,-0.006526309611002579 L -0.05,-6.123233995736766e-18 L -0.05,0.0 L -0.05,6.123233995736766e-18 L -0.05,2.5 L -0.04957224306869052,2.5065263096110026 L -0.04829629131445341,2.5129409522551263 L -0.04619397662556434,2.5191341716182545 L -0.04330127018922194,2.525 L -0.03966766701456176,2.530438071450436 L -0.035355339059327376,2.5353553390593273 L -0.030438071450436033,2.539667667014562 L -0.02499999999999999,2.543301270189222 L -0.019134171618254488,2.546193976625564 L -0.012940952255126044,2.5482962913144536 L -0.00652630961100258,2.5495722430686905 L 3.061616997868383e-18,2.55 L 0.006526309611002586,2.5495722430686905 L 0.012940952255126037,2.5482962913144536 L 0.019134171618254495,2.546193976625564 L 0.02500000000000001,2.543301270189222 L 0.030438071450436033,2.539667667014562 L 0.03535533905932738,2.5353553390593273 L 0.03966766701456176,2.530438071450436 L 0.04330127018922194,2.525 L 0.04619397662556434,2.5191341716182545 L 0.04829629131445342,2.512940952255126 L 0.04957224306869052,2.5065263096110026 L 0.05,2.5 L 0.05,0.05 L 2.5,0.05 L 2.5,0.04999999999999982 L 2.5065263096110026,0.04957224306869034 L 2.512940952255126,0.048296291314453246 L 2.5191341716182545,0.046193976625564175 L 2.525,0.04330127018922177 L 2.530438071450436,0.03966766701456162 L 2.5353553390593273,0.03535533905932725 L 2.5396676670145615,0.030438071450435925 L 2.5433012701892217,0.024999999999999908 L 2.546193976625564,0.019134171618254422 L 2.548296291314453,0.01294095225512599 L 2.5495722430686905,0.006526309611002555 L 2.55,0.0 L 2.5495722430686905,-0.006526309611002555 L 2.548296291314453,-0.01294095225512599 L 2.546193976625564,-0.019134171618254422 L 2.5433012701892217,-0.024999999999999908 L 2.5396676670145615,-0.030438071450435925 L 2.5353553390593273,-0.03535533905932725 L 2.530438071450436,-0.03966766701456162 L 2.525,-0.04330127018922177 L 2.5191341716182545,-0.046193976625564175 L 2.512940952255126,-0.048296291314453246 L 2.5065263096110026,-0.04957224306869034 L 2.5,-0.04999999999999982 L 2.5,-0.05 L 3.061616997868383e-18,-0.05 L 0.0,-0.05 L -0.00652630961100258,-0.04957224306869052 L -0.012940952255126044,-0.04829629131445342 L -0.019134171618254488,-0.04619397662556434 z" /><path fill-rule="evenodd" fill="#ffffffff" stroke="#00000000" stroke-width="0.0" opacity="0.6" d="M 9.76199399791263,10.182628428702616 L 9.787867965644036,10.212132034355964 L 9.817371571297384,10.23800600208737 L 9.85,10.259807621135332 L 9.885194970290472,10.277163859753387 L 9.922354286469243,10.28977774788672 L 9.960842142333984,10.297433458412144 L 10.0,10.3 L 10.039157857666016,10.297433458412144 L 10.077645713530757,10.28977774788672 L 10.114805029709528,10.277163859753387 L 10.15,10.259807621135332 L 10.182628428702616,10.23800600208737 L 10.212132034355964,10.212132034355964 L 10.23800600208737,10.182628428702616 L 10.259807621135332,10.15 L 10.277163859753387,10.114805029709528 L 10.28977774788672,10.077645713530757 L 10.295276822213024,10.05 L 14.979289321881346,10.05 L 19.755852417626627,14.826563095745286 L 19.74019237886467,14.85 L 19.722836140246613,14.885194970290472 L 19.71022225211328,14.922354286469243 L 19.702566541587856,14.960842142333984 L 19.7,15.0 L 19.702566541587856,15.039157857666016 L 19.71022225211328,15.077645713530757 L 19.722836140246613,15.114805029709528 L 19.74019237886467,15.15 L 19.76199399791263,15.182628428702616 L 19.787867965644036,15.212132034355964 L 19.817371571297382,15.23800600208737 L 19.85,15.259807621135332 L 19.885194970290474,15.277163859753387 L 19.922354286469243,15.28977774788672 L 19.960842142333984,15.297433458412144 L 20.0,15.3 L 20.039157857666016,15.297433458412144 L 20.077645713530757,15.28977774788672 L 20.114805029709526,15.277163859753387 L 20.15,15.259807621135332 L 20.182628428702618,15.23800600208737 L 20.212132034355964,15.212132034355964 L 20.23800600208737,15.182628428702616 L 20.25980762113533,15.15 L 20.277163859753387,15.114805029709528 L 20.28977774788672,15.077645713530757 L 20.297433458412144,15.039157857666016 L 20.3,15.0 L 20.297433458412144,14.960842142333984 L 20.28977774788672,14.922354286469243 L 20.277163859753387,14.885194970290472 L 20.25980762113533,14.85 L 20.23800600208737,14.817371571297384 L 20.212132034355964,14.787867965644036 L 20.182628428702618,14.76199399791263 L 20.15,14.740192378864668 L 20.114805029709526,14.722836140246613 L 20.077645713530757,14.71022225211328 L 20.039157857666016,14.702566541587856 L 20.0,14.7 L 19.960842142333984,14.702566541587856 L 19.922354286469243,14.71022225211328 L 19.885194970290474,14.722836140246613 L 19.85,14.740192378864668 L 19.826563095745286,14.75585241762663 L 15.035355339059327,9.964644660940673 L 15.030438071450437,9.960332332985438 L 15.025,9.956698729810778 L 15.019134171618255,9.953806023374435 L 15.012940952255127,9.951703708685546 L 15.006526309611003,9.950427756931308 L 15.0,9.95 L 10.295276822213024,9.95 L 10.28977774788672,9.922354286469243 L 10.277163859753387,9.885194970290472 L 10.259807621135332,9.85 L 10.23800600208737,9.817371571297384 L 10.212132034355964,9.787867965644036 L 10.182628428702616,9.76199399791263 L 10.15,9.740192378864668 L 10.114805029709528,9.722836140246613 L 10.077645713530757,9.71022225211328 L 10.039157857666016,9.702566541587856 L 10.0,9.7 L 9.960842142333984,9.702566541587856 L 9.922354286469243,9.71022225211328 L 9.885194970290472,9.722836140246613 L 9.85,9.740192378864668 L 9.817371571297384,9.76199399791263 L 9.787867965644036,9.787867965644036 L 9.76199399791263,9.817371571297384 L 9.740192378864668,9.85 L 9.722836140246613,9.885194970290472 L 9.71022225211328,9.922354286469243 L 9.702566541587856,9.960842142333984 L 9.7,10.0 L 9.702566541587856,10.039157857666016 L 9.71022225211328,10.077645713530757 L 9.722836140246613,10.114805029709528 L 9.740192378864668,10.15 L 9.76199399791263,10.182628428702616 z" /><path fill-rule="evenodd" fill="#ffffffff" stroke="#00000000" stroke-width="0.0" opacity="0.6" d="M 19.76199399791263,10.182628428702616 L 19.787867965644036,10.212132034355964 L 19.817371571297382,10.23800600208737 L 19.85,10.259807621135332 L 19.885194970290474,10.277163859753387 L 19.922354286469243,10.28977774788672 L 19.960842142333984,10.297433458412144 L 20.0,10.3 L 20.039157857666016,10.297433458412144 L 20.077645713530757,10.28977774788672 L 20.114805029709526,10.277163859753387 L 20.15,10.259807621135332 L 20.182628428702618,10.23800600208737 L 20.212132034355964,10.212132034355964 L 20.23800600208737,10.182628428702616 L 20.25980762113533,10.15 L 20.277163859753387,10.114805029709528 L 20.28977774788672,10.077645713530757 L 20.297433458412144,10.039157857666016 L 20.3,10.0 L 20.297433458412144,9.960842142333984 L 20.28977774788672,9.922354286469243 L 20.277163859753387,9.885194970290472 L 20.25980762113533,9.85 L 20.23800600208737,9.817371571297384 L 20.212132034355964,9.787867965644036 L 20.182628428702618,9.76199399791263 L 20.15,9.740192378864668 L 20.114805029709526,9.722836140246613 L 20.077645713530757,9.71022225211328 L 20.039157857666016,9.702566541587856 L 20.0,9.7 L 19.960842142333984,9.702566541587856 L 19.922354286469243,9.71022225211328 L 19.885194970290474,9.722836140246613 L 19.85,9.740192378864668 L 19.817371571297382,9.76199399791263 L 19.787867965644036,9.787867965644036 L 19.76199399791263,9.817371571297384 L 19.74019237886467,9.85 L 19.722836140246613,9.885194970290472 L 19.71022225211328,9.922354286469243 L 19.702566541587856,9.960842142333984 L 19.7,10.0 L 19.702566541587856,10.039157857666016 L 19.71022225211328,10.077645713530757 L 19.722836140246613,10.114805029709528 L 19.74019237886467,10.15 L 19.76199399791263,10.182628428702616 z" /><path fill-rule="evenodd" fill="#ffffffff" stroke="#00000000" stroke-width="0.0" opacity="0.6" d="M 10.3,15.3 L 10.3,14.7 L 9.7,14.7 L 9.7,15.3 L 10.3,15.3 z" /><path fill-rule="evenodd" fill="#ffffffff" stroke="#00000000" stroke-width="0.0" opacity="0.6" d="M 14.76199399791263,28.932628428702618 L 14.787867965644036,28.962132034355964 L 14.817371571297384,28.98800600208737 L 14.85,29.00980762113533 L 14.885194970290472,29.027163859753387 L 14.922354286469243,29.03977774788672 L 14.960842142333984,29.047433458412144 L 15.0,29.05 L 15.039157857666016,29.047433458412144 L 15.077645713530757,29.03977774788672 L 15.114805029709528,29.027163859753387 L 15.15,29.00980762113533 L 15.182628428702616,28.98800600208737 L 15.212132034355964,28.962132034355964 L 15.23800600208737,28.932628428702618 L 15.259807621135332,28.9 L 15.277163859753387,28.864805029709526 L 15.28977774788672,28.827645713530757 L 15.295276822213024,28.8 L 19.704723177786978,28.8 L 19.71022225211328,28.827645713530757 L 19.722836140246613,28.864805029709526 L 19.74019237886467,28.9 L 19.76199399791263,28.932628428702618 L 19.787867965644036,28.962132034355964 L 19.817371571297382,28.98800600208737 L 19.85,29.00980762113533 L 19.885194970290474,29.027163859753387 L 19.922354286469243,29.03977774788672 L 19.960842142333984,29.047433458412144 L 20.0,29.05 L 20.039157857666016,29.047433458412144 L 20.077645713530757,29.03977774788672 L 20.114805029709526,29.027163859753387 L 20.15,29.00980762113533 L 20.182628428702618,28.98800600208737 L 20.212132034355964,28.962132034355964 L 20.23800600208737,28.932628428702618 L 20.25980762113533,28.9 L 20.277163859753387,28.864805029709526 L 20.28977774788672,28.827645713530757 L 20.297433458412144,28.789157857666016 L 20.3,28.75 L 20.297433458412144,28.710842142333984 L 20.28977774788672,28.672354286469243 L 20.277163859753387,28.635194970290474 L 20.25980762113533,28.6 L 20.23800600208737,28.567371571297382 L 20.212132034355964,28.537867965644036 L 20.182628428702618,28.51199399791263 L 20.15,28.49019237886467 L 20.114805029709526,28.472836140246613 L 20.077645713530757,28.46022225211328 L 20.039157857666016,28.452566541587856 L 20.0,28.45 L 19.960842142333984,28.452566541587856 L 19.922354286469243,28.46022225211328 L 19.885194970290474,28.472836140246613 L 19.85,28.49019237886467 L 19.817371571297382,28.51199399791263 L 19.787867965644036,28.537867965644036 L 19.76199399791263,28.567371571297382 L 19.74019237886467,28.6 L 19.722836140246613,28.635194970290474 L 19.71022225211328,28.672354286469243 L 19.704723177786978,28.7 L 15.295276822213024,28.7 L 15.28977774788672,28.672354286469243 L 15.277163859753387,28.635194970290474 L 15.259807621135332,28.6 L 15.23800600208737,28.567371571297382 L 15.212132034355964,28.537867965644036 L 15.182628428702616,28.51199399791263 L 15.15,28.49019237886467 L 15.114805029709528,28.472836140246613 L 15.077645713530757,28.46022225211328 L 15.039157857666016,28.452566541587856 L 15.0,28.45 L 14.960842142333984,28.452566541587856 L 14.922354286469243,28.46022225211328 L 14.885194970290472,28.472836140246613 L 14.85,28.49019237886467 L 14.817371571297384,28.51199399791263 L 14.787867965644036,28.537867965644036 L 14.76199399791263,28.567371571297382 L 14.740192378864668,28.6 L 14.722836140246613,28.635194970290474 L 14.71022225211328,28.672354286469243 L 14.702566541587856,28.710842142333984 L 14.7,28.75 L 14.702566541587856,28.789157857666016 L 14.71022225211328,28.827645713530757 L 14.722836140246613,28.864805029709526 L 14.740192378864668,28.9 L 14.76199399791263,28.932628428702618 z" /><path fill-rule="evenodd" fill="#ffffffff" stroke="#00000000" stroke-width="0.0" opacity="0.6" d="M 42.13049391910299,8.598752105919447 L 41.95341332995339,8.360891595299327 L 41.74991617656527,8.145197213988729 L 41.522754408842104,7.9545858584746405 L 41.275,7.791635220349685 L 41.01000340339985,7.658548927455303 L 40.73134824341328,7.557126743595505 L 40.44280285305067,7.488740229818872 L 40.14826931372171,7.454314196408269 L 39.85173068627829,7.454314196408269 L 39.55719714694933,7.488740229818872 L 39.26865175658672,7.557126743595506 L 38.98999659660015,7.658548927455304 L 38.725,7.791635220349685 L 38.477245591157896,7.954585858474641 L 38.25008382343473,8.145197213988729 L 38.04658667004661,8.360891595299327 L 37.86950608089701,8.598752105919447 L 37.7212367671753,8.855562090488823 L 37.603783816995936,9.127848634519545 L 37.51873558002145,9.411929529606777 L 37.467242187758046,9.703963068980661 L 37.45,9.999999999999998 L 37.45,10.0 L 37.467242187758046,10.296036931019335 L 37.51873558002145,10.588070470393221 L 37.603783816995936,10.872151365480454 L 37.7212367671753,11.144437909511176 L 37.86950608089701,11.401247894080552 L 38.04658667004661,11.639108404700671 L 38.25008382343473,11.85480278601127 L 38.477245591157896,12.045414141525358 L 38.725,12.208364779650314 L 38.98999659660015,12.341451072544695 L 39.26865175658672,12.442873256404493 L 39.55719714694933,12.511259770181127 L 39.85173068627829,12.54568580359173 L 40.14826931372171,12.54568580359173 L 40.44280285305067,12.511259770181129 L 40.73134824341328,12.442873256404495 L 41.01000340339985,12.341451072544697 L 41.275,12.208364779650317 L 41.522754408842104,12.04541414152536 L 41.749916176565264,11.854802786011273 L 41.95341332995339,11.639108404700675 L 42.13049391910298,11.401247894080555 L 42.2787632328247,11.14443790951118 L 42.396216183004064,10.872151365480455 L 42.48126441997855,10.588070470393223 L 42.532757812241954,10.296036931019337 L 42.55,10.000000000000002 L 42.55,10.0 L 42.532757812241954,9.703963068980663 L 42.48126441997855,9.411929529606779 L 42.396216183004064,9.127848634519546 L 42.2787632328247,8.855562090488823 L 42.13049391910299,8.598752105919447 z M 37.69775307907452,9.162050648852112 L 37.810600031207635,8.900442008508868 L 37.9530548620383,8.653703003726525 L 38.1231911143585,8.425170356267978 L 38.3187079872216,8.21793457814603 L 38.53696145032817,8.034798177750144 L 38.775,7.878237760728124 L 39.02960457320406,7.750370538143327 L 39.297332079857824,7.652925694827051 L 39.57456196471602,7.587221005120088 L 39.85754516916933,7.55414501223539 L 40.14245483083066,7.55414501223539 L 40.425438035283975,7.587221005120087 L 40.70266792014217,7.652925694827049 L 40.97039542679593,7.750370538143326 L 41.225,7.878237760728123 L 41.46303854967183,8.034798177750142 L 41.6812920127784,8.21793457814603 L 41.8768088856415,8.425170356267978 L 42.0469451379617,8.653703003726527 L 42.189399968792365,8.90044200850887 L 42.302246920925484,9.162050648852116 L 42.383959932920575,9.434991116681026 L 42.43343397646776,9.715572360393192 L 42.45,10.0 L 42.43343397646776,10.284427639606815 L 42.38395993292057,10.56500888331898 L 42.30224692092548,10.83794935114789 L 42.189399968792365,11.099557991491134 L 42.0469451379617,11.346296996273477 L 41.876808885641495,11.574829643732023 L 41.6812920127784,11.782065421853972 L 41.46303854967183,11.96520182224986 L 41.225,12.121762239271877 L 40.97039542679594,12.249629461856674 L 40.70266792014217,12.347074305172951 L 40.42543803528398,12.412778994879913 L 40.142454830830665,12.44585498776461 L 39.857545169169335,12.44585498776461 L 39.57456196471602,12.412778994879913 L 39.297332079857824,12.34707430517295 L 39.02960457320406,12.249629461856674 L 38.775,12.121762239271876 L 38.53696145032817,11.965201822249858 L 38.3187079872216,11.78206542185397 L 38.1231911143585,11.574829643732023 L 37.9530548620383,11.346296996273475 L 37.810600031207635,11.099557991491134 L 37.69775307907452,10.83794935114789 L 37.61604006707943,10.56500888331898 L 37.56656602353224,10.284427639606816 L 37.55,10.000000000000002 L 37.55,10.0 L 37.56656602353224,9.715572360393185 L 37.61604006707943,9.434991116681022 L 37.69775307907452,9.162050648852112 z" /><path fill-rule="evenodd" fill="#ffffffff" stroke="#00000000" stroke-width="0.0" opacity="0.6" d="M 34.75,9.433012701892219 L 35.5,9.0 L 34.75,8.566987298107781 L 34.75,9.433012701892219 z" /><path fill-rule="evenodd" fill="#ffffffff" stroke="#00000000" stroke-width="0.0" opacity="0.6" d="M 24.787867965644036,10.212132034355964 L 24.817371571297382,10.23800600208737 L 24.85,10.259807621135332 L 24.885194970290474,10.277163859753387 L 24.922354286469243,10.28977774788672 L 24.95,10.295276822213024 L 24.95,14.704723177786976 L 24.922354286469243,14.71022225211328 L 24.885194970290474,14.722836140246613 L 24.85,14.740192378864668 L 24.817371571297382,14.76199399791263 L 24.787867965644036,14.787867965644036 L 24.76199399791263,14.817371571297384 L 24.74019237886467,14.85 L 24.722836140246613,14.885194970290472 L 24.71022225211328,14.922354286469243 L 24.702566541587856,14.960842142333984 L 24.7,15.0 L 24.702566541587856,15.039157857666016 L 24.71022225211328,15.077645713530757 L 24.722836140246613,15.114805029709528 L 24.74019237886467,15.15 L 24.76199399791263,15.182628428702616 L 24.787867965644036,15.212132034355964 L 24.817371571297382,15.23800600208737 L 24.85,15.259807621135332 L 24.885194970290474,15.277163859753387 L 24.922354286469243,15.28977774788672 L 24.960842142333984,15.297433458412144 L 25.0,15.3 L 25.039157857666016,15.297433458412144 L 25.077645713530757,15.28977774788672 L 25.114805029709526,15.277163859753387 L 25.15,15.259807621135332 L 25.182628428702618,15.23800600208737 L 25.212132034355964,15.212132034355964 L 25.23800600208737,15.182628428702616 L 25.25980762113533,15.15 L 25.277163859753387,15.114805029709528 L 25.28977774788672,15.077645713530757 L 25.297433458412144,15.039157857666016 L 25.3,15.0 L 25.297433458412144,14.960842142333984 L 25.28977774788672,14.922354286469243 L 25.277163859753387,14.885194970290472 L 25.25980762113533,14.85 L 25.23800600208737,14.817371571297384 L 25.212132034355964,14.787867965644036 L 25.182628428702618,14.76199399791263 L 25.15,14.740192378864668 L 25.114805029709526,14.722836140246613 L 25.077645713530757,14.71022225211328 L 25.05,14.704723177786976 L 25.05,10.295276822213024 L 25.077645713530757,10.28977774788672 L 25.114805029709526,10.277163859753387 L 25.15,10.259807621135332 L 25.182628428702618,10.23800600208737 L 25.212132034355964,10.212132034355964 L 25.23800600208737,10.182628428702616 L 25.25980762113533,10.15 L 25.277163859753387,10.114805029709528 L 25.28977774788672,10.077645713530757 L 25.297433458412144,10.039157857666016 L 25.3,10.0 L 25.297433458412144,9.960842142333984 L 25.28977774788672,9.922354286469243 L 25.277163859753387,9.885194970290472 L 25.25980762113533,9.85 L 25.23800600208737,9.817371571297384 L 25.212132034355964,9.787867965644036 L 25.182628428702618,9.76199399791263 L 25.15,9.740192378864668 L 25.114805029709526,9.722836140246613 L 25.077645713530757,9.71022225211328 L 25.039157857666016,9.702566541587856 L 25.0,9.7 L 24.960842142333984,9.702566541587856 L 24.922354286469243,9.71022225211328 L 24.885194970290474,9.722836140246613 L 24.85,9.740192378864668 L 24.817371571297382,9.76199399791263 L 24.787867965644036,9.787867965644036 L 24.76199399791263,9.817371571297384 L 24.74019237886467,9.85 L 24.722836140246613,9.885194970290472 L 24.71022225211328,9.922354286469243 L 24.702566541587856,9.960842142333984 L 24.7,10.0 L 24.702566541587856,10.039157857666016 L 24.71022225211328,10.077645713530757 L 24.722836140246613,10.114805029709528 L 24.74019237886467,10.15 L 24.76199399791263,10.182628428702616 L 24.787867965644036,10.212132034355964 z" /><path fill-rule="evenodd" fill="#ffffffff" stroke="#00000000" stroke-width="0.0" opacity="0.6" d="M 29.841329331941754,10.421752285801745 L 29.85857864376269,10.44142135623731 L 29.878247714198256,10.458670668058247 L 29.9,10.473205080756887 L 29.92346331352698,10.484775906502257 L 29.948236190979497,10.493185165257813 L 29.97389476155599,10.498288972274763 L 30.0,10.5 L 30.02610523844401,10.498288972274763 L 30.051763809020503,10.493185165257813 L 30.07653668647302,10.484775906502257 L 30.1,10.473205080756887 L 30.121752285801744,10.458670668058247 L 30.14142135623731,10.44142135623731 L 30.158670668058246,10.421752285801745 L 30.173205080756887,10.4 L 30.184775906502257,10.376536686473019 L 30.193185165257812,10.351763809020504 L 30.198288972274764,10.32610523844401 L 30.2,10.3 L 30.2,9.7 L 30.198288972274764,9.67389476155599 L 30.193185165257812,9.648236190979496 L 30.184775906502257,9.623463313526981 L 30.173205080756887,9.6 L 30.158670668058246,9.578247714198255 L 30.14142135623731,9.55857864376269 L 30.121752285801744,9.541329331941753 L 30.1,9.526794919243113 L 30.07653668647302,9.515224093497743 L 30.051763809020503,9.506814834742187 L 30.02610523844401,9.501711027725237 L 30.0,9.5 L 29.97389476155599,9.501711027725237 L 29.948236190979497,9.506814834742187 L 29.923463313526984,9.515224093497743 L 29.9,9.526794919243113 L 29.878247714198256,9.541329331941753 L 29.85857864376269,9.55857864376269 L 29.841329331941754,9.578247714198255 L 29.826794919243113,9.6 L 29.815224093497743,9.623463313526981 L 29.806814834742188,9.648236190979496 L 29.801711027725236,9.67389476155599 L 29.8,9.7 L 29.8,10.3 L 29.801711027725236,10.32610523844401 L 29.806814834742188,10.351763809020504 L 29.815224093497743,10.376536686473019 L 29.826794919243113,10.4 L 29.841329331941754,10.421752285801745 z" /><path fill-rule="evenodd" fill="#ffffffff" stroke="#00000000" stroke-width="0.0" opacity="0.6" d="M 33.75,10.433012701892219 L 34.5,10.0 L 33.75,9.566987298107781 L 33.75,10.433012701892219 z" /><path fill-rule="evenodd" fill="#ffffffff" stroke="#00000000" stroke-width="0.0" opacity="0.6" d="M 29.5,12.7 L 30.5,12.7 L 30.5,12.3 L 29.5,12.3 L 29.5,12.7 z" /><path fill-rule="evenodd" fill="#ffffffff" stroke="#00000000" stroke-width="0.0" opacity="0.6" d="M 30.2,15.5 L 30.2,14.5 L 29.8,14.5 L 29.8,15.5 L 30.2,15.5 z" /><path fill-rule="evenodd" fill="#ffffffff" stroke="#00000000" stroke-width="0.0" opacity="0.6" d="M 28.64647238195899,28.36362966948437 L 28.596926627053964,28.380448186995487 L 28.55,28.403589838486223 L 28.51521846488945,28.42683011724113 L 28.60514548885022,28.5167571412019 L 28.6125,28.51184301395928 L 28.6447620560996,28.495933128559397 L 28.678824762596808,28.484370397770505 L 28.714105297139486,28.4773526631222 L 28.75,28.475 L 28.785894702860514,28.4773526631222 L 28.821175237403192,28.484370397770505 L 28.8552379439004,28.495933128559397 L 28.8875,28.51184301395928 L 28.89485451114978,28.5167571412019 L 28.98478153511055,28.42683011724113 L 28.95,28.403589838486223 L 28.903073372946036,28.380448186995487 L 28.85352761804101,28.36362966948437 L 28.80221047688802,28.353422055450476 L 28.75,28.35 L 28.69778952311198,28.353422055450476 L 28.64647238195899,28.36362966948437 z" /><path fill-rule="evenodd" fill="#ffffffff" stroke="#00000000" stroke-width="0.0" opacity="0.6" d="M 37.5,37.5 L 37.5,20.0 L 5.0,20.0 L 5.0,37.5 L 37.5,37.5 z M 31.99512028693251,25.574784252893934 L 32.33808675697025,25.818131940744887 L 32.65165042944955,26.098349570550447 L 32.93186805925511,26.411913243029748 L 33.175215747106066,26.75487971306749 L 33.37863325463407,27.122935978309155 L 33.53956248865638,27.511453517668123 L 33.65597967068184,27.91554649766382 L 33.726420787099656,28.330133214612594 L 33.75,28.75 L 33.72642078709966,29.169866785387402 L 33.65597967068184,29.584453502336178 L 33.53956248865638,29.988546482331877 L 33.378633254634074,30.377064021690842 L 33.175215747106066,30.74512028693251 L 32.93186805925511,31.08808675697025 L 32.65165042944955,31.401650429449553 L 32.33808675697025,31.681868059255113 L 31.99512028693251,31.925215747106066 L 31.627064021690845,32.128633254634074 L 31.238546482331877,32.28956248865638 L 30.834453502336178,32.40597967068184 L 30.419866785387406,32.47642078709966 L 30.0,32.5 L 12.5,32.5 L 12.499999999999995,32.5 L 12.34302370117671,32.49506682107068 L 12.186666916089234,32.480286753286194 L 12.031546713535683,32.45571812682172 L 11.878275282087857,32.42145790282158 L 11.727457514062626,32.377641290737884 L 11.579688618288301,32.32444121472063 L 11.435551771087315,32.262067631165046 L 11.295615814745709,32.190766700109656 L 11.160433012552506,32.110819813755036 L 11.030536869268815,32.022542485937365 L 10.906440025628273,31.926283106939472 L 10.788632235178277,31.822421568553526 L 10.67757843144647,31.71136776482172 L 10.573716893060524,31.593559974371722 L 10.47745751406263,31.46946313073118 L 10.38918018624496,31.33956698744749 L 10.30923329989034,31.204384185254288 L 10.23793236883495,31.06444822891268 L 10.175558785279371,30.92031138171169 L 10.122358709262116,30.772542485937368 L 10.078542097178422,30.621724717912137 L 10.044281873178278,30.46845328646431 L 10.019713246713806,30.31333308391076 L 10.00493317892932,30.156976298823285 L 10.0,30.0 L 10.0,25.0 L 30.0,25.0 L 30.419866785387402,25.02357921290034 L 30.834453502336178,25.094020329318163 L 31.238546482331873,25.21043751134362 L 31.627064021690842,25.371366745365926 L 31.99512028693251,25.574784252893934 z" /><path fill-rule="evenodd" fill="#ffffffff" stroke="#00000000" stroke-width="0.0" opacity="0.6" d="M 28.36362966948437,28.85352761804101 L 28.380448186995487,28.903073372946036 L 28.403589838486223,28.95 L 28.42683011724113,28.98478153511055 L 28.5167571412019,28.89485451114978 L 28.51184301395928,28.8875 L 28.495933128559397,28.8552379439004 L 28.484370397770505,28.821175237403192 L 28.4773526631222,28.785894702860514 L 28.475,28.75 L 28.4773526631222,28.714105297139486 L 28.484370397770505,28.678824762596808 L 28.495933128559397,28.6447620560996 L 28.51184301395928,28.6125 L 28.5167571412019,28.60514548885022 L 28.42683011724113,28.51521846488945 L 28.403589838486223,28.55 L 28.380448186995487,28.596926627053964 L 28.36362966948437,28.64647238195899 L 28.353422055450476,28.69778952311198 L 28.35,28.75 L 28.353422055450476,28.80221047688802 L 28.36362966948437,28.85352761804101 z" /><path fill-rule="evenodd" fill="#ffffffff" stroke="#00000000" stroke-width="0.0" opacity="0.6" d="M 29.119551813004513,28.596926627053964 L 29.096410161513777,28.55 L 29.07316988275887,28.51521846488945 L 28.9832428587981,28.60514548885022 L 28.98815698604072,28.6125 L 29.004066871440603,28.6447620560996 L 29.015629602229495,28.678824762596808 L 29.0226473368778,28.714105297139486 L 29.025,28.75 L 29.0226473368778,28.785894702860514 L 29.015629602229495,28.821175237403192 L 29.004066871440603,28.8552379439004 L 28.98815698604072,28.8875 L 28.9832428587981,28.89485451114978 L 29.07316988275887,28.98478153511055 L 29.096410161513777,28.95 L 29.119551813004513,28.903073372946036 L 29.13637033051563,28.85352761804101 L 29.146577944549524,28.80221047688802 L 29.15,28.75 L 29.146577944549524,28.69778952311198 L 29.13637033051563,28.64647238195899 L 29.119551813004513,28.596926627053964 z" /><path fill-rule="evenodd" fill="#ffffffff" stroke="#00000000" stroke-width="0.0" opacity="0.6" d="M 28.85352761804101,29.13637033051563 L 28.903073372946036,29.119551813004513 L 28.95,29.096410161513777 L 28.98478153511055,29.07316988275887 L 28.89485451114978,28.9832428587981 L 28.8875,28.98815698604072 L 28.8552379439004,29.004066871440603 L 28.821175237403192,29.015629602229495 L 28.785894702860514,29.0226473368778 L 28.75,29.025 L 28.714105297139486,29.0226473368778 L 28.678824762596808,29.015629602229495 L 28.6447620560996,29.004066871440603 L 28.6125,28.98815698604072 L 28.60514548885022,28.9832428587981 L 28.51521846488945,29.07316988275887 L 28.55,29.096410161513777 L 28.596926627053964,29.119551813004513 L 28.64647238195899,29.13637033051563 L 28.69778952311198,29.146577944549524 L 28.75,29.15 L 28.80221047688802,29.146577944549524 L 28.85352761804101,29.13637033051563 z" /></g></g></svg>
