G04 FreePCB version 1.355*
G04 C:\FcPoly-Ttest\top_silk.grb*
G04 top silk layer *
G04 Scale: 100 percent, Rotated: No, Reflected: No *
%FSLAX24Y24*%
%MOIN*%
%LN top silk *%
G04 Rounded Rectangle Macro, params: W/2, H/2, R *
%AMRNDREC*
21,1,$1+$1,$2+$2-$3-$3,0,0,0*
21,1,$1+$1-$3-$3,$2+$2,0,0,0*
1,1,$3+$3,$1-$3,$2-$3*
1,1,$3+$3,$3-$1,$2-$3*
1,1,$3+$3,$1-$3,$3-$2*
1,1,$3+$3,$3-$1,$3-$2*%
G04 Rectangular Thermal Macro, params: W/2, H/2, T/2 *
%AMRECTHERM*
$4=$3/2*
21,1,$1-$3,$2-$3,0-$1/2-$4,0-$2/2-$4,0*
21,1,$1-$3,$2-$3,0-$1/2-$4,$2/2+$4,0*
21,1,$1-$3,$2-$3,$1/2+$4,0-$2/2-$4,0*
21,1,$1-$3,$2-$3,$1/2+$4,$2/2+$4,0*%
%ADD10C,0.005000*%
%ADD11C,0.007000*%
%ADD12C,0.010000*%
G90*
G70D02*

G04 Step and Repeat for panelization *

G04 ----------------------- Draw board outline (positive)*
%LPD*%
G54D10*
G01X0Y11800D02*
G01X23250Y11800D01*
G04 end of side 1*
G01X23250Y0D01*
G04 end of side 2*
G01X0Y0D01*
G04 end of side 3*
G01X0Y11800D01*

G04 -------------- Draw Parts, Pads, Traces, Vias and Text (positive)*
%LPD*%
G04 Draw part J1*
G04 draw part outline for part J1*
G54D11*
G01X4460Y8400D02*
G01X4460Y3400D01*
G01X4460Y3400D02*
G01X3460Y3400D01*
G01X3460Y3400D02*
G01X3460Y8400D01*
G01X3460Y8400D02*
G01X4460Y8400D01*
G04 draw reference designator for part J1*
G01X3869Y8834D02*
G01X3869Y8579D01*
G01X3869Y8579D02*
G01X3853Y8531D01*
G01X3853Y8531D02*
G01X3837Y8515D01*
G01X3837Y8515D02*
G01X3805Y8500D01*
G01X3773Y8500D02*
G01X3805Y8500D01*
G01X3741Y8515D02*
G01X3773Y8500D01*
G01X3725Y8531D02*
G01X3741Y8515D01*
G01X3710Y8579D02*
G01X3725Y8531D01*
G01X3710Y8611D02*
G01X3710Y8579D01*
G01X4028Y8786D02*
G01X3996Y8770D01*
G01X4075Y8834D02*
G01X4028Y8786D01*
G01X4075Y8834D02*
G01X4075Y8500D01*
G04 Draw part C1*
G04 draw part outline for part C1*
G01X5886Y8625D02*
G01X5886Y10122D01*
G01X5886Y10122D02*
G01X6673Y10122D01*
G01X6673Y10122D02*
G01X6673Y8625D01*
G01X6673Y8625D02*
G01X5886Y8625D01*
G04 draw reference designator for part C1*
G01X5993Y9322D02*
G01X6025Y9338D01*
G01X5961Y9290D02*
G01X5993Y9322D01*
G01X5945Y9259D02*
G01X5961Y9290D01*
G01X5945Y9195D02*
G01X5945Y9259D01*
G01X5945Y9195D02*
G01X5961Y9163D01*
G01X5961Y9163D02*
G01X5993Y9131D01*
G01X5993Y9131D02*
G01X6025Y9115D01*
G01X6025Y9115D02*
G01X6073Y9100D01*
G01X6073Y9100D02*
G01X6152Y9100D01*
G01X6152Y9100D02*
G01X6200Y9115D01*
G01X6200Y9115D02*
G01X6232Y9131D01*
G01X6232Y9131D02*
G01X6264Y9163D01*
G01X6264Y9163D02*
G01X6280Y9195D01*
G01X6280Y9259D02*
G01X6280Y9195D01*
G01X6264Y9290D02*
G01X6280Y9259D01*
G01X6232Y9322D02*
G01X6264Y9290D01*
G01X6200Y9338D02*
G01X6232Y9322D01*
G01X5993Y9497D02*
G01X6009Y9465D01*
G01X5945Y9545D02*
G01X5993Y9497D01*
G01X5945Y9545D02*
G01X6280Y9545D01*
G04 draw value for part C1*
G01X6393Y8631D02*
G01X6409Y8600D01*
G01X6345Y8679D02*
G01X6393Y8631D01*
G01X6345Y8679D02*
G01X6680Y8679D01*
G01X6345Y8902D02*
G01X6361Y8854D01*
G01X6361Y8854D02*
G01X6409Y8822D01*
G01X6409Y8822D02*
G01X6489Y8806D01*
G01X6489Y8806D02*
G01X6536Y8806D01*
G01X6536Y8806D02*
G01X6616Y8822D01*
G01X6616Y8822D02*
G01X6664Y8854D01*
G01X6664Y8854D02*
G01X6680Y8902D01*
G01X6680Y8934D02*
G01X6680Y8902D01*
G01X6664Y8981D02*
G01X6680Y8934D01*
G01X6616Y9013D02*
G01X6664Y8981D01*
G01X6536Y9029D02*
G01X6616Y9013D01*
G01X6489Y9029D02*
G01X6536Y9029D01*
G01X6409Y9013D02*
G01X6489Y9029D01*
G01X6361Y8981D02*
G01X6409Y9013D01*
G01X6345Y8934D02*
G01X6361Y8981D01*
G01X6345Y8902D02*
G01X6345Y8934D01*
G01X6345Y9252D02*
G01X6361Y9204D01*
G01X6361Y9204D02*
G01X6409Y9172D01*
G01X6409Y9172D02*
G01X6489Y9156D01*
G01X6489Y9156D02*
G01X6536Y9156D01*
G01X6536Y9156D02*
G01X6616Y9172D01*
G01X6616Y9172D02*
G01X6664Y9204D01*
G01X6664Y9204D02*
G01X6680Y9252D01*
G01X6680Y9284D02*
G01X6680Y9252D01*
G01X6664Y9331D02*
G01X6680Y9284D01*
G01X6616Y9363D02*
G01X6664Y9331D01*
G01X6536Y9379D02*
G01X6616Y9363D01*
G01X6489Y9379D02*
G01X6536Y9379D01*
G01X6409Y9363D02*
G01X6489Y9379D01*
G01X6361Y9331D02*
G01X6409Y9363D01*
G01X6345Y9284D02*
G01X6361Y9331D01*
G01X6345Y9252D02*
G01X6345Y9284D01*
G01X6457Y9506D02*
G01X6680Y9506D01*
G01X6473Y9554D02*
G01X6520Y9506D01*
G01X6457Y9586D02*
G01X6473Y9554D01*
G01X6457Y9634D02*
G01X6457Y9586D01*
G01X6457Y9634D02*
G01X6473Y9665D01*
G01X6473Y9665D02*
G01X6520Y9681D01*
G01X6520Y9681D02*
G01X6680Y9681D01*
G04 Draw part C2*
G04 draw part outline for part C2*
G01X7100Y8240D02*
G01X7100Y9990D01*
G01X7100Y9990D02*
G01X8900Y9990D01*
G01X8900Y9990D02*
G01X8900Y8240D01*
G01X8900Y8240D02*
G01X8550Y7990D01*
G01X8550Y7990D02*
G01X7450Y7990D01*
G01X7450Y7990D02*
G01X7100Y8240D01*
G04 draw reference designator for part C2*
G01X7872Y9376D02*
G01X7888Y9344D01*
G01X7840Y9408D02*
G01X7872Y9376D01*
G01X7809Y9424D02*
G01X7840Y9408D01*
G01X7745Y9424D02*
G01X7809Y9424D01*
G01X7745Y9424D02*
G01X7713Y9408D01*
G01X7713Y9408D02*
G01X7681Y9376D01*
G01X7681Y9376D02*
G01X7665Y9344D01*
G01X7665Y9344D02*
G01X7650Y9296D01*
G01X7650Y9296D02*
G01X7650Y9217D01*
G01X7650Y9217D02*
G01X7665Y9169D01*
G01X7665Y9169D02*
G01X7681Y9137D01*
G01X7681Y9137D02*
G01X7713Y9105D01*
G01X7713Y9105D02*
G01X7745Y9090D01*
G01X7809Y9090D02*
G01X7745Y9090D01*
G01X7840Y9105D02*
G01X7809Y9090D01*
G01X7872Y9137D02*
G01X7840Y9105D01*
G01X7888Y9169D02*
G01X7872Y9137D01*
G01X8031Y9360D02*
G01X8031Y9344D01*
G01X8047Y9392D02*
G01X8031Y9360D01*
G01X8063Y9408D02*
G01X8047Y9392D01*
G01X8095Y9424D02*
G01X8063Y9408D01*
G01X8159Y9424D02*
G01X8095Y9424D01*
G01X8159Y9424D02*
G01X8190Y9408D01*
G01X8190Y9408D02*
G01X8206Y9392D01*
G01X8206Y9392D02*
G01X8222Y9360D01*
G01X8222Y9360D02*
G01X8222Y9328D01*
G01X8222Y9328D02*
G01X8206Y9296D01*
G01X8206Y9296D02*
G01X8175Y9249D01*
G01X8175Y9249D02*
G01X8015Y9090D01*
G01X8238Y9090D02*
G01X8015Y9090D01*
G04 draw value for part C2*
G01X7482Y8908D02*
G01X7451Y8892D01*
G01X7530Y8956D02*
G01X7482Y8908D01*
G01X7530Y8956D02*
G01X7530Y8622D01*
G01X7753Y8956D02*
G01X7705Y8940D01*
G01X7705Y8940D02*
G01X7673Y8892D01*
G01X7673Y8892D02*
G01X7657Y8812D01*
G01X7657Y8812D02*
G01X7657Y8765D01*
G01X7657Y8765D02*
G01X7673Y8685D01*
G01X7673Y8685D02*
G01X7705Y8637D01*
G01X7705Y8637D02*
G01X7753Y8622D01*
G01X7785Y8622D02*
G01X7753Y8622D01*
G01X7832Y8637D02*
G01X7785Y8622D01*
G01X7864Y8685D02*
G01X7832Y8637D01*
G01X7880Y8765D02*
G01X7864Y8685D01*
G01X7880Y8812D02*
G01X7880Y8765D01*
G01X7864Y8892D02*
G01X7880Y8812D01*
G01X7832Y8940D02*
G01X7864Y8892D01*
G01X7785Y8956D02*
G01X7832Y8940D01*
G01X7753Y8956D02*
G01X7785Y8956D01*
G01X8103Y8956D02*
G01X8055Y8940D01*
G01X8055Y8940D02*
G01X8023Y8892D01*
G01X8023Y8892D02*
G01X8007Y8812D01*
G01X8007Y8812D02*
G01X8007Y8765D01*
G01X8007Y8765D02*
G01X8023Y8685D01*
G01X8023Y8685D02*
G01X8055Y8637D01*
G01X8055Y8637D02*
G01X8103Y8622D01*
G01X8135Y8622D02*
G01X8103Y8622D01*
G01X8182Y8637D02*
G01X8135Y8622D01*
G01X8214Y8685D02*
G01X8182Y8637D01*
G01X8230Y8765D02*
G01X8214Y8685D01*
G01X8230Y8812D02*
G01X8230Y8765D01*
G01X8214Y8892D02*
G01X8230Y8812D01*
G01X8182Y8940D02*
G01X8214Y8892D01*
G01X8135Y8956D02*
G01X8182Y8940D01*
G01X8103Y8956D02*
G01X8135Y8956D01*
G01X8357Y8844D02*
G01X8357Y8685D01*
G01X8357Y8685D02*
G01X8373Y8637D01*
G01X8373Y8637D02*
G01X8405Y8622D01*
G01X8453Y8622D02*
G01X8405Y8622D01*
G01X8485Y8637D02*
G01X8453Y8622D01*
G01X8532Y8685D02*
G01X8485Y8637D01*
G01X8532Y8844D02*
G01X8532Y8622D01*
G04 Draw part U1*
G04 draw part outline for part U1*
G01X10259Y5475D02*
G01X10259Y1424D01*
G01X10259Y1424D02*
G01X12976Y1420D01*
G01X12976Y1420D02*
G01X12976Y5475D01*
G01X12976Y5475D02*
G01X10259Y5475D01*
G01X11126Y5475D02*
G01X11126Y5278D01*
G01X11126Y5278D02*
G01X11992Y5278D01*
G01X11992Y5278D02*
G01X11992Y5475D01*
G01X11992Y5475D02*
G01X11126Y5475D01*
G04 draw reference designator for part U1*
G01X10950Y3150D02*
G01X11257Y3150D01*
G01X11257Y3150D02*
G01X11318Y3170D01*
G01X11318Y3170D02*
G01X11359Y3211D01*
G01X11359Y3211D02*
G01X11380Y3272D01*
G01X11380Y3313D02*
G01X11380Y3272D01*
G01X11359Y3375D02*
G01X11380Y3313D01*
G01X11318Y3415D02*
G01X11359Y3375D01*
G01X11257Y3436D02*
G01X11318Y3415D01*
G01X10950Y3436D02*
G01X11257Y3436D01*
G01X11011Y3640D02*
G01X11032Y3600D01*
G01X10950Y3702D02*
G01X11011Y3640D01*
G01X10950Y3702D02*
G01X11380Y3702D01*
G04 draw value for part U1*
G01X11711Y1859D02*
G01X12141Y1696D01*
G01X11711Y1859D02*
G01X12141Y2023D01*
G01X11997Y1961D02*
G01X11997Y1757D01*
G01X11711Y2186D02*
G01X12141Y2186D01*
G01X11711Y2330D02*
G01X11711Y2186D01*
G01X11711Y2330D02*
G01X11731Y2391D01*
G01X11731Y2391D02*
G01X11772Y2432D01*
G01X11772Y2432D02*
G01X11813Y2452D01*
G01X11813Y2452D02*
G01X11875Y2473D01*
G01X11875Y2473D02*
G01X11977Y2473D01*
G01X11977Y2473D02*
G01X12038Y2452D01*
G01X12038Y2452D02*
G01X12079Y2432D01*
G01X12079Y2432D02*
G01X12120Y2391D01*
G01X12120Y2391D02*
G01X12141Y2330D01*
G01X12141Y2186D02*
G01X12141Y2330D01*
G01X11711Y2636D02*
G01X12018Y2636D01*
G01X12018Y2636D02*
G01X12079Y2657D01*
G01X12079Y2657D02*
G01X12120Y2698D01*
G01X12120Y2698D02*
G01X12141Y2759D01*
G01X12141Y2800D02*
G01X12141Y2759D01*
G01X12120Y2861D02*
G01X12141Y2800D01*
G01X12079Y2902D02*
G01X12120Y2861D01*
G01X12018Y2923D02*
G01X12079Y2902D01*
G01X11711Y2923D02*
G01X12018Y2923D01*
G01X11711Y3086D02*
G01X12141Y3086D01*
G01X11711Y3086D02*
G01X12141Y3250D01*
G01X11711Y3414D02*
G01X12141Y3250D01*
G01X11711Y3414D02*
G01X12141Y3414D01*
G01X11711Y3782D02*
G01X11997Y3577D01*
G01X11997Y3884D02*
G01X11997Y3577D01*
G01X11711Y3782D02*
G01X12141Y3782D01*
G01X11772Y4089D02*
G01X11793Y4048D01*
G01X11711Y4150D02*
G01X11772Y4089D01*
G01X11711Y4150D02*
G01X12141Y4150D01*
G01X11731Y4539D02*
G01X11772Y4559D01*
G01X11711Y4477D02*
G01X11731Y4539D01*
G01X11711Y4436D02*
G01X11711Y4477D01*
G01X11711Y4436D02*
G01X11731Y4375D01*
G01X11731Y4375D02*
G01X11793Y4334D01*
G01X11793Y4334D02*
G01X11895Y4314D01*
G01X11895Y4314D02*
G01X11997Y4314D01*
G01X11997Y4314D02*
G01X12079Y4334D01*
G01X12079Y4334D02*
G01X12120Y4375D01*
G01X12120Y4375D02*
G01X12141Y4436D01*
G01X12141Y4457D02*
G01X12141Y4436D01*
G01X12120Y4518D02*
G01X12141Y4457D01*
G01X12079Y4559D02*
G01X12120Y4518D01*
G01X12018Y4580D02*
G01X12079Y4559D01*
G01X11997Y4580D02*
G01X12018Y4580D01*
G01X11936Y4559D02*
G01X11997Y4580D01*
G01X11895Y4518D02*
G01X11936Y4559D01*
G01X11875Y4457D02*
G01X11895Y4518D01*
G01X11875Y4436D02*
G01X11875Y4457D01*
G01X11875Y4436D02*
G01X11895Y4375D01*
G01X11895Y4375D02*
G01X11936Y4334D01*
G01X11936Y4334D02*
G01X11997Y4314D01*
G01X11711Y4866D02*
G01X11731Y4805D01*
G01X11731Y4805D02*
G01X11793Y4764D01*
G01X11793Y4764D02*
G01X11895Y4743D01*
G01X11895Y4743D02*
G01X11956Y4743D01*
G01X11956Y4743D02*
G01X12059Y4764D01*
G01X12059Y4764D02*
G01X12120Y4805D01*
G01X12120Y4805D02*
G01X12141Y4866D01*
G01X12141Y4907D02*
G01X12141Y4866D01*
G01X12120Y4968D02*
G01X12141Y4907D01*
G01X12059Y5009D02*
G01X12120Y4968D01*
G01X11956Y5030D02*
G01X12059Y5009D01*
G01X11895Y5030D02*
G01X11956Y5030D01*
G01X11793Y5009D02*
G01X11895Y5030D01*
G01X11731Y4968D02*
G01X11793Y5009D01*
G01X11711Y4907D02*
G01X11731Y4968D01*
G01X11711Y4866D02*
G01X11711Y4907D01*
G04 Draw part C3*
G04 draw part outline for part C3*
G01X8713Y5074D02*
G01X8713Y3577D01*
G01X8713Y3577D02*
G01X7926Y3577D01*
G01X7926Y3577D02*
G01X7926Y5074D01*
G01X7926Y5074D02*
G01X8713Y5074D01*
G04 draw reference designator for part C3*
G01X8033Y4222D02*
G01X8065Y4238D01*
G01X8001Y4190D02*
G01X8033Y4222D01*
G01X7985Y4159D02*
G01X8001Y4190D01*
G01X7985Y4095D02*
G01X7985Y4159D01*
G01X7985Y4095D02*
G01X8001Y4063D01*
G01X8001Y4063D02*
G01X8033Y4031D01*
G01X8033Y4031D02*
G01X8065Y4015D01*
G01X8065Y4015D02*
G01X8113Y4000D01*
G01X8113Y4000D02*
G01X8192Y4000D01*
G01X8192Y4000D02*
G01X8240Y4015D01*
G01X8240Y4015D02*
G01X8272Y4031D01*
G01X8272Y4031D02*
G01X8304Y4063D01*
G01X8304Y4063D02*
G01X8320Y4095D01*
G01X8320Y4159D02*
G01X8320Y4095D01*
G01X8304Y4190D02*
G01X8320Y4159D01*
G01X8272Y4222D02*
G01X8304Y4190D01*
G01X8240Y4238D02*
G01X8272Y4222D01*
G01X7985Y4572D02*
G01X7985Y4397D01*
G01X7985Y4572D02*
G01X8113Y4477D01*
G01X8113Y4525D02*
G01X8113Y4477D01*
G01X8113Y4525D02*
G01X8129Y4556D01*
G01X8129Y4556D02*
G01X8145Y4572D01*
G01X8145Y4572D02*
G01X8192Y4588D01*
G01X8192Y4588D02*
G01X8224Y4588D01*
G01X8224Y4588D02*
G01X8272Y4572D01*
G01X8272Y4572D02*
G01X8304Y4540D01*
G01X8304Y4540D02*
G01X8320Y4493D01*
G01X8320Y4445D02*
G01X8320Y4493D01*
G01X8304Y4397D02*
G01X8320Y4445D01*
G01X8288Y4381D02*
G01X8304Y4397D01*
G01X8256Y4365D02*
G01X8288Y4381D01*
G04 draw value for part C3*
G01X8445Y3854D02*
G01X8461Y3823D01*
G01X8397Y3902D02*
G01X8445Y3854D01*
G01X8397Y3902D02*
G01X8732Y3902D01*
G01X8397Y4125D02*
G01X8413Y4077D01*
G01X8413Y4077D02*
G01X8461Y4045D01*
G01X8461Y4045D02*
G01X8541Y4029D01*
G01X8541Y4029D02*
G01X8588Y4029D01*
G01X8588Y4029D02*
G01X8668Y4045D01*
G01X8668Y4045D02*
G01X8716Y4077D01*
G01X8716Y4077D02*
G01X8732Y4125D01*
G01X8732Y4157D02*
G01X8732Y4125D01*
G01X8716Y4204D02*
G01X8732Y4157D01*
G01X8668Y4236D02*
G01X8716Y4204D01*
G01X8588Y4252D02*
G01X8668Y4236D01*
G01X8541Y4252D02*
G01X8588Y4252D01*
G01X8461Y4236D02*
G01X8541Y4252D01*
G01X8413Y4204D02*
G01X8461Y4236D01*
G01X8397Y4157D02*
G01X8413Y4204D01*
G01X8397Y4125D02*
G01X8397Y4157D01*
G01X8397Y4475D02*
G01X8413Y4427D01*
G01X8413Y4427D02*
G01X8461Y4395D01*
G01X8461Y4395D02*
G01X8541Y4379D01*
G01X8541Y4379D02*
G01X8588Y4379D01*
G01X8588Y4379D02*
G01X8668Y4395D01*
G01X8668Y4395D02*
G01X8716Y4427D01*
G01X8716Y4427D02*
G01X8732Y4475D01*
G01X8732Y4507D02*
G01X8732Y4475D01*
G01X8716Y4554D02*
G01X8732Y4507D01*
G01X8668Y4586D02*
G01X8716Y4554D01*
G01X8588Y4602D02*
G01X8668Y4586D01*
G01X8541Y4602D02*
G01X8588Y4602D01*
G01X8461Y4586D02*
G01X8541Y4602D01*
G01X8413Y4554D02*
G01X8461Y4586D01*
G01X8397Y4507D02*
G01X8413Y4554D01*
G01X8397Y4475D02*
G01X8397Y4507D01*
G01X8509Y4729D02*
G01X8732Y4729D01*
G01X8525Y4777D02*
G01X8572Y4729D01*
G01X8509Y4809D02*
G01X8525Y4777D01*
G01X8509Y4857D02*
G01X8509Y4809D01*
G01X8509Y4857D02*
G01X8525Y4888D01*
G01X8525Y4888D02*
G01X8572Y4904D01*
G01X8572Y4904D02*
G01X8732Y4904D01*
G04 Draw part C4*
G04 draw part outline for part C4*
G01X8713Y6754D02*
G01X8713Y5257D01*
G01X8713Y5257D02*
G01X7926Y5257D01*
G01X7926Y5257D02*
G01X7926Y6754D01*
G01X7926Y6754D02*
G01X8713Y6754D01*
G04 draw reference designator for part C4*
G01X8033Y5952D02*
G01X8065Y5968D01*
G01X8001Y5920D02*
G01X8033Y5952D01*
G01X7985Y5889D02*
G01X8001Y5920D01*
G01X7985Y5825D02*
G01X7985Y5889D01*
G01X7985Y5825D02*
G01X8001Y5793D01*
G01X8001Y5793D02*
G01X8033Y5761D01*
G01X8033Y5761D02*
G01X8065Y5745D01*
G01X8065Y5745D02*
G01X8113Y5730D01*
G01X8113Y5730D02*
G01X8192Y5730D01*
G01X8192Y5730D02*
G01X8240Y5745D01*
G01X8240Y5745D02*
G01X8272Y5761D01*
G01X8272Y5761D02*
G01X8304Y5793D01*
G01X8304Y5793D02*
G01X8320Y5825D01*
G01X8320Y5889D02*
G01X8320Y5825D01*
G01X8304Y5920D02*
G01X8320Y5889D01*
G01X8272Y5952D02*
G01X8304Y5920D01*
G01X8240Y5968D02*
G01X8272Y5952D01*
G01X7985Y6255D02*
G01X8208Y6095D01*
G01X8208Y6334D02*
G01X8208Y6095D01*
G01X7985Y6255D02*
G01X8320Y6255D01*
G04 draw value for part C4*
G01X8454Y5438D02*
G01X8470Y5407D01*
G01X8406Y5486D02*
G01X8454Y5438D01*
G01X8406Y5486D02*
G01X8741Y5486D01*
G01X8406Y5709D02*
G01X8422Y5661D01*
G01X8422Y5661D02*
G01X8470Y5629D01*
G01X8470Y5629D02*
G01X8550Y5613D01*
G01X8550Y5613D02*
G01X8597Y5613D01*
G01X8597Y5613D02*
G01X8677Y5629D01*
G01X8677Y5629D02*
G01X8725Y5661D01*
G01X8725Y5661D02*
G01X8741Y5709D01*
G01X8741Y5741D02*
G01X8741Y5709D01*
G01X8725Y5788D02*
G01X8741Y5741D01*
G01X8677Y5820D02*
G01X8725Y5788D01*
G01X8597Y5836D02*
G01X8677Y5820D01*
G01X8550Y5836D02*
G01X8597Y5836D01*
G01X8470Y5820D02*
G01X8550Y5836D01*
G01X8422Y5788D02*
G01X8470Y5820D01*
G01X8406Y5741D02*
G01X8422Y5788D01*
G01X8406Y5709D02*
G01X8406Y5741D01*
G01X8406Y6059D02*
G01X8422Y6011D01*
G01X8422Y6011D02*
G01X8470Y5979D01*
G01X8470Y5979D02*
G01X8550Y5963D01*
G01X8550Y5963D02*
G01X8597Y5963D01*
G01X8597Y5963D02*
G01X8677Y5979D01*
G01X8677Y5979D02*
G01X8725Y6011D01*
G01X8725Y6011D02*
G01X8741Y6059D01*
G01X8741Y6091D02*
G01X8741Y6059D01*
G01X8725Y6138D02*
G01X8741Y6091D01*
G01X8677Y6170D02*
G01X8725Y6138D01*
G01X8597Y6186D02*
G01X8677Y6170D01*
G01X8550Y6186D02*
G01X8597Y6186D01*
G01X8470Y6170D02*
G01X8550Y6186D01*
G01X8422Y6138D02*
G01X8470Y6170D01*
G01X8406Y6091D02*
G01X8422Y6138D01*
G01X8406Y6059D02*
G01X8406Y6091D01*
G01X8518Y6313D02*
G01X8741Y6313D01*
G01X8534Y6361D02*
G01X8581Y6313D01*
G01X8518Y6393D02*
G01X8534Y6361D01*
G01X8518Y6441D02*
G01X8518Y6393D01*
G01X8518Y6441D02*
G01X8534Y6472D01*
G01X8534Y6472D02*
G01X8581Y6488D01*
G01X8581Y6488D02*
G01X8741Y6488D01*
G04 Draw part C5*
G04 draw part outline for part C5*
G01X15343Y7074D02*
G01X15343Y5577D01*
G01X15343Y5577D02*
G01X14556Y5577D01*
G01X14556Y5577D02*
G01X14556Y7074D01*
G01X14556Y7074D02*
G01X15343Y7074D01*
G04 draw reference designator for part C5*
G01X14663Y6222D02*
G01X14695Y6238D01*
G01X14631Y6190D02*
G01X14663Y6222D01*
G01X14615Y6159D02*
G01X14631Y6190D01*
G01X14615Y6095D02*
G01X14615Y6159D01*
G01X14615Y6095D02*
G01X14631Y6063D01*
G01X14631Y6063D02*
G01X14663Y6031D01*
G01X14663Y6031D02*
G01X14695Y6015D01*
G01X14695Y6015D02*
G01X14743Y6000D01*
G01X14743Y6000D02*
G01X14822Y6000D01*
G01X14822Y6000D02*
G01X14870Y6015D01*
G01X14870Y6015D02*
G01X14902Y6031D01*
G01X14902Y6031D02*
G01X14934Y6063D01*
G01X14934Y6063D02*
G01X14950Y6095D01*
G01X14950Y6159D02*
G01X14950Y6095D01*
G01X14934Y6190D02*
G01X14950Y6159D01*
G01X14902Y6222D02*
G01X14934Y6190D01*
G01X14870Y6238D02*
G01X14902Y6222D01*
G01X14615Y6397D02*
G01X14615Y6556D01*
G01X14615Y6397D02*
G01X14759Y6381D01*
G01X14743Y6397D02*
G01X14759Y6381D01*
G01X14727Y6445D02*
G01X14743Y6397D01*
G01X14727Y6493D02*
G01X14727Y6445D01*
G01X14727Y6493D02*
G01X14743Y6540D01*
G01X14743Y6540D02*
G01X14775Y6572D01*
G01X14775Y6572D02*
G01X14822Y6588D01*
G01X14822Y6588D02*
G01X14854Y6588D01*
G01X14854Y6588D02*
G01X14902Y6572D01*
G01X14902Y6572D02*
G01X14934Y6540D01*
G01X14934Y6540D02*
G01X14950Y6493D01*
G01X14950Y6445D02*
G01X14950Y6493D01*
G01X14934Y6397D02*
G01X14950Y6445D01*
G01X14918Y6381D02*
G01X14934Y6397D01*
G01X14886Y6365D02*
G01X14918Y6381D01*
G04 draw value for part C5*
G01X15063Y5798D02*
G01X15079Y5767D01*
G01X15015Y5846D02*
G01X15063Y5798D01*
G01X15015Y5846D02*
G01X15350Y5846D01*
G01X15015Y6069D02*
G01X15031Y6021D01*
G01X15031Y6021D02*
G01X15079Y5989D01*
G01X15079Y5989D02*
G01X15159Y5973D01*
G01X15159Y5973D02*
G01X15206Y5973D01*
G01X15206Y5973D02*
G01X15286Y5989D01*
G01X15286Y5989D02*
G01X15334Y6021D01*
G01X15334Y6021D02*
G01X15350Y6069D01*
G01X15350Y6101D02*
G01X15350Y6069D01*
G01X15334Y6148D02*
G01X15350Y6101D01*
G01X15286Y6180D02*
G01X15334Y6148D01*
G01X15206Y6196D02*
G01X15286Y6180D01*
G01X15159Y6196D02*
G01X15206Y6196D01*
G01X15079Y6180D02*
G01X15159Y6196D01*
G01X15031Y6148D02*
G01X15079Y6180D01*
G01X15015Y6101D02*
G01X15031Y6148D01*
G01X15015Y6069D02*
G01X15015Y6101D01*
G01X15015Y6419D02*
G01X15031Y6371D01*
G01X15031Y6371D02*
G01X15079Y6339D01*
G01X15079Y6339D02*
G01X15159Y6323D01*
G01X15159Y6323D02*
G01X15206Y6323D01*
G01X15206Y6323D02*
G01X15286Y6339D01*
G01X15286Y6339D02*
G01X15334Y6371D01*
G01X15334Y6371D02*
G01X15350Y6419D01*
G01X15350Y6451D02*
G01X15350Y6419D01*
G01X15334Y6498D02*
G01X15350Y6451D01*
G01X15286Y6530D02*
G01X15334Y6498D01*
G01X15206Y6546D02*
G01X15286Y6530D01*
G01X15159Y6546D02*
G01X15206Y6546D01*
G01X15079Y6530D02*
G01X15159Y6546D01*
G01X15031Y6498D02*
G01X15079Y6530D01*
G01X15015Y6451D02*
G01X15031Y6498D01*
G01X15015Y6419D02*
G01X15015Y6451D01*
G01X15127Y6673D02*
G01X15350Y6673D01*
G01X15143Y6721D02*
G01X15190Y6673D01*
G01X15127Y6753D02*
G01X15143Y6721D01*
G01X15127Y6801D02*
G01X15127Y6753D01*
G01X15127Y6801D02*
G01X15143Y6832D01*
G01X15143Y6832D02*
G01X15190Y6848D01*
G01X15190Y6848D02*
G01X15350Y6848D01*
G04 Draw part C6*
G04 draw part outline for part C6*
G01X15343Y5324D02*
G01X15343Y3827D01*
G01X15343Y3827D02*
G01X14556Y3827D01*
G01X14556Y3827D02*
G01X14556Y5324D01*
G01X14556Y5324D02*
G01X15343Y5324D01*
G04 draw reference designator for part C6*
G01X14663Y4472D02*
G01X14695Y4488D01*
G01X14631Y4440D02*
G01X14663Y4472D01*
G01X14615Y4409D02*
G01X14631Y4440D01*
G01X14615Y4345D02*
G01X14615Y4409D01*
G01X14615Y4345D02*
G01X14631Y4313D01*
G01X14631Y4313D02*
G01X14663Y4281D01*
G01X14663Y4281D02*
G01X14695Y4265D01*
G01X14695Y4265D02*
G01X14743Y4250D01*
G01X14743Y4250D02*
G01X14822Y4250D01*
G01X14822Y4250D02*
G01X14870Y4265D01*
G01X14870Y4265D02*
G01X14902Y4281D01*
G01X14902Y4281D02*
G01X14934Y4313D01*
G01X14934Y4313D02*
G01X14950Y4345D01*
G01X14950Y4409D02*
G01X14950Y4345D01*
G01X14934Y4440D02*
G01X14950Y4409D01*
G01X14902Y4472D02*
G01X14934Y4440D01*
G01X14870Y4488D02*
G01X14902Y4472D01*
G01X14631Y4790D02*
G01X14663Y4806D01*
G01X14615Y4743D02*
G01X14631Y4790D01*
G01X14615Y4711D02*
G01X14615Y4743D01*
G01X14615Y4711D02*
G01X14631Y4663D01*
G01X14631Y4663D02*
G01X14679Y4631D01*
G01X14679Y4631D02*
G01X14759Y4615D01*
G01X14759Y4615D02*
G01X14838Y4615D01*
G01X14838Y4615D02*
G01X14902Y4631D01*
G01X14902Y4631D02*
G01X14934Y4663D01*
G01X14934Y4663D02*
G01X14950Y4711D01*
G01X14950Y4727D02*
G01X14950Y4711D01*
G01X14934Y4775D02*
G01X14950Y4727D01*
G01X14902Y4806D02*
G01X14934Y4775D01*
G01X14854Y4822D02*
G01X14902Y4806D01*
G01X14838Y4822D02*
G01X14854Y4822D01*
G01X14790Y4806D02*
G01X14838Y4822D01*
G01X14759Y4775D02*
G01X14790Y4806D01*
G01X14743Y4727D02*
G01X14759Y4775D01*
G01X14743Y4711D02*
G01X14743Y4727D01*
G01X14743Y4711D02*
G01X14759Y4663D01*
G01X14759Y4663D02*
G01X14790Y4631D01*
G01X14790Y4631D02*
G01X14838Y4615D01*
G04 draw value for part C6*
G01X15092Y4053D02*
G01X15108Y4022D01*
G01X15044Y4101D02*
G01X15092Y4053D01*
G01X15044Y4101D02*
G01X15379Y4101D01*
G01X15044Y4324D02*
G01X15060Y4276D01*
G01X15060Y4276D02*
G01X15108Y4244D01*
G01X15108Y4244D02*
G01X15188Y4228D01*
G01X15188Y4228D02*
G01X15235Y4228D01*
G01X15235Y4228D02*
G01X15315Y4244D01*
G01X15315Y4244D02*
G01X15363Y4276D01*
G01X15363Y4276D02*
G01X15379Y4324D01*
G01X15379Y4356D02*
G01X15379Y4324D01*
G01X15363Y4403D02*
G01X15379Y4356D01*
G01X15315Y4435D02*
G01X15363Y4403D01*
G01X15235Y4451D02*
G01X15315Y4435D01*
G01X15188Y4451D02*
G01X15235Y4451D01*
G01X15108Y4435D02*
G01X15188Y4451D01*
G01X15060Y4403D02*
G01X15108Y4435D01*
G01X15044Y4356D02*
G01X15060Y4403D01*
G01X15044Y4324D02*
G01X15044Y4356D01*
G01X15044Y4674D02*
G01X15060Y4626D01*
G01X15060Y4626D02*
G01X15108Y4594D01*
G01X15108Y4594D02*
G01X15188Y4578D01*
G01X15188Y4578D02*
G01X15235Y4578D01*
G01X15235Y4578D02*
G01X15315Y4594D01*
G01X15315Y4594D02*
G01X15363Y4626D01*
G01X15363Y4626D02*
G01X15379Y4674D01*
G01X15379Y4706D02*
G01X15379Y4674D01*
G01X15363Y4753D02*
G01X15379Y4706D01*
G01X15315Y4785D02*
G01X15363Y4753D01*
G01X15235Y4801D02*
G01X15315Y4785D01*
G01X15188Y4801D02*
G01X15235Y4801D01*
G01X15108Y4785D02*
G01X15188Y4801D01*
G01X15060Y4753D02*
G01X15108Y4785D01*
G01X15044Y4706D02*
G01X15060Y4753D01*
G01X15044Y4674D02*
G01X15044Y4706D01*
G01X15156Y4928D02*
G01X15379Y4928D01*
G01X15172Y4976D02*
G01X15219Y4928D01*
G01X15156Y5008D02*
G01X15172Y4976D01*
G01X15156Y5056D02*
G01X15156Y5008D01*
G01X15156Y5056D02*
G01X15172Y5087D01*
G01X15172Y5087D02*
G01X15219Y5103D01*
G01X15219Y5103D02*
G01X15379Y5103D01*
G04 Draw part R1*
G04 draw part outline for part R1*
G01X5006Y5216D02*
G01X5006Y7342D01*
G01X5006Y7342D02*
G01X5873Y7342D01*
G01X5873Y7342D02*
G01X5873Y5216D01*
G01X5873Y5216D02*
G01X5006Y5216D01*
G04 draw reference designator for part R1*
G01X5065Y6000D02*
G01X5400Y6000D01*
G01X5065Y6143D02*
G01X5065Y6000D01*
G01X5065Y6143D02*
G01X5081Y6190D01*
G01X5081Y6190D02*
G01X5097Y6206D01*
G01X5097Y6206D02*
G01X5129Y6222D01*
G01X5129Y6222D02*
G01X5161Y6222D01*
G01X5161Y6222D02*
G01X5193Y6206D01*
G01X5193Y6206D02*
G01X5209Y6190D01*
G01X5209Y6190D02*
G01X5225Y6143D01*
G01X5225Y6000D02*
G01X5225Y6143D01*
G01X5225Y6111D02*
G01X5400Y6222D01*
G01X5113Y6381D02*
G01X5129Y6350D01*
G01X5065Y6429D02*
G01X5113Y6381D01*
G01X5065Y6429D02*
G01X5400Y6429D01*
G04 draw value for part R1*
G01X5626Y5757D02*
G01X5642Y5757D01*
G01X5594Y5773D02*
G01X5626Y5757D01*
G01X5578Y5789D02*
G01X5594Y5773D01*
G01X5562Y5821D02*
G01X5578Y5789D01*
G01X5562Y5885D02*
G01X5562Y5821D01*
G01X5562Y5885D02*
G01X5578Y5917D01*
G01X5578Y5917D02*
G01X5594Y5932D01*
G01X5594Y5932D02*
G01X5626Y5948D01*
G01X5626Y5948D02*
G01X5658Y5948D01*
G01X5658Y5948D02*
G01X5690Y5932D01*
G01X5690Y5932D02*
G01X5737Y5901D01*
G01X5737Y5901D02*
G01X5897Y5742D01*
G01X5897Y5964D02*
G01X5897Y5742D01*
G01X5562Y6251D02*
G01X5785Y6092D01*
G01X5785Y6330D02*
G01X5785Y6092D01*
G01X5562Y6251D02*
G01X5897Y6251D01*
G01X5562Y6457D02*
G01X5897Y6457D01*
G01X5562Y6601D02*
G01X5562Y6457D01*
G01X5562Y6601D02*
G01X5578Y6648D01*
G01X5578Y6648D02*
G01X5594Y6664D01*
G01X5594Y6664D02*
G01X5626Y6680D01*
G01X5626Y6680D02*
G01X5658Y6680D01*
G01X5658Y6680D02*
G01X5690Y6664D01*
G01X5690Y6664D02*
G01X5706Y6648D01*
G01X5706Y6648D02*
G01X5722Y6601D01*
G01X5722Y6457D02*
G01X5722Y6601D01*
G01X5722Y6569D02*
G01X5897Y6680D01*
G04 Draw part R2*
G04 draw part outline for part R2*
G01X7233Y1766D02*
G01X5107Y1766D01*
G01X5107Y1766D02*
G01X5107Y2633D01*
G01X5107Y2633D02*
G01X7233Y2633D01*
G01X7233Y2633D02*
G01X7233Y1766D01*
G04 draw reference designator for part R2*
G01X5850Y2584D02*
G01X5850Y2250D01*
G01X5993Y2584D02*
G01X5850Y2584D01*
G01X5993Y2584D02*
G01X6040Y2568D01*
G01X6040Y2568D02*
G01X6056Y2552D01*
G01X6056Y2552D02*
G01X6072Y2520D01*
G01X6072Y2520D02*
G01X6072Y2488D01*
G01X6072Y2488D02*
G01X6056Y2456D01*
G01X6056Y2456D02*
G01X6040Y2440D01*
G01X6040Y2440D02*
G01X5993Y2425D01*
G01X5850Y2425D02*
G01X5993Y2425D01*
G01X5961Y2425D02*
G01X6072Y2250D01*
G01X6215Y2520D02*
G01X6215Y2504D01*
G01X6231Y2552D02*
G01X6215Y2520D01*
G01X6247Y2568D02*
G01X6231Y2552D01*
G01X6279Y2584D02*
G01X6247Y2568D01*
G01X6343Y2584D02*
G01X6279Y2584D01*
G01X6343Y2584D02*
G01X6375Y2568D01*
G01X6375Y2568D02*
G01X6390Y2552D01*
G01X6390Y2552D02*
G01X6406Y2520D01*
G01X6406Y2520D02*
G01X6406Y2488D01*
G01X6406Y2488D02*
G01X6390Y2456D01*
G01X6390Y2456D02*
G01X6359Y2409D01*
G01X6359Y2409D02*
G01X6200Y2250D01*
G01X6422Y2250D02*
G01X6200Y2250D01*
G04 draw value for part R2*
G01X5702Y2000D02*
G01X5702Y1984D01*
G01X5718Y2032D02*
G01X5702Y2000D01*
G01X5734Y2048D02*
G01X5718Y2032D01*
G01X5766Y2064D02*
G01X5734Y2048D01*
G01X5830Y2064D02*
G01X5766Y2064D01*
G01X5830Y2064D02*
G01X5862Y2048D01*
G01X5862Y2048D02*
G01X5877Y2032D01*
G01X5877Y2032D02*
G01X5893Y2000D01*
G01X5893Y2000D02*
G01X5893Y1968D01*
G01X5893Y1968D02*
G01X5877Y1936D01*
G01X5877Y1936D02*
G01X5846Y1889D01*
G01X5846Y1889D02*
G01X5687Y1730D01*
G01X5909Y1730D02*
G01X5687Y1730D01*
G01X6196Y2064D02*
G01X6037Y1841D01*
G01X6275Y1841D02*
G01X6037Y1841D01*
G01X6196Y2064D02*
G01X6196Y1730D01*
G01X6402Y2064D02*
G01X6402Y1730D01*
G01X6546Y2064D02*
G01X6402Y2064D01*
G01X6546Y2064D02*
G01X6593Y2048D01*
G01X6593Y2048D02*
G01X6609Y2032D01*
G01X6609Y2032D02*
G01X6625Y2000D01*
G01X6625Y2000D02*
G01X6625Y1968D01*
G01X6625Y1968D02*
G01X6609Y1936D01*
G01X6609Y1936D02*
G01X6593Y1920D01*
G01X6593Y1920D02*
G01X6546Y1905D01*
G01X6402Y1905D02*
G01X6546Y1905D01*
G01X6514Y1905D02*
G01X6625Y1730D01*
G04 Draw part R3*
G04 draw part outline for part R3*
G01X18153Y7293D02*
G01X18153Y5167D01*
G01X18153Y5167D02*
G01X17286Y5167D01*
G01X17286Y5167D02*
G01X17286Y7293D01*
G01X17286Y7293D02*
G01X18153Y7293D01*
G04 draw reference designator for part R3*
G01X17385Y5910D02*
G01X17720Y5910D01*
G01X17385Y6053D02*
G01X17385Y5910D01*
G01X17385Y6053D02*
G01X17401Y6100D01*
G01X17401Y6100D02*
G01X17417Y6116D01*
G01X17417Y6116D02*
G01X17449Y6132D01*
G01X17449Y6132D02*
G01X17481Y6132D01*
G01X17481Y6132D02*
G01X17513Y6116D01*
G01X17513Y6116D02*
G01X17529Y6100D01*
G01X17529Y6100D02*
G01X17545Y6053D01*
G01X17545Y5910D02*
G01X17545Y6053D01*
G01X17545Y6021D02*
G01X17720Y6132D01*
G01X17385Y6466D02*
G01X17385Y6291D01*
G01X17385Y6466D02*
G01X17513Y6371D01*
G01X17513Y6419D02*
G01X17513Y6371D01*
G01X17513Y6419D02*
G01X17529Y6450D01*
G01X17529Y6450D02*
G01X17545Y6466D01*
G01X17545Y6466D02*
G01X17592Y6482D01*
G01X17592Y6482D02*
G01X17624Y6482D01*
G01X17624Y6482D02*
G01X17672Y6466D01*
G01X17672Y6466D02*
G01X17704Y6435D01*
G01X17704Y6435D02*
G01X17720Y6387D01*
G01X17720Y6339D02*
G01X17720Y6387D01*
G01X17704Y6291D02*
G01X17720Y6339D01*
G01X17688Y6275D02*
G01X17704Y6291D01*
G01X17656Y6260D02*
G01X17688Y6275D01*
G04 draw value for part R3*
G01X17864Y5745D02*
G01X17880Y5745D01*
G01X17832Y5761D02*
G01X17864Y5745D01*
G01X17816Y5777D02*
G01X17832Y5761D01*
G01X17800Y5809D02*
G01X17816Y5777D01*
G01X17800Y5873D02*
G01X17800Y5809D01*
G01X17800Y5873D02*
G01X17816Y5905D01*
G01X17816Y5905D02*
G01X17832Y5920D01*
G01X17832Y5920D02*
G01X17864Y5936D01*
G01X17864Y5936D02*
G01X17896Y5936D01*
G01X17896Y5936D02*
G01X17928Y5920D01*
G01X17928Y5920D02*
G01X17975Y5889D01*
G01X17975Y5889D02*
G01X18135Y5730D01*
G01X18135Y5952D02*
G01X18135Y5730D01*
G01X17800Y6239D02*
G01X18023Y6080D01*
G01X18023Y6318D02*
G01X18023Y6080D01*
G01X17800Y6239D02*
G01X18135Y6239D01*
G01X17800Y6445D02*
G01X18135Y6445D01*
G01X17800Y6589D02*
G01X17800Y6445D01*
G01X17800Y6589D02*
G01X17816Y6636D01*
G01X17816Y6636D02*
G01X17832Y6652D01*
G01X17832Y6652D02*
G01X17864Y6668D01*
G01X17864Y6668D02*
G01X17896Y6668D01*
G01X17896Y6668D02*
G01X17928Y6652D01*
G01X17928Y6652D02*
G01X17944Y6636D01*
G01X17944Y6636D02*
G01X17960Y6589D01*
G01X17960Y6445D02*
G01X17960Y6589D01*
G01X17960Y6557D02*
G01X18135Y6668D01*
G04 Draw part R4*
G04 draw part outline for part R4*
G01X18173Y1766D02*
G01X16047Y1766D01*
G01X16047Y1766D02*
G01X16047Y2633D01*
G01X16047Y2633D02*
G01X18173Y2633D01*
G01X18173Y2633D02*
G01X18173Y1766D01*
G04 draw reference designator for part R4*
G01X16790Y2534D02*
G01X16790Y2200D01*
G01X16933Y2534D02*
G01X16790Y2534D01*
G01X16933Y2534D02*
G01X16980Y2518D01*
G01X16980Y2518D02*
G01X16996Y2502D01*
G01X16996Y2502D02*
G01X17012Y2470D01*
G01X17012Y2470D02*
G01X17012Y2438D01*
G01X17012Y2438D02*
G01X16996Y2406D01*
G01X16996Y2406D02*
G01X16980Y2390D01*
G01X16980Y2390D02*
G01X16933Y2375D01*
G01X16790Y2375D02*
G01X16933Y2375D01*
G01X16901Y2375D02*
G01X17012Y2200D01*
G01X17299Y2534D02*
G01X17140Y2311D01*
G01X17378Y2311D02*
G01X17140Y2311D01*
G01X17299Y2534D02*
G01X17299Y2200D01*
G04 draw value for part R4*
G01X16675Y1999D02*
G01X16675Y1983D01*
G01X16691Y2031D02*
G01X16675Y1999D01*
G01X16707Y2047D02*
G01X16691Y2031D01*
G01X16739Y2063D02*
G01X16707Y2047D01*
G01X16803Y2063D02*
G01X16739Y2063D01*
G01X16803Y2063D02*
G01X16835Y2047D01*
G01X16835Y2047D02*
G01X16850Y2031D01*
G01X16850Y2031D02*
G01X16866Y1999D01*
G01X16866Y1999D02*
G01X16866Y1967D01*
G01X16866Y1967D02*
G01X16850Y1935D01*
G01X16850Y1935D02*
G01X16819Y1888D01*
G01X16819Y1888D02*
G01X16660Y1729D01*
G01X16882Y1729D02*
G01X16660Y1729D01*
G01X17169Y2063D02*
G01X17010Y1840D01*
G01X17248Y1840D02*
G01X17010Y1840D01*
G01X17169Y2063D02*
G01X17169Y1729D01*
G01X17375Y2063D02*
G01X17375Y1729D01*
G01X17519Y2063D02*
G01X17375Y2063D01*
G01X17519Y2063D02*
G01X17566Y2047D01*
G01X17566Y2047D02*
G01X17582Y2031D01*
G01X17582Y2031D02*
G01X17598Y1999D01*
G01X17598Y1999D02*
G01X17598Y1967D01*
G01X17598Y1967D02*
G01X17582Y1935D01*
G01X17582Y1935D02*
G01X17566Y1919D01*
G01X17566Y1919D02*
G01X17519Y1904D01*
G01X17375Y1904D02*
G01X17519Y1904D01*
G01X17487Y1904D02*
G01X17598Y1729D01*
G04 Draw part J2*
G04 draw part outline for part J2*
G01X19780Y8360D02*
G01X19780Y3360D01*
G01X19780Y3360D02*
G01X18780Y3360D01*
G01X18780Y3360D02*
G01X18780Y8360D01*
G01X18780Y8360D02*
G01X19780Y8360D01*
G04 draw reference designator for part J2*
G01X19089Y8794D02*
G01X19089Y8539D01*
G01X19089Y8539D02*
G01X19073Y8491D01*
G01X19073Y8491D02*
G01X19057Y8475D01*
G01X19057Y8475D02*
G01X19025Y8460D01*
G01X18993Y8460D02*
G01X19025Y8460D01*
G01X18961Y8475D02*
G01X18993Y8460D01*
G01X18945Y8491D02*
G01X18961Y8475D01*
G01X18930Y8539D02*
G01X18945Y8491D01*
G01X18930Y8571D02*
G01X18930Y8539D01*
G01X19232Y8730D02*
G01X19232Y8714D01*
G01X19248Y8762D02*
G01X19232Y8730D01*
G01X19264Y8778D02*
G01X19248Y8762D01*
G01X19295Y8794D02*
G01X19264Y8778D01*
G01X19359Y8794D02*
G01X19295Y8794D01*
G01X19359Y8794D02*
G01X19391Y8778D01*
G01X19391Y8778D02*
G01X19407Y8762D01*
G01X19407Y8762D02*
G01X19423Y8730D01*
G01X19423Y8730D02*
G01X19423Y8698D01*
G01X19423Y8698D02*
G01X19407Y8666D01*
G01X19407Y8666D02*
G01X19375Y8619D01*
G01X19375Y8619D02*
G01X19216Y8460D01*
G01X19439Y8460D02*
G01X19216Y8460D01*
G04 Draw part C7*
G04 draw part outline for part C7*
G01X16566Y8605D02*
G01X16566Y10102D01*
G01X16566Y10102D02*
G01X17353Y10102D01*
G01X17353Y10102D02*
G01X17353Y8605D01*
G01X17353Y8605D02*
G01X16566Y8605D01*
G04 draw reference designator for part C7*
G01X16623Y9252D02*
G01X16655Y9268D01*
G01X16591Y9220D02*
G01X16623Y9252D01*
G01X16575Y9189D02*
G01X16591Y9220D01*
G01X16575Y9125D02*
G01X16575Y9189D01*
G01X16575Y9125D02*
G01X16591Y9093D01*
G01X16591Y9093D02*
G01X16623Y9061D01*
G01X16623Y9061D02*
G01X16655Y9045D01*
G01X16655Y9045D02*
G01X16703Y9030D01*
G01X16703Y9030D02*
G01X16782Y9030D01*
G01X16782Y9030D02*
G01X16830Y9045D01*
G01X16830Y9045D02*
G01X16862Y9061D01*
G01X16862Y9061D02*
G01X16894Y9093D01*
G01X16894Y9093D02*
G01X16910Y9125D01*
G01X16910Y9189D02*
G01X16910Y9125D01*
G01X16894Y9220D02*
G01X16910Y9189D01*
G01X16862Y9252D02*
G01X16894Y9220D01*
G01X16830Y9268D02*
G01X16862Y9252D01*
G01X16575Y9618D02*
G01X16910Y9459D01*
G01X16575Y9618D02*
G01X16575Y9395D01*
G04 draw value for part C7*
G01X17073Y8611D02*
G01X17089Y8580D01*
G01X17025Y8659D02*
G01X17073Y8611D01*
G01X17025Y8659D02*
G01X17360Y8659D01*
G01X17025Y8882D02*
G01X17041Y8834D01*
G01X17041Y8834D02*
G01X17089Y8802D01*
G01X17089Y8802D02*
G01X17169Y8786D01*
G01X17169Y8786D02*
G01X17216Y8786D01*
G01X17216Y8786D02*
G01X17296Y8802D01*
G01X17296Y8802D02*
G01X17344Y8834D01*
G01X17344Y8834D02*
G01X17360Y8882D01*
G01X17360Y8914D02*
G01X17360Y8882D01*
G01X17344Y8961D02*
G01X17360Y8914D01*
G01X17296Y8993D02*
G01X17344Y8961D01*
G01X17216Y9009D02*
G01X17296Y8993D01*
G01X17169Y9009D02*
G01X17216Y9009D01*
G01X17089Y8993D02*
G01X17169Y9009D01*
G01X17041Y8961D02*
G01X17089Y8993D01*
G01X17025Y8914D02*
G01X17041Y8961D01*
G01X17025Y8882D02*
G01X17025Y8914D01*
G01X17025Y9232D02*
G01X17041Y9184D01*
G01X17041Y9184D02*
G01X17089Y9152D01*
G01X17089Y9152D02*
G01X17169Y9136D01*
G01X17169Y9136D02*
G01X17216Y9136D01*
G01X17216Y9136D02*
G01X17296Y9152D01*
G01X17296Y9152D02*
G01X17344Y9184D01*
G01X17344Y9184D02*
G01X17360Y9232D01*
G01X17360Y9264D02*
G01X17360Y9232D01*
G01X17344Y9311D02*
G01X17360Y9264D01*
G01X17296Y9343D02*
G01X17344Y9311D01*
G01X17216Y9359D02*
G01X17296Y9343D01*
G01X17169Y9359D02*
G01X17216Y9359D01*
G01X17089Y9343D02*
G01X17169Y9359D01*
G01X17041Y9311D02*
G01X17089Y9343D01*
G01X17025Y9264D02*
G01X17041Y9311D01*
G01X17025Y9232D02*
G01X17025Y9264D01*
G01X17137Y9486D02*
G01X17360Y9486D01*
G01X17153Y9534D02*
G01X17200Y9486D01*
G01X17137Y9566D02*
G01X17153Y9534D01*
G01X17137Y9614D02*
G01X17137Y9566D01*
G01X17137Y9614D02*
G01X17153Y9645D01*
G01X17153Y9645D02*
G01X17200Y9661D01*
G01X17200Y9661D02*
G01X17360Y9661D01*
G04 Draw part C8*
G04 draw part outline for part C8*
G01X14200Y8240D02*
G01X14200Y9990D01*
G01X14200Y9990D02*
G01X16000Y9990D01*
G01X16000Y9990D02*
G01X16000Y8240D01*
G01X16000Y8240D02*
G01X15650Y7990D01*
G01X15650Y7990D02*
G01X14550Y7990D01*
G01X14550Y7990D02*
G01X14200Y8240D01*
G04 draw reference designator for part C8*
G01X14972Y9276D02*
G01X14988Y9244D01*
G01X14940Y9308D02*
G01X14972Y9276D01*
G01X14909Y9324D02*
G01X14940Y9308D01*
G01X14845Y9324D02*
G01X14909Y9324D01*
G01X14845Y9324D02*
G01X14813Y9308D01*
G01X14813Y9308D02*
G01X14781Y9276D01*
G01X14781Y9276D02*
G01X14765Y9244D01*
G01X14765Y9244D02*
G01X14750Y9196D01*
G01X14750Y9196D02*
G01X14750Y9117D01*
G01X14750Y9117D02*
G01X14765Y9069D01*
G01X14765Y9069D02*
G01X14781Y9037D01*
G01X14781Y9037D02*
G01X14813Y9005D01*
G01X14813Y9005D02*
G01X14845Y8990D01*
G01X14909Y8990D02*
G01X14845Y8990D01*
G01X14940Y9005D02*
G01X14909Y8990D01*
G01X14972Y9037D02*
G01X14940Y9005D01*
G01X14988Y9069D02*
G01X14972Y9037D01*
G01X15195Y9324D02*
G01X15147Y9308D01*
G01X15147Y9308D02*
G01X15131Y9276D01*
G01X15131Y9276D02*
G01X15131Y9244D01*
G01X15131Y9244D02*
G01X15147Y9212D01*
G01X15147Y9212D02*
G01X15179Y9196D01*
G01X15179Y9196D02*
G01X15243Y9180D01*
G01X15243Y9180D02*
G01X15290Y9165D01*
G01X15290Y9165D02*
G01X15322Y9133D01*
G01X15322Y9133D02*
G01X15338Y9101D01*
G01X15338Y9101D02*
G01X15338Y9053D01*
G01X15338Y9053D02*
G01X15322Y9021D01*
G01X15322Y9021D02*
G01X15306Y9005D01*
G01X15306Y9005D02*
G01X15259Y8990D01*
G01X15195Y8990D02*
G01X15259Y8990D01*
G01X15147Y9005D02*
G01X15195Y8990D01*
G01X15131Y9021D02*
G01X15147Y9005D01*
G01X15115Y9053D02*
G01X15131Y9021D01*
G01X15115Y9101D02*
G01X15115Y9053D01*
G01X15131Y9133D02*
G01X15115Y9101D01*
G01X15163Y9165D02*
G01X15131Y9133D01*
G01X15211Y9180D02*
G01X15163Y9165D01*
G01X15275Y9196D02*
G01X15211Y9180D01*
G01X15306Y9212D02*
G01X15275Y9196D01*
G01X15322Y9244D02*
G01X15306Y9212D01*
G01X15322Y9276D02*
G01X15322Y9244D01*
G01X15306Y9308D02*
G01X15322Y9276D01*
G01X15259Y9324D02*
G01X15306Y9308D01*
G01X15195Y9324D02*
G01X15259Y9324D01*
G04 draw value for part C8*
G01X14568Y8775D02*
G01X14537Y8759D01*
G01X14616Y8823D02*
G01X14568Y8775D01*
G01X14616Y8823D02*
G01X14616Y8489D01*
G01X14839Y8823D02*
G01X14791Y8807D01*
G01X14791Y8807D02*
G01X14759Y8759D01*
G01X14759Y8759D02*
G01X14743Y8679D01*
G01X14743Y8679D02*
G01X14743Y8632D01*
G01X14743Y8632D02*
G01X14759Y8552D01*
G01X14759Y8552D02*
G01X14791Y8504D01*
G01X14791Y8504D02*
G01X14839Y8489D01*
G01X14871Y8489D02*
G01X14839Y8489D01*
G01X14918Y8504D02*
G01X14871Y8489D01*
G01X14950Y8552D02*
G01X14918Y8504D01*
G01X14966Y8632D02*
G01X14950Y8552D01*
G01X14966Y8679D02*
G01X14966Y8632D01*
G01X14950Y8759D02*
G01X14966Y8679D01*
G01X14918Y8807D02*
G01X14950Y8759D01*
G01X14871Y8823D02*
G01X14918Y8807D01*
G01X14839Y8823D02*
G01X14871Y8823D01*
G01X15189Y8823D02*
G01X15141Y8807D01*
G01X15141Y8807D02*
G01X15109Y8759D01*
G01X15109Y8759D02*
G01X15093Y8679D01*
G01X15093Y8679D02*
G01X15093Y8632D01*
G01X15093Y8632D02*
G01X15109Y8552D01*
G01X15109Y8552D02*
G01X15141Y8504D01*
G01X15141Y8504D02*
G01X15189Y8489D01*
G01X15221Y8489D02*
G01X15189Y8489D01*
G01X15268Y8504D02*
G01X15221Y8489D01*
G01X15300Y8552D02*
G01X15268Y8504D01*
G01X15316Y8632D02*
G01X15300Y8552D01*
G01X15316Y8679D02*
G01X15316Y8632D01*
G01X15300Y8759D02*
G01X15316Y8679D01*
G01X15268Y8807D02*
G01X15300Y8759D01*
G01X15221Y8823D02*
G01X15268Y8807D01*
G01X15189Y8823D02*
G01X15221Y8823D01*
G01X15443Y8711D02*
G01X15443Y8552D01*
G01X15443Y8552D02*
G01X15459Y8504D01*
G01X15459Y8504D02*
G01X15491Y8489D01*
G01X15539Y8489D02*
G01X15491Y8489D01*
G01X15571Y8504D02*
G01X15539Y8489D01*
G01X15618Y8552D02*
G01X15571Y8504D01*
G01X15618Y8711D02*
G01X15618Y8489D01*
G04 Draw part J3*
G04 draw part outline for part J3*
G01X16840Y7200D02*
G01X16840Y4200D01*
G01X16840Y4200D02*
G01X15840Y4200D01*
G01X15840Y4200D02*
G01X15840Y7200D01*
G01X15840Y7200D02*
G01X16840Y7200D01*
G04 draw reference designator for part J3*
G01X16239Y6354D02*
G01X16239Y6099D01*
G01X16239Y6099D02*
G01X16223Y6051D01*
G01X16223Y6051D02*
G01X16207Y6035D01*
G01X16207Y6035D02*
G01X16175Y6020D01*
G01X16143Y6020D02*
G01X16175Y6020D01*
G01X16111Y6035D02*
G01X16143Y6020D01*
G01X16095Y6051D02*
G01X16111Y6035D01*
G01X16080Y6099D02*
G01X16095Y6051D01*
G01X16080Y6131D02*
G01X16080Y6099D01*
G01X16573Y6354D02*
G01X16398Y6354D01*
G01X16573Y6354D02*
G01X16477Y6226D01*
G01X16525Y6226D02*
G01X16477Y6226D01*
G01X16525Y6226D02*
G01X16557Y6210D01*
G01X16557Y6210D02*
G01X16573Y6195D01*
G01X16573Y6195D02*
G01X16589Y6147D01*
G01X16589Y6147D02*
G01X16589Y6115D01*
G01X16589Y6115D02*
G01X16573Y6067D01*
G01X16573Y6067D02*
G01X16541Y6035D01*
G01X16541Y6035D02*
G01X16493Y6020D01*
G01X16445Y6020D02*
G01X16493Y6020D01*
G01X16398Y6035D02*
G01X16445Y6020D01*
G01X16382Y6051D02*
G01X16398Y6035D01*
G01X16366Y6083D02*
G01X16382Y6051D01*
G04 Draw part J4*
G04 draw part outline for part J4*
G01X7420Y7200D02*
G01X7420Y4200D01*
G01X7420Y4200D02*
G01X6420Y4200D01*
G01X6420Y4200D02*
G01X6420Y7200D01*
G01X6420Y7200D02*
G01X7420Y7200D01*
G04 draw reference designator for part J4*
G01X6779Y6334D02*
G01X6779Y6079D01*
G01X6779Y6079D02*
G01X6763Y6031D01*
G01X6763Y6031D02*
G01X6747Y6015D01*
G01X6747Y6015D02*
G01X6715Y6000D01*
G01X6683Y6000D02*
G01X6715Y6000D01*
G01X6651Y6015D02*
G01X6683Y6000D01*
G01X6635Y6031D02*
G01X6651Y6015D01*
G01X6620Y6079D02*
G01X6635Y6031D01*
G01X6620Y6111D02*
G01X6620Y6079D01*
G01X7065Y6334D02*
G01X6906Y6111D01*
G01X7145Y6111D02*
G01X6906Y6111D01*
G01X7065Y6334D02*
G01X7065Y6000D01*
G04 Draw part U2*
G04 draw part outline for part U2*
G54D12*
G01X9330Y6500D02*
G01X13930Y6500D01*
G01X13930Y6500D02*
G01X13930Y8900D01*
G01X13930Y8900D02*
G01X9330Y8900D01*
G01X9330Y8900D02*
G01X9330Y6500D01*
G01X9630Y6500D02*
G01X9630Y8900D01*
G04 draw reference designator for part U2*
G54D11*
G01X11130Y8679D02*
G01X11130Y8372D01*
G01X11130Y8372D02*
G01X11150Y8311D01*
G01X11150Y8311D02*
G01X11191Y8270D01*
G01X11191Y8270D02*
G01X11252Y8250D01*
G01X11293Y8250D02*
G01X11252Y8250D01*
G01X11355Y8270D02*
G01X11293Y8250D01*
G01X11395Y8311D02*
G01X11355Y8270D01*
G01X11416Y8372D02*
G01X11395Y8311D01*
G01X11416Y8679D02*
G01X11416Y8372D01*
G01X11600Y8597D02*
G01X11600Y8577D01*
G01X11620Y8638D02*
G01X11600Y8597D01*
G01X11641Y8659D02*
G01X11620Y8638D01*
G01X11682Y8679D02*
G01X11641Y8659D01*
G01X11764Y8679D02*
G01X11682Y8679D01*
G01X11764Y8679D02*
G01X11805Y8659D01*
G01X11805Y8659D02*
G01X11825Y8638D01*
G01X11825Y8638D02*
G01X11845Y8597D01*
G01X11845Y8597D02*
G01X11845Y8556D01*
G01X11845Y8556D02*
G01X11825Y8515D01*
G01X11825Y8515D02*
G01X11784Y8454D01*
G01X11784Y8454D02*
G01X11580Y8250D01*
G01X11866Y8250D02*
G01X11580Y8250D01*
G04 draw value for part U2*
G01X9976Y7862D02*
G01X9813Y7433D01*
G01X9976Y7862D02*
G01X10140Y7433D01*
G01X10078Y7576D02*
G01X9874Y7576D01*
G01X10303Y7862D02*
G01X10303Y7433D01*
G01X10303Y7862D02*
G01X10467Y7433D01*
G01X10631Y7862D02*
G01X10467Y7433D01*
G01X10631Y7862D02*
G01X10631Y7433D01*
G01X10835Y7801D02*
G01X10794Y7780D01*
G01X10897Y7862D02*
G01X10835Y7801D01*
G01X10897Y7862D02*
G01X10897Y7433D01*
G01X11306Y7842D02*
G01X11347Y7801D01*
G01X11244Y7862D02*
G01X11306Y7842D01*
G01X11163Y7862D02*
G01X11244Y7862D01*
G01X11163Y7862D02*
G01X11101Y7842D01*
G01X11101Y7842D02*
G01X11060Y7801D01*
G01X11060Y7801D02*
G01X11060Y7760D01*
G01X11060Y7760D02*
G01X11081Y7719D01*
G01X11081Y7719D02*
G01X11101Y7698D01*
G01X11101Y7698D02*
G01X11142Y7678D01*
G01X11142Y7678D02*
G01X11265Y7637D01*
G01X11265Y7637D02*
G01X11306Y7617D01*
G01X11306Y7617D02*
G01X11326Y7596D01*
G01X11326Y7596D02*
G01X11347Y7555D01*
G01X11347Y7555D02*
G01X11347Y7494D01*
G01X11347Y7494D02*
G01X11306Y7453D01*
G01X11306Y7453D02*
G01X11244Y7433D01*
G01X11163Y7433D02*
G01X11244Y7433D01*
G01X11101Y7453D02*
G01X11163Y7433D01*
G01X11060Y7494D02*
G01X11101Y7453D01*
G01X11878Y7617D02*
G01X11510Y7617D01*
G01X12165Y7862D02*
G01X12103Y7842D01*
G01X12103Y7842D02*
G01X12063Y7780D01*
G01X12063Y7780D02*
G01X12042Y7678D01*
G01X12042Y7678D02*
G01X12042Y7617D01*
G01X12042Y7617D02*
G01X12063Y7514D01*
G01X12063Y7514D02*
G01X12103Y7453D01*
G01X12103Y7453D02*
G01X12165Y7433D01*
G01X12206Y7433D02*
G01X12165Y7433D01*
G01X12267Y7453D02*
G01X12206Y7433D01*
G01X12308Y7514D02*
G01X12267Y7453D01*
G01X12328Y7617D02*
G01X12308Y7514D01*
G01X12328Y7678D02*
G01X12328Y7617D01*
G01X12308Y7780D02*
G01X12328Y7678D01*
G01X12267Y7842D02*
G01X12308Y7780D01*
G01X12206Y7862D02*
G01X12267Y7842D01*
G01X12165Y7862D02*
G01X12206Y7862D01*
G01X12533Y7862D02*
G01X12738Y7862D01*
G01X12533Y7862D02*
G01X12513Y7678D01*
G01X12533Y7698D02*
G01X12513Y7678D01*
G01X12594Y7719D02*
G01X12533Y7698D01*
G01X12656Y7719D02*
G01X12594Y7719D01*
G01X12656Y7719D02*
G01X12717Y7698D01*
G01X12717Y7698D02*
G01X12758Y7658D01*
G01X12758Y7658D02*
G01X12778Y7596D01*
G01X12778Y7596D02*
G01X12778Y7555D01*
G01X12778Y7555D02*
G01X12758Y7494D01*
G01X12758Y7494D02*
G01X12717Y7453D01*
G01X12717Y7453D02*
G01X12656Y7433D01*
G01X12594Y7433D02*
G01X12656Y7433D01*
G01X12533Y7453D02*
G01X12594Y7433D01*
G01X12513Y7473D02*
G01X12533Y7453D01*
G01X12492Y7514D02*
G01X12513Y7473D01*
G01X13065Y7862D02*
G01X13003Y7842D01*
G01X13003Y7842D02*
G01X12963Y7780D01*
G01X12963Y7780D02*
G01X12942Y7678D01*
G01X12942Y7678D02*
G01X12942Y7617D01*
G01X12942Y7617D02*
G01X12963Y7514D01*
G01X12963Y7514D02*
G01X13003Y7453D01*
G01X13003Y7453D02*
G01X13065Y7433D01*
G01X13106Y7433D02*
G01X13065Y7433D01*
G01X13167Y7453D02*
G01X13106Y7433D01*
G01X13208Y7514D02*
G01X13167Y7453D01*
G01X13228Y7617D02*
G01X13208Y7514D01*
G01X13228Y7678D02*
G01X13228Y7617D01*
G01X13208Y7780D02*
G01X13228Y7678D01*
G01X13167Y7842D02*
G01X13208Y7780D01*
G01X13106Y7862D02*
G01X13167Y7842D01*
G01X13065Y7862D02*
G01X13106Y7862D01*
G01X13433Y7862D02*
G01X13637Y7862D01*
G01X13433Y7862D02*
G01X13412Y7678D01*
G01X13433Y7698D02*
G01X13412Y7678D01*
G01X13494Y7719D02*
G01X13433Y7698D01*
G01X13556Y7719D02*
G01X13494Y7719D01*
G01X13556Y7719D02*
G01X13617Y7698D01*
G01X13617Y7698D02*
G01X13658Y7658D01*
G01X13658Y7658D02*
G01X13678Y7596D01*
G01X13678Y7596D02*
G01X13678Y7555D01*
G01X13678Y7555D02*
G01X13658Y7494D01*
G01X13658Y7494D02*
G01X13617Y7453D01*
G01X13617Y7453D02*
G01X13556Y7433D01*
G01X13494Y7433D02*
G01X13556Y7433D01*
G01X13433Y7453D02*
G01X13494Y7433D01*
G01X13412Y7473D02*
G01X13433Y7453D01*
G01X13392Y7514D02*
G01X13412Y7473D01*

G04 Draw traces*

G04 Draw Text*
M00*
M02*
