%TF.GenerationSoftware,KiCad,Pcbnew,7.0.5+dfsg-2*%
%TF.CreationDate,2023-06-29T11:13:59+01:00*%
%TF.ProjectId,test_gerbers,74657374-5f67-4657-9262-6572732e6b69,rev?*%
%TF.SameCoordinates,Original*%
%TF.FileFunction,Copper,L1,Top*%
%TF.FilePolarity,Positive*%
%FSLAX46Y46*%
G04 Gerber Fmt 4.6, Leading zero omitted, Abs format (unit mm)*
G04 Created by KiCad (PCBNEW 7.0.5+dfsg-2) date 2023-06-29 11:13:59*
%MOMM*%
%LPD*%
G01*
G04 APERTURE LIST*
G04 Aperture macros list*
%AMRoundRect*
0 Rectangle with rounded corners*
0 $1 Rounding radius*
0 $2 $3 $4 $5 $6 $7 $8 $9 X,Y pos of 4 corners*
0 Add a 4 corners polygon primitive as box body*
4,1,4,$2,$3,$4,$5,$6,$7,$8,$9,$2,$3,0*
0 Add four circle primitives for the rounded corners*
1,1,$1+$1,$2,$3*
1,1,$1+$1,$4,$5*
1,1,$1+$1,$6,$7*
1,1,$1+$1,$8,$9*
0 Add four rect primitives between the rounded corners*
20,1,$1+$1,$2,$3,$4,$5,0*
20,1,$1+$1,$4,$5,$6,$7,0*
20,1,$1+$1,$6,$7,$8,$9,0*
20,1,$1+$1,$8,$9,$2,$3,0*%
G04 Aperture macros list end*
M02*
%TA.AperFunction,SMDPad,CuDef*%
%ADD10RoundRect,0.150000X-0.825000X-0.150000X0.825000X-0.150000X0.825000X0.150000X-0.825000X0.150000X0*%
%TD*%
%TA.AperFunction,ViaPad*%
%ADD11C,0.800000*%
%TD*%
%TA.AperFunction,Conductor*%
%ADD12C,0.500000*%
%TD*%
%TA.AperFunction,Conductor*%
%ADD13C,1.000000*%
%TD*%
G04 APERTURE END LIST*
D10*
%TO.P,U1,1*%
%TO.N,N/C*%
X111525000Y-70190000D03*
%TO.P,U1,2*%
X111525000Y-71460000D03*
%TO.P,U1,3*%
X111525000Y-72730000D03*
%TO.P,U1,4*%
X111525000Y-74000000D03*
%TO.P,U1,5*%
X111525000Y-75270000D03*
%TO.P,U1,6*%
X111525000Y-76540000D03*
%TO.P,U1,7*%
X111525000Y-77810000D03*
%TO.P,U1,8*%
X116475000Y-77810000D03*
%TO.P,U1,9*%
X116475000Y-76540000D03*
%TO.P,U1,10*%
X116475000Y-75270000D03*
%TO.P,U1,11*%
X116475000Y-74000000D03*
%TO.P,U1,12*%
X116475000Y-72730000D03*
%TO.P,U1,13*%
X116475000Y-71460000D03*
%TO.P,U1,14*%
X116475000Y-70190000D03*
%TD*%
D11*
%TO.N,*%
X124000000Y-73000000D03*
%TD*%
D12*
%TO.N,*%
X121190000Y-70190000D02*
X124000000Y-73000000D01*
X116475000Y-70190000D02*
X121190000Y-70190000D01*
D13*
X138000000Y-55000000D02*
X134000000Y-55000000D01*
X138000000Y-65000000D02*
X138000000Y-60000000D01*
X138000000Y-60000000D02*
X138000000Y-55000000D01*
X134000000Y-65000000D02*
X138000000Y-65000000D01*
X134000000Y-55000000D02*
X134000000Y-60000000D01*
X134000000Y-60000000D02*
X134000000Y-65000000D01*
X127000000Y-65000000D02*
X131000000Y-65000000D01*
X127000000Y-55000000D02*
X127000000Y-60000000D01*
X127000000Y-60000000D02*
X127000000Y-65000000D01*
X120000000Y-65000000D02*
X124000000Y-65000000D01*
X120000000Y-55000000D02*
X120000000Y-60000000D01*
X120000000Y-60000000D02*
X120000000Y-65000000D01*
X113000000Y-60000000D02*
X115000000Y-60000000D01*
X113000000Y-55000000D02*
X113000000Y-60000000D01*
X113000000Y-60000000D02*
X113000000Y-65000000D01*
X113000000Y-55000000D02*
X117000000Y-55000000D01*
X113000000Y-65000000D02*
X117000000Y-65000000D01*
X110000000Y-55000000D02*
X110000000Y-65000000D01*
X105000000Y-65000000D02*
X105000000Y-60000000D01*
X105000000Y-60000000D02*
X105000000Y-55000000D01*
X110000000Y-60000000D02*
X105000000Y-60000000D01*
%TD*%
%TA.AperFunction,NonConductor*%
G36*
X140943039Y-52019685D02*
G01*
X140988794Y-52072489D01*
X141000000Y-52124000D01*
X141000000Y-90876000D01*
X140980315Y-90943039D01*
X140927511Y-90988794D01*
X140876000Y-91000000D01*
X104124000Y-91000000D01*
X104056961Y-90980315D01*
X104011206Y-90927511D01*
X104000000Y-90876000D01*
X104000000Y-78025701D01*
X110049500Y-78025701D01*
X110052401Y-78062567D01*
X110052402Y-78062573D01*
X110098254Y-78220393D01*
X110098255Y-78220396D01*
X110181917Y-78361862D01*
X110181923Y-78361870D01*
X110298129Y-78478076D01*
X110298133Y-78478079D01*
X110298135Y-78478081D01*
X110439602Y-78561744D01*
X110481224Y-78573836D01*
X110597426Y-78607597D01*
X110597429Y-78607597D01*
X110597431Y-78607598D01*
X110634306Y-78610500D01*
X110634314Y-78610500D01*
X112415686Y-78610500D01*
X112415694Y-78610500D01*
X112452569Y-78607598D01*
X112452571Y-78607597D01*
X112452573Y-78607597D01*
X112494191Y-78595505D01*
X112610398Y-78561744D01*
X112751865Y-78478081D01*
X112868081Y-78361865D01*
X112951744Y-78220398D01*
X112997598Y-78062569D01*
X113000499Y-78025701D01*
X114999500Y-78025701D01*
X115002401Y-78062567D01*
X115002402Y-78062573D01*
X115048254Y-78220393D01*
X115048255Y-78220396D01*
X115131917Y-78361862D01*
X115131923Y-78361870D01*
X115248129Y-78478076D01*
X115248133Y-78478079D01*
X115248135Y-78478081D01*
X115389602Y-78561744D01*
X115431224Y-78573836D01*
X115547426Y-78607597D01*
X115547429Y-78607597D01*
X115547431Y-78607598D01*
X115584306Y-78610500D01*
X115584314Y-78610500D01*
X117365686Y-78610500D01*
X117365694Y-78610500D01*
X117402569Y-78607598D01*
X117402571Y-78607597D01*
X117402573Y-78607597D01*
X117444191Y-78595505D01*
X117560398Y-78561744D01*
X117701865Y-78478081D01*
X117818081Y-78361865D01*
X117901744Y-78220398D01*
X117947598Y-78062569D01*
X117950500Y-78025694D01*
X117950500Y-77594306D01*
X117947598Y-77557431D01*
X117901744Y-77399602D01*
X117861382Y-77331353D01*
X117818084Y-77258139D01*
X117813301Y-77251974D01*
X117815745Y-77250077D01*
X117789142Y-77201358D01*
X117794126Y-77131666D01*
X117814932Y-77099291D01*
X117813301Y-77098026D01*
X117818077Y-77091868D01*
X117818081Y-77091865D01*
X117901744Y-76950398D01*
X117947598Y-76792569D01*
X117950500Y-76755694D01*
X117950500Y-76324306D01*
X117947598Y-76287431D01*
X117901744Y-76129602D01*
X117861382Y-76061353D01*
X117818084Y-75988139D01*
X117813301Y-75981974D01*
X117815745Y-75980077D01*
X117789142Y-75931358D01*
X117794126Y-75861666D01*
X117814932Y-75829291D01*
X117813301Y-75828026D01*
X117818077Y-75821868D01*
X117818081Y-75821865D01*
X117901744Y-75680398D01*
X117947598Y-75522569D01*
X117950500Y-75485694D01*
X117950500Y-75054306D01*
X117947598Y-75017431D01*
X117901744Y-74859602D01*
X117861382Y-74791353D01*
X117818084Y-74718139D01*
X117813301Y-74711974D01*
X117815745Y-74710077D01*
X117789142Y-74661358D01*
X117794126Y-74591666D01*
X117814932Y-74559291D01*
X117813301Y-74558026D01*
X117818077Y-74551868D01*
X117818081Y-74551865D01*
X117901744Y-74410398D01*
X117947598Y-74252569D01*
X117950500Y-74215694D01*
X117950500Y-73784306D01*
X117947598Y-73747431D01*
X117901744Y-73589602D01*
X117861382Y-73521353D01*
X117818084Y-73448139D01*
X117813301Y-73441974D01*
X117815745Y-73440077D01*
X117789142Y-73391358D01*
X117794126Y-73321666D01*
X117814932Y-73289291D01*
X117813301Y-73288026D01*
X117818077Y-73281868D01*
X117818081Y-73281865D01*
X117901744Y-73140398D01*
X117947598Y-72982569D01*
X117950500Y-72945694D01*
X117950500Y-72514306D01*
X117947598Y-72477431D01*
X117944795Y-72467784D01*
X117903926Y-72327112D01*
X117901744Y-72319602D01*
X117840385Y-72215849D01*
X117818084Y-72178139D01*
X117813301Y-72171974D01*
X117815745Y-72170077D01*
X117789142Y-72121358D01*
X117794126Y-72051666D01*
X117814932Y-72019291D01*
X117813301Y-72018026D01*
X117818077Y-72011868D01*
X117818081Y-72011865D01*
X117901744Y-71870398D01*
X117947598Y-71712569D01*
X117950500Y-71675694D01*
X117950500Y-71244306D01*
X117947598Y-71207431D01*
X117947597Y-71207426D01*
X117916124Y-71099095D01*
X117916323Y-71029225D01*
X117954265Y-70970555D01*
X118017904Y-70941712D01*
X118035200Y-70940500D01*
X120827770Y-70940500D01*
X120894809Y-70960185D01*
X120915451Y-70976819D01*
X123087228Y-73148595D01*
X123117478Y-73197958D01*
X123172818Y-73368277D01*
X123172821Y-73368284D01*
X123267467Y-73532216D01*
X123394128Y-73672887D01*
X123394129Y-73672888D01*
X123547265Y-73784148D01*
X123547270Y-73784151D01*
X123720192Y-73861142D01*
X123720197Y-73861144D01*
X123905354Y-73900500D01*
X123905355Y-73900500D01*
X124094644Y-73900500D01*
X124094646Y-73900500D01*
X124279803Y-73861144D01*
X124452730Y-73784151D01*
X124605871Y-73672888D01*
X124732533Y-73532216D01*
X124827179Y-73368284D01*
X124885674Y-73188256D01*
X124905460Y-73000000D01*
X124885674Y-72811744D01*
X124827179Y-72631716D01*
X124732533Y-72467784D01*
X124605871Y-72327112D01*
X124595536Y-72319603D01*
X124452734Y-72215851D01*
X124452729Y-72215848D01*
X124279807Y-72138857D01*
X124279803Y-72138856D01*
X124214669Y-72125011D01*
X124153188Y-72091818D01*
X124152770Y-72091402D01*
X121765729Y-69704361D01*
X121753949Y-69690730D01*
X121746482Y-69680701D01*
X121739612Y-69671472D01*
X121699885Y-69638137D01*
X121699587Y-69637886D01*
X121695612Y-69634244D01*
X121692690Y-69631322D01*
X121689779Y-69628410D01*
X121664736Y-69608609D01*
X121663338Y-69607470D01*
X121605214Y-69558698D01*
X121599180Y-69554729D01*
X121599212Y-69554680D01*
X121592853Y-69550628D01*
X121592822Y-69550679D01*
X121586680Y-69546891D01*
X121586678Y-69546890D01*
X121586677Y-69546889D01*
X121517872Y-69514804D01*
X121516252Y-69514019D01*
X121476512Y-69494061D01*
X121448433Y-69479960D01*
X121448431Y-69479959D01*
X121448430Y-69479959D01*
X121441645Y-69477489D01*
X121441665Y-69477433D01*
X121434549Y-69474959D01*
X121434531Y-69475015D01*
X121427674Y-69472743D01*
X121353328Y-69457391D01*
X121351569Y-69457001D01*
X121277718Y-69439499D01*
X121270547Y-69438661D01*
X121270553Y-69438601D01*
X121263055Y-69437835D01*
X121263050Y-69437895D01*
X121255860Y-69437265D01*
X121179968Y-69439474D01*
X121178165Y-69439500D01*
X117582328Y-69439500D01*
X117547733Y-69434576D01*
X117402573Y-69392402D01*
X117402567Y-69392401D01*
X117365701Y-69389500D01*
X117365694Y-69389500D01*
X115584306Y-69389500D01*
X115584298Y-69389500D01*
X115547432Y-69392401D01*
X115547426Y-69392402D01*
X115389606Y-69438254D01*
X115389603Y-69438255D01*
X115248137Y-69521917D01*
X115248129Y-69521923D01*
X115131923Y-69638129D01*
X115131917Y-69638137D01*
X115048255Y-69779603D01*
X115048254Y-69779606D01*
X115002402Y-69937426D01*
X115002401Y-69937432D01*
X114999500Y-69974298D01*
X114999500Y-70405701D01*
X115002401Y-70442567D01*
X115002402Y-70442573D01*
X115048254Y-70600393D01*
X115048255Y-70600396D01*
X115131917Y-70741862D01*
X115136702Y-70748031D01*
X115134256Y-70749927D01*
X115160857Y-70798642D01*
X115155873Y-70868334D01*
X115135069Y-70900703D01*
X115136702Y-70901969D01*
X115131917Y-70908137D01*
X115048255Y-71049603D01*
X115048254Y-71049606D01*
X115002402Y-71207426D01*
X115002401Y-71207432D01*
X114999500Y-71244298D01*
X114999500Y-71675701D01*
X115002401Y-71712567D01*
X115002402Y-71712573D01*
X115048254Y-71870393D01*
X115048255Y-71870396D01*
X115131917Y-72011862D01*
X115136702Y-72018031D01*
X115134256Y-72019927D01*
X115160857Y-72068642D01*
X115155873Y-72138334D01*
X115135069Y-72170703D01*
X115136702Y-72171969D01*
X115131917Y-72178137D01*
X115048255Y-72319603D01*
X115048254Y-72319606D01*
X115002402Y-72477426D01*
X115002401Y-72477432D01*
X114999500Y-72514298D01*
X114999500Y-72945701D01*
X115002401Y-72982567D01*
X115002402Y-72982573D01*
X115048254Y-73140393D01*
X115048255Y-73140396D01*
X115048256Y-73140398D01*
X115076559Y-73188256D01*
X115131917Y-73281862D01*
X115136702Y-73288031D01*
X115134256Y-73289927D01*
X115160857Y-73338642D01*
X115155873Y-73408334D01*
X115135069Y-73440703D01*
X115136702Y-73441969D01*
X115131917Y-73448137D01*
X115048255Y-73589603D01*
X115048254Y-73589606D01*
X115002402Y-73747426D01*
X115002401Y-73747432D01*
X114999500Y-73784298D01*
X114999500Y-74215701D01*
X115002401Y-74252567D01*
X115002402Y-74252573D01*
X115048254Y-74410393D01*
X115048255Y-74410396D01*
X115131917Y-74551862D01*
X115136702Y-74558031D01*
X115134256Y-74559927D01*
X115160857Y-74608642D01*
X115155873Y-74678334D01*
X115135069Y-74710703D01*
X115136702Y-74711969D01*
X115131917Y-74718137D01*
X115048255Y-74859603D01*
X115048254Y-74859606D01*
X115002402Y-75017426D01*
X115002401Y-75017432D01*
X114999500Y-75054298D01*
X114999500Y-75485701D01*
X115002401Y-75522567D01*
X115002402Y-75522573D01*
X115048254Y-75680393D01*
X115048255Y-75680396D01*
X115131917Y-75821862D01*
X115136702Y-75828031D01*
X115134256Y-75829927D01*
X115160857Y-75878642D01*
X115155873Y-75948334D01*
X115135069Y-75980703D01*
X115136702Y-75981969D01*
X115131917Y-75988137D01*
X115048255Y-76129603D01*
X115048254Y-76129606D01*
X115002402Y-76287426D01*
X115002401Y-76287432D01*
X114999500Y-76324298D01*
X114999500Y-76755701D01*
X115002401Y-76792567D01*
X115002402Y-76792573D01*
X115048254Y-76950393D01*
X115048255Y-76950396D01*
X115131917Y-77091862D01*
X115136702Y-77098031D01*
X115134256Y-77099927D01*
X115160857Y-77148642D01*
X115155873Y-77218334D01*
X115135069Y-77250703D01*
X115136702Y-77251969D01*
X115131917Y-77258137D01*
X115048255Y-77399603D01*
X115048254Y-77399606D01*
X115002402Y-77557426D01*
X115002401Y-77557432D01*
X114999500Y-77594298D01*
X114999500Y-78025701D01*
X113000499Y-78025701D01*
X113000500Y-78025694D01*
X113000500Y-77594306D01*
X112997598Y-77557431D01*
X112951744Y-77399602D01*
X112911382Y-77331353D01*
X112868084Y-77258139D01*
X112863301Y-77251974D01*
X112865745Y-77250077D01*
X112839142Y-77201358D01*
X112844126Y-77131666D01*
X112864932Y-77099291D01*
X112863301Y-77098026D01*
X112868077Y-77091868D01*
X112868081Y-77091865D01*
X112951744Y-76950398D01*
X112997598Y-76792569D01*
X113000500Y-76755694D01*
X113000500Y-76324306D01*
X112997598Y-76287431D01*
X112951744Y-76129602D01*
X112911382Y-76061353D01*
X112868084Y-75988139D01*
X112863301Y-75981974D01*
X112865745Y-75980077D01*
X112839142Y-75931358D01*
X112844126Y-75861666D01*
X112864932Y-75829291D01*
X112863301Y-75828026D01*
X112868077Y-75821868D01*
X112868081Y-75821865D01*
X112951744Y-75680398D01*
X112997598Y-75522569D01*
X113000500Y-75485694D01*
X113000500Y-75054306D01*
X112997598Y-75017431D01*
X112951744Y-74859602D01*
X112911382Y-74791353D01*
X112868084Y-74718139D01*
X112863301Y-74711974D01*
X112865745Y-74710077D01*
X112839142Y-74661358D01*
X112844126Y-74591666D01*
X112864932Y-74559291D01*
X112863301Y-74558026D01*
X112868077Y-74551868D01*
X112868081Y-74551865D01*
X112951744Y-74410398D01*
X112997598Y-74252569D01*
X113000500Y-74215694D01*
X113000500Y-73784306D01*
X112997598Y-73747431D01*
X112951744Y-73589602D01*
X112911382Y-73521353D01*
X112868084Y-73448139D01*
X112863301Y-73441974D01*
X112865745Y-73440077D01*
X112839142Y-73391358D01*
X112844126Y-73321666D01*
X112864932Y-73289291D01*
X112863301Y-73288026D01*
X112868077Y-73281868D01*
X112868081Y-73281865D01*
X112951744Y-73140398D01*
X112997598Y-72982569D01*
X113000500Y-72945694D01*
X113000500Y-72514306D01*
X112997598Y-72477431D01*
X112994795Y-72467784D01*
X112953926Y-72327112D01*
X112951744Y-72319602D01*
X112890385Y-72215849D01*
X112868084Y-72178139D01*
X112863301Y-72171974D01*
X112865745Y-72170077D01*
X112839142Y-72121358D01*
X112844126Y-72051666D01*
X112864932Y-72019291D01*
X112863301Y-72018026D01*
X112868077Y-72011868D01*
X112868081Y-72011865D01*
X112951744Y-71870398D01*
X112997598Y-71712569D01*
X113000500Y-71675694D01*
X113000500Y-71244306D01*
X112997598Y-71207431D01*
X112951744Y-71049602D01*
X112898863Y-70960185D01*
X112868084Y-70908139D01*
X112863301Y-70901974D01*
X112865745Y-70900077D01*
X112839142Y-70851358D01*
X112844126Y-70781666D01*
X112864932Y-70749291D01*
X112863301Y-70748026D01*
X112868077Y-70741868D01*
X112868081Y-70741865D01*
X112951744Y-70600398D01*
X112997598Y-70442569D01*
X113000500Y-70405694D01*
X113000500Y-69974306D01*
X112997598Y-69937431D01*
X112951744Y-69779602D01*
X112868081Y-69638135D01*
X112868079Y-69638133D01*
X112868076Y-69638129D01*
X112751870Y-69521923D01*
X112751862Y-69521917D01*
X112642754Y-69457391D01*
X112610398Y-69438256D01*
X112610397Y-69438255D01*
X112610396Y-69438255D01*
X112610393Y-69438254D01*
X112452573Y-69392402D01*
X112452567Y-69392401D01*
X112415701Y-69389500D01*
X112415694Y-69389500D01*
X110634306Y-69389500D01*
X110634298Y-69389500D01*
X110597432Y-69392401D01*
X110597426Y-69392402D01*
X110439606Y-69438254D01*
X110439603Y-69438255D01*
X110298137Y-69521917D01*
X110298129Y-69521923D01*
X110181923Y-69638129D01*
X110181917Y-69638137D01*
X110098255Y-69779603D01*
X110098254Y-69779606D01*
X110052402Y-69937426D01*
X110052401Y-69937432D01*
X110049500Y-69974298D01*
X110049500Y-70405701D01*
X110052401Y-70442567D01*
X110052402Y-70442573D01*
X110098254Y-70600393D01*
X110098255Y-70600396D01*
X110181917Y-70741862D01*
X110186702Y-70748031D01*
X110184256Y-70749927D01*
X110210857Y-70798642D01*
X110205873Y-70868334D01*
X110185069Y-70900703D01*
X110186702Y-70901969D01*
X110181917Y-70908137D01*
X110098255Y-71049603D01*
X110098254Y-71049606D01*
X110052402Y-71207426D01*
X110052401Y-71207432D01*
X110049500Y-71244298D01*
X110049500Y-71675701D01*
X110052401Y-71712567D01*
X110052402Y-71712573D01*
X110098254Y-71870393D01*
X110098255Y-71870396D01*
X110181917Y-72011862D01*
X110186702Y-72018031D01*
X110184256Y-72019927D01*
X110210857Y-72068642D01*
X110205873Y-72138334D01*
X110185069Y-72170703D01*
X110186702Y-72171969D01*
X110181917Y-72178137D01*
X110098255Y-72319603D01*
X110098254Y-72319606D01*
X110052402Y-72477426D01*
X110052401Y-72477432D01*
X110049500Y-72514298D01*
X110049500Y-72945701D01*
X110052401Y-72982567D01*
X110052402Y-72982573D01*
X110098254Y-73140393D01*
X110098255Y-73140396D01*
X110098256Y-73140398D01*
X110126559Y-73188256D01*
X110181917Y-73281862D01*
X110186702Y-73288031D01*
X110184256Y-73289927D01*
X110210857Y-73338642D01*
X110205873Y-73408334D01*
X110185069Y-73440703D01*
X110186702Y-73441969D01*
X110181917Y-73448137D01*
X110098255Y-73589603D01*
X110098254Y-73589606D01*
X110052402Y-73747426D01*
X110052401Y-73747432D01*
X110049500Y-73784298D01*
X110049500Y-74215701D01*
X110052401Y-74252567D01*
X110052402Y-74252573D01*
X110098254Y-74410393D01*
X110098255Y-74410396D01*
X110181917Y-74551862D01*
X110186702Y-74558031D01*
X110184256Y-74559927D01*
X110210857Y-74608642D01*
X110205873Y-74678334D01*
X110185069Y-74710703D01*
X110186702Y-74711969D01*
X110181917Y-74718137D01*
X110098255Y-74859603D01*
X110098254Y-74859606D01*
X110052402Y-75017426D01*
X110052401Y-75017432D01*
X110049500Y-75054298D01*
X110049500Y-75485701D01*
X110052401Y-75522567D01*
X110052402Y-75522573D01*
X110098254Y-75680393D01*
X110098255Y-75680396D01*
X110181917Y-75821862D01*
X110186702Y-75828031D01*
X110184256Y-75829927D01*
X110210857Y-75878642D01*
X110205873Y-75948334D01*
X110185069Y-75980703D01*
X110186702Y-75981969D01*
X110181917Y-75988137D01*
X110098255Y-76129603D01*
X110098254Y-76129606D01*
X110052402Y-76287426D01*
X110052401Y-76287432D01*
X110049500Y-76324298D01*
X110049500Y-76755701D01*
X110052401Y-76792567D01*
X110052402Y-76792573D01*
X110098254Y-76950393D01*
X110098255Y-76950396D01*
X110181917Y-77091862D01*
X110186702Y-77098031D01*
X110184256Y-77099927D01*
X110210857Y-77148642D01*
X110205873Y-77218334D01*
X110185069Y-77250703D01*
X110186702Y-77251969D01*
X110181917Y-77258137D01*
X110098255Y-77399603D01*
X110098254Y-77399606D01*
X110052402Y-77557426D01*
X110052401Y-77557432D01*
X110049500Y-77594298D01*
X110049500Y-78025701D01*
X104000000Y-78025701D01*
X104000000Y-65705937D01*
X104019685Y-65638898D01*
X104072489Y-65593143D01*
X104141647Y-65583199D01*
X104205203Y-65612224D01*
X104218086Y-65625167D01*
X104307132Y-65728893D01*
X104307134Y-65728895D01*
X104468037Y-65853445D01*
X104468038Y-65853445D01*
X104468042Y-65853448D01*
X104650729Y-65943060D01*
X104847715Y-65994063D01*
X105050936Y-66004369D01*
X105252071Y-65973556D01*
X105442887Y-65902886D01*
X105615571Y-65795252D01*
X105763053Y-65655059D01*
X105879295Y-65488049D01*
X105959540Y-65301058D01*
X106000500Y-65101741D01*
X106000500Y-61124500D01*
X106020185Y-61057461D01*
X106072989Y-61011706D01*
X106124500Y-61000500D01*
X108875500Y-61000500D01*
X108942539Y-61020185D01*
X108988294Y-61072989D01*
X108999500Y-61124500D01*
X108999500Y-65050743D01*
X109014925Y-65202439D01*
X109075837Y-65396579D01*
X109075844Y-65396594D01*
X109174589Y-65574499D01*
X109174592Y-65574504D01*
X109307132Y-65728893D01*
X109307134Y-65728895D01*
X109468037Y-65853445D01*
X109468038Y-65853445D01*
X109468042Y-65853448D01*
X109650729Y-65943060D01*
X109847715Y-65994063D01*
X110050936Y-66004369D01*
X110252071Y-65973556D01*
X110442887Y-65902886D01*
X110615571Y-65795252D01*
X110763053Y-65655059D01*
X110879295Y-65488049D01*
X110959540Y-65301058D01*
X111000500Y-65101741D01*
X111000500Y-65050942D01*
X111995631Y-65050942D01*
X112006957Y-65124877D01*
X112007354Y-65127991D01*
X112014925Y-65202437D01*
X112014926Y-65202440D01*
X112019749Y-65217814D01*
X112024003Y-65236147D01*
X112026442Y-65252064D01*
X112026443Y-65252068D01*
X112052427Y-65322232D01*
X112053441Y-65325198D01*
X112075841Y-65396588D01*
X112075842Y-65396589D01*
X112075843Y-65396592D01*
X112083657Y-65410670D01*
X112091517Y-65427777D01*
X112097111Y-65442881D01*
X112097114Y-65442887D01*
X112136694Y-65506390D01*
X112138288Y-65509096D01*
X112174589Y-65574499D01*
X112174592Y-65574503D01*
X112174593Y-65574504D01*
X112185078Y-65586718D01*
X112196222Y-65601894D01*
X112204745Y-65615567D01*
X112204745Y-65615568D01*
X112204748Y-65615571D01*
X112256315Y-65669819D01*
X112258392Y-65672118D01*
X112276203Y-65692865D01*
X112307132Y-65728894D01*
X112307133Y-65728895D01*
X112319869Y-65738753D01*
X112333844Y-65751379D01*
X112344940Y-65763052D01*
X112406340Y-65805789D01*
X112408873Y-65807648D01*
X112430502Y-65824390D01*
X112468042Y-65853448D01*
X112482515Y-65860547D01*
X112498726Y-65870090D01*
X112511951Y-65879295D01*
X112566924Y-65902886D01*
X112580696Y-65908796D01*
X112583547Y-65910105D01*
X112596267Y-65916345D01*
X112650724Y-65943058D01*
X112650726Y-65943058D01*
X112650729Y-65943060D01*
X112666316Y-65947095D01*
X112684128Y-65953182D01*
X112698942Y-65959540D01*
X112772265Y-65974607D01*
X112775260Y-65975302D01*
X112847711Y-65994062D01*
X112847715Y-65994063D01*
X112863807Y-65994879D01*
X112882480Y-65997257D01*
X112891413Y-65999093D01*
X112898258Y-66000500D01*
X112898259Y-66000500D01*
X112973071Y-66000500D01*
X112976211Y-66000580D01*
X113002842Y-66001930D01*
X113050936Y-66004369D01*
X113066856Y-66001930D01*
X113085633Y-66000500D01*
X117050743Y-66000500D01*
X117202439Y-65985074D01*
X117396579Y-65924162D01*
X117396580Y-65924161D01*
X117396588Y-65924159D01*
X117574502Y-65825409D01*
X117728895Y-65692866D01*
X117853448Y-65531958D01*
X117943060Y-65349271D01*
X117994063Y-65152285D01*
X117999202Y-65050942D01*
X118995631Y-65050942D01*
X119006957Y-65124877D01*
X119007354Y-65127991D01*
X119014925Y-65202437D01*
X119014926Y-65202440D01*
X119019749Y-65217814D01*
X119024003Y-65236147D01*
X119026442Y-65252064D01*
X119026443Y-65252068D01*
X119052427Y-65322232D01*
X119053441Y-65325198D01*
X119075841Y-65396588D01*
X119075842Y-65396589D01*
X119075843Y-65396592D01*
X119083657Y-65410670D01*
X119091517Y-65427777D01*
X119097111Y-65442881D01*
X119097114Y-65442887D01*
X119136694Y-65506390D01*
X119138288Y-65509096D01*
X119174589Y-65574499D01*
X119174592Y-65574503D01*
X119174593Y-65574504D01*
X119185078Y-65586718D01*
X119196222Y-65601894D01*
X119204745Y-65615567D01*
X119204745Y-65615568D01*
X119204748Y-65615571D01*
X119256315Y-65669819D01*
X119258392Y-65672118D01*
X119276203Y-65692865D01*
X119307132Y-65728894D01*
X119307133Y-65728895D01*
X119319869Y-65738753D01*
X119333844Y-65751379D01*
X119344940Y-65763052D01*
X119406340Y-65805789D01*
X119408873Y-65807648D01*
X119430502Y-65824390D01*
X119468042Y-65853448D01*
X119482515Y-65860547D01*
X119498726Y-65870090D01*
X119511951Y-65879295D01*
X119566924Y-65902886D01*
X119580696Y-65908796D01*
X119583547Y-65910105D01*
X119596267Y-65916345D01*
X119650724Y-65943058D01*
X119650726Y-65943058D01*
X119650729Y-65943060D01*
X119666316Y-65947095D01*
X119684128Y-65953182D01*
X119698942Y-65959540D01*
X119772265Y-65974607D01*
X119775260Y-65975302D01*
X119847711Y-65994062D01*
X119847715Y-65994063D01*
X119863807Y-65994879D01*
X119882480Y-65997257D01*
X119891413Y-65999093D01*
X119898258Y-66000500D01*
X119898259Y-66000500D01*
X119973071Y-66000500D01*
X119976211Y-66000580D01*
X120002842Y-66001930D01*
X120050936Y-66004369D01*
X120066856Y-66001930D01*
X120085633Y-66000500D01*
X124050743Y-66000500D01*
X124202439Y-65985074D01*
X124396579Y-65924162D01*
X124396580Y-65924161D01*
X124396588Y-65924159D01*
X124574502Y-65825409D01*
X124728895Y-65692866D01*
X124853448Y-65531958D01*
X124943060Y-65349271D01*
X124994063Y-65152285D01*
X124999202Y-65050942D01*
X125995631Y-65050942D01*
X126006957Y-65124877D01*
X126007354Y-65127991D01*
X126014925Y-65202437D01*
X126014926Y-65202440D01*
X126019749Y-65217814D01*
X126024003Y-65236147D01*
X126026442Y-65252064D01*
X126026443Y-65252068D01*
X126052427Y-65322232D01*
X126053441Y-65325198D01*
X126075841Y-65396588D01*
X126075842Y-65396589D01*
X126075843Y-65396592D01*
X126083657Y-65410670D01*
X126091517Y-65427777D01*
X126097111Y-65442881D01*
X126097114Y-65442887D01*
X126136694Y-65506390D01*
X126138288Y-65509096D01*
X126174589Y-65574499D01*
X126174592Y-65574503D01*
X126174593Y-65574504D01*
X126185078Y-65586718D01*
X126196222Y-65601894D01*
X126204745Y-65615567D01*
X126204745Y-65615568D01*
X126204748Y-65615571D01*
X126256315Y-65669819D01*
X126258392Y-65672118D01*
X126276203Y-65692865D01*
X126307132Y-65728894D01*
X126307133Y-65728895D01*
X126319869Y-65738753D01*
X126333844Y-65751379D01*
X126344940Y-65763052D01*
X126406340Y-65805789D01*
X126408873Y-65807648D01*
X126430502Y-65824390D01*
X126468042Y-65853448D01*
X126482515Y-65860547D01*
X126498726Y-65870090D01*
X126511951Y-65879295D01*
X126566924Y-65902886D01*
X126580696Y-65908796D01*
X126583547Y-65910105D01*
X126596267Y-65916345D01*
X126650724Y-65943058D01*
X126650726Y-65943058D01*
X126650729Y-65943060D01*
X126666316Y-65947095D01*
X126684128Y-65953182D01*
X126698942Y-65959540D01*
X126772265Y-65974607D01*
X126775260Y-65975302D01*
X126847711Y-65994062D01*
X126847715Y-65994063D01*
X126863807Y-65994879D01*
X126882480Y-65997257D01*
X126891413Y-65999093D01*
X126898258Y-66000500D01*
X126898259Y-66000500D01*
X126973071Y-66000500D01*
X126976211Y-66000580D01*
X127002842Y-66001930D01*
X127050936Y-66004369D01*
X127066856Y-66001930D01*
X127085633Y-66000500D01*
X131050743Y-66000500D01*
X131202439Y-65985074D01*
X131396579Y-65924162D01*
X131396580Y-65924161D01*
X131396588Y-65924159D01*
X131574502Y-65825409D01*
X131728895Y-65692866D01*
X131853448Y-65531958D01*
X131943060Y-65349271D01*
X131994063Y-65152285D01*
X131999202Y-65050942D01*
X132995631Y-65050942D01*
X133006957Y-65124877D01*
X133007354Y-65127991D01*
X133014925Y-65202437D01*
X133014926Y-65202440D01*
X133019749Y-65217814D01*
X133024003Y-65236147D01*
X133026442Y-65252064D01*
X133026443Y-65252068D01*
X133052427Y-65322232D01*
X133053441Y-65325198D01*
X133075841Y-65396588D01*
X133075842Y-65396589D01*
X133075843Y-65396592D01*
X133083657Y-65410670D01*
X133091517Y-65427777D01*
X133097111Y-65442881D01*
X133097114Y-65442887D01*
X133136694Y-65506390D01*
X133138288Y-65509096D01*
X133174589Y-65574499D01*
X133174592Y-65574503D01*
X133174593Y-65574504D01*
X133185078Y-65586718D01*
X133196222Y-65601894D01*
X133204745Y-65615567D01*
X133204745Y-65615568D01*
X133204748Y-65615571D01*
X133256315Y-65669819D01*
X133258392Y-65672118D01*
X133276203Y-65692865D01*
X133307132Y-65728894D01*
X133307133Y-65728895D01*
X133319869Y-65738753D01*
X133333844Y-65751379D01*
X133344940Y-65763052D01*
X133406340Y-65805789D01*
X133408873Y-65807648D01*
X133430502Y-65824390D01*
X133468042Y-65853448D01*
X133482515Y-65860547D01*
X133498726Y-65870090D01*
X133511951Y-65879295D01*
X133566924Y-65902886D01*
X133580696Y-65908796D01*
X133583547Y-65910105D01*
X133596267Y-65916345D01*
X133650724Y-65943058D01*
X133650726Y-65943058D01*
X133650729Y-65943060D01*
X133666316Y-65947095D01*
X133684128Y-65953182D01*
X133698942Y-65959540D01*
X133772265Y-65974607D01*
X133775260Y-65975302D01*
X133847711Y-65994062D01*
X133847715Y-65994063D01*
X133863807Y-65994879D01*
X133882480Y-65997257D01*
X133891413Y-65999093D01*
X133898258Y-66000500D01*
X133898259Y-66000500D01*
X133973071Y-66000500D01*
X133976211Y-66000580D01*
X134002842Y-66001930D01*
X134050936Y-66004369D01*
X134066856Y-66001930D01*
X134085633Y-66000500D01*
X137973071Y-66000500D01*
X137976211Y-66000580D01*
X138002842Y-66001930D01*
X138050936Y-66004369D01*
X138124895Y-65993038D01*
X138127992Y-65992643D01*
X138202438Y-65985074D01*
X138217811Y-65980250D01*
X138236149Y-65975995D01*
X138240620Y-65975310D01*
X138252071Y-65973556D01*
X138322266Y-65947558D01*
X138325150Y-65946572D01*
X138396588Y-65924159D01*
X138410670Y-65916341D01*
X138427782Y-65908479D01*
X138442887Y-65902886D01*
X138506421Y-65863283D01*
X138509041Y-65861741D01*
X138574502Y-65825409D01*
X138586724Y-65814915D01*
X138601898Y-65803773D01*
X138615571Y-65795252D01*
X138669835Y-65743668D01*
X138672098Y-65741624D01*
X138728895Y-65692866D01*
X138738750Y-65680133D01*
X138751374Y-65666161D01*
X138755810Y-65661942D01*
X138763053Y-65655059D01*
X138805817Y-65593616D01*
X138807600Y-65591186D01*
X138853448Y-65531958D01*
X138860549Y-65517479D01*
X138870092Y-65501269D01*
X138879295Y-65488049D01*
X138908822Y-65419241D01*
X138910085Y-65416493D01*
X138943060Y-65349271D01*
X138947098Y-65333672D01*
X138953191Y-65315851D01*
X138959538Y-65301062D01*
X138959540Y-65301058D01*
X138974607Y-65227730D01*
X138975299Y-65224749D01*
X138994063Y-65152285D01*
X138994879Y-65136193D01*
X138997258Y-65117516D01*
X139000500Y-65101742D01*
X139000500Y-65026928D01*
X139000580Y-65023788D01*
X139002992Y-64976210D01*
X139004369Y-64949064D01*
X139001930Y-64933142D01*
X139000500Y-64914366D01*
X139000500Y-55026928D01*
X139000580Y-55023788D01*
X139002992Y-54976210D01*
X139004369Y-54949064D01*
X138993039Y-54875113D01*
X138992643Y-54871999D01*
X138985074Y-54797563D01*
X138985072Y-54797556D01*
X138980251Y-54782189D01*
X138975994Y-54763849D01*
X138973556Y-54747929D01*
X138947553Y-54677720D01*
X138946565Y-54674825D01*
X138924159Y-54603412D01*
X138916339Y-54589324D01*
X138908482Y-54572225D01*
X138902886Y-54557113D01*
X138863296Y-54493597D01*
X138861725Y-54490929D01*
X138825409Y-54425498D01*
X138814921Y-54413281D01*
X138803773Y-54398100D01*
X138803489Y-54397645D01*
X138795252Y-54384429D01*
X138743701Y-54330197D01*
X138741600Y-54327872D01*
X138692873Y-54271112D01*
X138692868Y-54271108D01*
X138692866Y-54271105D01*
X138680126Y-54261243D01*
X138666155Y-54248620D01*
X138655063Y-54236950D01*
X138593647Y-54194202D01*
X138591116Y-54192343D01*
X138531961Y-54146553D01*
X138531957Y-54146551D01*
X138517496Y-54139458D01*
X138501270Y-54129906D01*
X138488051Y-54120706D01*
X138488049Y-54120705D01*
X138419286Y-54091196D01*
X138416468Y-54089901D01*
X138349271Y-54056940D01*
X138349269Y-54056939D01*
X138333680Y-54052903D01*
X138315864Y-54046813D01*
X138301061Y-54040461D01*
X138301059Y-54040460D01*
X138301058Y-54040460D01*
X138227765Y-54025398D01*
X138224716Y-54024690D01*
X138152281Y-54005936D01*
X138136189Y-54005119D01*
X138117523Y-54002742D01*
X138101743Y-53999500D01*
X138101741Y-53999500D01*
X138026929Y-53999500D01*
X138023789Y-53999420D01*
X137949064Y-53995631D01*
X137949060Y-53995631D01*
X137933143Y-53998070D01*
X137914367Y-53999500D01*
X134026929Y-53999500D01*
X134023789Y-53999420D01*
X133949065Y-53995631D01*
X133949058Y-53995631D01*
X133875124Y-54006957D01*
X133872010Y-54007354D01*
X133797566Y-54014925D01*
X133797557Y-54014927D01*
X133782187Y-54019749D01*
X133763858Y-54024003D01*
X133747929Y-54026444D01*
X133747926Y-54026445D01*
X133677773Y-54052425D01*
X133674802Y-54053441D01*
X133603412Y-54075840D01*
X133589322Y-54083661D01*
X133572220Y-54091518D01*
X133557118Y-54097111D01*
X133557108Y-54097116D01*
X133493626Y-54136685D01*
X133490919Y-54138278D01*
X133425506Y-54174585D01*
X133425499Y-54174590D01*
X133413278Y-54185081D01*
X133398114Y-54196216D01*
X133384430Y-54204746D01*
X133384427Y-54204749D01*
X133330200Y-54256295D01*
X133327870Y-54258400D01*
X133271108Y-54307129D01*
X133271102Y-54307136D01*
X133261243Y-54319872D01*
X133248631Y-54333832D01*
X133236949Y-54344938D01*
X133236948Y-54344939D01*
X133194215Y-54406335D01*
X133192356Y-54408865D01*
X133146550Y-54468043D01*
X133139452Y-54482513D01*
X133129907Y-54498728D01*
X133120706Y-54511948D01*
X133120705Y-54511949D01*
X133091199Y-54580704D01*
X133089888Y-54583556D01*
X133056939Y-54650729D01*
X133056938Y-54650733D01*
X133052901Y-54666324D01*
X133046815Y-54684129D01*
X133040461Y-54698937D01*
X133025399Y-54772225D01*
X133024689Y-54775285D01*
X133005936Y-54847716D01*
X133005119Y-54863811D01*
X133002743Y-54882474D01*
X132999499Y-54898261D01*
X132999499Y-54973071D01*
X132999419Y-54976210D01*
X132995631Y-55050934D01*
X132995631Y-55050936D01*
X132998070Y-55066856D01*
X132999500Y-55085633D01*
X132999500Y-59898259D01*
X132999499Y-64973071D01*
X132999419Y-64976211D01*
X132995631Y-65050933D01*
X132995631Y-65050942D01*
X131999202Y-65050942D01*
X132004369Y-64949064D01*
X131973556Y-64747929D01*
X131902886Y-64557113D01*
X131795252Y-64384429D01*
X131655059Y-64236947D01*
X131556587Y-64168409D01*
X131488050Y-64120705D01*
X131301056Y-64040459D01*
X131101741Y-63999500D01*
X128124500Y-63999500D01*
X128057461Y-63979815D01*
X128011706Y-63927011D01*
X128000500Y-63875500D01*
X128000500Y-54949256D01*
X127985074Y-54797560D01*
X127924162Y-54603420D01*
X127924160Y-54603416D01*
X127924159Y-54603412D01*
X127825409Y-54425498D01*
X127825408Y-54425497D01*
X127825407Y-54425495D01*
X127692867Y-54271106D01*
X127692865Y-54271104D01*
X127531962Y-54146554D01*
X127531959Y-54146553D01*
X127531958Y-54146552D01*
X127349271Y-54056940D01*
X127152285Y-54005937D01*
X127152287Y-54005937D01*
X126997158Y-53998070D01*
X126949064Y-53995631D01*
X126949063Y-53995631D01*
X126949061Y-53995631D01*
X126747936Y-54026442D01*
X126747924Y-54026445D01*
X126557118Y-54097111D01*
X126557111Y-54097115D01*
X126384432Y-54204745D01*
X126384427Y-54204749D01*
X126236949Y-54344938D01*
X126236947Y-54344940D01*
X126236947Y-54344941D01*
X126225774Y-54360994D01*
X126120705Y-54511949D01*
X126040459Y-54698943D01*
X125999500Y-54898258D01*
X125999500Y-64973070D01*
X125999420Y-64976210D01*
X125995631Y-65050935D01*
X125995631Y-65050942D01*
X124999202Y-65050942D01*
X125004369Y-64949064D01*
X124973556Y-64747929D01*
X124902886Y-64557113D01*
X124795252Y-64384429D01*
X124655059Y-64236947D01*
X124556587Y-64168409D01*
X124488050Y-64120705D01*
X124301056Y-64040459D01*
X124101741Y-63999500D01*
X121124500Y-63999500D01*
X121057461Y-63979815D01*
X121011706Y-63927011D01*
X121000500Y-63875500D01*
X121000500Y-54949256D01*
X120985074Y-54797560D01*
X120924162Y-54603420D01*
X120924160Y-54603416D01*
X120924159Y-54603412D01*
X120825409Y-54425498D01*
X120825408Y-54425497D01*
X120825407Y-54425495D01*
X120692867Y-54271106D01*
X120692865Y-54271104D01*
X120531962Y-54146554D01*
X120531959Y-54146553D01*
X120531958Y-54146552D01*
X120349271Y-54056940D01*
X120152285Y-54005937D01*
X120152287Y-54005937D01*
X119997158Y-53998070D01*
X119949064Y-53995631D01*
X119949063Y-53995631D01*
X119949061Y-53995631D01*
X119747936Y-54026442D01*
X119747924Y-54026445D01*
X119557118Y-54097111D01*
X119557111Y-54097115D01*
X119384432Y-54204745D01*
X119384427Y-54204749D01*
X119236949Y-54344938D01*
X119236947Y-54344940D01*
X119236947Y-54344941D01*
X119225774Y-54360994D01*
X119120705Y-54511949D01*
X119040459Y-54698943D01*
X118999500Y-54898258D01*
X118999500Y-64973070D01*
X118999420Y-64976210D01*
X118995631Y-65050935D01*
X118995631Y-65050942D01*
X117999202Y-65050942D01*
X118004369Y-64949064D01*
X117973556Y-64747929D01*
X117902886Y-64557113D01*
X117795252Y-64384429D01*
X117655059Y-64236947D01*
X117556587Y-64168409D01*
X117488050Y-64120705D01*
X117301056Y-64040459D01*
X117101741Y-63999500D01*
X114124500Y-63999500D01*
X114057461Y-63979815D01*
X114011706Y-63927011D01*
X114000500Y-63875500D01*
X114000500Y-61124500D01*
X114020185Y-61057461D01*
X114072989Y-61011706D01*
X114124500Y-61000500D01*
X115050743Y-61000500D01*
X115202439Y-60985074D01*
X115396579Y-60924162D01*
X115396580Y-60924161D01*
X115396588Y-60924159D01*
X115574502Y-60825409D01*
X115728895Y-60692866D01*
X115853448Y-60531958D01*
X115943060Y-60349271D01*
X115994063Y-60152285D01*
X116004369Y-59949064D01*
X115973556Y-59747929D01*
X115902886Y-59557113D01*
X115795252Y-59384429D01*
X115655059Y-59236947D01*
X115556587Y-59168409D01*
X115488050Y-59120705D01*
X115301056Y-59040459D01*
X115101741Y-58999500D01*
X114124500Y-58999500D01*
X114057461Y-58979815D01*
X114011706Y-58927011D01*
X114000500Y-58875500D01*
X114000500Y-56124500D01*
X114020185Y-56057461D01*
X114072989Y-56011706D01*
X114124500Y-56000500D01*
X117050743Y-56000500D01*
X117202439Y-55985074D01*
X117396579Y-55924162D01*
X117396580Y-55924161D01*
X117396588Y-55924159D01*
X117574502Y-55825409D01*
X117728895Y-55692866D01*
X117853448Y-55531958D01*
X117943060Y-55349271D01*
X117994063Y-55152285D01*
X118004369Y-54949064D01*
X117973556Y-54747929D01*
X117911623Y-54580704D01*
X117902888Y-54557118D01*
X117902887Y-54557117D01*
X117902886Y-54557113D01*
X117795252Y-54384429D01*
X117705638Y-54290156D01*
X117655061Y-54236949D01*
X117655060Y-54236948D01*
X117655059Y-54236947D01*
X117556587Y-54168409D01*
X117488050Y-54120705D01*
X117301056Y-54040459D01*
X117101741Y-53999500D01*
X113026929Y-53999500D01*
X113023789Y-53999420D01*
X112949065Y-53995631D01*
X112949058Y-53995631D01*
X112875124Y-54006957D01*
X112872010Y-54007354D01*
X112797566Y-54014925D01*
X112797557Y-54014927D01*
X112782187Y-54019749D01*
X112763858Y-54024003D01*
X112747929Y-54026444D01*
X112747926Y-54026445D01*
X112677773Y-54052425D01*
X112674802Y-54053441D01*
X112603412Y-54075840D01*
X112589322Y-54083661D01*
X112572220Y-54091518D01*
X112557118Y-54097111D01*
X112557108Y-54097116D01*
X112493626Y-54136685D01*
X112490919Y-54138278D01*
X112425506Y-54174585D01*
X112425499Y-54174590D01*
X112413278Y-54185081D01*
X112398114Y-54196216D01*
X112384430Y-54204746D01*
X112384427Y-54204749D01*
X112330200Y-54256295D01*
X112327870Y-54258400D01*
X112271108Y-54307129D01*
X112271102Y-54307136D01*
X112261243Y-54319872D01*
X112248631Y-54333832D01*
X112236949Y-54344938D01*
X112236948Y-54344939D01*
X112194215Y-54406335D01*
X112192356Y-54408865D01*
X112146550Y-54468043D01*
X112139452Y-54482513D01*
X112129907Y-54498728D01*
X112120706Y-54511948D01*
X112120705Y-54511949D01*
X112091199Y-54580704D01*
X112089888Y-54583556D01*
X112056939Y-54650729D01*
X112056938Y-54650733D01*
X112052901Y-54666324D01*
X112046815Y-54684129D01*
X112040461Y-54698937D01*
X112025399Y-54772225D01*
X112024689Y-54775285D01*
X112005936Y-54847716D01*
X112005119Y-54863811D01*
X112002743Y-54882474D01*
X111999500Y-54898260D01*
X111999500Y-54973070D01*
X111999420Y-54976210D01*
X111995631Y-55050935D01*
X111995631Y-55050939D01*
X111998070Y-55066857D01*
X111999500Y-55085633D01*
X111999500Y-59973070D01*
X111999420Y-59976210D01*
X111995631Y-60050935D01*
X111995631Y-60050936D01*
X111998070Y-60066857D01*
X111999500Y-60085633D01*
X111999500Y-64973070D01*
X111999420Y-64976210D01*
X111995631Y-65050935D01*
X111995631Y-65050942D01*
X111000500Y-65050942D01*
X111000500Y-60026928D01*
X111000580Y-60023788D01*
X111002992Y-59976210D01*
X111004369Y-59949064D01*
X111001930Y-59933142D01*
X111000500Y-59914366D01*
X111000500Y-54949256D01*
X110985074Y-54797560D01*
X110924162Y-54603420D01*
X110924160Y-54603416D01*
X110924159Y-54603412D01*
X110825409Y-54425498D01*
X110825408Y-54425497D01*
X110825407Y-54425495D01*
X110692867Y-54271106D01*
X110692865Y-54271104D01*
X110531962Y-54146554D01*
X110531959Y-54146553D01*
X110531958Y-54146552D01*
X110349271Y-54056940D01*
X110152285Y-54005937D01*
X110152287Y-54005937D01*
X109997158Y-53998070D01*
X109949064Y-53995631D01*
X109949063Y-53995631D01*
X109949061Y-53995631D01*
X109747936Y-54026442D01*
X109747924Y-54026445D01*
X109557118Y-54097111D01*
X109557111Y-54097115D01*
X109384432Y-54204745D01*
X109384427Y-54204749D01*
X109236949Y-54344938D01*
X109236947Y-54344940D01*
X109236947Y-54344941D01*
X109225774Y-54360994D01*
X109120705Y-54511949D01*
X109040459Y-54698943D01*
X108999499Y-54898258D01*
X108999500Y-58875500D01*
X108979815Y-58942539D01*
X108927011Y-58988294D01*
X108875500Y-58999500D01*
X106124500Y-58999500D01*
X106057461Y-58979815D01*
X106011706Y-58927011D01*
X106000500Y-58875500D01*
X106000500Y-54949256D01*
X105985074Y-54797560D01*
X105924162Y-54603420D01*
X105924160Y-54603416D01*
X105924159Y-54603412D01*
X105825409Y-54425498D01*
X105825408Y-54425497D01*
X105825407Y-54425495D01*
X105692867Y-54271106D01*
X105692865Y-54271104D01*
X105531962Y-54146554D01*
X105531959Y-54146553D01*
X105531958Y-54146552D01*
X105349271Y-54056940D01*
X105152285Y-54005937D01*
X105152287Y-54005937D01*
X104997158Y-53998070D01*
X104949064Y-53995631D01*
X104949063Y-53995631D01*
X104949061Y-53995631D01*
X104747936Y-54026442D01*
X104747924Y-54026445D01*
X104557118Y-54097111D01*
X104557111Y-54097115D01*
X104384432Y-54204745D01*
X104384427Y-54204749D01*
X104236949Y-54344938D01*
X104236946Y-54344942D01*
X104225774Y-54360994D01*
X104171320Y-54404772D01*
X104101842Y-54412160D01*
X104039399Y-54380813D01*
X104003816Y-54320682D01*
X104000000Y-54290156D01*
X104000000Y-52124000D01*
X104019685Y-52056961D01*
X104072489Y-52011206D01*
X104124000Y-52000000D01*
X140876000Y-52000000D01*
X140943039Y-52019685D01*
G37*
%TD.AperFunction*%
%TA.AperFunction,NonConductor*%
G36*
X136942539Y-56020185D02*
G01*
X136988294Y-56072989D01*
X136999500Y-56124500D01*
X136999500Y-63875500D01*
X136979815Y-63942539D01*
X136927011Y-63988294D01*
X136875500Y-63999500D01*
X135124500Y-63999500D01*
X135057461Y-63979815D01*
X135011706Y-63927011D01*
X135000500Y-63875500D01*
X135000500Y-56124500D01*
X135020185Y-56057461D01*
X135072989Y-56011706D01*
X135124500Y-56000500D01*
X136875500Y-56000500D01*
X136942539Y-56020185D01*
G37*
%TD.AperFunction*%
M02*
